<svg
	width="472"
	height="91"
	viewBox="0 0 472 91"
	fill="none"
	xmlns="http://www.w3.org/2000/svg"
>
	<g clip-path="url(#clip0_3312_809)">
		<g clip-path="url(#clip1_3312_809)">
			<path d="M315 0H224.375V90.625H315V0Z" fill="#3178C6" />
			<path
				fill-rule="evenodd"
				clip-rule="evenodd"
				d="M274.73 56.1503V66.4625C276.407 67.3219 278.389 67.9663 280.678 68.396C282.967 68.8257 285.38 69.0405 287.916 69.0405C290.388 69.0405 292.735 68.8043 294.96 68.3315C297.185 67.859 299.135 67.0801 300.811 65.9951C302.488 64.9104 303.815 63.4923 304.793 61.7413C305.771 59.9904 306.26 57.826 306.26 55.248C306.26 53.3788 305.98 51.7408 305.422 50.3336C304.863 48.9265 304.057 47.6751 303.004 46.5794C301.951 45.4837 300.688 44.5007 299.216 43.6306C297.743 42.7605 296.083 41.9388 294.235 41.1655C292.881 40.6068 291.666 40.0644 290.592 39.5381C289.517 39.0116 288.604 38.4746 287.851 37.9268C287.099 37.3789 286.519 36.7988 286.11 36.1866C285.702 35.5742 285.498 34.8814 285.498 34.1079C285.498 33.3991 285.681 32.7599 286.046 32.1905C286.411 31.6212 286.927 31.1325 287.593 30.7243C288.26 30.3162 289.076 29.9992 290.044 29.7736C291.011 29.548 292.085 29.4354 293.268 29.4354C294.127 29.4354 295.035 29.4998 295.992 29.6286C296.948 29.7575 297.91 29.9563 298.877 30.2247C299.844 30.4933 300.784 30.8318 301.698 31.2399C302.611 31.6481 303.455 32.1207 304.229 32.6579V23.0224C302.66 22.4209 300.946 21.9751 299.087 21.6851C297.228 21.395 295.094 21.25 292.687 21.25C290.237 21.25 287.916 21.5133 285.724 22.0396C283.531 22.5659 281.603 23.3876 279.937 24.5047C278.271 25.622 276.955 27.0452 275.988 28.7747C275.02 30.5041 274.537 32.5718 274.537 34.978C274.537 38.0502 275.423 40.6713 277.197 42.8412C278.97 45.011 281.661 46.8478 285.272 48.3518C286.691 48.9318 288.013 49.501 289.238 50.0597C290.463 50.6183 291.521 51.1984 292.413 51.7999C293.305 52.4014 294.009 53.0567 294.525 53.7657C295.041 54.4745 295.299 55.2801 295.299 56.1826C295.299 56.8486 295.137 57.4662 294.815 58.0355C294.493 58.6049 294.004 59.0989 293.348 59.5179C292.693 59.9368 291.876 60.2644 290.898 60.5006C289.92 60.7371 288.776 60.8552 287.464 60.8552C285.229 60.8552 283.016 60.4632 280.823 59.6789C278.631 58.8949 276.6 57.7187 274.73 56.1503ZM257.394 30.7426H270.623V22.28H233.75V30.7426H246.914V68.4225H257.394V30.7426Z"
				fill="white"
			/>
		</g>
		<path
			d="M3.53809 19.375H21.2334C24.1761 19.375 26.8975 19.7786 29.3975 20.5859C31.9235 21.3932 33.9548 22.7214 35.4912 24.5703C37.0537 26.3932 37.835 28.8672 37.835 31.9922C37.835 34.0495 37.4443 35.8854 36.6631 37.5C35.9079 39.1146 34.8923 40.4427 33.6162 41.4844C32.3662 42.5 30.999 43.1771 29.5147 43.5156C30.8167 43.6719 32.0798 44.0495 33.3037 44.6484C34.5537 45.2214 35.6735 46.0286 36.6631 47.0703C37.6787 48.0859 38.473 49.362 39.0459 50.8984C39.6449 52.4089 39.9443 54.2057 39.9443 56.2891C39.9443 59.1797 39.2933 61.7318 37.9912 63.9453C36.7152 66.1328 34.8402 67.8516 32.3662 69.1016C29.9183 70.3255 26.9105 70.9375 23.3428 70.9375H3.53809V19.375ZM15.2178 61.6016H20.5303C22.1969 61.6016 23.5511 61.3542 24.5928 60.8594C25.6605 60.3385 26.4417 59.6094 26.9365 58.6719C27.4313 57.7083 27.6787 56.5625 27.6787 55.2344C27.6787 53.151 27.0277 51.6276 25.7256 50.6641C24.4495 49.6745 22.6527 49.1797 20.335 49.1797H15.2178V61.6016ZM15.2178 40.0391H19.9443C21.3245 40.0391 22.4704 39.7917 23.3818 39.2969C24.3193 38.8021 25.0225 38.112 25.4912 37.2266C25.986 36.3151 26.2334 35.2734 26.2334 34.1016C26.2334 31.9922 25.6344 30.5729 24.4365 29.8437C23.2386 29.0885 21.598 28.7109 19.5146 28.7109H15.2178V40.0391ZM60.8892 71.875C57.3735 71.875 54.2485 71.1589 51.5142 69.7266C48.8058 68.2682 46.6704 66.276 45.1079 63.75C43.5715 61.1979 42.8032 58.2812 42.8032 55C42.8032 51.7187 43.5715 48.8021 45.1079 46.25C46.6704 43.6719 48.8058 41.6406 51.5142 40.1562C54.2485 38.6719 57.3735 37.9297 60.8892 37.9297C64.4048 37.9297 67.5037 38.6719 70.186 40.1562C72.8683 41.6406 74.9647 43.6719 76.4751 46.25C77.9855 48.8021 78.7407 51.7187 78.7407 55C78.7407 58.2812 77.9855 61.1979 76.4751 63.75C74.9647 66.276 72.8683 68.2682 70.186 69.7266C67.5037 71.1589 64.4048 71.875 60.8892 71.875ZM60.8892 62.1094C62.2433 62.1094 63.4152 61.8099 64.4048 61.2109C65.3944 60.612 66.1626 59.7656 66.7095 58.6719C67.2563 57.5781 67.5298 56.3411 67.5298 54.9609C67.5298 53.5547 67.2563 52.3047 66.7095 51.2109C66.1626 50.1172 65.3944 49.2578 64.4048 48.6328C63.4152 48.0078 62.2433 47.6953 60.8892 47.6953C59.535 47.6953 58.3501 48.0078 57.3345 48.6328C56.3449 49.2578 55.5636 50.1172 54.9907 51.2109C54.4438 52.3047 54.1704 53.5547 54.1704 54.9609C54.1704 56.3411 54.4438 57.5781 54.9907 58.6719C55.5636 59.7656 56.3449 60.612 57.3345 61.2109C58.3501 61.8099 59.535 62.1094 60.8892 62.1094ZM96.9518 37.9297C99.0612 37.9297 100.988 38.112 102.733 38.4766C104.478 38.8151 105.936 39.2057 107.108 39.6484C108.306 40.0911 109.074 40.4557 109.413 40.7422L105.546 47.7344C105.051 47.3698 104.126 46.901 102.772 46.3281C101.444 45.7552 99.9596 45.4687 98.319 45.4687C97.069 45.4687 96.0143 45.6641 95.1549 46.0547C94.2955 46.4193 93.8658 47.0052 93.8658 47.8125C93.8658 48.6198 94.3346 49.2708 95.2721 49.7656C96.2356 50.2344 97.6158 50.651 99.4127 51.0156C100.975 51.3281 102.564 51.8229 104.178 52.5C105.793 53.1771 107.134 54.1797 108.202 55.5078C109.296 56.8099 109.842 58.5547 109.842 60.7422C109.842 62.9818 109.361 64.8307 108.397 66.2891C107.434 67.7474 106.158 68.8802 104.569 69.6875C102.98 70.4948 101.262 71.0547 99.4127 71.3672C97.5638 71.7057 95.7669 71.875 94.0221 71.875C91.5742 71.875 89.4388 71.6536 87.6158 71.2109C85.819 70.7682 84.3606 70.2604 83.2408 69.6875C82.1211 69.1146 81.3398 68.6589 80.8971 68.3203L84.7252 60.5078C85.4023 61.0807 86.5091 61.7318 88.0455 62.4609C89.582 63.1641 91.2096 63.5156 92.9283 63.5156C94.595 63.5156 95.8841 63.2682 96.7955 62.7734C97.707 62.2786 98.1627 61.6276 98.1627 60.8203C98.1627 60.1693 97.9414 59.6484 97.4987 59.2578C97.0559 58.8672 96.4309 58.5286 95.6237 58.2422C94.8164 57.9557 93.8398 57.6953 92.694 57.4609C91.6523 57.2526 90.5455 56.9271 89.3737 56.4844C88.2018 56.0417 87.095 55.4427 86.0533 54.6875C85.0117 53.9062 84.1653 52.9297 83.5143 51.7578C82.8632 50.5859 82.5377 49.1667 82.5377 47.5C82.5377 45.3646 83.2278 43.5937 84.608 42.1875C85.9882 40.7812 87.7721 39.7266 89.9596 39.0234C92.1471 38.2943 94.4778 37.9297 96.9518 37.9297ZM110.534 38.8672H116.003V25.7031H127.76V38.8672H134.948V48.6328H127.76V57.5781C127.76 58.9062 127.956 59.987 128.346 60.8203C128.737 61.6276 129.453 62.0312 130.495 62.0312C131.198 62.0312 131.797 61.875 132.292 61.5625C132.787 61.25 133.086 61.0417 133.19 60.9375L137.253 69.375C137.07 69.5312 136.497 69.8177 135.534 70.2344C134.596 70.651 133.399 71.0286 131.94 71.3672C130.482 71.7057 128.854 71.875 127.057 71.875C123.854 71.875 121.211 70.9766 119.128 69.1797C117.044 67.3568 116.003 64.5573 116.003 60.7812V48.6328H110.534V38.8672ZM155.634 71.875C152.118 71.875 148.993 71.1589 146.259 69.7266C143.551 68.2682 141.415 66.276 139.853 63.75C138.316 61.1979 137.548 58.2812 137.548 55C137.548 51.7187 138.316 48.8021 139.853 46.25C141.415 43.6719 143.551 41.6406 146.259 40.1562C148.993 38.6719 152.118 37.9297 155.634 37.9297C159.15 37.9297 162.249 38.6719 164.931 40.1562C167.613 41.6406 169.71 43.6719 171.22 46.25C172.73 48.8021 173.486 51.7187 173.486 55C173.486 58.2812 172.73 61.1979 171.22 63.75C169.71 66.276 167.613 68.2682 164.931 69.7266C162.249 71.1589 159.15 71.875 155.634 71.875ZM155.634 62.1094C156.988 62.1094 158.16 61.8099 159.15 61.2109C160.139 60.612 160.907 59.7656 161.454 58.6719C162.001 57.5781 162.275 56.3411 162.275 54.9609C162.275 53.5547 162.001 52.3047 161.454 51.2109C160.907 50.1172 160.139 49.2578 159.15 48.6328C158.16 48.0078 156.988 47.6953 155.634 47.6953C154.28 47.6953 153.095 48.0078 152.079 48.6328C151.09 49.2578 150.309 50.1172 149.736 51.2109C149.189 52.3047 148.915 53.5547 148.915 54.9609C148.915 56.3411 149.189 57.5781 149.736 58.6719C150.309 59.7656 151.09 60.612 152.079 61.2109C153.095 61.8099 154.28 62.1094 155.634 62.1094ZM199.392 37.9297C201.632 37.9297 203.819 38.3854 205.954 39.2969C208.09 40.2083 209.848 41.6536 211.228 43.6328C212.608 45.5859 213.298 48.1641 213.298 51.3672V70.9375H201.384V53.3203C201.384 51.0286 200.837 49.3099 199.744 48.1641C198.65 46.9922 197.217 46.4062 195.447 46.4062C194.275 46.4062 193.168 46.7187 192.126 47.3437C191.111 47.9427 190.277 48.8021 189.626 49.9219C189.001 51.0156 188.689 52.2786 188.689 53.7109V70.9375H176.814V38.8672H188.689V43.5937C189.001 42.7344 189.652 41.875 190.642 41.0156C191.658 40.1302 192.921 39.401 194.431 38.8281C195.967 38.2292 197.621 37.9297 199.392 37.9297ZM355.112 60.3125C357.508 60.3125 359.682 59.9609 361.636 59.2578C363.615 58.5547 365.086 57.8646 366.05 57.1875L371.05 67.1094C369.826 68.151 367.729 69.2057 364.761 70.2734C361.818 71.3411 358.315 71.875 354.253 71.875C350.451 71.875 346.883 71.2109 343.55 69.8828C340.216 68.5547 337.274 66.6927 334.722 64.2969C332.196 61.875 330.203 59.0495 328.745 55.8203C327.313 52.5651 326.597 49.0365 326.597 45.2344C326.597 41.4323 327.313 37.9036 328.745 34.6484C330.177 31.3672 332.156 28.5156 334.682 26.0937C337.235 23.6719 340.177 21.7969 343.511 20.4687C346.87 19.1146 350.451 18.4375 354.253 18.4375C358.315 18.4375 361.818 18.9714 364.761 20.0391C367.729 21.1068 369.826 22.1615 371.05 23.2031L366.05 33.125C365.086 32.4219 363.615 31.7318 361.636 31.0547C359.682 30.3516 357.508 30 355.112 30C352.456 30 350.138 30.4167 348.159 31.25C346.18 32.0573 344.526 33.1771 343.198 34.6094C341.87 36.0417 340.88 37.6562 340.229 39.4531C339.578 41.25 339.253 43.138 339.253 45.1172C339.253 47.1224 339.578 49.0365 340.229 50.8594C340.88 52.6562 341.87 54.2708 343.198 55.7031C344.526 57.1354 346.18 58.2682 348.159 59.1016C350.138 59.9089 352.456 60.3125 355.112 60.3125ZM387.732 70.9375H375.818V17.1875H387.732V70.9375ZM404.294 53.7109C404.294 56.263 404.776 58.3073 405.74 59.8437C406.703 61.3542 408.318 62.1094 410.583 62.1094C412.901 62.1094 414.529 61.3542 415.466 59.8437C416.43 58.3073 416.912 56.263 416.912 53.7109V38.8672H428.63V54.9609C428.63 58.3984 427.914 61.3932 426.482 63.9453C425.076 66.4714 423.031 68.4245 420.349 69.8047C417.667 71.1849 414.411 71.875 410.583 71.875C406.781 71.875 403.539 71.1849 400.857 69.8047C398.175 68.4245 396.13 66.4714 394.724 63.9453C393.318 61.3932 392.615 58.3984 392.615 54.9609V38.8672H404.294V53.7109ZM433.306 70.9375V17.1875H445.181V43.5547C445.416 42.8255 446.014 42.0312 446.978 41.1719C447.968 40.2865 449.257 39.5312 450.845 38.9062C452.46 38.2552 454.283 37.9297 456.314 37.9297C459.439 37.9297 462.147 38.6979 464.439 40.2344C466.731 41.7708 468.501 43.8281 469.751 46.4062C471.001 48.9583 471.626 51.7969 471.626 54.9219C471.626 58.0469 471.001 60.8984 469.751 63.4766C468.501 66.0286 466.731 68.0729 464.439 69.6094C462.147 71.1198 459.439 71.875 456.314 71.875C454.595 71.875 452.968 71.5625 451.431 70.9375C449.921 70.3385 448.606 69.5703 447.486 68.6328C446.392 67.6693 445.585 66.7057 445.064 65.7422V70.9375H433.306ZM459.986 54.9219C459.986 53.4635 459.66 52.1615 459.009 51.0156C458.384 49.8437 457.512 48.9323 456.392 48.2812C455.298 47.6042 454.061 47.2656 452.681 47.2656C451.249 47.2656 449.96 47.6042 448.814 48.2812C447.694 48.9323 446.809 49.8437 446.158 51.0156C445.507 52.1615 445.181 53.4635 445.181 54.9219C445.181 56.3802 445.507 57.6953 446.158 58.8672C446.809 60.013 447.694 60.9115 448.814 61.5625C449.96 62.2135 451.249 62.5391 452.681 62.5391C454.061 62.5391 455.298 62.2135 456.392 61.5625C457.512 60.9115 458.384 60.013 459.009 58.8672C459.66 57.6953 459.986 56.3802 459.986 54.9219Z"
			fill="white"
		/>
	</g>
	<defs>
		<clipPath id="clip0_3312_809">
			<rect width="471.875" height="90.625" fill="white" />
		</clipPath>
		<clipPath id="clip1_3312_809">
			<rect x="224.375" width="90.625" height="90.625" rx="3.75" fill="white" />
		</clipPath>
	</defs>
</svg>
