<svg
	width="292"
	height="101"
	viewBox="0 0 292 101"
	fill="none"
	xmlns="http://www.w3.org/2000/svg"
>
	<path
		d="M100.195 53.1624C100.195 44.7717 95.0051 37.3995 87.1479 34.5864C87.4874 32.7919 87.6329 31.0459 87.6329 29.2028C87.6329 13.5854 74.9256 0.878113 59.3567 0.878113C50.19 0.878113 41.7508 5.24322 36.4156 12.6154C33.7966 10.5783 30.5955 9.46282 27.2489 9.46282C18.9552 9.46282 12.2135 16.2045 12.2135 24.4982C12.2135 26.3412 12.553 28.0873 13.1351 29.7363C5.32637 32.5494 -0.00875854 40.0186 -0.00875854 48.3608C-0.00875854 56.8 5.22937 64.1722 13.0866 66.9852C12.7471 68.7313 12.6016 70.5258 12.6016 72.3689C12.6016 87.9378 25.2604 100.597 40.8292 100.597C49.996 100.597 58.4352 96.183 63.7218 88.8108C66.3409 90.8963 69.5419 92.0119 72.8885 92.0119C81.1822 92.0119 87.9239 85.2702 87.9239 76.9765C87.9239 75.1334 87.5844 73.3874 87.0024 71.7383C94.8596 68.9738 100.195 61.5046 100.195 53.1624Z"
		fill="white"
	/>
	<path
		d="M39.4227 43.8502L61.3452 53.8414L83.4618 34.441C83.8013 32.8404 83.9468 31.2884 83.9468 29.5908C83.9468 15.962 72.84 4.85522 59.2112 4.85522C51.063 4.85522 43.4483 8.88082 38.8407 15.6225L35.1546 34.6835L39.4227 43.8502Z"
		fill="#FED10A"
	/>
	<path
		d="M16.7242 67.0337C16.3847 68.6343 16.2392 70.2833 16.2392 71.9808C16.2392 85.6582 27.3944 96.7649 41.0233 96.7649C49.22 96.7649 56.8831 92.6909 61.4908 85.9492L65.1283 66.9367L60.2782 57.6245L38.2587 47.5847L16.7242 67.0337Z"
		fill="#24BBB1"
	/>
	<path
		d="M16.6272 29.1058L31.6625 32.6464L34.9606 15.574C32.9236 14.0219 30.4015 13.1489 27.7824 13.1489C21.2833 13.1489 15.9481 18.4356 15.9481 24.9832C15.8996 26.4382 16.1421 27.8448 16.6272 29.1058Z"
		fill="#EF5098"
	/>
	<path
		d="M15.3176 32.6949C8.62446 34.8774 3.91985 41.3281 3.91985 48.4093C3.91985 55.2964 8.18795 61.4561 14.5901 63.8812L35.6396 44.8687L31.808 36.6235L15.3176 32.6949Z"
		fill="#17A8E0"
	/>
	<path
		d="M65.3708 85.9007C67.4564 87.4527 69.93 88.3743 72.5005 88.3743C78.9997 88.3743 84.3348 83.0876 84.3348 76.54C84.3348 75.0849 84.0923 73.7269 83.6073 72.4174L68.6204 68.9253L65.3708 85.9007Z"
		fill="#93C83E"
	/>
	<path
		d="M68.4264 64.9482L84.9168 68.7797C91.6585 66.5972 96.3146 60.1465 96.3146 53.0169C96.3146 46.1782 92.0465 39.97 85.6443 37.545L64.0613 56.4604L68.4264 64.9482Z"
		fill="#0779A1"
	/>
	<path
		d="M140.063 70.9138L142.051 70.7198L142.197 74.7939C136.959 75.5214 132.448 75.9094 128.713 75.9094C123.766 75.9094 120.226 74.4544 118.189 71.5928C116.152 68.7313 115.085 64.2206 115.085 58.158C115.085 46.0327 119.886 40.0186 129.538 40.0186C134.194 40.0186 137.686 41.3281 139.966 43.8986C142.245 46.4692 143.409 50.5918 143.409 56.121L143.118 60.0495H120.323C120.323 63.8811 121.002 66.6942 122.408 68.5372C123.815 70.3803 126.191 71.3018 129.586 71.3018C133.079 71.3503 136.522 71.2048 140.063 70.9138ZM138.22 55.9754C138.22 51.7558 137.541 48.7488 136.183 47.0027C134.825 45.2567 132.642 44.3837 129.586 44.3837C126.531 44.3837 124.203 45.3052 122.699 47.1482C121.196 48.9913 120.371 51.9498 120.323 55.9754H138.22Z"
		fill="white"
	/>
	<path d="M150.587 75.2304V25.7107H155.729V75.2304H150.587Z" fill="white" />
	<path
		d="M188.37 51.1738V68.1492C188.37 69.8953 192.638 70.2348 192.638 70.2348L192.395 74.7939C188.758 74.7939 185.751 75.0849 183.908 73.3389C179.737 75.1819 175.663 75.9094 171.491 75.9094C168.339 75.9094 165.914 75.0364 164.265 73.1934C162.616 71.3988 161.791 68.8283 161.791 65.4332C161.791 62.0866 162.616 59.613 164.313 58.0125C166.011 56.412 168.678 55.4419 172.316 55.1024L183.132 54.0839V51.1738C183.132 48.8458 182.647 47.1482 181.628 46.1297C180.61 45.1112 179.203 44.6262 177.457 44.6262H163.877V40.0186H177.118C180.998 40.0186 183.859 40.8916 185.605 42.7346C187.497 44.5292 188.37 47.3422 188.37 51.1738ZM167.126 65.1907C167.126 69.4103 168.872 71.5443 172.364 71.5443C175.517 71.5443 178.573 71.0593 181.58 69.9923L183.132 69.4588V58.061L172.947 59.031C170.861 59.1765 169.406 59.807 168.436 60.8256C167.466 61.8441 167.126 63.2991 167.126 65.1907Z"
		fill="white"
	/>
	<path
		d="M208.595 44.6262C203.599 44.6262 201.077 46.3722 201.077 49.8643C201.077 51.4648 201.659 52.6289 202.823 53.3079C203.987 53.9869 206.606 54.6659 210.68 55.3934C214.803 56.121 217.665 57.091 219.362 58.4005C221.06 59.6615 221.884 62.0866 221.884 65.6272C221.884 69.1678 220.72 71.7868 218.441 73.4359C216.161 75.0849 212.863 75.9094 208.449 75.9094C205.636 75.9094 196.082 74.8424 196.082 74.8424L196.373 70.3318C201.853 70.8168 205.83 71.2533 208.498 71.2533C211.165 71.2533 213.202 70.8168 214.609 69.9923C216.016 69.1678 216.743 67.7127 216.743 65.7242C216.743 63.7356 216.161 62.3776 214.949 61.6501C213.784 60.9226 211.117 60.2435 207.091 59.613C203.017 58.9825 200.156 58.061 198.458 56.8C196.761 55.5874 195.936 53.2594 195.936 49.9128C195.936 46.5662 197.1 44.0927 199.477 42.4436C201.853 40.8431 204.812 40.0186 208.304 40.0186C211.117 40.0186 220.817 40.7461 220.817 40.7461V45.2567C215.676 45.0142 211.505 44.6262 208.595 44.6262Z"
		fill="white"
	/>
	<path
		d="M246.814 45.2567H235.853V61.7471C235.853 65.6757 236.144 68.2948 236.677 69.5558C237.259 70.7683 238.617 71.3989 240.8 71.3989L246.959 70.9623L247.299 75.2305C244.195 75.7155 241.867 76.0065 240.266 76.0065C236.677 76.0065 234.203 75.1334 232.797 73.3874C231.39 71.6414 230.711 68.2948 230.711 63.3962V45.2567H225.813V40.7461H230.711V30.1729H235.853V40.6976H246.814V45.2567Z"
		fill="white"
	/>
	<path
		d="M254.04 32.9374V26.9717H259.182V32.9859L254.04 32.9374ZM254.04 75.2304V40.7461H259.182V75.2304H254.04Z"
		fill="white"
	/>
	<path
		d="M281.638 40.0186C283.141 40.0186 285.76 40.3096 289.398 40.8431L291.047 41.0371L290.853 45.2082C287.167 44.7717 284.451 44.5777 282.705 44.5777C278.825 44.5777 276.157 45.4992 274.75 47.3907C273.344 49.2338 272.616 52.7259 272.616 57.77C272.616 62.8141 273.247 66.3062 274.556 68.2947C275.866 70.2833 278.582 71.2533 282.705 71.2533L290.853 70.6228L291.047 74.8909C286.779 75.5214 283.578 75.8609 281.444 75.8609C276.06 75.8609 272.325 74.4544 270.288 71.6898C268.251 68.9253 267.184 64.2691 267.184 57.7215C267.184 51.1738 268.3 46.5662 270.482 43.8986C272.762 41.3766 276.448 40.0186 281.638 40.0186Z"
		fill="white"
	/>
</svg>
