<?xml version="1.0" encoding="UTF-8" standalone="no"?>
<svg
   viewBox="0 0 500.85 108.31"
   version="1.1"
   id="svg21"
   sodipodi:docname="fullSpookyLogo.svg"
   width="500.85001"
   height="108.31"
   inkscape:version="1.4.2 (ebf0e940, 2025-05-08)"
   inkscape:export-filename="fullSpookyLogo-MagnoliaConf.png"
   inkscape:export-xdpi="96"
   inkscape:export-ydpi="96"
   xmlns:inkscape="http://www.inkscape.org/namespaces/inkscape"
   xmlns:sodipodi="http://sodipodi.sourceforge.net/DTD/sodipodi-0.dtd"
   xmlns="http://www.w3.org/2000/svg"
   xmlns:svg="http://www.w3.org/2000/svg">
  <sodipodi:namedview
     id="namedview21"
     pagecolor="#ffffff"
     bordercolor="#000000"
     borderopacity="0.25"
     inkscape:showpageshadow="2"
     inkscape:pageopacity="0.0"
     inkscape:pagecheckerboard="0"
     inkscape:deskcolor="#d1d1d1"
     inkscape:zoom="1.9863913"
     inkscape:cx="209.425"
     inkscape:cy="54.118239"
     inkscape:window-width="1912"
     inkscape:window-height="916"
     inkscape:window-x="1525"
     inkscape:window-y="71"
     inkscape:window-maximized="0"
     inkscape:current-layer="g21" />
  <defs
     id="defs1">
    <style
       id="style1">.d{fill:#fff;}.e{fill:#a6a6a6;}.f{fill:#bf5272;}</style>
  </defs>
  <g
     id="a" />
  <g
     id="b">
    <g
       id="c">
      <g
         id="g21">
        <g
           id="g22"
           transform="matrix(1.3097862,0,0,1,-38.096513,47.825421)">
          <path
             d="m 169.4327,-8.3505796 q 1.87522,0 3.45743,0.9962083 0.93761,-0.2930025 1.75801,-0.2930025 0.87901,0 2.10962,0.234402 1.28921,0.2344019 1.81662,1.1720098 0.586,0.9376078 0.5274,1.5822132 -0.1172,1.1720097 -0.4102,1.6994141 0.5274,1.4064118 -0.52741,3.4574289 1.40641,3.3988284 -0.0586,10.1378848 -0.3516,1.640813 -0.7032,3.164426 -0.82041,3.57463 -0.82041,5.039642 0,0.937608 0.1172,2.754223 0.1758,1.816615 0.293,3.691831 0.1172,1.875216 0.1172,3.457429 0,1.582213 -0.3516,2.051017 -0.293,0.410203 -0.4688,1.347811 -0.1172,0.879008 -0.35161,1.758015 -0.2344,0.879007 -0.6446,1.465012 -0.4102,0.644606 -1.05481,0.527405 -0.586,-0.0586 -0.76181,-0.234402 -0.1172,-0.175802 -0.2344,-0.410204 -0.1758,-0.586005 -0.7032,-0.761806 -0.82041,-0.234402 -0.87901,-1.054809 0,-0.879007 0.2344,-1.23061 0.293,-0.410204 0.293,-0.820407 0,-0.468804 -0.1758,-0.937608 -0.4102,-0.937608 -1.05481,-1.054809 -0.6446,-0.175801 -1.05481,-0.703206 -0.4102,-0.586004 -0.7032,-1.28921 -0.70321,-1.699415 -0.52741,-2.578422 0.23441,-0.879007 -0.0586,-2.109617 -0.9376,-3.750432 -0.1172,-5.684248 0.293,-0.820407 0.0586,-1.406412 -0.3516,-1.23061 -0.1758,-2.109617 0.3516,-1.758015 0.3516,-3.223027 0,-1.5236128 -0.7618,-1.5236128 -0.70321,0 -0.93761,3.7504308 -0.2344,4.160635 -0.76181,4.922442 -0.4688,0.761806 -0.8204,1.28921 -0.35161,0.468804 -0.64461,1.11341 -0.586,1.28921 -0.586,2.871424 0,1.523612 -0.1172,1.816615 -0.0586,0.293002 -0.11721,0.644605 -0.293,1.054809 -0.293,2.578422 0,2.109617 -0.87901,3.398828 -0.1172,0.175801 -0.2344,0.761806 -0.1172,0.527405 -0.3516,1.11341 -0.586,1.406411 -1.52361,1.406411 -0.93761,-0.0586 -1.46501,-0.586005 -0.46881,-0.586004 -0.76181,-1.347811 -0.293,-0.761806 -0.46881,-1.523612 -0.1758,-0.761807 -0.586,-1.465013 -0.58601,-0.996208 0.293,-4.102034 0.35161,-1.23061 0.293,-1.992417 -0.0586,-0.820406 -0.8204,-1.28921 -0.35161,-0.234402 -0.76181,-2.519821 -0.3516,-2.34402 -0.6446,-3.867633 -0.23441,-1.582213 -0.46881,-2.871424 -0.6446,-2.9886246 -1.05481,-3.047225 -0.3516,-0.0586 -0.4688,0.293002 -0.0586,0.293003 0,0.761807 0.0586,0.468804 0.1172,0.937608 0.1172,0.468803 0.1172,0.879007 0.0586,0.410203 -0.3516,1.582213 -0.3516,1.113409 -0.0586,2.578422 0.293,1.465012 0.293,2.226818 0,0.761807 -0.1758,1.699414 -0.1758,0.879008 -0.1172,1.582214 0.1172,0.703205 0.1758,1.28921 0.1172,1.465013 -0.64461,1.933817 -0.7618,0.468803 -0.7618,1.523612 0.0586,1.054809 0.7032,1.758015 0.64461,0.644605 0.46881,1.23061 -0.1758,0.586005 -0.41021,0.937608 -0.2344,0.351603 -0.1758,0.586005 0.0586,0.234402 0,0.586005 -0.1172,1.406412 -2.22682,2.578421 -1.69941,0.937608 -2.81282,0.703206 -1.11341,-0.175801 -1.64081,-0.761806 -0.52741,-0.586005 -0.41021,-1.289211 0.1172,-0.761806 0,-1.347811 -0.0586,-0.644606 -0.1172,-1.289211 0,-0.644605 -0.0586,-1.289211 -0.0586,-1.758014 -0.3516,-2.344019 -0.293,-0.644606 -0.3516,-1.289211 -0.0586,-0.644605 -0.0586,-1.17201 0.0586,-0.586005 0.1172,-1.054809 0.0586,-0.468804 -0.1758,-0.996208 -0.17581,-0.527404 0,-1.347811 0.1758,-0.820407 0.0586,-1.582213 -0.11721,-0.761807 0,-1.347812 0.1758,-0.644605 0.293,-1.28921 0.1758,-1.523613 -0.64461,-2.051018 -0.93761,-0.761806 -1.28921,-1.582213 -0.293,-0.879007 -0.2344,-2.226818 0.0586,-1.3478116 0,-2.1682184 -0.0586,-0.8790073 0.293,-2.0510171 0.41021,-1.2306103 0.41021,-2.519821 0,-1.2892108 -0.11721,-2.2268186 -0.0586,-0.9376079 -0.1758,-1.7580147 -0.1172,-0.82040685 -0.2344,-1.6994142 -0.1758,-1.8166151 0.1758,-3.0472254 0.46881,-1.1720098 1.17201,-1.9338162 0.76181,-0.8204068 2.40262,-0.7618063 3.16443,0.117201 3.80903,-0.2930025 1.34782,-0.8204068 3.04723,-0.0586 0.4688,0.1758014 0.82041,0.4688039 3.28162,0.8204068 3.69183,2.637022 1.17201,4.92244105 1.17201,6.5632547 0,1.5822133 0.0586,1.8752157 0.1172,0.2930024 0.1758,0.4688039 0.1172,0.117201 0.1172,0.2930025 0,0.1758014 -0.1172,0.9376078 -0.1172,0.7618063 0.1758,1.1720098 0.293,0.4102034 0.64461,0.4102034 0.4102,0 0.7618,-0.4102034 0.41021,-0.468804 0.52741,-1.8166152 0.1758,-1.4064117 0.1758,-1.6994142 0,-0.5274044 0.1758,-0.9376078 0.2344,-0.4688039 0.293,-0.9962083 0.0586,-0.5274044 0.1758,-1.11340931 0.17581,-1.52361272 0.76181,-2.10961759 0.58601,-0.5860049 1.23061,-0.9962083 0.64461,-0.4688039 0.82041,-1.2892108 0.1758,-0.8204068 0.3516,-1.5236127 0.2344,-0.7032059 0.64461,-1.3478113 0.9962,-1.6408136 2.93002,-1.6408136 z m 35.04309,43.9503666 q -0.3516,0.644606 -0.93761,0.937608 -0.586,0.351603 -1.17201,-0.117201 -0.586,-0.410203 -0.879,-0.351603 -0.2344,0.0586 -0.46881,0.117201 -0.5274,0.0586 -1.05481,-0.761806 -0.5274,-0.820407 -0.586,-1.289211 -0.0586,-0.527404 0,-0.996208 0.2344,-1.054809 -0.3516,-1.875216 -0.52741,-0.820407 -0.76181,-1.23061 -0.1758,-0.410204 -0.1758,-1.17201 0,-0.820407 -0.1172,-0.996208 -0.0586,-0.234402 -0.1172,-0.351603 -0.29301,-0.527405 -0.23441,-1.640814 0.11721,-1.113409 -0.293,-1.523613 -0.4102,-0.468804 -1.11341,-0.703206 -0.6446,-0.234402 -1.05481,0.175802 -0.3516,0.351603 -0.7032,0.879007 -0.293,0.527405 -0.76181,0.937608 -0.4688,0.351603 -1.23061,0.175801 -0.7032,-0.175801 -1.58221,0.351603 -0.87901,0.527405 -1.05481,1.289211 -0.1758,0.703206 -0.4102,1.465012 -0.23441,0.761807 -0.17581,1.406412 0.11721,0.644606 0,1.289211 -0.0586,0.586005 -0.293,1.17201 -0.4688,1.465012 -1.11341,1.582213 -0.5274,0.0586 -1.11341,0 -0.6446,1.17201 -1.52361,1.406412 -2.40262,0.527404 -2.87142,-0.761807 -0.29301,-0.761806 -0.35161,-1.992416 -0.1172,-2.461221 -0.5274,-3.340228 -0.4102,-0.879008 -0.2344,-2.109618 0.2344,-1.23061 0.1758,-2.46122 -0.0586,-1.230611 0,-1.875216 0.0586,-0.644605 0.1172,-1.17201 0.1172,-0.527404 0.2344,-0.996208 0.1172,-0.527405 0.1172,-1.17201 0.0586,-0.703206 0.23441,-1.582213 0.1758,-0.879007 0.3516,-1.816615 0.4688,-2.34402 0.3516,-3.51603 -0.1172,-1.172009 0.1758,-1.992416 0.35161,-0.820407 0.76181,-1.4650125 1.05481,-1.6994142 0.99621,-2.754223 -0.0586,-1.1134093 -0.1172,-1.6994142 0,-0.6446053 0.0586,-1.2892107 0.293,-3.16442642 2.98862,-9.9034827 0.1758,-0.6446053 1.11341,-0.9962083 0.93761,-0.3516029 1.87522,-0.058601 0.9962,0.234402 1.58221,0.234402 0.64461,-0.0586 1.05481,-0.4688039 0.4688,-0.4688039 0.93761,-0.8790074 0.5274,-0.4102034 1.23061,-0.6446053 0.7032,-0.2930025 1.58221,-0.2930025 0.87901,0 1.87522,0.5274044 1.64081,0.8790074 2.16821,1.6408137 0.52741,0.7618064 0.70321,1.2306103 0.1758,0.4688039 0.586,1.2892107 0.41021,0.8204069 0.35161,1.4650123 0,0.6446053 0.2344,1.5236127 0.2344,0.87900732 0,2.0510171 -0.2344,1.1720098 0,2.3440196 0.2344,1.1134093 0.2344,1.5236127 0,0.4102034 0.0586,0.7618063 0.0586,0.9962083 0.41021,1.7580147 0.3516,0.8204069 0.1758,2.0510171 -0.1172,1.1720094 -0.0586,1.9924164 0.1172,0.761807 0.6446,1.582213 0.99621,1.582214 0.70321,3.51603 -0.0586,0.527404 0,1.17201 0.1172,0.586004 0.1172,1.113409 0,0.468804 -0.1172,1.23061 -0.1758,1.113409 0.0586,2.695623 0.3516,2.930024 0.3516,3.926232 0,0.996209 0.0586,1.699415 0.0586,0.644605 0.1172,1.406411 0.1758,1.992417 0,4.043434 -0.1172,1.992417 -1.23061,2.285419 z M 195.50992,11.98379 q 0.1172,-1.113409 -0.1172,-2.7542229 -0.17581,-1.6408137 -0.17581,-2.4026201 0,-0.8204068 -0.1172,-1.4064117 -0.1758,-0.9376078 -0.9962,-0.234402 -0.93761,-0.9376078 -1.52362,-0.0586 -0.4102,0.6446054 -0.4102,2.1096176 -0.1172,0.9962084 -0.4688,1.8166152 -0.29301,0.8204068 -0.41021,1.8166154 -0.1758,1.17201 -0.6446,2.871424 -0.41021,1.699414 0.1172,2.519821 0.586,0.820407 1.40641,0.586005 0.82041,-0.234402 1.23061,-0.234402 0.4102,-0.0586 0.70321,-0.117201 0.7032,-0.0586 1.0548,-0.527405 0.41021,-0.527404 0.41021,-0.879007 0.0586,-0.410203 0,-0.820407 -0.1758,-1.17201 -0.0586,-2.285419 z m 26.95623,9.141676 q -1.64082,0 -1.52362,-1.523612 0.1172,-1.230611 -0.0586,-1.992417 -0.293,-1.289211 -0.1172,-1.875216 0.46881,-1.758014 3.80903,-0.820406 0.58601,0.175801 0.93761,0.175801 0.3516,0 0.70321,-0.0586 1.05481,-0.175801 1.87521,0 0.87901,0.117201 1.52362,0.0586 0.6446,-0.0586 1.17201,-0.175801 0.586,-0.117201 1.0548,-0.234402 0.46881,-0.117201 0.87901,-0.117201 0.58601,0 0.82041,0.996208 0.293,0.937608 0.2344,2.109617 -0.1758,2.988625 -1.40641,3.457429 -0.87901,0.351603 -1.69942,1.11341 -0.7618,0.761806 -0.586,2.285419 0.2344,1.465012 0.2344,2.344019 0.0586,0.820407 0,1.465012 0,0.586005 -0.0586,1.054809 0,0.410204 0.0586,1.11341 0.1172,0.644605 -0.0586,1.758014 -0.1172,1.11341 -0.5274,1.992417 -0.99621,2.109617 -2.51982,1.582213 -1.11341,-0.351603 -2.16822,-1.875216 -0.35161,-0.527404 -0.70321,-0.879007 -0.293,-0.410203 -0.8204,-0.234402 -0.52741,0.117201 -0.93761,0.586005 -0.35161,0.410203 -0.76181,0.879007 -2.46122,3.047226 -6.27025,0.879008 -1.93382,-1.054809 -2.69562,-2.637022 -0.29301,-0.703206 -0.64461,-1.582213 -0.293,-0.879008 -0.70321,-1.699415 -0.9376,-1.933816 -1.81661,-2.578421 -0.82041,-0.644606 -0.93761,-6.328853 -0.0586,-1.23061 0.0586,-2.109618 0.1172,-0.937607 0.1172,-2.344019 V 13.2144 q 0,-1.28921 -0.0586,-2.46122 0,-1.8752159 0.29301,-3.2816276 -1.87522,-1.2306103 -1.46502,-4.7466396 0.29301,-2.2268186 0.82041,-3.22302692 0.586,-1.05480878 0.87901,-2.05101708 0.3516,-1.0548088 0.7032,-2.1682181 0.35161,-1.1720098 0.99621,-1.5236127 0.64461,-0.351603 0.82041,-0.5860049 0.1758,-0.234402 0.3516,-0.4688039 1.11341,-1.6408137 4.80524,-2.2268186 1.64081,-0.2930025 3.22303,0.2930024 1.58221,0.5860049 2.63702,0.7032059 1.05481,0.117201 1.99242,0.1758015 4.04343,0.2344019 5.27404,1.6994141 0.87901,0.9962083 1.11341,2.0510171 0.2344,0.9962084 0.58601,1.6408137 0.4102,0.5860049 0.293,1.2892108 -0.1172,0.6446054 -0.0586,1.11340929 0.1172,0.41020343 -0.0586,0.87900734 -0.1758,0.46880391 -0.35161,0.93760787 -0.3516,1.2306102 0.0586,1.7580146 0.46881,0.5274044 0.82041,0.9962083 0.3516,0.4102035 0.52741,0.8790074 0.5274,1.1720098 0.1172,1.9924166 -0.41021,0.8204069 -0.93761,1.5822132 -0.46881,0.7618064 -1.23061,0.8204069 -2.05102,0.1758014 -2.75422,0.7032058 -0.70321,0.4688036 -1.17201,0.6446056 -1.17201,0.527404 -2.16822,-0.117201 -1.64082,-0.7618065 -1.40641,-2.8128236 0.1172,-2.4612206 -1.81662,-2.6956225 -0.87901,-0.117201 -1.81661,0.5274044 -0.93761,0.6446053 -1.46502,1.6994141 -1.23061,2.754223 -0.293,5.0982426 0.2344,0.586005 0.2344,1.465012 v 1.523613 q 0,1.347811 -0.3516,1.992417 -0.293,0.644605 -0.3516,1.523612 -0.0586,0.820407 -0.0586,1.933816 0.0586,1.11341 0.1758,2.40262 0.1758,1.230611 0.4102,2.28542 0.64461,2.46122 1.81662,2.344019 0.9376,0 1.46501,-0.879007 0.1758,-0.351603 0.4102,-0.703206 0.2344,-0.351603 0.70321,-0.527405 0.4688,-0.234401 0.6446,-0.703205 0.23441,-0.468804 0.23441,-1.11341 0.0586,-0.703206 -0.11721,-2.871424 -0.4688,0.117201 -0.9376,0.117201 z m 34.80868,-29.5932466 q 1.81661,-0.5274044 2.63702,0.4102034 1.52361,-0.2930024 2.81282,0.7032059 1.28922,0.9962083 0.64461,3.8090318 -0.4102,1.4064117 -0.2344,1.9924166 0.1758,0.58600487 0.4688,1.17200976 0.3516,0.58600489 0.2344,1.40641174 -0.1172,0.7618064 -0.293,1.6994142 -0.586,2.637022 -0.2344,4.2778357 0.87901,3.8676325 -0.70321,8.0868675 -1.69941,4.629439 -1.05481,11.134093 0.52741,4.688039 0.35161,6.153051 -0.1172,1.406412 -0.64461,2.285419 -0.5274,0.879008 -1.75801,0.879008 -2.10962,0 -2.93003,-1.230611 -0.4688,-0.703205 -0.4688,-1.816615 0,-1.113409 -0.3516,-1.992416 -0.29301,-0.879008 -0.76181,-1.640814 -1.11341,-1.640814 -2.10962,-2.285419 -1.64081,-1.113409 -2.51982,-5.332645 -0.5274,-3.105826 -1.34781,-5.098242 -0.2344,-0.586005 -0.3516,-1.23061 -0.1172,-0.703206 -0.2344,-1.347812 -0.35161,-1.406411 -1.23062,-1.406411 -1.34781,0 -1.0548,3.867632 0.0586,0.820407 0.2344,1.523613 0.2344,0.644605 0.0586,1.582213 -0.1758,0.937608 -0.46881,1.933816 -0.7032,2.578421 -0.293,3.809032 0.41021,1.406411 0.293,2.988625 -0.1172,1.523612 -0.4688,2.40262 -0.3516,0.820406 -1.23061,1.172009 -0.5274,0.937608 -0.87901,2.168219 -0.3516,1.172009 -0.5274,1.582213 -0.1172,0.410203 -0.3516,0.468804 -0.99621,0.351603 -2.05102,-0.117201 -0.99621,-0.468804 -1.28921,-1.289211 -0.293,-0.879007 -0.293,-1.640814 0.0586,-0.761806 -0.17581,-1.347811 -0.1758,-0.644605 -0.1758,-1.054809 0.0586,-0.410203 0.0586,-0.820407 0.1172,-0.937608 -0.293,-1.406411 -0.5274,-0.586005 -0.586,-1.582214 0,-0.996208 0,-1.699414 0,-0.703206 0.1172,-1.17201 0.4102,-1.113409 0.3516,-3.398828 -0.1758,-4.277836 -1.05481,-5.156843 -1.11341,-1.113409 -1.23061,-4.102034 -0.0586,-0.703206 0.0586,-1.289211 0.1758,-0.6446054 0.0586,-1.2892108 -0.0586,-0.6446053 0.2344,-1.2892107 0.46881,-1.2306103 0.29301,-3.4574289 -0.17581,-2.285419 -0.23441,-3.22302687 0,-0.99620831 -0.1172,-2.05101713 -0.0586,-1.1134093 0.1758,-1.9338161 0.29301,-0.8790074 0.93761,-1.5236127 1.46501,-1.5822132 4.10204,-1.5822132 1.17201,-0.8204069 2.69562,-1.2892108 1.58221,-0.4688039 2.63702,-0.0586 1.05481,0.4102034 1.46501,1.2892108 0.41021,0.8790073 0.64461,1.8752156 0.293,0.9962083 0.5274,2.0510171 0.29301,0.9962083 0.93761,1.6408137 0.64461,0.64460541 0.93761,1.58221323 0.293,0.87900737 0.5274,1.69941417 0.2344,0.8204069 0.46881,1.4064117 0.2344,0.5274045 0.7618,0.5274045 0.52741,0 0.58601,-1.4650123 0.1172,-1.52361269 0.0586,-3.45742883 0,-1.93381617 -0.0586,-3.75043127 0,-1.8752157 0.3516,-2.6956225 0.3516,-0.8790074 1.23061,-1.2892108 0.93761,-0.4102034 2.10962,0.234402 z m 10.25508,10.9582914 q -0.0586,-0.7618063 -0.0586,-1.52361269 0,-0.76180636 0.2344,-1.75801467 0.23441,-1.05480884 1.17201,-1.87521564 0.99621,-0.8790073 1.69942,-1.6994142 0.7032,-0.8790073 1.23061,-1.7580147 0.5274,-0.8790073 1.28921,-1.4064117 2.63702,-1.8166152 7.38366,-1.4064117 1.93382,0.1758014 4.10203,1.4064117 1.05481,0.5860049 1.81662,2.1682181 0.76181,1.5236127 1.05481,2.1096176 0.293,0.5860049 0.76181,0.8790073 0.4688,0.234402 0.8204,0.7032059 0.41021,0.4688039 0.82041,1.52361272 0.4688,0.99620831 0.82041,2.34401958 0.9376,3.1058259 0.8204,5.2154435 -0.1172,2.1096176 -0.1758,4.2778361 -0.1172,3.867632 -0.76181,5.567046 -0.6446,1.699414 -0.9962,2.871424 -0.29301,1.113409 -0.35161,2.051017 -0.0586,0.937608 -0.0586,1.816615 -0.1172,2.34402 -0.3516,2.812824 -0.1758,0.468804 -0.64461,0.937608 -0.4688,0.468804 -1.0548,0.937607 -0.52741,0.410204 -1.05481,0.820407 -0.52741,0.410204 -0.76181,0.703206 -0.2344,0.234402 -0.586,0.703206 -0.29301,0.468804 -0.64461,0.996208 -0.293,0.527405 -0.586,0.996209 -0.23441,0.410203 -0.35161,0.644605 -0.1172,0.175801 -0.4102,0.703206 -0.293,0.527404 -0.70321,1.113409 -2.28542,2.812824 -4.33643,0.234402 -0.1758,-0.293002 -0.58601,-0.293002 -0.3516,0 -0.87901,0.234402 -0.4688,0.293002 -1.34781,0 -0.879,-0.293003 -1.40641,-0.937608 -0.4688,-0.703206 -0.93761,-1.113409 -0.4102,-0.410204 -0.8204,-0.644606 -0.41021,-0.234402 -0.82041,-0.410203 -1.11341,-0.586005 -1.17201,-0.937608 -0.0586,-0.410204 -0.1172,-0.761806 0,-0.351603 -0.1172,-0.879008 -0.46881,-2.812823 -2.28542,-7.969666 -1.40641,-3.867633 -0.76181,-8.028267 0.46881,-3.047226 0.87901,-5.0982428 0.64461,-3.105826 0.4688,-4.3364362 -0.1172,-1.2306103 -0.2344,-1.9338162 z m 11.3685,3.3402279 q -1.05481,0.0586 -1.40641,0.8204068 -0.35161,0.7032059 -0.52741,1.4064118 -0.1758,0.6446054 -0.4688,1.0548088 -0.2344,0.4102034 -0.46881,0.8204068 -0.9962,1.4650121 -0.2344,3.0472251 1.11341,2.285419 1.17201,3.047226 0.0586,0.703206 0.1172,2.109617 0.0586,1.347812 0.2344,2.812824 0.52741,3.691831 1.58222,3.691831 0.586,0 1.11341,-1.347812 0.1172,-0.293002 0.1172,-0.996208 0.0586,-0.703206 0.2344,-1.640814 0.6446,-3.340227 0.4688,-4.629438 -0.1172,-1.289211 -0.1758,-2.285419 0,-0.996209 0,-2.051017 V 8.1161578 q 0,-1.2892108 -0.3516,-1.8166152 -0.293,-0.5860049 -1.40641,-0.4688039 z m 25.78422,21.0375753 q 0.70321,-0.293002 1.52362,-0.293002 0.8204,0 1.28921,0.234402 0.4688,0.234402 0.93761,0.527404 1.1134,0.761807 2.40262,0.761807 1.28921,-0.0586 2.16821,-0.117201 0.87901,-0.117201 1.69942,0.468803 0.99621,0.879008 0.879,2.930025 -0.1172,1.933816 -0.879,2.519821 -0.76181,0.527404 -1.40641,0.527404 -0.64461,0 -1.28921,-0.0586 -0.64461,-0.117201 -1.23062,-0.175802 -0.586,-0.0586 -0.9962,0.293003 -2.10962,1.465012 -3.34023,0.293002 -0.58601,-0.644605 -1.52361,-0.586005 -0.93761,0.0586 -1.69942,0.410204 -0.7032,0.293002 -1.46501,0.527404 -3.45743,1.289211 -4.68804,-1.875215 -0.2344,-0.644606 -0.4102,-1.17201 -0.1172,-0.586005 -0.29301,-0.937608 -0.4102,-0.820407 -0.2344,-2.812824 0.1758,-2.754222 -0.0586,-4.043433 -0.2344,-1.289211 -0.4102,-2.051017 -0.4102,-1.992417 -0.3516,-3.105826 0.1758,-1.933816 -0.17581,-4.160635 -0.0586,-0.644605 0.41021,-1.758015 1.52361,-3.516029 0,-5.3912447 -0.293,-0.3516029 -0.52741,-0.6446054 -0.2344,-0.2930024 -0.2344,-0.8204068 -0.5274,-4.7466396 -0.5274,-12.1889017 0,-0.6446054 0.586,-1.2306103 1.11341,-1.1134093 1.75802,-0.9962083 2.16821,0.5860049 3.86763,0.1758015 1.75801,-0.4688039 3.04722,-0.4688039 1.28921,-0.058601 2.22682,1.1720097 2.10962,2.9300245 1.05481,6.97345823 -0.293,0.93760782 -0.2344,1.81661517 0.0586,0.8204068 -0.3516,1.8166151 -0.35161,0.9376079 -0.29301,1.7580147 0.0586,0.8204069 0.17581,2.2854191 0.293,3.8090316 -1.05481,5.9186496 -0.70321,1.113409 -0.64461,2.695622 0.1172,1.582213 0.1758,2.637022 0.1172,0.996209 0,2.226819 -0.0586,1.17201 -0.0586,2.812823 0,1.582214 0.1758,3.105826 z m 22.97139,-0.703206 q 0.4102,0.996209 1.23061,0.996209 0.7618,0 0.9962,0.293002 0.41021,0.644606 0,2.461221 -0.2344,1.054809 -0.293,1.640813 0,0.586005 -0.0586,0.996209 -0.1172,0.703206 -0.82041,1.523612 -0.7618,0.644606 -1.69941,0.937608 -0.87901,0.234402 -1.46501,0.351603 -0.58601,0.175802 -1.28921,0.527405 -1.05481,0.527404 -1.81662,0.468803 -0.7032,-0.0586 -1.11341,-0.1172 -0.3516,0 -0.879,0.175801 -0.46881,0.175801 -0.76181,0.117201 -0.293,0 -0.58601,-0.117201 -0.879,-0.351603 -1.64081,-0.351603 -1.05481,0 -1.40641,-3.516029 -0.1758,-1.406412 -0.0586,-2.695623 0.1172,-1.289211 0.4102,-1.640813 0.293,-0.410204 0.70321,-0.527405 0.4102,-0.175801 0.7618,-0.234402 0.35161,-0.117201 0.64461,-0.175801 0.3516,-0.175802 0.3516,-1.230611 0.0586,-1.113409 0.1172,-2.051017 0.0586,-2.578421 0.41021,-3.63323 0.586,-1.582213 -0.1758,-2.695623 -0.76181,-1.347811 -0.58601,-5.039642 0.1172,-2.226818 -0.0586,-3.6332299 -0.2344,-2.754223 -0.1758,-3.8676323 0.0586,-0.8204068 0.0586,-1.2892107 0,-0.4688039 -0.0586,-0.7032059 -0.1758,-0.4688039 -1.05481,-0.4688039 -0.87901,-0.0586 -1.64081,-0.8204069 -0.76181,-0.7618063 -0.64461,-2.40262001 0.1758,-1.64081369 0,-2.98862489 -0.1758,-1.3478113 0.1758,-2.1096177 0.35161,-0.7618063 0.41021,-1.2892107 0.0586,-0.5274044 0.1758,-0.9376078 0.3516,-0.9376079 1.58221,-1.0548088 1.28921,-0.117201 2.34402,0.0586 1.11341,0.117201 2.05102,0.351603 2.46122,0.5860049 3.22302,0.5860049 0.58601,0 1.28921,-0.117201 0.76181,-0.1758015 1.46502,-0.2930024 1.64081,-0.2930025 2.46122,0.1758014 0.879,0.4688039 1.05481,1.1134093 0.2344,0.6446054 0.2344,1.4064117 0,0.7032059 -0.1172,1.5236128 -0.0586,0.8204068 0.1172,1.7580146 0.5274,2.10961764 0.0586,3.4574289 -0.46881,1.2892107 -0.87901,1.5822132 -0.4102,0.2344019 -0.82041,0.2930024 -0.3516,0.0586 -0.7618,0.117201 -0.3516,0 -0.64461,0.4102034 -0.4688,0.7618064 -0.4688,5.8600489 l 0.1172,9.786282 q 0,3.750431 -0.4688,7.032058 z m 28.83143,9.434679 q -0.3516,0.644606 -0.9376,0.937608 -0.58601,0.351603 -1.17201,-0.117201 -0.58601,-0.410203 -0.87901,-0.351603 -0.2344,0.0586 -0.4688,0.117201 -0.52741,0.0586 -1.05481,-0.761806 -0.52741,-0.820407 -0.58601,-1.289211 -0.0586,-0.527404 0,-0.996208 0.2344,-1.054809 -0.3516,-1.875216 -0.52741,-0.820407 -0.76181,-1.23061 -0.1758,-0.410204 -0.1758,-1.17201 0,-0.820407 -0.1172,-0.996208 -0.0586,-0.234402 -0.1172,-0.351603 -0.293,-0.527405 -0.2344,-1.640814 0.1172,-1.113409 -0.29301,-1.523613 -0.4102,-0.468804 -1.1134,-0.703206 -0.64461,-0.234402 -1.05481,0.175802 -0.35161,0.351603 -0.70321,0.879007 -0.293,0.527405 -0.76181,0.937608 -0.4688,0.351603 -1.23061,0.175801 -0.7032,-0.175801 -1.58221,0.351603 -0.87901,0.527405 -1.05481,1.289211 -0.1758,0.703206 -0.4102,1.465012 -0.2344,0.761807 -0.1758,1.406412 0.1172,0.644606 0,1.289211 -0.0586,0.586005 -0.29301,1.17201 -0.4688,1.465012 -1.1134,1.582213 -0.52741,0.0586 -1.11341,0 -0.64461,1.17201 -1.52362,1.406412 -2.40262,0.527404 -2.87142,-0.761807 -0.293,-0.761806 -0.3516,-1.992416 -0.1172,-2.461221 -0.52741,-3.340228 -0.4102,-0.879008 -0.2344,-2.109618 0.2344,-1.23061 0.1758,-2.46122 -0.0586,-1.230611 0,-1.875216 0.0586,-0.644605 0.1172,-1.17201 0.1172,-0.527404 0.2344,-0.996208 0.11721,-0.527405 0.11721,-1.17201 0.0586,-0.703206 0.2344,-1.582213 0.1758,-0.879007 0.3516,-1.816615 0.4688,-2.34402 0.3516,-3.51603 -0.1172,-1.172009 0.17581,-1.992416 0.3516,-0.820407 0.7618,-1.4650125 1.05481,-1.6994142 0.99621,-2.754223 -0.0586,-1.1134093 -0.1172,-1.6994142 0,-0.6446053 0.0586,-1.2892107 0.293,-3.16442642 2.98862,-9.9034827 0.17581,-0.6446053 1.11341,-0.9962083 0.93761,-0.3516029 1.87522,-0.058601 0.99621,0.234402 1.58221,0.234402 0.64461,-0.0586 1.05481,-0.4688039 0.46881,-0.4688039 0.93761,-0.8790074 0.5274,-0.4102034 1.23061,-0.6446053 0.70321,-0.2930025 1.58221,-0.2930025 0.87901,0 1.87522,0.5274044 1.64081,0.8790074 2.16822,1.6408137 0.5274,0.7618064 0.7032,1.2306103 0.1758,0.4688039 0.58601,1.2892107 0.4102,0.8204069 0.3516,1.4650123 0,0.6446053 0.2344,1.5236127 0.2344,0.87900732 0,2.0510171 -0.2344,1.1720098 0,2.3440196 0.2344,1.1134093 0.2344,1.5236127 0,0.4102034 0.0586,0.7618063 0.0586,0.9962083 0.41021,1.7580147 0.3516,0.8204069 0.1758,2.0510171 -0.1172,1.1720094 -0.0586,1.9924164 0.1172,0.761807 0.6446,1.582213 0.99621,1.582214 0.70321,3.51603 -0.0586,0.527404 0,1.17201 0.1172,0.586004 0.1172,1.113409 0,0.468804 -0.1172,1.23061 -0.1758,1.113409 0.0586,2.695623 0.3516,2.930024 0.3516,3.926232 0,0.996209 0.0586,1.699415 0.0586,0.644605 0.1172,1.406411 0.17581,1.992417 0,4.043434 -0.1172,1.992417 -1.23061,2.285419 z M 347.51958,11.98379 q 0.1172,-1.113409 -0.1172,-2.7542229 -0.1758,-1.6408137 -0.1758,-2.4026201 0,-0.8204068 -0.1172,-1.4064117 -0.17581,-0.9376078 -0.99621,-0.234402 -0.93761,-0.9376078 -1.52361,-0.0586 -0.41021,0.6446054 -0.41021,2.1096176 -0.1172,0.9962084 -0.4688,1.8166152 -0.293,0.8204068 -0.41021,1.8166154 -0.1758,1.17201 -0.6446,2.871424 -0.4102,1.699414 0.1172,2.519821 0.58601,0.820407 1.40641,0.586005 0.82041,-0.234402 1.23061,-0.234402 0.41021,-0.0586 0.70321,-0.117201 0.7032,-0.0586 1.05481,-0.527405 0.4102,-0.527404 0.4102,-0.879007 0.0586,-0.410203 0,-0.820407 -0.1758,-1.17201 -0.0586,-2.285419 z"
             id="text21"
             style="font-size:60.0069px;font-family:Creepster;-inkscape-font-specification:'Creepster, Normal';stroke-width:3.89538"
             transform="scale(0.85960204,1.163329)"
             aria-label="MAGNOLIA" />
          <path
             d="m 367.57396,-6.8233251 q 1.75988,0.1213715 3.15566,1.8205722 0.24274,0.3641145 0.48548,0.728229 0.24275,0.3034287 0.36412,0.7282289 0.36411,0.9102861 0.24274,2.6094869 -0.12137,1.6992008 0.18206,2.7915442 0.30343,1.0316576 0.60685,2.0026295 0.54618,1.6992008 -0.66754,4.5514307 -0.91029,2.6094867 -2.24537,3.0949727 l -1.09234,0.364115 q -1.57783,0.546171 -2.73086,0.4248 -1.09235,-0.182057 -1.51715,-0.667543 -1.21371,-1.57783 -0.60685,-3.6411449 0.12137,-0.4248002 0,-1.3350864 -0.12138,-0.9102861 -1.03166,-1.1530291 -0.48549,-0.1213715 -0.66754,-0.4248002 -0.12138,-0.3034287 -0.24275,-0.4854859 -0.0607,-0.242743 -0.18206,-0.3034287 -0.0607,-0.1213715 -0.54617,0.2427429 -0.48548,0.3641145 -0.54617,0.4248002 -0.0607,0 -0.4248,-0.1213714 -0.30343,-0.1213715 -0.60686,0.060686 -0.30342,0.1820572 -0.60685,0.6675432 -1.09235,1.881258 -0.4248,6.1292596 0.24274,1.274401 0.48548,2.366744 0.48549,2.730859 0.4248,3.641145 0,0.910286 -0.36411,1.941944 -0.30343,0.970972 -0.54617,1.941943 -0.72823,2.488116 0.18205,4.248002 1.09235,2.184687 1.39578,2.548802 0.54617,0.546171 1.33508,0.485486 0.78892,-0.121372 1.21372,-0.788915 0.4248,-0.728229 0.78891,-1.517144 0.36412,-0.8496 0.78892,-1.577829 0.4248,-0.728229 0.97097,-0.8496 0.60686,-0.121372 1.51714,0 0.91029,0.06068 1.21372,0.06068 0.36411,0 0.8496,0.424801 0.48548,0.364114 0.48548,1.759886 0.0607,1.335086 0.12137,2.184687 0.0607,0.788914 -0.4248,1.456458 -0.48548,0.606857 -0.66754,1.153029 -0.12137,0.485486 -0.18206,0.970972 -0.0607,1.2744 -0.48548,1.881258 -0.36412,0.606857 -0.72823,1.031657 -0.30343,0.364115 -1.75989,0.364115 -1.39577,0 -2.5488,1.335086 -1.15303,1.335086 -2.18469,1.153029 -1.03165,-0.121371 -1.45645,-1.213715 -0.4248,-0.970972 -1.88126,-1.031657 -0.4248,-0.06069 -0.78892,-0.182058 -0.36411,-0.182057 -0.8496,-0.242742 -0.48548,-0.121372 -0.97097,-0.424801 -1.21371,-0.667543 -2.00263,-2.124001 -0.48548,-0.910286 -0.97097,-1.517143 -0.4248,-0.606858 -0.72823,-1.153029 -0.78891,-1.213715 -0.60686,-2.306059 0.36412,-2.912915 -0.78891,-3.823201 -0.66754,-0.424801 -0.66754,-0.667544 0,-0.242742 -0.24275,-1.031657 -0.36411,-1.092344 0,-2.548801 0.4248,-1.456458 0.30343,-2.366744 -0.12137,-0.970972 -0.30343,-2.00263 -0.36411,-2.670172 -0.0607,-3.519773 0.30343,-0.8496 0.12137,-2.4274296 -0.12137,-1.5778293 -0.12137,-2.5488012 0,-1.0316576 -0.18206,-2.6701727 -0.12137,-1.638515 0,-3.51977303 0.4248,-4.73348797 3.21634,-6.49337447 4.18732,-2.4881154 5.34035,-2.366744 0.36411,0 0.8496,0.1213715 0.54617,0.060686 1.03166,-0.060686 0.48548,-0.1213715 0.8496,-0.3641145 0.36411,-0.2427429 0.72823,-0.5461717 1.45645,-1.3350866 2.60948,-0.3034287 1.09235,1.2744006 1.6992,1.6992008 1.03166,0.7889147 3.09498,0.9102862 z m 8.01052,8.9208041 q -0.0607,-0.7889146 -0.0607,-1.57782927 0,-0.78891466 0.24274,-1.82057233 0.24275,-1.0923433 1.21372,-1.9419437 1.03166,-0.9102862 1.75988,-1.7598866 0.72823,-0.9102861 1.27441,-1.8205722 0.54617,-0.9102862 1.33508,-1.4564579 2.73086,-1.881258 7.64641,-1.4564578 2.00262,0.1820572 4.248,1.4564578 1.09234,0.6068575 1.88126,2.2453725 0.78891,1.5778293 1.09234,2.1846868 0.30343,0.6068574 0.78891,0.9102861 0.48549,0.242743 0.8496,0.7282289 0.4248,0.4854859 0.8496,1.57782932 0.48549,1.03165762 0.8496,2.42742968 0.97098,3.2163444 0.8496,5.4010311 -0.12137,2.1846868 -0.18205,4.4300596 -0.12137,4.005259 -0.78892,5.765145 -0.66754,1.759887 -1.03165,2.973602 -0.30343,1.153029 -0.36412,2.124001 -0.0607,0.970971 -0.0607,1.881258 -0.12138,2.427429 -0.36412,2.912915 -0.18206,0.485486 -0.66754,0.970972 -0.48549,0.485486 -1.09235,0.970972 -0.54617,0.4248 -1.09234,0.8496 -0.54617,0.424801 -0.78891,0.728229 -0.24275,0.242743 -0.60686,0.728229 -0.30343,0.485486 -0.66754,1.031658 -0.30343,0.546172 -0.60686,1.031657 -0.24274,0.424801 -0.36412,0.667544 -0.12137,0.182057 -0.4248,0.728229 -0.30343,0.546171 -0.72823,1.153029 -2.36674,2.912915 -4.49074,0.242743 -0.18206,-0.303429 -0.60686,-0.303429 -0.36411,0 -0.91028,0.242743 -0.48549,0.303429 -1.39578,0 -0.91028,-0.303429 -1.45645,-0.970972 -0.48549,-0.728229 -0.97098,-1.153029 -0.4248,-0.4248 -0.8496,-0.667543 -0.4248,-0.242743 -0.8496,-0.4248 -1.15303,-0.606858 -1.21371,-0.970972 -0.0607,-0.424801 -0.12137,-0.788915 0,-0.364114 -0.12137,-0.910286 -0.48549,-2.912916 -2.36675,-8.253261 -1.45646,-4.005259 -0.78891,-8.313947 0.48548,-3.155659 0.91028,-5.2796595 0.66755,-3.2163444 0.48549,-4.490745 -0.12137,-1.2744006 -0.24274,-2.0026295 z m 11.77303,3.4590874 q -1.09234,0.060686 -1.45646,0.8496004 -0.36411,0.7282289 -0.54617,1.4564578 -0.18206,0.6675432 -0.48549,1.0923434 -0.24274,0.4248002 -0.48548,0.8496004 -1.03166,1.5171436 -0.24274,3.1556586 1.15303,2.366744 1.21371,3.155659 0.0607,0.728228 0.12137,2.184686 0.0607,1.395772 0.24275,2.912916 0.54617,3.823202 1.63851,3.823202 0.60686,0 1.15303,-1.395772 0.12137,-0.303429 0.12137,-1.031658 0.0607,-0.728229 0.24274,-1.699201 0.66755,-3.459087 0.48549,-4.794173 -0.12137,-1.335087 -0.18206,-2.366744 0,-1.031658 0,-2.124001 V 7.9233103 q 0,-1.3350863 -0.36411,-1.881258 -0.30343,-0.6068574 -1.45646,-0.4854859 z m 38.04996,-14.8073212 q 1.88126,-0.5461717 2.73086,0.4248002 1.57783,-0.3034288 2.91291,0.7282289 1.33509,1.0316576 0.66755,3.9445732 -0.4248,1.4564579 -0.24275,2.0633153 0.18206,0.6068574 0.48549,1.21371484 0.36411,0.60685743 0.24274,1.45645783 -0.12137,0.78891463 -0.30343,1.75988653 -0.60685,2.7308584 -0.24274,4.4300592 0.91029,4.0052588 -0.72823,8.3746328 -1.75988,4.794173 -1.09234,11.530291 0.54617,4.854859 0.36411,6.372003 -0.12137,1.456458 -0.66754,2.366744 -0.54617,0.910286 -1.82057,0.910286 -2.18469,0 -3.03429,-1.274401 -0.48549,-0.728229 -0.48549,-1.881258 0,-1.153029 -0.36411,-2.063315 -0.30343,-0.910286 -0.78891,-1.699201 -1.15303,-1.699201 -2.18469,-2.366744 -1.6992,-1.153029 -2.60949,-5.522402 -0.54617,-3.216345 -1.39577,-5.27966 -0.24274,-0.606857 -0.36411,-1.274401 -0.12138,-0.728228 -0.24275,-1.395772 -0.36411,-1.456457 -1.2744,-1.456457 -1.39577,0 -1.09234,4.005259 0.0607,0.8496 0.24274,1.577829 0.24274,0.667543 0.0607,1.638515 -0.18206,0.970972 -0.48549,2.002629 -0.72823,2.670173 -0.30343,3.944574 0.4248,1.456458 0.30343,3.094973 -0.12137,1.577829 -0.48548,2.488115 -0.36412,0.8496 -1.27441,1.213715 -0.54617,0.970972 -0.91028,2.245372 -0.36412,1.213715 -0.54617,1.638515 -0.12137,0.424801 -0.36412,0.485486 -1.03166,0.364115 -2.124,-0.121371 -1.03166,-0.485486 -1.33508,-1.335086 -0.30343,-0.910287 -0.30343,-1.699201 0.0607,-0.788915 -0.18206,-1.395772 -0.18206,-0.667543 -0.18206,-1.092344 0.0607,-0.4248 0.0607,-0.8496 0.12137,-0.970972 -0.30343,-1.456458 -0.54617,-0.606857 -0.60686,-1.638515 0,-1.031658 0,-1.759887 0,-0.728228 0.12137,-1.213714 0.4248,-1.153029 0.36412,-3.519773 -0.18206,-4.43006 -1.09235,-5.340346 -1.15303,-1.153029 -1.2744,-4.248002 -0.0607,-0.728229 0.0607,-1.3350861 0.18206,-0.6675432 0.0607,-1.3350863 -0.0607,-0.6675432 0.24275,-1.3350864 0.48548,-1.2744006 0.30343,-3.5804588 -0.18206,-2.36674396 -0.24275,-3.33771584 0,-1.03165766 -0.12137,-2.12400096 -0.0607,-1.1530291 0.18206,-2.0026295 0.30343,-0.9102862 0.97097,-1.5778294 1.51714,-1.638515 4.248,-1.638515 1.21372,-0.8496004 2.79155,-1.3350863 1.63851,-0.485486 2.73086,-0.060686 1.09234,0.4248002 1.51714,1.3350864 0.4248,0.9102861 0.66754,1.9419437 0.30343,1.0316576 0.54617,2.124001 0.30343,1.0316576 0.97098,1.6992008 0.66754,0.6675432 0.97097,1.63851506 0.30343,0.91028614 0.54617,1.75988654 0.24274,0.8496004 0.48549,1.4564578 0.24274,0.5461717 0.78891,0.5461717 0.54617,0 0.60686,-1.5171436 0.12137,-1.57782927 0.0607,-3.5804588 0,-2.0026295 -0.0607,-3.8838875 0,-1.9419438 0.36411,-2.7915442 0.36412,-0.9102861 1.2744,-1.3350863 0.97097,-0.4248002 2.18469,0.242743 z m 18.99464,44.9074498 q -0.24274,0.546171 -0.66754,0.8496 -0.36412,0.364115 -1.09235,0.06069 -0.72823,-0.242743 -1.03165,-0.728229 -0.24275,-0.485486 -0.4248,-1.031658 -0.12138,-0.606857 -0.30343,-1.153029 -0.12138,-0.546171 -0.54618,-0.910286 -0.91028,-0.667543 -1.15302,-1.820572 -0.36412,-2.184687 -0.4248,-5.218974 0,-3.034287 -0.0607,-4.187316 -0.0607,-1.153029 -0.24274,-1.699201 -0.12137,-0.546172 -0.36412,-0.667543 -0.18206,-0.121372 -0.54617,-0.303429 -0.66754,-0.303429 -0.97097,-2.124001 -0.30343,-1.881258 -0.18206,-4.369373 0.24274,-4.6728026 -0.54617,-8.0105185 -0.72823,-3.1556586 -0.54617,-5.9472028 0.18206,-2.8522299 0.54617,-4.005259 0.72823,-2.6701727 2.60949,-2.3060582 1.94194,0.3641145 3.03428,0.3034287 1.15303,-0.060686 1.88126,-0.3034287 0.72823,-0.242743 1.33509,-0.4854859 0.60686,-0.242743 1.57783,-0.1820573 1.03166,0 1.82057,0.3034287 0.8496,0.242743 1.6992,0.485486 2.24537,0.7282289 3.51977,0.6675432 1.2744,-0.060686 2.00263,-0.1213715 0.72823,-0.1213715 1.2744,-0.1213715 1.15303,0 1.88126,0.6068574 0.78892,0.6068574 0.91029,1.3350863 0.12137,0.728229 0.0607,1.5171436 -0.12137,1.5171436 -0.54617,2.5488012 -0.4248,0.97097189 -0.48548,1.63851505 0,0.66754317 0.0607,1.33508635 0.0607,0.6068574 0.12137,1.2137148 0.0607,0.6068575 -0.12137,1.3350864 -0.12137,0.6675432 -0.72823,1.3957721 -0.60685,0.6675431 -1.39577,1.2137148 -1.75989,1.0923434 -2.85223,0.7889147 -1.09234,-0.3034287 -1.63851,-0.485486 -0.48549,-0.2427429 -0.97098,-0.3641144 -1.03165,-0.3034287 -2.00263,-0.060686 -0.97097,0.242743 -1.33508,0.9102862 -0.36412,0.6675431 -0.30343,1.3957721 0.12137,0.7282289 0.72823,1.335086 0.60686,0.546172 1.63851,0.606858 1.09235,0.06068 1.75989,0 0.66754,-0.06069 1.09234,-0.06069 0.91029,0 1.63852,0.788915 1.09234,1.2744 -0.18206,3.823201 -0.30343,0.667544 -0.54617,1.759887 -0.18206,1.092343 -0.48549,2.184687 -0.30343,1.031657 -0.78891,1.759886 -0.4248,0.667543 -1.03166,0.546172 -0.60686,-0.121372 -0.8496,-0.364115 -0.18206,-0.242743 -0.4248,-0.4248 -0.48549,-0.485486 -1.09234,-0.303428 -0.97097,0.242743 -1.15303,1.759886 -0.12137,1.456458 -0.0607,2.912916 0.0607,1.456458 0.12137,2.488115 0.12138,1.031658 0,2.063315 -0.18205,2.366744 -1.82057,3.580459 -0.54617,0.364115 -0.8496,1.031658 -0.24274,0.606857 -0.54617,1.213715 z"
             id="text22"
             style="font-size:62.1422px;font-family:Creepster;-inkscape-font-specification:'Creepster, Normal';fill:#a6a6a6;stroke-width:4.12588"
             transform="scale(0.89370545,1.1189369)"
             aria-label="CONF" />
        </g>
        <g
           id="g20">
          <path
             d="m 62.7,0 c 1.86,0.91 3.53,2.06 4.8,3.73 1.66,2.18 1.7,4.09 0,6.23 -1.46,1.84 -3.06,3.57 -4.55,5.39 -1.83,2.24 -3.36,4.63 -3.27,7.7 0,0.18 -0.26,0.41 -0.45,0.56 -1.2,0.94 -2.28,1.14 -3.49,-0.18 -0.67,-0.73 -1.73,-1.14 -2.66,-1.58 -0.57,-0.27 -0.91,-0.54 -0.96,-1.21 -0.24,-3.76 -0.44,-7.55 0.8,-11.17 1.51,-4.39 4.16,-7.86 8.75,-9.46 h 1.01 z"
             id="path11" />
          <path
             class="f"
             d="m 78.29,24.61 c 5.11,-3.39 10.46,-4.38 16.12,-2.65 8.51,2.6 14.04,8.37 17.1,16.64 1.65,4.48 2.56,9.11 2.94,13.85 0.75,9.47 -0.1,18.79 -2.96,27.88 -2.89,9.18 -8.81,15.37 -18.13,18.13 -0.28,0.08 -0.57,0.14 -0.74,0.18 0.61,-2.57 1.34,-5.11 1.8,-7.69 C 95.33,85.9 95.45,80.8 95.33,75.68 95.28,73.7 94.8,64.89 94.69,64.82 94.46,63.08 94.28,61.33 94,59.6 92.43,49.92 89.54,40.66 84.74,32.07 83.14,29.21 81.08,26.69 78.29,24.62 Z"
             id="path12" />
          <path
             class="f"
             d="m 43.41,20.68 c -1.45,0.41 -2.78,0.72 -4.08,1.16 -9.06,3.02 -14.78,9.32 -17.81,18.24 -1.73,5.1 -2.56,10.37 -2.76,15.72 -0.35,8.95 -0.09,17.88 1.95,26.66 1.21,5.2 3.14,10.12 6.11,14.6 l -0.11,0.31 C 24.91,96.97 23.08,96.69 21.33,96.15 14.42,94.01 9.59,89.34 6.24,83.12 1.47,74.31 -0.58,64.87 0.14,54.85 0.67,47.49 2.45,40.48 6.06,33.99 11.12,24.9 18.88,19.95 29.21,18.95 c 4.82,-0.47 9.5,0.22 14.21,1.72 z"
             id="path13" />
          <path
             class="f"
             d="m 74.08,87.97 c 1.44,-2.45 2.85,-4.85 4.25,-7.25 0.49,-0.84 0.99,-1.68 1.48,-2.52 0.9,-1.54 0.9,-1.51 2.62,-1.22 3.05,0.52 6.1,1 9.14,1.5 0.23,0.04 0.46,0.03 0.79,0.05 0.54,-2.05 1.08,-4.08 1.62,-6.11 h 0.24 c 0,2.23 0.02,4.44 0,6.66 -0.05,4.98 -0.44,9.92 -1.47,14.81 -1.43,6.77 -5.46,11.08 -12.01,13.07 -6.75,2.05 -13.39,1.92 -19.78,-1.32 -2.31,-1.17 -2.16,-1.22 -1.89,-3.79 0.6,-5.88 1.06,-11.77 1.58,-17.65 0.03,-0.33 0.05,-0.67 0.08,-1.17 4.48,1.67 8.89,3.3 13.36,4.96 z"
             id="path14" />
          <path
             class="d"
             d="M 47.47,55.77 30.19,50.45 42.6,39.48 47.47,55.76 Z"
             id="path15" />
          <path
             class="d"
             d="m 91.22,54.23 c -7.78,1.08 -15.3,2.12 -23.11,3.21 l 7.72,-19.83 c 5.15,5.57 10.18,11 15.39,16.62 z"
             id="path16" />
          <path
             class="f"
             d="m 31.72,66.04 c 1.05,0.05 1.4,0.44 1.6,1.42 0.4,1.96 0.96,3.89 1.47,5.9 2.81,-0.85 5.55,-1.65 8.26,-2.51 0.66,-0.21 1.1,-0.1 1.62,0.34 2.34,1.97 4.72,3.88 7.16,5.88 2.43,-1.65 4.78,-3.28 7.17,-4.84 0.64,-0.42 0.87,-0.86 0.87,-1.63 0.08,-10.59 0.02,-21.18 -0.89,-31.74 -0.32,-3.7 -1.02,-7.38 -1.56,-11.06 -0.24,-1.64 -1.18,-2.78 -2.53,-3.7 -2.33,-1.57 -4.9,-2.5 -7.67,-2.42 -9.13,0.28 -16.38,4.16 -21.37,11.86 -4.06,6.27 -5.32,13.42 -5.88,20.72 -0.43,5.54 -0.26,11.08 0.15,16.62 0.37,5.08 1.13,10.08 2.66,14.94 1.89,6.02 4.66,11.55 9.42,15.83 6.63,5.96 14.16,7.55 22.63,4.41 1.81,-0.67 2.81,-1.74 3,-3.67 0.44,-4.48 0.96,-8.95 1.4,-13.42 0.16,-1.69 0.19,-3.39 0.29,-5.33 -1.86,1.29 -3.55,2.37 -5.13,3.59 -0.87,0.68 -1.47,0.61 -2.34,0 -2.09,-1.47 -4.24,-2.84 -6.41,-4.19 -0.54,-0.34 -1.22,-0.57 -1.86,-0.62 -3.69,-0.27 -7.38,-0.5 -11.07,-0.68 -0.81,-0.04 -1.17,-0.28 -1.33,-1.1 -0.56,-2.8 -1.19,-5.58 -1.85,-8.36 -0.12,-0.5 -0.47,-1.04 -0.87,-1.37 -2.03,-1.66 -4.1,-3.27 -6.17,-4.87 -0.2,-0.15 -0.5,-0.18 -0.75,-0.26 l 0.35,-0.41 c 3.21,0.24 6.43,0.52 9.64,0.68 z"
             id="path17" />
          <path
             class="f"
             d="M 88.37,42.6 C 86.7,38.01 84.78,33.54 81.79,29.63 77.07,23.44 70.84,21.52 63.39,23.27 c -1.95,0.46 -3.8,1.24 -5.3,2.28 0.43,2.13 0.92,4.09 1.22,6.07 1.12,7.52 1.42,15.11 1.59,22.7 0.12,5.41 0.06,10.82 0.11,16.23 0,0.39 0.22,0.97 0.52,1.13 3.33,1.82 6.69,3.57 10.12,5.38 2.42,-2.56 4.8,-5.02 7.11,-7.55 0.57,-0.62 1.01,-0.65 1.72,-0.32 2.2,1.01 4.43,1.93 6.63,2.93 0.61,0.28 0.98,0.28 1.45,-0.28 1.49,-1.73 3.07,-3.39 4.56,-5.12 0.28,-0.33 0.47,-0.89 0.44,-1.32 -0.52,-7.87 -2.49,-15.41 -5.18,-22.79 z"
             id="path18" />
          <path
             class="d"
             d="m 31.07,47.02 c 0.45,0 2.52,-0.31 5.78,-1.01 -0.46,0.38 -4.33,3.21 -4.72,3.6 -0.81,0.81 -0.8,2.14 0.02,2.97 0.4,0.4 0.92,0.63 1.48,0.64 0.58,0.02 1.09,-0.2 1.49,-0.59 0.33,-0.32 1.57,-1.94 3.39,-4.76 0,0.29 -0.8,5.28 -0.8,5.83 0,1.15 0.95,2.08 2.13,2.08 1.18,0 2.13,-0.93 2.13,-2.08 0,-0.55 -0.41,-3.4 -0.96,-5.88 0.17,-0.06 3.13,4.33 3.51,4.71 0.8,0.81 2.12,0.82 2.94,0.01 0.4,-0.39 0.62,-0.91 0.63,-1.46 0,-0.56 -0.2,-1.08 -0.59,-1.48 -0.38,-0.39 -2.74,-2.2 -4.84,-3.59 0.93,0.09 5.4,0.99 5.86,1 h 0.04 c 1.13,0 2.05,-0.93 2.08,-2.08 0.01,-0.56 -0.19,-1.1 -0.57,-1.51 -0.38,-0.41 -0.9,-0.65 -1.46,-0.66 h -0.02 c -0.59,0 -3.4,0.41 -5.85,0.9 -0.04,-0.12 4.4,-2.98 4.79,-3.35 0.4,-0.39 0.62,-0.91 0.62,-1.48 0,-0.56 -0.22,-1.09 -0.61,-1.49 -0.42,-0.44 -0.98,-0.66 -1.54,-0.66 -0.52,0 -1.03,0.19 -1.43,0.57 -0.39,0.38 -2.05,2.63 -3.44,4.73 0.11,-1.04 0.81,-5.22 0.82,-5.76 0,-0.56 -0.21,-1.09 -0.61,-1.48 -0.4,-0.39 -0.92,-0.61 -1.49,-0.62 h -0.03 c -1.16,0 -2.11,0.91 -2.12,2.05 0,0.55 0.44,3.33 0.95,5.8 -0.24,-0.29 -3.04,-4.36 -3.42,-4.75 v 0 c -0.4,-0.41 -0.93,-0.61 -1.47,-0.61 -0.54,0 -1.08,0.21 -1.5,0.62 -0.4,0.39 -0.63,0.92 -0.65,1.48 -0.01,0.56 0.19,1.1 0.58,1.49 0.38,0.39 2.6,2 4.71,3.38 -0.42,0.02 -5.25,-0.79 -5.79,-0.8 H 31.1 c -0.55,0 -1.07,0.22 -1.47,0.62 -0.39,0.4 -0.61,0.93 -0.61,1.49 0,1.17 0.92,2.13 2.06,2.14 z m 8.14,-2.13 c 0,-0.34 0.28,-0.62 0.62,-0.62 0.34,0 0.62,0.28 0.62,0.62 0,0.34 -0.28,0.62 -0.62,0.62 -0.34,0 -0.62,-0.28 -0.62,-0.62 z m -4.93,6.87 C 34.12,51.92 33.91,52 33.68,52 h -0.02 c -0.24,0 -0.47,-0.1 -0.65,-0.28 -0.36,-0.36 -0.37,-0.92 -0.03,-1.26 0.18,-0.18 1.34,-0.98 3.99,-2.68 -1.71,2.64 -2.53,3.8 -2.7,3.98 z m 5.57,2.79 c -0.51,0 -0.92,-0.39 -0.92,-0.87 0,-0.25 0.25,-1.65 0.92,-4.72 0.67,3.07 0.92,4.47 0.92,4.72 0,0.48 -0.41,0.87 -0.92,0.87 z m 7.05,-3.5 c 0,0.24 -0.1,0.46 -0.27,0.63 -0.18,0.17 -0.4,0.26 -0.63,0.26 -0.23,0 -0.45,-0.09 -0.62,-0.26 -0.18,-0.18 -0.98,-1.34 -2.66,-3.97 2.6,1.72 3.75,2.54 3.93,2.72 0.16,0.17 0.25,0.39 0.25,0.62 z m 1.68,-7.09 c 0.23,0 0.44,0.1 0.6,0.27 0.16,0.18 0.25,0.41 0.25,0.66 -0.01,0.5 -0.4,0.9 -0.87,0.9 h -0.02 c -0.25,0 -1.64,-0.28 -4.7,-1.01 3.09,-0.61 4.48,-0.83 4.74,-0.82 z m -3.17,-5.85 c 0.34,-0.33 0.91,-0.31 1.26,0.06 0.17,0.18 0.27,0.41 0.27,0.65 0,0.23 -0.09,0.45 -0.25,0.61 v 0 c -0.18,0.17 -1.36,0.97 -4.03,2.62 1.74,-2.62 2.58,-3.77 2.76,-3.94 z m -5.59,-2.79 h 0.01 c 0.25,0 0.48,0.1 0.65,0.27 0.17,0.17 0.26,0.38 0.25,0.61 0,0.25 -0.27,1.64 -0.98,4.71 -0.63,-3.08 -0.86,-4.48 -0.85,-4.73 0,-0.47 0.42,-0.86 0.92,-0.86 z m -7.01,3.4 c 0,-0.24 0.11,-0.47 0.28,-0.64 0.36,-0.35 0.93,-0.36 1.26,-0.02 0.18,0.18 0.98,1.35 2.65,4.01 -2.63,-1.73 -3.78,-2.55 -3.96,-2.73 -0.16,-0.16 -0.24,-0.38 -0.24,-0.62 z m -2.33,5.51 c 0.16,-0.17 0.37,-0.27 0.61,-0.26 0.25,0 1.65,0.26 4.71,0.95 -3.08,0.65 -4.48,0.89 -4.73,0.89 -0.48,0 -0.86,-0.42 -0.86,-0.92 0,-0.25 0.1,-0.48 0.27,-0.65 z"
             id="path19" />
          <path
             class="d"
             d="m 67.69,51.29 c 0.45,0 2.52,-0.31 5.78,-1.01 -0.46,0.38 -4.33,3.21 -4.72,3.6 -0.81,0.81 -0.8,2.14 0.02,2.97 0.4,0.4 0.92,0.63 1.48,0.64 0.58,0.02 1.09,-0.2 1.49,-0.59 0.33,-0.32 1.57,-1.94 3.39,-4.76 0,0.29 -0.8,5.28 -0.8,5.83 0,1.15 0.95,2.08 2.13,2.08 1.18,0 2.13,-0.93 2.13,-2.08 0,-0.55 -0.41,-3.4 -0.96,-5.88 0.17,-0.06 3.13,4.33 3.51,4.71 0.8,0.81 2.12,0.82 2.94,0.01 0.4,-0.39 0.62,-0.91 0.63,-1.46 0,-0.56 -0.2,-1.08 -0.59,-1.48 -0.38,-0.39 -2.74,-2.2 -4.84,-3.59 0.93,0.09 5.4,0.99 5.86,1 h 0.04 c 1.13,0 2.05,-0.93 2.08,-2.08 0.01,-0.56 -0.19,-1.1 -0.57,-1.51 -0.38,-0.41 -0.9,-0.65 -1.46,-0.66 h -0.02 c -0.59,0 -3.4,0.41 -5.85,0.9 -0.04,-0.12 4.4,-2.98 4.79,-3.35 0.4,-0.39 0.62,-0.91 0.62,-1.48 0,-0.56 -0.22,-1.09 -0.61,-1.49 -0.42,-0.44 -0.98,-0.66 -1.54,-0.66 -0.52,0 -1.03,0.19 -1.43,0.57 -0.39,0.38 -2.05,2.63 -3.44,4.73 0.11,-1.04 0.81,-5.22 0.82,-5.76 0,-0.56 -0.21,-1.09 -0.61,-1.48 -0.4,-0.39 -0.92,-0.61 -1.49,-0.62 h -0.03 c -1.16,0 -2.11,0.91 -2.12,2.05 0,0.55 0.44,3.33 0.95,5.8 -0.24,-0.29 -3.04,-4.36 -3.42,-4.75 v 0 c -0.4,-0.41 -0.93,-0.61 -1.47,-0.61 -0.54,0 -1.08,0.21 -1.5,0.62 -0.4,0.39 -0.63,0.92 -0.65,1.48 -0.01,0.56 0.19,1.1 0.58,1.49 0.38,0.39 2.6,2 4.71,3.38 -0.42,0.02 -5.25,-0.79 -5.79,-0.8 h -0.01 c -0.55,0 -1.07,0.22 -1.47,0.62 -0.39,0.4 -0.61,0.93 -0.61,1.49 0,1.17 0.92,2.13 2.06,2.14 z m 8.14,-2.13 c 0,-0.34 0.28,-0.62 0.62,-0.62 0.34,0 0.62,0.28 0.62,0.62 0,0.34 -0.28,0.62 -0.62,0.62 -0.34,0 -0.62,-0.28 -0.62,-0.62 z m -4.93,6.87 c -0.16,0.16 -0.37,0.24 -0.6,0.24 h -0.02 c -0.24,0 -0.47,-0.1 -0.65,-0.28 -0.36,-0.36 -0.37,-0.92 -0.03,-1.26 0.18,-0.18 1.34,-0.98 3.99,-2.68 -1.71,2.64 -2.53,3.8 -2.7,3.98 z m 5.57,2.79 c -0.51,0 -0.92,-0.39 -0.92,-0.87 0,-0.25 0.25,-1.65 0.92,-4.72 0.67,3.07 0.92,4.47 0.92,4.72 0,0.48 -0.41,0.87 -0.92,0.87 z m 7.05,-3.5 c 0,0.24 -0.1,0.46 -0.27,0.63 -0.18,0.17 -0.4,0.26 -0.63,0.26 -0.23,0 -0.45,-0.09 -0.62,-0.26 -0.18,-0.18 -0.98,-1.34 -2.66,-3.97 2.6,1.72 3.75,2.54 3.93,2.72 0.16,0.17 0.25,0.39 0.25,0.62 z m 1.68,-7.09 c 0.23,0 0.44,0.1 0.6,0.27 0.16,0.18 0.25,0.41 0.25,0.66 -0.01,0.5 -0.4,0.9 -0.87,0.9 h -0.02 c -0.25,0 -1.64,-0.28 -4.7,-1.01 3.09,-0.61 4.48,-0.83 4.74,-0.82 z m -3.17,-5.85 c 0.34,-0.33 0.91,-0.31 1.26,0.06 0.17,0.18 0.27,0.41 0.27,0.65 0,0.23 -0.09,0.45 -0.25,0.61 v 0 c -0.18,0.17 -1.36,0.97 -4.03,2.62 1.74,-2.62 2.58,-3.77 2.76,-3.94 z m -5.59,-2.79 h 0.01 c 0.25,0 0.48,0.1 0.65,0.27 0.17,0.17 0.26,0.38 0.25,0.61 0,0.25 -0.27,1.64 -0.98,4.71 -0.63,-3.08 -0.86,-4.48 -0.85,-4.73 0,-0.47 0.42,-0.86 0.92,-0.86 z m -7.01,3.4 c 0,-0.24 0.11,-0.47 0.28,-0.64 0.36,-0.35 0.93,-0.36 1.26,-0.02 0.18,0.18 0.98,1.35 2.65,4.01 -2.63,-1.73 -3.78,-2.55 -3.96,-2.73 -0.16,-0.16 -0.24,-0.38 -0.24,-0.62 z M 67.1,48.5 c 0.16,-0.17 0.37,-0.27 0.61,-0.26 0.25,0 1.65,0.26 4.71,0.95 -3.08,0.65 -4.48,0.89 -4.73,0.89 -0.48,0 -0.86,-0.42 -0.86,-0.92 0,-0.25 0.1,-0.48 0.27,-0.65 z"
             id="path20" />
        </g>
      </g>
    </g>
  </g>
</svg>
