<?xml version="1.0" encoding="UTF-8" standalone="no"?>
<svg
   viewBox="0 0 492.85 108.31"
   version="1.1"
   id="svg21"
   sodipodi:docname="fullSpookyLogo-MagnoliaConf-white.svg"
   width="492.85001"
   height="108.31"
   inkscape:version="1.4.2 (ebf0e940, 2025-05-08)"
   inkscape:export-filename="fullSpookyLogo-MagnoliaConf-white.png"
   inkscape:export-xdpi="96"
   inkscape:export-ydpi="96"
   xmlns:inkscape="http://www.inkscape.org/namespaces/inkscape"
   xmlns:sodipodi="http://sodipodi.sourceforge.net/DTD/sodipodi-0.dtd"
   xmlns="http://www.w3.org/2000/svg"
   xmlns:svg="http://www.w3.org/2000/svg">
  <sodipodi:namedview
     id="namedview21"
     pagecolor="#000000"
     bordercolor="#000000"
     borderopacity="0.25"
     inkscape:showpageshadow="2"
     inkscape:pageopacity="0.0"
     inkscape:pagecheckerboard="0"
     inkscape:deskcolor="#d1d1d1"
     inkscape:zoom="1.9863913"
     inkscape:cx="209.17329"
     inkscape:cy="54.369952"
     inkscape:window-width="1920"
     inkscape:window-height="1027"
     inkscape:window-x="1512"
     inkscape:window-y="25"
     inkscape:window-maximized="1"
     inkscape:current-layer="g21"
     inkscape:export-bgcolor="#ffffff00" />
  <defs
     id="defs1">
    <style
       id="style1">.d{fill:#fff;}.e{fill:#a6a6a6;}.f{fill:#bf5272;}</style>
  </defs>
  <g
     id="a" />
  <g
     id="b">
    <g
       id="c">
      <g
         id="g21">
        <g
           id="g22"
           transform="translate(4.4760216,55.825421)"
           inkscape:label="g22">
          <path
             style="font-size:66.6667px;font-family:Creepster;-inkscape-font-specification:'Creepster, Normal';fill:#ffffff;stroke-width:5.64313"
             d="m 147.82007,-15.564185 q 2.08334,0 3.84115,1.106771 1.04167,-0.325521 1.95313,-0.325521 0.97656,0 2.34375,0.260417 1.43229,0.260417 2.01823,1.302084 0.65104,1.041667 0.58594,1.757813 -0.13021,1.302084 -0.45573,1.8880223 0.58593,1.5625008 -0.58594,3.8411479 1.5625,3.7760436 -0.0651,11.2630268 -0.39062,1.8229176 -0.78125,3.5156269 -0.91146,3.9713561 -0.91146,5.5989611 0,1.041667 0.13021,3.059898 0.19532,2.01823 0.32552,4.101564 0.13021,2.083335 0.13021,3.841148 0,1.757814 -0.39062,2.278647 -0.32552,0.45573 -0.52084,1.497397 -0.1302,0.976563 -0.39062,1.953126 -0.26042,0.976563 -0.71615,1.627605 -0.45573,0.716146 -1.17187,0.585938 -0.65105,-0.0651 -0.84636,-0.260417 -0.13021,-0.195313 -0.26041,-0.455729 -0.19532,-0.651042 -0.78125,-0.846355 -0.91146,-0.260417 -0.97657,-1.171876 0,-0.976563 0.26042,-1.367188 0.32552,-0.455729 0.32552,-0.911459 0,-0.520833 -0.19531,-1.041667 -0.45573,-1.041667 -1.17188,-1.171876 -0.71614,-0.195312 -1.17187,-0.78125 -0.45573,-0.651042 -0.78125,-1.432292 -0.78125,-1.888022 -0.58594,-2.864585 0.26041,-0.976563 -0.0651,-2.343752 -1.04166,-4.166668 -0.1302,-6.315107 0.32552,-0.911459 0.0651,-1.562501 -0.39063,-1.3671881 -0.19531,-2.3437511 0.39062,-1.9531261 0.39062,-3.5807311 0,-1.6927092 -0.84635,-1.6927092 -0.78125,0 -1.04167,4.1666688 -0.26042,4.6223986 -0.84635,5.4687526 -0.52084,0.846355 -0.91146,1.432293 -0.39063,0.520833 -0.71615,1.23698 -0.65104,1.432292 -0.65104,3.190105 0,1.69271 -0.13021,2.018231 -0.0651,0.325521 -0.13021,0.716146 -0.32552,1.171876 -0.32552,2.864585 0,2.343751 -0.97656,3.776044 -0.13021,0.195312 -0.26042,0.846354 -0.13021,0.585938 -0.39062,1.23698 -0.65105,1.562501 -1.69271,1.562501 -1.04167,-0.0651 -1.62761,-0.651042 -0.52083,-0.651042 -0.84635,-1.497397 -0.32552,-0.846354 -0.52084,-1.692709 -0.19531,-0.846355 -0.65104,-1.627605 -0.65104,-1.106772 0.32552,-4.557294 0.39063,-1.367188 0.32552,-2.213543 -0.0651,-0.911459 -0.91146,-1.432293 -0.39062,-0.260416 -0.84635,-2.79948 -0.39063,-2.604168 -0.71615,-4.296877 -0.26041,-1.7578139 -0.52083,-3.1901063 -0.71615,-3.3203143 -1.17188,-3.3854185 -0.39062,-0.065104 -0.52083,0.325521 -0.0651,0.325521 0,0.8463546 0.0651,0.5208336 0.13021,1.0416672 0.13021,0.5208336 0.13021,0.9765631 0.0651,0.4557294 -0.39063,1.7578134 -0.39062,1.2369795 -0.0651,2.8645845 0.32552,1.627605 0.32552,2.47396 0,0.846355 -0.19531,1.888022 -0.19532,0.976563 -0.13021,1.757813 0.13021,0.781251 0.19531,1.432293 0.13021,1.627605 -0.71615,2.148438 -0.84635,0.520834 -0.84635,1.69271 0.0651,1.171875 0.78125,1.953126 0.71615,0.716146 0.52083,1.367188 -0.19531,0.651042 -0.45573,1.041667 -0.26041,0.390625 -0.19531,0.651042 0.0651,0.260417 0,0.651042 -0.13021,1.562501 -2.47396,2.864585 -1.88802,1.041667 -3.125,0.78125 -1.23698,-0.195312 -1.82292,-0.846354 -0.58594,-0.651042 -0.45573,-1.432293 0.13021,-0.846354 0,-1.497396 -0.0651,-0.716146 -0.13021,-1.432293 0,-0.716146 -0.0651,-1.432292 -0.0651,-1.953126 -0.39062,-2.604168 -0.32553,-0.716146 -0.39063,-1.432293 -0.0651,-0.716146 -0.0651,-1.302084 0.0651,-0.651042 0.1302,-1.171875 0.0651,-0.520834 -0.19531,-1.106772 -0.19531,-0.585938 0,-1.497396 0.19531,-0.911459 0.0651,-1.757814 -0.13021,-0.846354 0,-1.497396 0.19531,-0.716147 0.32552,-1.432293 0.19531,-1.692709 -0.71615,-2.278647 -1.04167,-0.8463545 -1.43229,-1.7578133 -0.32552,-0.976563 -0.26042,-2.4739597 0.0651,-1.4973966 0,-2.4088554 -0.0651,-0.9765631 0.32552,-2.2786471 0.45573,-1.36718822 0.45573,-2.7994806 0,-1.4322925 -0.13021,-2.4739597 -0.0651,-1.0416672 -0.19531,-1.953126 -0.13021,-0.9114589 -0.26042,-1.8880219 -0.19531,-2.0182302 0.19532,-3.3854183 0.52083,-1.302084 1.30208,-2.148439 0.84636,-0.911459 2.66927,-0.846354 3.51563,0.130208 4.23178,-0.325521 1.49739,-0.911459 3.38541,-0.06511 0.52084,0.195313 0.91146,0.520834 3.64584,0.911459 4.10157,2.929689 1.30208,5.468753 1.30208,7.2916706 0,1.7578134 0.0651,2.0833344 0.1302,0.3255211 0.19531,0.5208337 0.13021,0.13020836 0.13021,0.32552097 0,0.1953126 -0.13021,1.04166722 -0.13021,0.84635461 0.19531,1.30208401 0.32552,0.4557294 0.71615,0.4557294 0.45573,0 0.84635,-0.4557294 0.45573,-0.5208336 0.58594,-2.01823023 0.19531,-1.56250087 0.19531,-1.88802187 0,-0.5859378 0.19532,-1.0416672 0.26041,-0.5208336 0.32552,-1.1067714 0.0651,-0.5859378 0.19531,-1.2369798 0.19531,-1.6927093 0.84635,-2.3437513 0.65105,-0.651042 1.36719,-1.1067714 0.71615,-0.5208336 0.91146,-1.4322927 0.19531,-0.911459 0.39063,-1.692709 0.26041,-0.78125 0.71614,-1.497397 1.10677,-1.822917 3.25521,-1.822917 z m 38.93231,48.828151 q -0.39062,0.716146 -1.04166,1.041667 -0.65104,0.390625 -1.30209,-0.130208 -0.65104,-0.45573 -0.97656,-0.390626 -0.26042,0.06511 -0.52083,0.130209 -0.58594,0.0651 -1.17188,-0.846355 -0.58594,-0.911459 -0.65104,-1.432292 -0.0651,-0.585938 0,-1.106772 0.26042,-1.171875 -0.39063,-2.083334 -0.58593,-0.911459 -0.84635,-1.367188 -0.19531,-0.45573 -0.19531,-1.302084 0,-0.911459 -0.13021,-1.106772 -0.0651,-0.260417 -0.13021,-0.390625 -0.32552,-0.585938 -0.26042,-1.822918 0.13021,-1.236979 -0.32552,-1.692709 -0.45573,-0.520833 -1.23698,-0.78125 -0.71614,-0.260417 -1.17187,0.195312 -0.39063,0.390626 -0.78125,0.976563 -0.32553,0.585938 -0.84636,1.041668 -0.52083,0.390625 -1.36719,0.195312 -0.78125,-0.195312 -1.75781,0.390625 -0.97656,0.585938 -1.17188,1.432293 -0.19531,0.78125 -0.45573,1.627605 -0.26041,0.846354 -0.19531,1.562501 0.13021,0.716146 0,1.432292 -0.0651,0.651042 -0.32552,1.302084 -0.52083,1.627605 -1.23698,1.757814 -0.58594,0.0651 -1.23698,0 -0.71614,1.302084 -1.69271,1.5625 -2.66927,0.585938 -3.1901,-0.846354 -0.32552,-0.846355 -0.39063,-2.213543 -0.13021,-2.734377 -0.58594,-3.71094 -0.45573,-0.976563 -0.26041,-2.343751 0.26041,-1.367188 0.19531,-2.734376 -0.0651,-1.367188 0,-2.083335 0.0651,-0.716146 0.13021,-1.302084 0.13021,-0.585938 0.26041,-1.106771 0.13021,-0.585938 0.13021,-1.302084 0.0651,-0.781251 0.26042,-1.757814 0.19531,-0.976563 0.39062,-2.01823 0.52084,-2.6041679 0.39063,-3.9062519 -0.13021,-1.3020841 0.19531,-2.2135429 0.39063,-0.9114588 0.84636,-1.627605 1.17187,-1.8880219 1.10677,-3.0598975 -0.0651,-1.23697982 -0.13021,-1.88802183 0,-0.71614617 0.0651,-1.43229247 0.32553,-3.5156268 3.32032,-11.0026104 0.19531,-0.716146 1.23698,-1.106771 1.04167,-0.390625 2.08333,-0.0651 1.10677,0.260417 1.75782,0.260417 0.71614,-0.06511 1.17187,-0.520834 0.52084,-0.520834 1.04167,-0.976563 0.58594,-0.455729 1.36719,-0.716146 0.78125,-0.325521 1.75781,-0.325521 0.97656,0 2.08334,0.585938 1.82291,0.976563 2.40885,1.822917 0.58594,0.846355 0.78125,1.367188 0.19531,0.520834 0.65104,1.432293 0.45573,0.911459 0.39063,1.6276049 0,0.7161462 0.26042,1.6927092 0.26041,0.976563 0,2.2786471 -0.26042,1.302084 0,2.604168 0.26041,1.2369798 0.26041,1.6927092 0,0.45572946 0.0651,0.84635467 0.0651,1.10677142 0.45573,1.95312603 0.39062,0.9114588 0.19531,2.2786471 -0.13021,1.302084 -0.0651,2.2135428 0.13021,0.8463546 0.71615,1.7578134 1.10677,1.7578135 0.78125,3.9062526 -0.0651,0.585937 0,1.302084 0.13021,0.651042 0.13021,1.236979 0,0.520834 -0.13021,1.367189 -0.19531,1.236979 0.0651,2.994793 0.39063,3.25521 0.39063,4.361981 0,1.106772 0.0651,1.888022 0.0651,0.716146 0.13021,1.562501 0.19532,2.213543 0,4.49219 -0.13021,2.213543 -1.36719,2.539064 z M 176.79144,7.0269726 q 0.13021,-1.2369798 -0.13021,-3.0598974 -0.19531,-1.8229177 -0.19531,-2.6692723 0,-0.91145881 -0.13021,-1.56250082 -0.19531,-1.04166718 -1.10677,-0.26041681 -1.04167,-1.04166727 -1.69271,-0.0651042 -0.45573,0.71614621 -0.45573,2.34375123 -0.13021,1.1067714 -0.52083,2.0182303 -0.32552,0.9114588 -0.45573,2.0182302 -0.19531,1.302084 -0.71615,3.1901059 -0.45573,1.8880223 0.13021,2.7994803 0.65104,0.911459 1.5625,0.651042 0.91146,-0.260416 1.36719,-0.260416 0.45573,-0.0651 0.78125,-0.130209 0.78125,-0.0651 1.17188,-0.585938 0.45573,-0.585937 0.45573,-0.976563 0.0651,-0.455729 0,-0.9114585 -0.19532,-1.302084 -0.0651,-2.5390639 z m 29.94793,10.1562554 q -1.82292,0 -1.69271,-1.692709 0.13021,-1.367188 -0.0651,-2.213543 -0.32553,-1.432292 -0.13021,-2.083334 0.52083,-1.9531265 4.23177,-0.911459 0.65104,0.195312 1.04167,0.195312 0.39062,0 0.78125,-0.0651 1.17187,-0.195312 2.08333,0 0.97657,0.130209 1.69271,0.0651 0.71615,-0.0651 1.30209,-0.195312 0.65104,-0.130209 1.17187,-0.260417 0.52083,-0.1302085 0.97656,-0.1302085 0.65105,0 0.91146,1.1067715 0.32552,1.041667 0.26042,2.343751 -0.19531,3.320314 -1.5625,3.841148 -0.97656,0.390625 -1.88802,1.23698 -0.84636,0.846355 -0.65104,2.539064 0.26041,1.627605 0.26041,2.604168 0.0651,0.911459 0,1.627605 0,0.651042 -0.0651,1.171875 0,0.45573 0.0651,1.23698 0.13021,0.716147 -0.0651,1.953126 -0.13021,1.23698 -0.58594,2.213543 -1.10677,2.343751 -2.79948,1.757814 -1.23698,-0.390626 -2.40886,-2.083335 -0.39062,-0.585938 -0.78125,-0.976563 -0.32552,-0.455729 -0.91146,-0.260417 -0.58593,0.130209 -1.04166,0.651042 -0.39063,0.45573 -0.84636,0.976563 -2.73437,3.385419 -6.96615,0.976563 -2.14844,-1.171875 -2.99479,-2.929689 -0.32552,-0.78125 -0.71615,-1.757813 -0.32552,-0.976563 -0.78125,-1.888022 -1.04166,-2.148439 -2.01823,-2.864585 -0.91146,-0.716146 -1.04166,-7.031254 -0.0651,-1.367188 0.0651,-2.343751 0.13021,-1.041667 0.13021,-2.604168 V 8.3941609 q 0,-1.4322925 -0.0651,-2.7343765 0,-2.0833344 0.32553,-3.6458353 -2.08334,-1.3671882 -1.62761,-5.2734403 0.32552,-2.4739596 0.91146,-3.5807311 0.65104,-1.1718756 0.97656,-2.278647 0.39063,-1.1718757 0.78125,-2.4088557 0.39063,-1.302084 1.10677,-1.692709 0.71615,-0.390625 0.91146,-0.651042 0.19532,-0.260417 0.39063,-0.520834 1.23698,-1.822917 5.33854,-2.473959 1.82292,-0.325521 3.58073,0.325521 1.75782,0.651042 2.92969,0.78125 1.17188,0.130209 2.21355,0.195313 4.49219,0.260417 5.85937,1.888022 0.97657,1.106771 1.23698,2.278647 0.26042,1.106771 0.65105,1.8229173 0.45572,0.651042 0.32552,1.4322924 -0.13021,0.7161462 -0.0651,1.2369798 0.13021,0.4557294 -0.0651,0.9765631 -0.19531,0.5208336 -0.39063,1.0416672 -0.39062,1.3671882 0.0651,1.953126 0.52083,0.5859378 0.91146,1.1067714 0.39062,0.4557295 0.58593,0.97656306 0.58594,1.30208403 0.13021,2.21354284 -0.45573,0.9114588 -1.04167,1.7578135 -0.52083,0.8463546 -1.36718,0.9114588 -2.27865,0.1953126 -3.0599,0.7812504 -0.78125,0.5208336 -1.30209,0.7161462 -1.30208,0.5859378 -2.40885,-0.1302084 -1.82292,-0.8463546 -1.5625,-3.1250017 0.13021,-2.73437643 -2.01823,-2.99479323 -0.97656,-0.13020841 -2.01823,0.58593781 -1.04167,0.71614621 -1.62761,1.88802182 -1.36719,3.0598975 -0.32552,5.6640655 0.26042,0.6510421 0.26042,1.6276051 v 1.6927091 q 0,1.497397 -0.39063,2.213543 -0.32552,0.716146 -0.39062,1.692709 -0.0651,0.911459 -0.0651,2.148439 0.0651,1.23698 0.19532,2.669272 0.19531,1.367188 0.45573,2.539064 0.71614,2.734376 2.01823,2.604168 1.04166,0 1.6276,-0.976563 0.19531,-0.390625 0.45573,-0.78125 0.26042,-0.390626 0.78125,-0.585938 0.52084,-0.260417 0.71615,-0.781251 0.26041,-0.520833 0.26041,-1.236979 0.0651,-0.781251 -0.1302,-3.190106 -0.52084,0.130208 -1.04167,0.130208 z m 38.6719,-32.877622 q 2.01823,-0.585937 2.92969,0.45573 1.69271,-0.325521 3.125,0.78125 1.43229,1.106772 0.71615,4.231773 -0.45573,1.5625011 -0.26042,2.2135431 0.19531,0.651042 0.52083,1.302084 0.39063,0.651042 0.26042,1.5625009 -0.13021,0.8463546 -0.32552,1.8880218 -0.65104,2.92968907 -0.26042,4.7526067 0.97657,4.2968773 -0.78125,8.9843795 -1.88802,5.143232 -1.17187,12.369799 0.58594,5.208336 0.39062,6.835941 -0.13021,1.562501 -0.71614,2.539064 -0.58594,0.976563 -1.95313,0.976563 -2.34375,0 -3.25521,-1.367189 -0.52083,-0.78125 -0.52083,-2.01823 0,-1.23698 -0.39063,-2.213543 -0.32552,-0.976563 -0.84635,-1.822917 -1.23698,-1.822918 -2.34375,-2.539064 -1.82292,-1.23698 -2.79948,-5.924483 -0.58594,-3.450522 -1.4974,-5.664065 -0.26042,-0.651042 -0.39063,-1.367188 -0.1302,-0.7812507 -0.26041,-1.4973969 -0.39063,-1.5625009 -1.36719,-1.5625009 -1.4974,0 -1.17188,4.2968778 0.0651,0.911458 0.26042,1.692709 0.26042,0.716146 0.0651,1.757813 -0.19531,1.041667 -0.52083,2.148439 -0.78125,2.864585 -0.32552,4.231773 0.45573,1.562501 0.32552,3.320314 -0.13021,1.692709 -0.52083,2.669272 -0.39063,0.911459 -1.36719,1.302085 -0.58594,1.041667 -0.97656,2.408855 -0.39063,1.302084 -0.58594,1.757813 -0.13021,0.45573 -0.39063,0.520834 -1.10677,0.390625 -2.27864,-0.130208 -1.10678,-0.520834 -1.4323,-1.432293 -0.32552,-0.976563 -0.32552,-1.822917 0.0651,-0.846355 -0.19531,-1.497397 -0.19531,-0.716146 -0.19531,-1.171876 0.0651,-0.455729 0.0651,-0.911459 0.13021,-1.041667 -0.32552,-1.5625 -0.58594,-0.651042 -0.65104,-1.757814 0,-1.106771 0,-1.888022 0,-0.78125 0.13021,-1.302084 0.45573,-1.23698 0.39062,-3.776043 -0.19531,-4.752607 -1.17187,-5.72917 -1.23698,-1.2369799 -1.36719,-4.5572942 -0.0651,-0.7812504 0.0651,-1.4322924 0.19531,-0.7161462 0.0651,-1.4322925 -0.0651,-0.7161462 0.26041,-1.4322924 0.52084,-1.36718822 0.32552,-3.8411479 -0.19531,-2.5390638 -0.26041,-3.580731 0,-1.1067715 -0.13021,-2.2786471 -0.0651,-1.2369798 0.19531,-2.1484385 0.32552,-0.976563 1.04167,-1.692709 1.6276,-1.757814 4.55729,-1.757814 1.30209,-0.911459 2.9948,-1.432292 1.75781,-0.520834 2.92968,-0.0651 1.17188,0.455729 1.62761,1.432292 0.45573,0.976563 0.71615,2.083334 0.32552,1.106772 0.58593,2.2786475 0.32552,1.1067714 1.04167,1.8229176 0.71615,0.7161462 1.04167,1.7578135 0.32552,0.976563 0.58594,1.8880218 0.26041,0.9114588 0.52083,1.5625008 0.26042,0.5859378 0.84635,0.5859378 0.58594,0 0.65105,-1.627605 0.1302,-1.6927092 0.0651,-3.8411479 0,-2.1484386 -0.0651,-4.1666691 0,-2.083334 0.39062,-2.994793 0.39063,-0.976563 1.36719,-1.432292 1.04167,-0.45573 2.34375,0.260416 z m 11.39324,12.174486 q -0.0651,-0.8463546 -0.0651,-1.6927092 0,-0.8463547 0.26042,-1.9531261 0.26042,-1.1718756 1.30208,-2.0833344 1.10678,-0.9765633 1.88803,-1.8880223 0.78125,-0.976563 1.36718,-1.953126 0.58594,-0.976563 1.4323,-1.5625 2.92969,-2.018231 8.20313,-1.562501 2.14844,0.195312 4.55729,1.562501 1.17188,0.651042 2.01823,2.408855 0.84636,1.692709 1.17188,2.3437513 0.32552,0.651042 0.84635,0.976563 0.52083,0.2604168 0.91146,0.7812504 0.45573,0.5208336 0.91146,1.6927092 0.52083,1.1067715 0.91146,2.6041681 1.04167,3.45052267 0.91146,5.7942739 -0.13021,2.3437513 -0.19532,4.7526067 -0.1302,4.2968774 -0.84635,6.1848994 -0.71615,1.888022 -1.10677,3.190106 -0.32552,1.236979 -0.39063,2.278647 -0.0651,1.041667 -0.0651,2.01823 -0.13021,2.604168 -0.39063,3.125002 -0.19531,0.520833 -0.71614,1.041667 -0.52084,0.520833 -1.17188,1.041667 -0.58594,0.455729 -1.17187,0.911459 -0.58594,0.455729 -0.84636,0.78125 -0.26042,0.260417 -0.65104,0.781251 -0.32552,0.520833 -0.71615,1.106771 -0.32552,0.585938 -0.65104,1.106772 -0.26042,0.455729 -0.39062,0.716146 -0.13021,0.195312 -0.45573,0.78125 -0.32552,0.585938 -0.78125,1.23698 -2.53907,3.125002 -4.81771,0.260417 -0.19532,-0.325521 -0.65105,-0.325521 -0.39062,0 -0.97656,0.260417 -0.52083,0.325521 -1.4974,0 -0.97656,-0.325521 -1.5625,-1.041668 -0.52083,-0.78125 -1.04166,-1.236979 -0.45573,-0.45573 -0.91146,-0.716147 -0.45573,-0.260416 -0.91146,-0.455729 -1.23698,-0.651042 -1.30209,-1.041667 -0.0651,-0.45573 -0.1302,-0.846355 0,-0.390625 -0.13021,-0.976563 -0.52084,-3.125002 -2.53907,-8.854171 -1.5625,-4.296878 -0.84635,-8.9192759 0.52083,-3.3854185 0.97656,-5.6640655 0.71615,-3.45052272 0.52084,-4.8177109 -0.13021,-1.3671883 -0.26042,-2.1484387 z m 12.63021,3.71093949 q -1.17187,0.0651042 -1.5625,0.91145881 -0.39062,0.7812504 -0.58594,1.5625008 -0.19531,0.7161463 -0.52083,1.1718757 -0.26042,0.4557294 -0.52083,0.9114588 -1.10677,1.627605 -0.26042,3.3854185 1.23698,2.5390639 1.30208,3.3854189 0.0651,0.78125 0.13021,2.343751 0.0651,1.497396 0.26042,3.125001 0.58594,4.101565 1.75781,4.101565 0.65105,0 1.23698,-1.497396 0.13021,-0.325521 0.13021,-1.106772 0.0651,-0.78125 0.26042,-1.822918 0.71614,-3.710939 0.52083,-5.143231 -0.13021,-1.432293 -0.19531,-2.5390643 0,-1.1067714 0,-2.2786471 V 2.7300953 q 0,-1.4322924 -0.39063,-2.0182302 -0.32552,-0.65104202 -1.5625,-0.52083361 z M 298.08057,23.56344 q 0.78125,-0.325521 1.69271,-0.325521 0.91145,0 1.43229,0.260417 0.52083,0.260416 1.04166,0.585937 1.23698,0.846355 2.66928,0.846355 1.43229,-0.0651 2.40885,-0.130208 0.97657,-0.130209 1.88802,0.520833 1.10678,0.976563 0.97657,3.25521 -0.13021,2.148439 -0.97657,2.799481 -0.84635,0.585938 -1.5625,0.585938 -0.71614,0 -1.43229,-0.0651 -0.71615,-0.130209 -1.36719,-0.195313 -0.65104,-0.0651 -1.10677,0.325521 -2.34375,1.627605 -3.71094,0.325521 -0.65104,-0.716146 -1.69271,-0.651042 -1.04166,0.0651 -1.88802,0.455729 -0.78125,0.325521 -1.6276,0.585938 -3.84115,1.432293 -5.20834,-2.083334 -0.26042,-0.716146 -0.45573,-1.302084 -0.13021,-0.651042 -0.32552,-1.041667 -0.45573,-0.911459 -0.26042,-3.125002 0.19532,-3.059898 -0.0651,-4.49219 -0.26042,-1.432292 -0.45573,-2.278647 -0.45573,-2.213543 -0.39063,-3.450523 0.19532,-2.148438 -0.19531,-4.622398 -0.0651,-0.7161463 0.45573,-1.9531261 1.69271,-3.9062521 0,-5.9895866 -0.32552,-0.3906252 -0.58594,-0.7161462 -0.26041,-0.325521 -0.26041,-0.9114588 -0.58594,-5.2734403 -0.58594,-13.5416743 0,-0.716146 0.65104,-1.367188 1.23698,-1.23698 1.95313,-1.106771 2.40885,0.651042 4.29687,0.195312 1.95313,-0.520833 3.38542,-0.520833 1.43229,-0.0651 2.47396,1.302084 2.34375,3.25521 1.17188,7.7473997 -0.32552,1.0416673 -0.26042,2.0182303 0.0651,0.9114588 -0.39062,2.0182302 -0.39063,1.0416672 -0.32553,1.95312607 0.0651,0.91145882 0.19532,2.53906383 0.32552,4.2317731 -1.17188,6.5755244 -0.78125,1.2369798 -0.71615,2.9947935 0.13021,1.757813 0.19532,2.929689 0.13021,1.106771 0,2.473959 -0.0651,1.302084 -0.0651,3.125002 0,1.757814 0.19532,3.450523 z m 25.52085,-0.781251 q 0.45572,1.106772 1.36718,1.106772 0.84636,0 1.10678,0.325521 0.45572,0.716146 0,2.734376 -0.26042,1.171876 -0.32553,1.822918 0,0.651042 -0.0651,1.106771 -0.13021,0.781251 -0.91146,1.69271 -0.84635,0.716146 -1.88802,1.041667 -0.97656,0.260417 -1.62761,0.390625 -0.65104,0.195313 -1.43229,0.585938 -1.17187,0.585938 -2.01823,0.520833 -0.78125,-0.0651 -1.23698,-0.130208 -0.39062,0 -0.97656,0.195313 -0.52084,0.195312 -0.84636,0.130208 -0.32552,0 -0.65104,-0.130208 -0.97656,-0.390626 -1.82292,-0.390626 -1.17187,0 -1.5625,-3.906252 -0.19531,-1.5625 -0.0651,-2.994793 0.13021,-1.432292 0.45573,-1.822918 0.32552,-0.455729 0.78125,-0.585937 0.45573,-0.195313 0.84635,-0.260417 0.39063,-0.130209 0.71615,-0.195313 0.39063,-0.195312 0.39063,-1.367188 0.0651,-1.23698 0.1302,-2.278647 0.0651,-2.864585 0.45573,-4.036461 0.65104,-1.757813 -0.19531,-2.994793 -0.84635,-1.497396 -0.65104,-5.5989611 0.13021,-2.4739597 -0.0651,-4.0364605 -0.26041,-3.0598975 -0.19531,-4.29687733 0.0651,-0.91145887 0.0651,-1.43229247 0,-0.5208336 -0.0651,-0.7812504 -0.19531,-0.5208336 -1.17187,-0.5208336 -0.97657,-0.065104 -1.82292,-0.9114588 -0.84636,-0.8463546 -0.71615,-2.6692723 0.19531,-1.8229176 0,-3.3203145 -0.19531,-1.497396 0.19531,-2.343751 0.39063,-0.846355 0.45573,-1.432292 0.0651,-0.585938 0.19532,-1.041668 0.39062,-1.041667 1.75781,-1.171875 1.43229,-0.130209 2.60417,0.0651 1.23698,0.130208 2.27865,0.390625 2.73437,0.651042 3.58073,0.651042 0.65104,0 1.43229,-0.130208 0.84635,-0.195313 1.6276,-0.325521 1.82292,-0.325521 2.73438,0.195312 0.97656,0.520834 1.17188,1.23698 0.26041,0.716146 0.26041,1.562501 0,0.78125 -0.13021,1.692709 -0.0651,0.9114591 0.13021,1.9531263 0.58594,2.3437512 0.0651,3.8411479 -0.52084,1.4322924 -0.97657,1.7578134 -0.45573,0.2604168 -0.91145,0.325521 -0.39063,0.065104 -0.84636,0.1302084 -0.39062,0 -0.71615,0.4557294 -0.52083,0.8463546 -0.52083,6.5104202 l 0.13021,10.8724014 q 0,4.166669 -0.52083,7.812504 z m 32.03127,10.481777 q -0.39063,0.716146 -1.04167,1.041667 -0.65104,0.390625 -1.30208,-0.130208 -0.65105,-0.45573 -0.97657,-0.390626 -0.26041,0.06511 -0.52083,0.130209 -0.58594,0.0651 -1.17188,-0.846355 -0.58593,-0.911459 -0.65104,-1.432292 -0.0651,-0.585938 0,-1.106772 0.26042,-1.171875 -0.39062,-2.083334 -0.58594,-0.911459 -0.84636,-1.367188 -0.19531,-0.45573 -0.19531,-1.302084 0,-0.911459 -0.13021,-1.106772 -0.0651,-0.260417 -0.13021,-0.390625 -0.32552,-0.585938 -0.26041,-1.822918 0.1302,-1.236979 -0.32553,-1.692709 -0.45573,-0.520833 -1.23698,-0.78125 -0.71614,-0.260417 -1.17187,0.195312 -0.39063,0.390626 -0.78125,0.976563 -0.32552,0.585938 -0.84636,1.041668 -0.52083,0.390625 -1.36718,0.195312 -0.78125,-0.195312 -1.75782,0.390625 -0.97656,0.585938 -1.17187,1.432293 -0.19532,0.78125 -0.45573,1.627605 -0.26042,0.846354 -0.19532,1.562501 0.13021,0.716146 0,1.432292 -0.0651,0.651042 -0.32552,1.302084 -0.52083,1.627605 -1.23698,1.757814 -0.58593,0.0651 -1.23698,0 -0.71614,1.302084 -1.69271,1.5625 -2.66927,0.585938 -3.1901,-0.846354 -0.32552,-0.846355 -0.39063,-2.213543 -0.1302,-2.734377 -0.58593,-3.71094 -0.45573,-0.976563 -0.26042,-2.343751 0.26042,-1.367188 0.19531,-2.734376 -0.0651,-1.367188 0,-2.083335 0.0651,-0.716146 0.13021,-1.302084 0.13021,-0.585938 0.26042,-1.106771 0.13021,-0.585938 0.13021,-1.302084 0.0651,-0.781251 0.26041,-1.757814 0.19531,-0.976563 0.39063,-2.01823 0.52083,-2.6041679 0.39062,-3.9062519 -0.13021,-1.3020841 0.19531,-2.2135429 0.39063,-0.9114588 0.84636,-1.627605 1.17188,-1.8880219 1.10677,-3.0598975 -0.0651,-1.23697982 -0.13021,-1.88802183 0,-0.71614617 0.0651,-1.43229247 0.32552,-3.5156268 3.32031,-11.0026104 0.19531,-0.716146 1.23698,-1.106771 1.04167,-0.390625 2.08334,-0.0651 1.10677,0.260417 1.75781,0.260417 0.71614,-0.06511 1.17187,-0.520834 0.52084,-0.520834 1.04167,-0.976563 0.58594,-0.455729 1.36719,-0.716146 0.78125,-0.325521 1.75781,-0.325521 0.97657,0 2.08334,0.585938 1.82292,0.976563 2.40885,1.822917 0.58594,0.846355 0.78125,1.367188 0.19532,0.520834 0.65105,1.432293 0.45572,0.911459 0.39062,1.6276049 0,0.7161462 0.26042,1.6927092 0.26041,0.976563 0,2.2786471 -0.26042,1.302084 0,2.604168 0.26041,1.2369798 0.26041,1.6927092 0,0.45572946 0.0651,0.84635467 0.0651,1.10677142 0.45573,1.95312603 0.39062,0.9114588 0.19531,2.2786471 -0.13021,1.302084 -0.0651,2.2135428 0.1302,0.8463546 0.71614,1.7578134 1.10677,1.7578135 0.78125,3.9062526 -0.0651,0.585937 0,1.302084 0.13021,0.651042 0.13021,1.236979 0,0.520834 -0.13021,1.367189 -0.19531,1.236979 0.0651,2.994793 0.39062,3.25521 0.39062,4.361981 0,1.106772 0.0651,1.888022 0.0651,0.716146 0.13021,1.562501 0.19531,2.213543 0,4.49219 -0.13021,2.213543 -1.36719,2.539064 z M 345.67174,7.0269726 q 0.13021,-1.2369798 -0.1302,-3.0598974 -0.19532,-1.8229177 -0.19532,-2.6692723 0,-0.91145881 -0.13021,-1.56250082 -0.19531,-1.04166718 -1.10677,-0.26041681 -1.04166,-1.04166727 -1.69271,-0.0651042 -0.45573,0.71614621 -0.45573,2.34375123 -0.1302,1.1067714 -0.52083,2.0182303 -0.32552,0.9114588 -0.45573,2.0182302 -0.19531,1.302084 -0.71614,3.1901059 -0.45573,1.8880223 0.1302,2.7994803 0.65105,0.911459 1.5625,0.651042 0.91146,-0.260416 1.36719,-0.260416 0.45573,-0.0651 0.78125,-0.130209 0.78125,-0.0651 1.17188,-0.585938 0.45573,-0.585937 0.45573,-0.976563 0.0651,-0.455729 0,-0.9114585 -0.19531,-1.302084 -0.0651,-2.5390639 z"
             id="text21"
             transform="scale(1.0089084,0.99117026)"
             aria-label="MAGNOLIA" />
          <path
             style="font-size:66.6667px;font-family:Creepster;-inkscape-font-specification:'Creepster, Normal';fill:#ffffff;stroke-width:5.66217"
             d="m 378.12405,-13.373772 q 1.88802,0.130208 3.38541,1.953126 0.26042,0.390625 0.52084,0.78125 0.26041,0.325521 0.39062,0.7812508 0.39063,0.976563 0.26042,2.7994807 -0.13021,1.8229176 0.19531,2.9947933 0.32552,1.1067714 0.65104,2.1484386 0.58594,1.82291764 -0.71614,4.8828151 -0.97656,2.7994807 -2.40886,3.3203143 l -1.17187,0.3906252 q -1.69271,0.5859378 -2.92969,0.4557294 -1.17188,-0.1953126 -1.62761,-0.7161462 -1.30208,-1.6927093 -0.65104,-3.9062521 0.13021,-0.4557294 0,-1.4322924 -0.13021,-0.97656306 -1.10677,-1.23697986 -0.52083,-0.13020841 -0.71615,-0.45572941 -0.13021,-0.32552101 -0.26041,-0.52083363 -0.0651,-0.2604168 -0.19532,-0.325521 -0.0651,-0.1302084 -0.58593,0.2604168 -0.52084,0.39062522 -0.58594,0.45572942 -0.0651,0 -0.45573,-0.1302084 -0.32552,-0.13020842 -0.65104,0.0651042 -0.32552,0.19531261 -0.65105,0.71614622 -1.17187,2.01823026 -0.45572,6.57552436 0.26041,1.3671882 0.52083,2.5390638 0.52083,2.9296888 0.45573,3.9062518 0,0.976563 -0.39063,2.083335 -0.32552,1.041667 -0.58593,2.083334 -0.78125,2.669272 0.19531,4.557294 1.17187,2.343752 1.49739,2.734377 0.58594,0.585938 1.4323,0.520833 0.84635,-0.130208 1.30208,-0.846354 0.45573,-0.781251 0.84636,-1.627605 0.39062,-0.911459 0.84635,-1.69271 0.45573,-0.78125 1.04167,-0.911458 0.65104,-0.130209 1.6276,0 0.97657,0.0651 1.30209,0.0651 0.39062,0 0.91146,0.455729 0.52083,0.390625 0.52083,1.888022 0.0651,1.432293 0.13021,2.343751 0.0651,0.846355 -0.45573,1.562501 -0.52084,0.651042 -0.71615,1.23698 -0.13021,0.520834 -0.19531,1.041667 -0.0651,1.367188 -0.52083,2.018231 -0.39063,0.651042 -0.78125,1.106771 -0.32553,0.390625 -1.88803,0.390625 -1.49739,0 -2.73437,1.432293 -1.23698,1.432292 -2.34375,1.236979 -1.10678,-0.130208 -1.56251,-1.302084 -0.45572,-1.041667 -2.01823,-1.106771 -0.45572,-0.0651 -0.84635,-0.195313 -0.39063,-0.195312 -0.91146,-0.260416 -0.52083,-0.130209 -1.04167,-0.45573 -1.30208,-0.716146 -2.14843,-2.278647 -0.52084,-0.976563 -1.04167,-1.627605 -0.45573,-0.651042 -0.78125,-1.23698 -0.84636,-1.302084 -0.65104,-2.473959 0.39062,-3.125002 -0.84636,-4.101565 -0.71615,-0.45573 -0.71615,-0.716146 0,-0.260417 -0.26041,-1.106772 -0.39063,-1.171875 0,-2.734376 0.45573,-1.562501 0.32552,-2.539064 -0.13021,-1.041667 -0.32552,-2.148439 -0.39063,-2.8645846 -0.0651,-3.7760434 0.32552,-0.9114588 0.13021,-2.6041681 -0.13021,-1.6927092 -0.13021,-2.7343764 0,-1.10677146 -0.19531,-2.8645849 -0.13021,-1.7578134 0,-3.7760437 0.45573,-5.0781275 3.45052,-6.9661495 4.49219,-2.669272 5.72917,-2.539064 0.39063,0 0.91146,0.130209 0.58594,0.0651 1.10677,-0.06511 0.52084,-0.130208 0.91146,-0.390625 0.39063,-0.260417 0.78125,-0.585938 1.5625,-1.432292 2.79948,-0.325521 1.17188,1.367189 1.82292,1.822918 1.10677,0.846355 3.32032,0.976563 z m 8.59375,9.5703176 q -0.0651,-0.8463547 -0.0651,-1.6927093 0,-0.8463546 0.26041,-1.953126 0.26042,-1.1718757 1.30209,-2.0833345 1.10677,-0.9765628 1.88802,-1.8880218 0.78125,-0.976563 1.36719,-1.953126 0.58593,-0.976563 1.43229,-1.562501 2.92969,-2.01823 8.20313,-1.562501 2.14844,0.195313 4.55729,1.562501 1.17188,0.651042 2.01823,2.408856 0.84636,1.692709 1.17188,2.343751 0.32552,0.6510418 0.84635,0.9765628 0.52084,0.2604168 0.91146,0.7812505 0.45573,0.5208336 0.91146,1.6927092 0.52083,1.1067714 0.91146,2.604168 1.04167,3.45052273 0.91146,5.794274 -0.13021,2.3437512 -0.19531,4.7526067 -0.13021,4.2968768 -0.84636,6.1848988 -0.71614,1.888022 -1.10677,3.190106 -0.32552,1.23698 -0.39063,2.278647 -0.0651,1.041667 -0.0651,2.01823 -0.13021,2.604169 -0.39062,3.125002 -0.19532,0.520834 -0.71615,1.041667 -0.52083,0.520834 -1.17188,1.041668 -0.58593,0.455729 -1.17187,0.911458 -0.58594,0.45573 -0.84636,0.781251 -0.26041,0.260417 -0.65104,0.78125 -0.32552,0.520834 -0.71615,1.106772 -0.32552,0.585937 -0.65104,1.106771 -0.26041,0.45573 -0.39062,0.716146 -0.13021,0.195313 -0.45573,0.781251 -0.32552,0.585938 -0.78125,1.23698 -2.53907,3.125001 -4.81771,0.260416 -0.19532,-0.325521 -0.65105,-0.325521 -0.39062,0 -0.97656,0.260417 -0.52083,0.325521 -1.49739,0 -0.97657,-0.325521 -1.56251,-1.041667 -0.52083,-0.78125 -1.04166,-1.23698 -0.45573,-0.455729 -0.91146,-0.716146 -0.45573,-0.260417 -0.91146,-0.45573 -1.23698,-0.651042 -1.30208,-1.041667 -0.0651,-0.455729 -0.13021,-0.846354 0,-0.390626 -0.13021,-0.976563 -0.52083,-3.125002 -2.53907,-8.854172 -1.5625,-4.296877 -0.84635,-8.9192754 0.52083,-3.3854184 0.97656,-5.6640655 0.71615,-3.45052267 0.52084,-4.8177109 -0.13021,-1.3671882 -0.26042,-2.1484386 z m 12.63022,3.71093944 q -1.17188,0.0651042 -1.56251,0.91145882 -0.39062,0.78125044 -0.58593,1.56250084 -0.19532,0.7161462 -0.52084,1.1718756 -0.26041,0.4557294 -0.52083,0.9114588 -1.10677,1.6276051 -0.26042,3.3854185 1.23698,2.5390634 1.30209,3.3854184 0.0651,0.781251 0.1302,2.343751 0.0651,1.497397 0.26042,3.125002 0.58594,4.101565 1.75782,4.101565 0.65104,0 1.23698,-1.497397 0.1302,-0.325521 0.1302,-1.106771 0.0651,-0.781251 0.26042,-1.822918 0.71615,-3.710939 0.52083,-5.143232 -0.1302,-1.4322923 -0.19531,-2.5390638 0,-1.1067714 0,-2.278647 V 2.4465489 q 0,-1.4322924 -0.39062,-2.01823025 -0.32552,-0.65104201 -1.5625,-0.52083361 z M 440.16835,-15.97794 q 2.01823,-0.585938 2.92969,0.455729 1.69271,-0.325521 3.125,0.781251 1.43229,1.106771 0.71615,4.231773 -0.45573,1.5625006 -0.26042,2.2135427 0.19531,0.651042 0.52083,1.302084 0.39063,0.651042 0.26042,1.5625008 -0.13021,0.8463546 -0.32552,1.8880219 -0.65104,2.92968903 -0.26042,4.7526067 0.97657,4.2968773 -0.78125,8.9843799 -1.88802,5.143232 -1.17187,12.369798 0.58594,5.208336 0.39062,6.835941 -0.13021,1.562501 -0.71614,2.539064 -0.58594,0.976563 -1.95313,0.976563 -2.34375,0 -3.25521,-1.367188 -0.52083,-0.78125 -0.52083,-2.01823 0,-1.23698 -0.39063,-2.213543 -0.32552,-0.976563 -0.84635,-1.822918 -1.23698,-1.822917 -2.34375,-2.539064 -1.82292,-1.236979 -2.79948,-5.924482 -0.58594,-3.450523 -1.4974,-5.664066 -0.26042,-0.651042 -0.39063,-1.3671877 -0.1302,-0.7812505 -0.26041,-1.4973967 -0.39063,-1.5625008 -1.36719,-1.5625008 -1.4974,0 -1.17188,4.2968772 0.0651,0.911459 0.26042,1.692709 0.26042,0.716147 0.0651,1.757814 -0.19531,1.041667 -0.52083,2.148438 -0.78125,2.864585 -0.32552,4.231774 0.45573,1.5625 0.32552,3.320314 -0.13021,1.692709 -0.52083,2.669272 -0.39063,0.911459 -1.36719,1.302084 -0.58594,1.041667 -0.97656,2.408856 -0.39063,1.302084 -0.58594,1.757813 -0.13021,0.455729 -0.39063,0.520834 -1.10677,0.390625 -2.27864,-0.130209 -1.10678,-0.520833 -1.4323,-1.432292 -0.32552,-0.976563 -0.32552,-1.822918 0.0651,-0.846355 -0.19531,-1.497397 -0.19531,-0.716146 -0.19531,-1.171875 0.0651,-0.45573 0.0651,-0.911459 0.13021,-1.041667 -0.32552,-1.562501 -0.58594,-0.651042 -0.65104,-1.757813 0,-1.106772 0,-1.888022 0,-0.781251 0.13021,-1.302084 0.45573,-1.23698 0.39062,-3.776044 -0.19531,-4.752607 -1.17187,-5.72917 -1.23698,-1.2369794 -1.36719,-4.5572936 -0.0651,-0.7812505 0.0651,-1.4322925 0.19531,-0.7161462 0.0651,-1.4322924 -0.0651,-0.7161462 0.26041,-1.4322924 0.52084,-1.36718826 0.32552,-3.8411479 -0.19531,-2.5390639 -0.26041,-3.5807311 0,-1.1067714 -0.13021,-2.278647 -0.0651,-1.2369799 0.19531,-2.1484391 0.32552,-0.976563 1.04167,-1.692709 1.6276,-1.757813 4.55729,-1.757813 1.30209,-0.911459 2.9948,-1.432293 1.75781,-0.520833 2.92968,-0.0651 1.17188,0.45573 1.62761,1.432293 0.45573,0.976563 0.71615,2.083334 0.32552,1.106771 0.58593,2.278647 0.32552,1.1067714 1.04167,1.8229177 0.71615,0.7161462 1.04167,1.7578134 0.32552,0.976563 0.58594,1.8880218 0.26041,0.9114589 0.52083,1.5625009 0.26042,0.5859378 0.84635,0.5859378 0.58594,0 0.65105,-1.627605 0.1302,-1.6927093 0.0651,-3.8411479 0,-2.1484387 -0.0651,-4.1666687 0,-2.083335 0.39062,-2.994793 0.39063,-0.976564 1.36719,-1.432293 1.04167,-0.455729 2.34375,0.260417 z m 20.37761,48.177109 q -0.26042,0.585938 -0.71615,0.911459 -0.39062,0.390625 -1.17187,0.0651 -0.78125,-0.260417 -1.10677,-0.78125 -0.26042,-0.520834 -0.45573,-1.106772 -0.13021,-0.651042 -0.32552,-1.23698 -0.13021,-0.585938 -0.58594,-0.976563 -0.97656,-0.716146 -1.23698,-1.953126 -0.39063,-2.343751 -0.45573,-5.598961 0,-3.25521 -0.0651,-4.49219 -0.0651,-1.23698 -0.26042,-1.822918 -0.13021,-0.585937 -0.39063,-0.716146 -0.19531,-0.130208 -0.58593,-0.325521 -0.71615,-0.325521 -1.04167,-2.278647 -0.32552,-2.0182301 -0.19531,-4.6875024 0.26041,-5.0130235 -0.58594,-8.5937546 -0.78125,-3.3854185 -0.58594,-6.3802117 0.19531,-3.0598973 0.58594,-4.2968773 0.78125,-2.864585 2.79948,-2.47396 2.08333,0.390626 3.25521,0.325521 1.23698,-0.0651 2.01823,-0.325521 0.78125,-0.260416 1.43229,-0.520833 0.65104,-0.260417 1.69271,-0.195313 1.10677,0 1.95313,0.325521 0.91146,0.260417 1.82291,0.520834 2.40886,0.78125 3.77605,0.716146 1.36719,-0.0651 2.14844,-0.130208 0.78125,-0.130209 1.36718,-0.130209 1.23698,0 2.01824,0.651042 0.84635,0.651042 0.97656,1.432293 0.13021,0.78125 0.0651,1.627605 -0.13021,1.6276046 -0.58594,2.7343761 -0.45572,1.0416672 -0.52083,1.7578134 0,0.7161462 0.0651,1.4322924 0.0651,0.6510421 0.1302,1.3020841 0.0651,0.651042 -0.1302,1.4322924 -0.13021,0.71614622 -0.78126,1.49739664 -0.65104,0.71614621 -1.49739,1.30208406 -1.88802,1.1718756 -3.0599,0.8463546 -1.17187,-0.325521 -1.75781,-0.5208336 -0.52084,-0.2604168 -1.04167,-0.3906252 -1.10677,-0.32552104 -2.14844,-0.065104 -1.04167,0.2604168 -1.43229,0.976563 -0.39063,0.7161462 -0.32552,1.4973966 0.13021,0.7812504 0.78125,1.4322925 0.65104,0.5859378 1.75781,0.651042 1.17188,0.065104 1.88802,0 0.71615,-0.065104 1.17188,-0.065104 0.97656,0 1.75781,0.8463546 1.17188,1.3671882 -0.19531,4.1015648 -0.32552,0.716146 -0.58594,1.888022 -0.19531,1.171875 -0.52083,2.343751 -0.32552,1.106771 -0.84636,1.888022 -0.45573,0.716146 -1.10677,0.585938 -0.65104,-0.130209 -0.91146,-0.390626 -0.19531,-0.260416 -0.45573,-0.455729 -0.52083,-0.520834 -1.17187,-0.325521 -1.04167,0.260417 -1.23698,1.888022 -0.13021,1.562501 -0.0651,3.125002 0.0651,1.5625 0.13021,2.669272 0.13021,1.106771 0,2.213543 -0.19531,2.539063 -1.95312,3.841147 -0.58594,0.390626 -0.91146,1.106772 -0.26042,0.651042 -0.58594,1.302084 z"
             id="text22"
             transform="scale(1.0235394,0.977002)"
             aria-label="CONF" />
        </g>
        <g
           id="g20">
          <path
             d="m 62.7,0 c 1.86,0.91 3.53,2.06 4.8,3.73 1.66,2.18 1.7,4.09 0,6.23 -1.46,1.84 -3.06,3.57 -4.55,5.39 -1.83,2.24 -3.36,4.63 -3.27,7.7 0,0.18 -0.26,0.41 -0.45,0.56 -1.2,0.94 -2.28,1.14 -3.49,-0.18 -0.67,-0.73 -1.73,-1.14 -2.66,-1.58 -0.57,-0.27 -0.91,-0.54 -0.96,-1.21 -0.24,-3.76 -0.44,-7.55 0.8,-11.17 1.51,-4.39 4.16,-7.86 8.75,-9.46 h 1.01 z"
             id="path11"
             style="fill:#ffffff;fill-opacity:1" />
          <path
             class="f"
             d="m 78.29,24.61 c 5.11,-3.39 10.46,-4.38 16.12,-2.65 8.51,2.6 14.04,8.37 17.1,16.64 1.65,4.48 2.56,9.11 2.94,13.85 0.75,9.47 -0.1,18.79 -2.96,27.88 -2.89,9.18 -8.81,15.37 -18.13,18.13 -0.28,0.08 -0.57,0.14 -0.74,0.18 0.61,-2.57 1.34,-5.11 1.8,-7.69 C 95.33,85.9 95.45,80.8 95.33,75.68 95.28,73.7 94.8,64.89 94.69,64.82 94.46,63.08 94.28,61.33 94,59.6 92.43,49.92 89.54,40.66 84.74,32.07 83.14,29.21 81.08,26.69 78.29,24.62 Z"
             id="path12"
             style="fill:#ffffff;fill-opacity:1" />
          <path
             class="f"
             d="m 43.41,20.68 c -1.45,0.41 -2.78,0.72 -4.08,1.16 -9.06,3.02 -14.78,9.32 -17.81,18.24 -1.73,5.1 -2.56,10.37 -2.76,15.72 -0.35,8.95 -0.09,17.88 1.95,26.66 1.21,5.2 3.14,10.12 6.11,14.6 l -0.11,0.31 C 24.91,96.97 23.08,96.69 21.33,96.15 14.42,94.01 9.59,89.34 6.24,83.12 1.47,74.31 -0.58,64.87 0.14,54.85 0.67,47.49 2.45,40.48 6.06,33.99 11.12,24.9 18.88,19.95 29.21,18.95 c 4.82,-0.47 9.5,0.22 14.21,1.72 z"
             id="path13"
             style="fill:#ffffff;fill-opacity:1" />
          <path
             class="f"
             d="m 74.08,87.97 c 1.44,-2.45 2.85,-4.85 4.25,-7.25 0.49,-0.84 0.99,-1.68 1.48,-2.52 0.9,-1.54 0.9,-1.51 2.62,-1.22 3.05,0.52 6.1,1 9.14,1.5 0.23,0.04 0.46,0.03 0.79,0.05 0.54,-2.05 1.08,-4.08 1.62,-6.11 h 0.24 c 0,2.23 0.02,4.44 0,6.66 -0.05,4.98 -0.44,9.92 -1.47,14.81 -1.43,6.77 -5.46,11.08 -12.01,13.07 -6.75,2.05 -13.39,1.92 -19.78,-1.32 -2.31,-1.17 -2.16,-1.22 -1.89,-3.79 0.6,-5.88 1.06,-11.77 1.58,-17.65 0.03,-0.33 0.05,-0.67 0.08,-1.17 4.48,1.67 8.89,3.3 13.36,4.96 z"
             id="path14"
             style="fill:#ffffff;fill-opacity:1" />
          <path
             class="d"
             d="M 47.47,55.77 30.19,50.45 42.6,39.48 47.47,55.76 Z"
             id="path15" />
          <path
             class="d"
             d="m 91.22,54.23 c -7.78,1.08 -15.3,2.12 -23.11,3.21 l 7.72,-19.83 c 5.15,5.57 10.18,11 15.39,16.62 z"
             id="path16" />
          <path
             class="f"
             d="m 31.72,66.04 c 1.05,0.05 1.4,0.44 1.6,1.42 0.4,1.96 0.96,3.89 1.47,5.9 2.81,-0.85 5.55,-1.65 8.26,-2.51 0.66,-0.21 1.1,-0.1 1.62,0.34 2.34,1.97 4.72,3.88 7.16,5.88 2.43,-1.65 4.78,-3.28 7.17,-4.84 0.64,-0.42 0.87,-0.86 0.87,-1.63 0.08,-10.59 0.02,-21.18 -0.89,-31.74 -0.32,-3.7 -1.02,-7.38 -1.56,-11.06 -0.24,-1.64 -1.18,-2.78 -2.53,-3.7 -2.33,-1.57 -4.9,-2.5 -7.67,-2.42 -9.13,0.28 -16.38,4.16 -21.37,11.86 -4.06,6.27 -5.32,13.42 -5.88,20.72 -0.43,5.54 -0.26,11.08 0.15,16.62 0.37,5.08 1.13,10.08 2.66,14.94 1.89,6.02 4.66,11.55 9.42,15.83 6.63,5.96 14.16,7.55 22.63,4.41 1.81,-0.67 2.81,-1.74 3,-3.67 0.44,-4.48 0.96,-8.95 1.4,-13.42 0.16,-1.69 0.19,-3.39 0.29,-5.33 -1.86,1.29 -3.55,2.37 -5.13,3.59 -0.87,0.68 -1.47,0.61 -2.34,0 -2.09,-1.47 -4.24,-2.84 -6.41,-4.19 -0.54,-0.34 -1.22,-0.57 -1.86,-0.62 -3.69,-0.27 -7.38,-0.5 -11.07,-0.68 -0.81,-0.04 -1.17,-0.28 -1.33,-1.1 -0.56,-2.8 -1.19,-5.58 -1.85,-8.36 -0.12,-0.5 -0.47,-1.04 -0.87,-1.37 -2.03,-1.66 -4.1,-3.27 -6.17,-4.87 -0.2,-0.15 -0.5,-0.18 -0.75,-0.26 l 0.35,-0.41 c 3.21,0.24 6.43,0.52 9.64,0.68 z"
             id="path17"
             style="fill:#ffffff;fill-opacity:1" />
          <path
             class="f"
             d="M 88.37,42.6 C 86.7,38.01 84.78,33.54 81.79,29.63 77.07,23.44 70.84,21.52 63.39,23.27 c -1.95,0.46 -3.8,1.24 -5.3,2.28 0.43,2.13 0.92,4.09 1.22,6.07 1.12,7.52 1.42,15.11 1.59,22.7 0.12,5.41 0.06,10.82 0.11,16.23 0,0.39 0.22,0.97 0.52,1.13 3.33,1.82 6.69,3.57 10.12,5.38 2.42,-2.56 4.8,-5.02 7.11,-7.55 0.57,-0.62 1.01,-0.65 1.72,-0.32 2.2,1.01 4.43,1.93 6.63,2.93 0.61,0.28 0.98,0.28 1.45,-0.28 1.49,-1.73 3.07,-3.39 4.56,-5.12 0.28,-0.33 0.47,-0.89 0.44,-1.32 -0.52,-7.87 -2.49,-15.41 -5.18,-22.79 z"
             id="path18"
             style="fill:#ffffff;fill-opacity:1" />
          <path
             class="d"
             d="m 31.07,47.02 c 0.45,0 2.52,-0.31 5.78,-1.01 -0.46,0.38 -4.33,3.21 -4.72,3.6 -0.81,0.81 -0.8,2.14 0.02,2.97 0.4,0.4 0.92,0.63 1.48,0.64 0.58,0.02 1.09,-0.2 1.49,-0.59 0.33,-0.32 1.57,-1.94 3.39,-4.76 0,0.29 -0.8,5.28 -0.8,5.83 0,1.15 0.95,2.08 2.13,2.08 1.18,0 2.13,-0.93 2.13,-2.08 0,-0.55 -0.41,-3.4 -0.96,-5.88 0.17,-0.06 3.13,4.33 3.51,4.71 0.8,0.81 2.12,0.82 2.94,0.01 0.4,-0.39 0.62,-0.91 0.63,-1.46 0,-0.56 -0.2,-1.08 -0.59,-1.48 -0.38,-0.39 -2.74,-2.2 -4.84,-3.59 0.93,0.09 5.4,0.99 5.86,1 h 0.04 c 1.13,0 2.05,-0.93 2.08,-2.08 0.01,-0.56 -0.19,-1.1 -0.57,-1.51 -0.38,-0.41 -0.9,-0.65 -1.46,-0.66 h -0.02 c -0.59,0 -3.4,0.41 -5.85,0.9 -0.04,-0.12 4.4,-2.98 4.79,-3.35 0.4,-0.39 0.62,-0.91 0.62,-1.48 0,-0.56 -0.22,-1.09 -0.61,-1.49 -0.42,-0.44 -0.98,-0.66 -1.54,-0.66 -0.52,0 -1.03,0.19 -1.43,0.57 -0.39,0.38 -2.05,2.63 -3.44,4.73 0.11,-1.04 0.81,-5.22 0.82,-5.76 0,-0.56 -0.21,-1.09 -0.61,-1.48 -0.4,-0.39 -0.92,-0.61 -1.49,-0.62 h -0.03 c -1.16,0 -2.11,0.91 -2.12,2.05 0,0.55 0.44,3.33 0.95,5.8 -0.24,-0.29 -3.04,-4.36 -3.42,-4.75 v 0 c -0.4,-0.41 -0.93,-0.61 -1.47,-0.61 -0.54,0 -1.08,0.21 -1.5,0.62 -0.4,0.39 -0.63,0.92 -0.65,1.48 -0.01,0.56 0.19,1.1 0.58,1.49 0.38,0.39 2.6,2 4.71,3.38 -0.42,0.02 -5.25,-0.79 -5.79,-0.8 H 31.1 c -0.55,0 -1.07,0.22 -1.47,0.62 -0.39,0.4 -0.61,0.93 -0.61,1.49 0,1.17 0.92,2.13 2.06,2.14 z m 8.14,-2.13 c 0,-0.34 0.28,-0.62 0.62,-0.62 0.34,0 0.62,0.28 0.62,0.62 0,0.34 -0.28,0.62 -0.62,0.62 -0.34,0 -0.62,-0.28 -0.62,-0.62 z m -4.93,6.87 C 34.12,51.92 33.91,52 33.68,52 h -0.02 c -0.24,0 -0.47,-0.1 -0.65,-0.28 -0.36,-0.36 -0.37,-0.92 -0.03,-1.26 0.18,-0.18 1.34,-0.98 3.99,-2.68 -1.71,2.64 -2.53,3.8 -2.7,3.98 z m 5.57,2.79 c -0.51,0 -0.92,-0.39 -0.92,-0.87 0,-0.25 0.25,-1.65 0.92,-4.72 0.67,3.07 0.92,4.47 0.92,4.72 0,0.48 -0.41,0.87 -0.92,0.87 z m 7.05,-3.5 c 0,0.24 -0.1,0.46 -0.27,0.63 -0.18,0.17 -0.4,0.26 -0.63,0.26 -0.23,0 -0.45,-0.09 -0.62,-0.26 -0.18,-0.18 -0.98,-1.34 -2.66,-3.97 2.6,1.72 3.75,2.54 3.93,2.72 0.16,0.17 0.25,0.39 0.25,0.62 z m 1.68,-7.09 c 0.23,0 0.44,0.1 0.6,0.27 0.16,0.18 0.25,0.41 0.25,0.66 -0.01,0.5 -0.4,0.9 -0.87,0.9 h -0.02 c -0.25,0 -1.64,-0.28 -4.7,-1.01 3.09,-0.61 4.48,-0.83 4.74,-0.82 z m -3.17,-5.85 c 0.34,-0.33 0.91,-0.31 1.26,0.06 0.17,0.18 0.27,0.41 0.27,0.65 0,0.23 -0.09,0.45 -0.25,0.61 v 0 c -0.18,0.17 -1.36,0.97 -4.03,2.62 1.74,-2.62 2.58,-3.77 2.76,-3.94 z m -5.59,-2.79 h 0.01 c 0.25,0 0.48,0.1 0.65,0.27 0.17,0.17 0.26,0.38 0.25,0.61 0,0.25 -0.27,1.64 -0.98,4.71 -0.63,-3.08 -0.86,-4.48 -0.85,-4.73 0,-0.47 0.42,-0.86 0.92,-0.86 z m -7.01,3.4 c 0,-0.24 0.11,-0.47 0.28,-0.64 0.36,-0.35 0.93,-0.36 1.26,-0.02 0.18,0.18 0.98,1.35 2.65,4.01 -2.63,-1.73 -3.78,-2.55 -3.96,-2.73 -0.16,-0.16 -0.24,-0.38 -0.24,-0.62 z m -2.33,5.51 c 0.16,-0.17 0.37,-0.27 0.61,-0.26 0.25,0 1.65,0.26 4.71,0.95 -3.08,0.65 -4.48,0.89 -4.73,0.89 -0.48,0 -0.86,-0.42 -0.86,-0.92 0,-0.25 0.1,-0.48 0.27,-0.65 z"
             id="path19"
             style="fill:#000000;fill-opacity:1" />
          <path
             class="d"
             d="m 67.69,51.29 c 0.45,0 2.52,-0.31 5.78,-1.01 -0.46,0.38 -4.33,3.21 -4.72,3.6 -0.81,0.81 -0.8,2.14 0.02,2.97 0.4,0.4 0.92,0.63 1.48,0.64 0.58,0.02 1.09,-0.2 1.49,-0.59 0.33,-0.32 1.57,-1.94 3.39,-4.76 0,0.29 -0.8,5.28 -0.8,5.83 0,1.15 0.95,2.08 2.13,2.08 1.18,0 2.13,-0.93 2.13,-2.08 0,-0.55 -0.41,-3.4 -0.96,-5.88 0.17,-0.06 3.13,4.33 3.51,4.71 0.8,0.81 2.12,0.82 2.94,0.01 0.4,-0.39 0.62,-0.91 0.63,-1.46 0,-0.56 -0.2,-1.08 -0.59,-1.48 -0.38,-0.39 -2.74,-2.2 -4.84,-3.59 0.93,0.09 5.4,0.99 5.86,1 h 0.04 c 1.13,0 2.05,-0.93 2.08,-2.08 0.01,-0.56 -0.19,-1.1 -0.57,-1.51 -0.38,-0.41 -0.9,-0.65 -1.46,-0.66 h -0.02 c -0.59,0 -3.4,0.41 -5.85,0.9 -0.04,-0.12 4.4,-2.98 4.79,-3.35 0.4,-0.39 0.62,-0.91 0.62,-1.48 0,-0.56 -0.22,-1.09 -0.61,-1.49 -0.42,-0.44 -0.98,-0.66 -1.54,-0.66 -0.52,0 -1.03,0.19 -1.43,0.57 -0.39,0.38 -2.05,2.63 -3.44,4.73 0.11,-1.04 0.81,-5.22 0.82,-5.76 0,-0.56 -0.21,-1.09 -0.61,-1.48 -0.4,-0.39 -0.92,-0.61 -1.49,-0.62 h -0.03 c -1.16,0 -2.11,0.91 -2.12,2.05 0,0.55 0.44,3.33 0.95,5.8 -0.24,-0.29 -3.04,-4.36 -3.42,-4.75 v 0 c -0.4,-0.41 -0.93,-0.61 -1.47,-0.61 -0.54,0 -1.08,0.21 -1.5,0.62 -0.4,0.39 -0.63,0.92 -0.65,1.48 -0.01,0.56 0.19,1.1 0.58,1.49 0.38,0.39 2.6,2 4.71,3.38 -0.42,0.02 -5.25,-0.79 -5.79,-0.8 h -0.01 c -0.55,0 -1.07,0.22 -1.47,0.62 -0.39,0.4 -0.61,0.93 -0.61,1.49 0,1.17 0.92,2.13 2.06,2.14 z m 8.14,-2.13 c 0,-0.34 0.28,-0.62 0.62,-0.62 0.34,0 0.62,0.28 0.62,0.62 0,0.34 -0.28,0.62 -0.62,0.62 -0.34,0 -0.62,-0.28 -0.62,-0.62 z m -4.93,6.87 c -0.16,0.16 -0.37,0.24 -0.6,0.24 h -0.02 c -0.24,0 -0.47,-0.1 -0.65,-0.28 -0.36,-0.36 -0.37,-0.92 -0.03,-1.26 0.18,-0.18 1.34,-0.98 3.99,-2.68 -1.71,2.64 -2.53,3.8 -2.7,3.98 z m 5.57,2.79 c -0.51,0 -0.92,-0.39 -0.92,-0.87 0,-0.25 0.25,-1.65 0.92,-4.72 0.67,3.07 0.92,4.47 0.92,4.72 0,0.48 -0.41,0.87 -0.92,0.87 z m 7.05,-3.5 c 0,0.24 -0.1,0.46 -0.27,0.63 -0.18,0.17 -0.4,0.26 -0.63,0.26 -0.23,0 -0.45,-0.09 -0.62,-0.26 -0.18,-0.18 -0.98,-1.34 -2.66,-3.97 2.6,1.72 3.75,2.54 3.93,2.72 0.16,0.17 0.25,0.39 0.25,0.62 z m 1.68,-7.09 c 0.23,0 0.44,0.1 0.6,0.27 0.16,0.18 0.25,0.41 0.25,0.66 -0.01,0.5 -0.4,0.9 -0.87,0.9 h -0.02 c -0.25,0 -1.64,-0.28 -4.7,-1.01 3.09,-0.61 4.48,-0.83 4.74,-0.82 z m -3.17,-5.85 c 0.34,-0.33 0.91,-0.31 1.26,0.06 0.17,0.18 0.27,0.41 0.27,0.65 0,0.23 -0.09,0.45 -0.25,0.61 v 0 c -0.18,0.17 -1.36,0.97 -4.03,2.62 1.74,-2.62 2.58,-3.77 2.76,-3.94 z m -5.59,-2.79 h 0.01 c 0.25,0 0.48,0.1 0.65,0.27 0.17,0.17 0.26,0.38 0.25,0.61 0,0.25 -0.27,1.64 -0.98,4.71 -0.63,-3.08 -0.86,-4.48 -0.85,-4.73 0,-0.47 0.42,-0.86 0.92,-0.86 z m -7.01,3.4 c 0,-0.24 0.11,-0.47 0.28,-0.64 0.36,-0.35 0.93,-0.36 1.26,-0.02 0.18,0.18 0.98,1.35 2.65,4.01 -2.63,-1.73 -3.78,-2.55 -3.96,-2.73 -0.16,-0.16 -0.24,-0.38 -0.24,-0.62 z M 67.1,48.5 c 0.16,-0.17 0.37,-0.27 0.61,-0.26 0.25,0 1.65,0.26 4.71,0.95 -3.08,0.65 -4.48,0.89 -4.73,0.89 -0.48,0 -0.86,-0.42 -0.86,-0.92 0,-0.25 0.1,-0.48 0.27,-0.65 z"
             id="path20"
             style="fill:#000000;fill-opacity:1" />
        </g>
      </g>
    </g>
  </g>
</svg>
