<svg
	width="258"
	height="60"
	viewBox="0 0 258 60"
	fill="none"
	xmlns="http://www.w3.org/2000/svg"
>
	<path
		d="M48 14.6V40.2C48 40.8 47.6 41.4 47.1 41.7L46.3 42.2L39.9 46L35.6 48.5L34.7 49V21.3L10.7 7.40001L22.1 0.800006L23.2 0.200006C23.8 -0.0999939 24.4 -0.0999939 25 0.200006L40.8 9.30001L48.1 13.5L48 14.6ZM29.3 24.3L24.4 21.5L12.9 14.9C12.3 14.6 11.7 14.6 11.1 14.9L0.9 20.7L0 21.3L17.3 31.3V51.3L27.5 45.4L28.4 44.9C28.9 44.6 29.3 44 29.3 43.4V24.3ZM0 41.3L12 48.2V34.3L0 41.3Z"
		fill="#5CE500"
	/>
	<path
		d="M74.4 13.6H61.4V49H67.2V35.1H74.5C82.4 35.1 86.8 31.2 86.8 24.2C86.8 21 85.6 13.6 74.4 13.6ZM80.9 24.3C80.9 28.3 78.8 29.9 73.7 29.9H67.2V18.8H74.5C78.8 18.8 80.9 20.6 80.9 24.3ZM104 23.2L104.4 23.4L103.4 28.6L102.7 28.4C102.2 28.2 101.6 28.1 101 28.1C95.6 28.1 95.1 32.4 95.1 37.6V49H89.8V23H94.8V26.1C96.2 24 97.8 22.9 100 22.6C101.5 22.4 102.8 22.6 104 23.2ZM117.3 22.5C113.1 22.5 109.7 24.1 107.5 27.2C105.2 30.4 104.9 34.2 104.9 36.1C104.9 44.3 109.8 49.6 117.3 49.6C126.5 49.6 129.7 42.2 129.7 35.9C129.7 32.3 128.6 29 126.7 26.6C124.5 23.9 121.2 22.5 117.3 22.5ZM117.3 44.8C113.1 44.8 110.5 41.5 110.5 36.1C110.5 30.7 113.1 27.3 117.3 27.3C121.5 27.3 124.2 30.7 124.2 36C124.1 41.4 121.5 44.7 117.3 44.8ZM174.9 23.2L175.3 23.4L174.3 28.6L173.6 28.4C173.1 28.2 172.5 28.1 171.9 28.1C166.5 28.1 166 32.4 166 37.6V49H160.6V23H165.6V26.1C167 24 168.6 22.9 170.8 22.6C172.3 22.5 173.6 22.6 174.9 23.2ZM194.1 40.6L194 40.9C192.9 44.1 190.2 44.8 188.1 44.8C184 44.8 181.4 42.1 181.2 37.7H199.6L199.7 37.2C199.8 36.5 199.8 35.8 199.8 35.1C199.8 34.9 199.8 34.8 199.8 34.6C199.5 27.3 194.8 22.4 188 22.4C184 22.4 180.8 24 178.6 26.9C176.8 29.6 175.8 32.7 175.8 35.9C175.8 43.9 180.8 49.3 188.2 49.3C194 49.3 197.9 46.4 199.4 41.1L199.6 40.5L194.1 40.6ZM181.4 33C181.9 29.4 184.3 27.1 187.8 27.1C190.5 27.1 193.7 28.7 194.1 33H181.4ZM150.9 25.1C149.2 23.3 146.8 22.4 144 22.4C136.1 22.4 132.5 29.3 132.5 35.8C132.5 42.4 136 49.1 144 49.1C146.5 49.1 148.9 48.2 150.7 46.4C150.7 47.5 150.6 48.6 150.6 49.1C150.3 53.4 148.2 55.4 144.1 55.4C141.9 55.4 139.3 54.6 138.8 52.4L138.7 51.9H133.4L133.5 52.6C134.1 57.2 138.1 60 144 60C149.2 60 152.9 58 154.7 54.3C155.6 52.5 156 49.9 156 46.6V23H150.9V25.1ZM144.3 44.3C142.4 44.3 138.1 43.5 138.1 35.6C138.1 30.4 140.5 27.2 144.5 27.2C147.5 27.2 150.8 29.4 150.8 35.6C150.8 41.1 148.4 44.3 144.3 44.3ZM224.6 41.1C224.6 45.2 221.2 49.4 213.5 49.4C206.7 49.4 202.7 46.5 202.1 41.1L202 40.5H207.3L207.4 40.9C208 44.1 211.1 44.8 213.6 44.8C216.3 44.8 219.1 43.9 219.1 41.5C219.1 40.3 218.3 39.4 216.7 38.9C215.8 38.6 214.6 38.3 213.4 38C211.3 37.4 209.1 36.8 207.8 36.3C204.5 35.1 202.6 32.8 202.6 30C202.6 24.8 207.7 22.4 212.8 22.4C219.6 22.4 223.1 24.9 223.5 30.2V30.7H218.3L218.2 30.3C217.7 27.3 214.7 26.8 212.9 26.8C211.4 26.8 207.9 27.1 207.9 29.6C207.9 30.7 208.9 31.6 210.9 32.1C211.5 32.3 212.4 32.5 213.4 32.8C215.5 33.3 218.2 34 219.5 34.5C222.9 35.8 224.6 38 224.6 41.1ZM249.4 41.2C249.4 45.3 246 49.5 238.3 49.5C231.5 49.5 227.5 46.6 226.9 41.2L226.8 40.7H232.1L232.2 41.1C232.8 44.3 235.9 45 238.4 45C241.1 45 243.9 44.1 243.9 41.7C243.9 40.5 243.1 39.6 241.5 39.1C240.6 38.8 239.4 38.5 238.2 38.2C236.1 37.6 233.9 37 232.6 36.5C229.3 35.3 227.4 33 227.4 30.2C227.4 25 232.5 22.6 237.6 22.6C244.4 22.6 247.9 25.1 248.3 30.4V30.9H243.1L243 30.5C242.5 27.5 239.5 27 237.7 27C236.2 27 232.7 27.3 232.7 29.8C232.7 30.9 233.7 31.8 235.7 32.3C236.3 32.5 237.2 32.7 238.2 33C240.3 33.5 243 34.2 244.3 34.7C247.8 35.8 249.4 38 249.4 41.2Z"
		fill="#4B4E52"
	/>
	<path
		d="M253.7 25.7C251.7 25.7 250 24.1 250 22C250 20 251.6 18.3 253.7 18.3C255.8 18.3 257.4 19.9 257.4 22C257.4 24 255.8 25.7 253.8 25.7C253.7 25.7 253.7 25.7 253.7 25.7ZM253.7 18.9C252 18.9 250.6 20.2 250.6 21.9C250.6 23.6 251.9 25 253.6 25C255.3 25 256.7 23.7 256.7 22C256.7 22 256.7 22 256.7 21.9C256.8 20.3 255.5 18.9 253.8 18.8C253.8 18.9 253.7 18.9 253.7 18.9ZM253.2 22.7V23.9H252.1V20H253.9C254.6 19.9 255.3 20.4 255.3 21.1C255.3 21.2 255.3 21.2 255.3 21.3C255.3 21.8 255 22.3 254.6 22.5L255.5 23.9H254.3L253.6 22.7H253.2ZM253.9 21H253.3V21.9H253.9C254.1 21.9 254.4 21.8 254.4 21.5C254.4 21.5 254.4 21.5 254.4 21.4C254.4 21.1 254.2 20.9 253.9 21C253.9 20.9 253.9 20.9 253.9 21Z"
		fill="#4B4E52"
	/>
</svg>
