<svg
	width="823"
	height="108"
	viewBox="0 0 823 108"
	fill="none"
	xmlns="http://www.w3.org/2000/svg"
>
	<path
		d="M369 91.685L364.254 97.3599C360.354 101.722 354.267 101.793 350.325 97.5408L347.203 94.1762C343.321 89.9889 338.346 89.9889 334.463 94.1762L331.225 97.6672C327.341 101.855 322.368 101.855 318.483 97.6672L315.247 94.1762C311.362 89.9889 306.387 89.9889 302.505 94.1762L299.266 97.6672C295.383 101.855 290.409 101.855 286.526 97.6672L283.288 94.1762C279.405 89.9889 274.43 89.9889 270.547 94.1762L267.13 97.8596C263.34 101.947 258.499 102.052 254.646 98.1292L251.185 94.6045C247.367 90.7165 242.574 90.782 238.795 94.7739L235.894 97.8383C232.02 101.928 227.095 101.889 223.246 97.7381L219.942 94.1762C216.059 89.9889 211.085 89.9889 207.201 94.1762L203.964 97.6672C200.08 101.855 195.105 101.855 191.223 97.6672L187.984 94.1762C184.101 89.9889 179.127 89.9889 175.243 94.1762L172.006 97.6672C168.122 101.855 163.148 101.855 159.264 97.6672L156.144 94.3027C152.2 90.0507 147.138 90.1216 143.238 94.4836L140.665 97.3599C136.765 101.722 131.703 101.793 127.76 97.5408L124.639 94.1762C120.756 89.9889 115.781 89.9889 111.899 94.1762L108.66 97.6672C104.777 101.855 99.8027 101.855 95.9186 97.6672L92.6816 94.1762C88.7974 89.9889 83.8231 89.9889 79.9399 94.1762L76.7018 97.6672C72.8187 101.855 67.8444 101.855 63.9613 97.6672L62.3093 95.8862L60.6572 94.1052C56.7736 89.9179 51.6336 89.9889 47.7509 94.1762L44.6298 97.5408C40.687 101.793 35.6246 101.722 31.7242 97.3599L29.1515 94.4835C25.2511 90.1216 20.1896 90.0507 16.2458 94.3027L11 100.245"
		stroke="#F14C4C"
		stroke-width="12"
		stroke-linecap="round"
	/>
	<g filter="url(#filter0_d_505_14828)">
		<path
			d="M48.1867 22.432C45.4987 20.96 42.7467 19.744 39.9307 18.784C37.1787 17.824 34.5867 17.344 32.1547 17.344C29.1467 17.344 26.7787 17.952 25.0507 19.168C23.3227 20.384 22.4587 22.208 22.4587 24.64C22.4587 26.304 23.0987 27.808 24.3787 29.152C25.7227 30.432 27.4187 31.584 29.4667 32.608C31.5787 33.632 33.7547 34.56 35.9947 35.392C38.0427 36.16 40.0587 37.088 42.0427 38.176C44.0907 39.2 45.9147 40.512 47.5147 42.112C49.1147 43.648 50.3947 45.6 51.3547 47.968C52.3147 50.272 52.7947 53.12 52.7947 56.512C52.7947 60.096 51.8667 63.424 50.0107 66.496C48.1547 69.568 45.4347 72.064 41.8507 73.984C38.2667 75.84 33.8507 76.768 28.6027 76.768C25.9147 76.768 23.1627 76.512 20.3467 76C17.5947 75.424 14.8747 74.592 12.1867 73.504C9.49875 72.352 6.90675 70.912 4.41075 69.184L10.5547 58.336C12.2187 59.552 14.0107 60.64 15.9307 61.6C17.9147 62.496 19.8987 63.2 21.8827 63.712C23.8667 64.224 25.6907 64.48 27.3547 64.48C29.0187 64.48 30.6827 64.256 32.3467 63.808C34.0747 63.296 35.4827 62.464 36.5707 61.312C37.7227 60.16 38.2987 58.56 38.2987 56.512C38.2987 55.104 37.8187 53.824 36.8587 52.672C35.9627 51.52 34.7147 50.464 33.1147 49.504C31.5787 48.544 29.8827 47.712 28.0267 47.008C25.8507 46.176 23.6107 45.216 21.3067 44.128C19.0027 43.04 16.8267 41.728 14.7787 40.192C12.7947 38.592 11.1627 36.64 9.88275 34.336C8.66675 31.968 8.05875 29.088 8.05875 25.696C8.05875 21.6 8.95475 18.048 10.7467 15.04C12.6027 12.032 15.1947 9.664 18.5227 7.936C21.8507 6.144 25.6907 5.152 30.0427 4.96C35.7387 4.96 40.3467 5.632 43.8667 6.976C47.4507 8.32 50.6507 9.92 53.4667 11.776L48.1867 22.432ZM77.0835 77.152C73.4995 77.152 70.1715 76.288 67.0995 74.56C64.0915 72.832 61.6595 70.336 59.8035 67.072C58.0115 63.744 57.1155 59.712 57.1155 54.976C57.1155 50.176 58.1395 46.08 60.1875 42.688C62.2355 39.232 64.8915 36.576 68.1555 34.72C71.4835 32.864 75.0675 31.936 78.9075 31.936C82.4915 31.936 85.4675 32.544 87.8355 33.76C90.2035 34.912 92.2835 36.448 94.0755 38.368L93.0195 41.248V33.088H106.459V96.16H93.1155V67.84L93.3075 72.16C91.6435 73.568 89.4035 74.752 86.5875 75.712C83.8355 76.672 80.6675 77.152 77.0835 77.152ZM81.8835 66.592C83.6755 66.592 85.3075 66.336 86.7795 65.824C88.3155 65.248 89.5955 64.448 90.6195 63.424C91.7075 62.4 92.5075 61.216 93.0195 59.872V49.6C92.2515 48.192 91.3235 47.04 90.2355 46.144C89.2115 45.184 87.9955 44.48 86.5875 44.032C85.2435 43.52 83.6755 43.264 81.8835 43.264C79.8995 43.264 78.0435 43.776 76.3155 44.8C74.6515 45.824 73.3075 47.232 72.2835 49.024C71.2595 50.816 70.7475 52.832 70.7475 55.072C70.7475 57.312 71.2595 59.296 72.2835 61.024C73.3075 62.752 74.6515 64.128 76.3155 65.152C78.0435 66.112 79.8995 66.592 81.8835 66.592ZM129.982 78.016C126.206 78.016 123.038 76.864 120.478 74.56C117.918 72.192 116.574 69.152 116.446 65.44V34.048H129.886V60.448C130.014 62.304 130.494 63.808 131.326 64.96C132.158 66.048 133.566 66.592 135.55 66.592C137.534 66.592 139.23 65.92 140.638 64.576C142.11 63.232 143.23 61.408 143.998 59.104C144.83 56.736 145.246 54.08 145.246 51.136V34.048H158.686V76H146.494L145.438 68.32L145.63 69.184C144.67 70.912 143.454 72.448 141.982 73.792C140.51 75.136 138.75 76.16 136.702 76.864C134.718 77.632 132.478 78.016 129.982 78.016ZM168.668 34.048H182.108V76H168.668V34.048ZM168.38 19.168C168.38 17.184 169.148 15.552 170.684 14.272C172.284 12.992 173.98 12.352 175.772 12.352C177.564 12.352 179.196 12.992 180.668 14.272C182.204 15.552 182.972 17.184 182.972 19.168C182.972 21.152 182.204 22.784 180.668 24.064C179.196 25.28 177.564 25.888 175.772 25.888C173.98 25.888 172.284 25.28 170.684 24.064C169.148 22.784 168.38 21.152 168.38 19.168ZM213.805 97.12C210.029 97.12 206.829 96.672 204.205 95.776C201.645 94.88 199.469 93.792 197.677 92.512C195.885 91.232 194.285 90.016 192.877 88.864L200.749 79.648C202.221 80.992 203.917 82.272 205.837 83.488C207.821 84.768 210.413 85.408 213.613 85.408C215.725 85.408 217.677 85.024 219.469 84.256C221.325 83.552 222.797 82.496 223.885 81.088C225.037 79.68 225.613 77.92 225.613 75.808V66.592L226.093 68.992C225.069 71.168 223.213 73.088 220.525 74.752C217.837 76.352 214.317 77.152 209.965 77.152C206.189 77.152 202.669 76.192 199.405 74.272C196.205 72.288 193.645 69.632 191.725 66.304C189.805 62.912 188.845 59.072 188.845 54.784C188.845 50.368 189.869 46.464 191.917 43.072C193.965 39.616 196.621 36.896 199.885 34.912C203.149 32.928 206.605 31.936 210.253 31.936C213.901 31.936 217.037 32.48 219.661 33.568C222.349 34.592 224.365 35.872 225.709 37.408L225.229 38.656L226.669 34.048H239.053V76C239.053 80.096 237.901 83.712 235.597 86.848C233.293 90.048 230.221 92.544 226.381 94.336C222.605 96.192 218.413 97.12 213.805 97.12ZM202.381 54.4C202.381 56.64 202.893 58.656 203.917 60.448C204.941 62.24 206.317 63.648 208.045 64.672C209.837 65.696 211.821 66.208 213.997 66.208C215.853 66.208 217.485 65.984 218.893 65.536C220.365 65.024 221.645 64.32 222.733 63.424C223.885 62.464 224.845 61.28 225.613 59.872V49.6C225.037 48.192 224.173 47.008 223.021 46.048C221.869 45.024 220.525 44.256 218.989 43.744C217.517 43.168 215.853 42.88 213.997 42.88C211.821 42.88 209.837 43.392 208.045 44.416C206.317 45.376 204.941 46.72 203.917 48.448C202.893 50.176 202.381 52.16 202.381 54.4ZM270.715 97.12C266.939 97.12 263.739 96.672 261.115 95.776C258.555 94.88 256.379 93.792 254.587 92.512C252.795 91.232 251.195 90.016 249.787 88.864L257.659 79.648C259.131 80.992 260.827 82.272 262.747 83.488C264.731 84.768 267.323 85.408 270.523 85.408C272.635 85.408 274.588 85.024 276.38 84.256C278.235 83.552 279.707 82.496 280.796 81.088C281.948 79.68 282.524 77.92 282.524 75.808V66.592L283.004 68.992C281.98 71.168 280.124 73.088 277.436 74.752C274.747 76.352 271.227 77.152 266.875 77.152C263.099 77.152 259.579 76.192 256.315 74.272C253.115 72.288 250.555 69.632 248.635 66.304C246.715 62.912 245.755 59.072 245.755 54.784C245.755 50.368 246.779 46.464 248.827 43.072C250.875 39.616 253.531 36.896 256.795 34.912C260.059 32.928 263.515 31.936 267.163 31.936C270.811 31.936 273.948 32.48 276.572 33.568C279.26 34.592 281.276 35.872 282.62 37.408L282.14 38.656L283.579 34.048H295.964V76C295.964 80.096 294.812 83.712 292.508 86.848C290.204 90.048 287.132 92.544 283.292 94.336C279.515 96.192 275.323 97.12 270.715 97.12ZM259.291 54.4C259.291 56.64 259.803 58.656 260.827 60.448C261.851 62.24 263.227 63.648 264.955 64.672C266.747 65.696 268.731 66.208 270.907 66.208C272.764 66.208 274.396 65.984 275.803 65.536C277.275 65.024 278.556 64.32 279.644 63.424C280.795 62.464 281.755 61.28 282.524 59.872V49.6C281.948 48.192 281.084 47.008 279.932 46.048C278.78 45.024 277.436 44.256 275.9 43.744C274.428 43.168 272.764 42.88 270.907 42.88C268.731 42.88 266.747 43.392 264.955 44.416C263.227 45.376 261.851 46.72 260.827 48.448C259.803 50.176 259.291 52.16 259.291 54.4ZM305.929 0.255997H319.369V76H305.929V0.255997ZM350.011 77.152C344.891 77.152 340.539 76.192 336.955 74.272C333.435 72.352 330.747 69.696 328.891 66.304C327.035 62.912 326.107 59.008 326.107 54.592C326.107 50.368 327.195 46.56 329.371 43.168C331.547 39.776 334.459 37.088 338.107 35.104C341.755 33.056 345.819 32.032 350.299 32.032C356.315 32.032 361.243 33.792 365.083 37.312C368.987 40.768 371.515 45.792 372.667 52.384L340.027 62.752L337.051 55.456L360.667 47.488L357.883 48.736C357.371 47.072 356.443 45.632 355.099 44.416C353.819 43.136 351.867 42.496 349.243 42.496C347.259 42.496 345.499 42.976 343.963 43.936C342.491 44.832 341.339 46.144 340.507 47.872C339.739 49.536 339.355 51.52 339.355 53.824C339.355 56.448 339.835 58.656 340.795 60.448C341.755 62.176 343.067 63.488 344.731 64.384C346.395 65.28 348.251 65.728 350.299 65.728C351.771 65.728 353.179 65.472 354.523 64.96C355.931 64.448 357.307 63.776 358.651 62.944L364.603 72.928C362.363 74.208 359.931 75.232 357.307 76C354.747 76.768 352.315 77.152 350.011 77.152ZM433.793 70.144C433.025 70.784 431.585 71.648 429.473 72.736C427.425 73.824 424.897 74.784 421.889 75.616C418.881 76.448 415.553 76.832 411.905 76.768C406.337 76.64 401.345 75.648 396.929 73.792C392.577 71.872 388.865 69.28 385.793 66.016C382.785 62.752 380.481 59.008 378.881 54.784C377.281 50.56 376.481 46.048 376.481 41.248C376.481 35.872 377.281 30.944 378.881 26.464C380.545 21.984 382.881 18.112 385.889 14.848C388.961 11.584 392.609 9.056 396.833 7.264C401.057 5.472 405.729 4.576 410.849 4.576C415.585 4.576 419.777 5.216 423.425 6.496C427.073 7.776 430.049 9.15199 432.353 10.624L426.881 23.776C425.281 22.56 423.137 21.312 420.449 20.032C417.825 18.688 414.785 18.016 411.329 18.016C408.641 18.016 406.049 18.592 403.553 19.744C401.121 20.832 398.945 22.4 397.025 24.448C395.169 26.496 393.697 28.896 392.609 31.648C391.521 34.336 390.977 37.28 390.977 40.48C390.977 43.872 391.457 46.976 392.417 49.792C393.441 52.608 394.881 55.04 396.737 57.088C398.593 59.072 400.801 60.608 403.361 61.696C405.985 62.784 408.929 63.328 412.193 63.328C415.969 63.328 419.201 62.72 421.889 61.504C424.577 60.288 426.625 59.008 428.033 57.664L433.793 70.144ZM438.427 54.496C438.427 50.208 439.419 46.368 441.403 42.976C443.451 39.584 446.299 36.928 449.947 35.008C453.595 33.024 457.787 32.032 462.523 32.032C467.323 32.032 471.483 33.024 475.003 35.008C478.523 36.928 481.211 39.584 483.067 42.976C484.987 46.368 485.947 50.208 485.947 54.496C485.947 58.784 484.987 62.656 483.067 66.112C481.211 69.504 478.523 72.192 475.003 74.176C471.483 76.16 467.259 77.152 462.331 77.152C457.723 77.152 453.595 76.256 449.947 74.464C446.363 72.672 443.547 70.08 441.499 66.688C439.451 63.296 438.427 59.232 438.427 54.496ZM451.963 54.592C451.963 56.768 452.411 58.752 453.307 60.544C454.203 62.272 455.419 63.648 456.955 64.672C458.491 65.696 460.219 66.208 462.139 66.208C464.251 66.208 466.075 65.696 467.611 64.672C469.147 63.648 470.331 62.272 471.163 60.544C471.995 58.752 472.411 56.768 472.411 54.592C472.411 52.352 471.995 50.368 471.163 48.64C470.331 46.912 469.147 45.536 467.611 44.512C466.075 43.488 464.251 42.976 462.139 42.976C460.219 42.976 458.491 43.488 456.955 44.512C455.419 45.536 454.203 46.912 453.307 48.64C452.411 50.368 451.963 52.352 451.963 54.592ZM504.887 34.048L505.943 41.536L505.751 40.864C507.223 38.24 509.303 36.128 511.991 34.528C514.679 32.864 517.975 32.032 521.879 32.032C525.847 32.032 529.143 33.216 531.767 35.584C534.455 37.888 535.831 40.896 535.895 44.608V76H522.455V49.6C522.391 47.744 521.879 46.272 520.919 45.184C520.023 44.032 518.487 43.456 516.311 43.456C514.263 43.456 512.471 44.128 510.935 45.472C509.399 46.816 508.215 48.64 507.383 50.944C506.551 53.248 506.135 55.904 506.135 58.912V76H492.695V34.048H504.887ZM549.887 76V45.76H542.783V33.856H549.887V19.264C549.887 13.76 551.455 9.28 554.591 5.824C557.791 2.304 562.399 0.543999 568.415 0.543999C570.207 0.543999 572.191 0.831999 574.367 1.408C576.607 1.92 578.559 2.78399 580.223 3.99999L574.559 13.696C573.919 12.864 573.151 12.32 572.255 12.064C571.423 11.744 570.623 11.584 569.855 11.584C567.935 11.584 566.367 12.224 565.151 13.504C563.935 14.784 563.327 16.832 563.327 19.648V33.856H575.999V45.76H563.327V76H549.887Z"
			fill="white"
		/>
	</g>
	<g filter="url(#filter1_d_505_14828)">
		<path
			d="M614.84 76V68.848C617.304 66.64 620.072 64.176 623.144 61.456C626.216 58.704 629.272 55.84 632.312 52.864C635.384 49.856 638.2 46.88 640.76 43.936C643.32 40.992 645.384 38.208 646.952 35.584C648.52 32.928 649.304 30.608 649.304 28.624C649.304 26.256 648.728 24.096 647.576 22.144C646.424 20.16 644.872 18.576 642.92 17.392C641 16.208 638.856 15.616 636.488 15.616C634.12 15.616 631.944 16.208 629.96 17.392C628.008 18.576 626.44 20.16 625.256 22.144C624.104 24.096 623.528 26.256 623.528 28.624H615.464C615.464 24.688 616.424 21.136 618.344 17.968C620.264 14.768 622.808 12.24 625.976 10.384C629.144 8.49599 632.648 7.55199 636.488 7.55199C640.328 7.55199 643.816 8.49599 646.952 10.384C650.12 12.272 652.648 14.816 654.536 18.016C656.424 21.184 657.368 24.72 657.368 28.624C657.368 30.864 656.824 33.28 655.736 35.872C654.648 38.432 653.16 41.072 651.272 43.792C649.384 46.512 647.24 49.264 644.84 52.048C642.44 54.8 639.912 57.52 637.256 60.208C634.6 62.896 631.96 65.472 629.336 67.936H658.232V76H614.84ZM686.443 77.248C682.443 77.248 678.859 76.352 675.691 74.56C672.523 72.736 669.803 70.224 667.531 67.024C665.259 63.824 663.531 60.128 662.347 55.936C661.163 51.712 660.571 47.2 660.571 42.4C660.571 37.6 661.163 33.088 662.347 28.864C663.531 24.64 665.259 20.944 667.531 17.776C669.803 14.576 672.523 12.08 675.691 10.288C678.859 8.46399 682.443 7.55199 686.443 7.55199C690.411 7.55199 693.979 8.46399 697.147 10.288C700.347 12.08 703.051 14.576 705.259 17.776C707.499 20.944 709.211 24.64 710.395 28.864C711.611 33.088 712.219 37.6 712.219 42.4C712.219 47.2 711.611 51.712 710.395 55.936C709.211 60.128 707.499 63.824 705.259 67.024C703.051 70.224 700.347 72.736 697.147 74.56C693.979 76.352 690.411 77.248 686.443 77.248ZM686.443 69.184C690.443 69.184 693.787 67.952 696.475 65.488C699.195 62.992 701.227 59.712 702.571 55.648C703.915 51.584 704.587 47.168 704.587 42.4C704.587 37.376 703.883 32.848 702.475 28.816C701.099 24.752 699.051 21.536 696.331 19.168C693.643 16.8 690.347 15.616 686.443 15.616C683.371 15.616 680.683 16.336 678.379 17.776C676.107 19.216 674.219 21.184 672.715 23.68C671.211 26.176 670.075 29.04 669.307 32.272C668.571 35.472 668.203 38.848 668.203 42.4C668.203 47.168 668.891 51.6 670.267 55.696C671.643 59.76 673.675 63.024 676.363 65.488C679.083 67.952 682.443 69.184 686.443 69.184ZM715.066 76V68.848C717.53 66.64 720.298 64.176 723.37 61.456C726.442 58.704 729.498 55.84 732.538 52.864C735.61 49.856 738.426 46.88 740.986 43.936C743.546 40.992 745.61 38.208 747.178 35.584C748.746 32.928 749.53 30.608 749.53 28.624C749.53 26.256 748.954 24.096 747.802 22.144C746.65 20.16 745.098 18.576 743.146 17.392C741.226 16.208 739.082 15.616 736.714 15.616C734.346 15.616 732.17 16.208 730.186 17.392C728.234 18.576 726.666 20.16 725.482 22.144C724.33 24.096 723.754 26.256 723.754 28.624H715.69C715.69 24.688 716.65 21.136 718.57 17.968C720.49 14.768 723.034 12.24 726.202 10.384C729.37 8.49599 732.874 7.55199 736.714 7.55199C740.554 7.55199 744.042 8.49599 747.178 10.384C750.346 12.272 752.874 14.816 754.762 18.016C756.65 21.184 757.594 24.72 757.594 28.624C757.594 30.864 757.05 33.28 755.962 35.872C754.874 38.432 753.386 41.072 751.498 43.792C749.61 46.512 747.466 49.264 745.066 52.048C742.666 54.8 740.138 57.52 737.482 60.208C734.826 62.896 732.186 65.472 729.562 67.936H758.458V76H715.066ZM786.035 77.248C781.875 77.248 778.099 76.24 774.707 74.224C771.315 72.208 768.627 69.52 766.643 66.16C764.691 62.768 763.715 59.04 763.715 54.976H771.779C771.779 57.568 772.419 59.952 773.699 62.128C774.979 64.272 776.691 65.984 778.835 67.264C781.011 68.544 783.411 69.184 786.035 69.184C788.627 69.184 790.995 68.544 793.139 67.264C795.283 65.984 796.995 64.272 798.275 62.128C799.555 59.952 800.195 57.568 800.195 54.976C800.195 52.384 799.587 50 798.371 47.824C797.187 45.648 795.443 43.92 793.139 42.64C790.835 41.328 788.035 40.672 784.739 40.672H768.179L774.707 8.8H806.579V16.864H781.235L778.115 32.608L785.075 32.656C789.651 32.752 793.667 33.776 797.123 35.728C800.611 37.648 803.331 40.272 805.283 43.6C807.267 46.896 808.259 50.688 808.259 54.976C808.259 58.016 807.683 60.896 806.531 63.616C805.379 66.304 803.779 68.672 801.731 70.72C799.683 72.768 797.315 74.368 794.627 75.52C791.971 76.672 789.107 77.248 786.035 77.248Z"
			fill="#29CED6"
		/>
	</g>
	<defs>
		<filter
			id="filter0_d_505_14828"
			x="0.410767"
			y="0.255997"
			width="583.812"
			height="104.864"
			filterUnits="userSpaceOnUse"
			color-interpolation-filters="sRGB"
		>
			<feFlood flood-opacity="0" result="BackgroundImageFix" />
			<feColorMatrix
				in="SourceAlpha"
				type="matrix"
				values="0 0 0 0 0 0 0 0 0 0 0 0 0 0 0 0 0 0 127 0"
				result="hardAlpha"
			/>
			<feOffset dy="4" />
			<feGaussianBlur stdDeviation="2" />
			<feComposite in2="hardAlpha" operator="out" />
			<feColorMatrix
				type="matrix"
				values="0 0 0 0 0 0 0 0 0 0 0 0 0 0 0 0 0 0 0.25 0"
			/>
			<feBlend
				mode="normal"
				in2="BackgroundImageFix"
				result="effect1_dropShadow_505_14828"
			/>
			<feBlend
				mode="normal"
				in="SourceGraphic"
				in2="effect1_dropShadow_505_14828"
				result="shape"
			/>
		</filter>
		<filter
			id="filter1_d_505_14828"
			x="610.84"
			y="7.55199"
			width="201.419"
			height="77.696"
			filterUnits="userSpaceOnUse"
			color-interpolation-filters="sRGB"
		>
			<feFlood flood-opacity="0" result="BackgroundImageFix" />
			<feColorMatrix
				in="SourceAlpha"
				type="matrix"
				values="0 0 0 0 0 0 0 0 0 0 0 0 0 0 0 0 0 0 127 0"
				result="hardAlpha"
			/>
			<feOffset dy="4" />
			<feGaussianBlur stdDeviation="2" />
			<feComposite in2="hardAlpha" operator="out" />
			<feColorMatrix
				type="matrix"
				values="0 0 0 0 0 0 0 0 0 0 0 0 0 0 0 0 0 0 0.25 0"
			/>
			<feBlend
				mode="normal"
				in2="BackgroundImageFix"
				result="effect1_dropShadow_505_14828"
			/>
			<feBlend
				mode="normal"
				in="SourceGraphic"
				in2="effect1_dropShadow_505_14828"
				result="shape"
			/>
		</filter>
	</defs>
</svg>
