<svg
	width="378"
	height="23"
	viewBox="0 0 378 23"
	fill="none"
	xmlns="http://www.w3.org/2000/svg"
>
	<path
		d="M365 6.68498L360.254 12.3599C356.354 16.7218 350.267 16.7928 346.325 12.5408L343.203 9.17618C339.321 4.98887 334.346 4.98886 330.463 9.17618L327.225 12.6672C323.341 16.8546 318.368 16.8546 314.483 12.6672L311.247 9.17618C307.362 4.98887 302.387 4.98886 298.505 9.17618L295.266 12.6672C291.383 16.8546 286.409 16.8546 282.526 12.6672L279.288 9.17618C275.405 4.98887 270.43 4.98886 266.547 9.17618L263.13 12.8596C259.34 16.9474 254.499 17.0519 250.646 13.1292L247.185 9.60448C243.367 5.71652 238.574 5.78204 234.795 9.77394L231.894 12.8383C228.02 16.928 223.095 16.889 219.246 12.7381L215.942 9.17618C212.059 4.98887 207.085 4.98886 203.201 9.17618L199.964 12.6672C196.08 16.8546 191.105 16.8546 187.223 12.6672L183.984 9.17618C180.101 4.98887 175.127 4.98886 171.243 9.17618L168.006 12.6672C164.122 16.8546 159.148 16.8546 155.264 12.6672L152.144 9.3027C148.2 5.05069 143.138 5.12161 139.238 9.48355L136.665 12.3599C132.765 16.7218 127.703 16.7928 123.76 12.5408L120.639 9.17618C116.756 4.98887 111.781 4.98886 107.899 9.17618L104.66 12.6672C100.777 16.8546 95.8027 16.8546 91.9186 12.6672L88.6816 9.17618C84.7974 4.98887 79.8231 4.98886 75.9399 9.17618L72.7018 12.6672C68.8187 16.8546 63.8444 16.8546 59.9613 12.6672L58.3093 10.8862L56.6572 9.10524C52.7736 4.91793 47.6336 4.98887 43.7509 9.17617L40.6298 12.5408C36.687 16.7928 31.6246 16.7218 27.7242 12.3599L25.1515 9.48355C21.2511 5.12161 16.1896 5.05069 12.2458 9.3027L7 15.2448"
		stroke="#F14C4C"
		stroke-width="12"
		stroke-linecap="round"
	/>
</svg>
