<svg
	width="597"
	height="499"
	viewBox="0 0 597 499"
	fill="none"
	xmlns="http://www.w3.org/2000/svg"
>
	<path
		d="M198.556 149.938C182.949 50.584 112.696 -0.813703 184.485 148.443L198.556 149.938Z"
		fill="#B23F5B"
	/>
	<path
		d="M185.577 151.665C166.493 88.7623 95.6794 43.1584 171.506 150.17L185.577 151.665Z"
		fill="#B23F5B"
	/>
	<path
		d="M207.9 138.218C216.553 75.0165 168.252 13.9814 195.044 133.077L207.9 138.218Z"
		fill="#B23F5B"
	/>
	<path
		d="M209.598 186.368C158.992 99.4615 74.8877 77.0632 195.955 190.084L209.598 186.368Z"
		fill="#57B762"
	/>
	<path
		d="M198.095 192.682C157.475 140.999 74.9607 124.214 184.452 196.398L198.095 192.682Z"
		fill="#57B762"
	/>
	<path
		d="M214.023 172.036C199.164 109.982 131.965 70.6803 200.182 171.929L214.023 172.036Z"
		fill="#57B762"
	/>
	<path
		fill-rule="evenodd"
		clip-rule="evenodd"
		d="M181.121 98.5743L217.604 81.9375L206.093 195.865L181.379 206.497L164.989 185.446L181.121 98.5743Z"
		fill="#B4C4C6"
	/>
	<path
		d="M243.186 261.089L217.604 81.9375L206.093 195.865L243.186 261.089Z"
		fill="#A0B9BB"
	/>
	<path
		d="M206.089 195.834L181.375 206.466L171.309 252.476L243.181 261.058L206.089 195.834Z"
		fill="#3F5355"
	/>
	<path
		d="M128.068 211.395L121.123 246.542L171.287 252.542L181.353 206.532L128.068 211.395Z"
		fill="#8BA5A7"
	/>
	<path
		d="M164.954 185.419L130.406 199.475L128.063 211.363L181.344 206.47L164.954 185.419Z"
		fill="#B4C4C6"
	/>
	<path
		d="M101.85 245.758C80.761 232.481 70.5132 219.076 73.2182 212.597L84.5106 199.936C87.6918 213.372 94.1034 229.092 104.219 234.055C93.808 216.854 90.68 202.244 90.4151 197.073L95.5109 194.735C97.9186 207.839 100.371 215.065 101.281 217.018C102.603 209.917 100.337 200.896 99.0639 197.29L105.335 195.006C106.263 200.397 107.27 213.196 103.791 221.111C105.864 226.56 109.585 230.069 111.224 231.161C115.932 213.064 111.863 197.609 109.247 192.111C110.772 188.863 115.554 182.782 122.43 184.294C123.936 196.832 125.013 223.826 117.402 231.321C117.999 232.183 119.727 233.672 121.99 232.717C124.589 227.706 129.177 210.983 126.611 184.391C128.962 183.614 134.42 183.813 137.672 190.893C137.619 192.732 134.966 222.562 129.247 231.145C134.789 224.64 143.425 210.843 143.081 196.055C143.598 196.36 145.057 197.288 146.86 198.641C149.123 200.338 143.305 220.393 137.785 225.506C140.388 224.503 146.257 220.729 148.905 213.627C150.085 215.258 152.334 218.851 151.804 220.442C151.185 222.298 141.475 235.649 133.268 237.862C139.106 236.745 148.988 234.102 151.498 230.682C151.803 233.921 151.511 241.381 147.984 245.42C147.295 245.456 116.955 245.653 101.85 245.758Z"
		fill="#FFEE8B"
	/>
	<path
		d="M50.7036 243.497L571.373 246.392L548.018 429.028L334.222 401.663L343.137 381.639L332.206 334.713L281.513 300.694L69.0474 264.963L50.7036 243.497Z"
		fill="#18383D"
	/>
	<path
		d="M194.847 246.21C220.993 231.46 233.859 216.333 230.682 208.895L217.151 194.16C212.929 209.473 204.708 227.283 192.205 232.793C205.337 213.335 209.554 196.665 210.005 190.761L203.831 187.981C200.569 202.936 197.413 211.12 196.219 213.374C194.801 205.211 197.758 194.972 199.411 190.853L191.788 188.09C190.519 194.238 188.976 208.853 193.055 217.961C190.403 224.148 185.727 228.099 183.72 229.301C178.387 208.534 183.762 190.909 187.073 184.692C185.279 180.97 179.596 173.89 171.141 175.476C169.019 189.795 167.015 220.638 176.154 229.371C175.412 230.361 173.25 232.027 170.497 230.873C167.426 225.062 162.226 205.886 166.033 175.511C163.182 174.561 156.478 174.697 152.319 182.71C152.336 184.822 154.88 218.993 161.632 228.92C154.994 221.344 144.76 205.381 145.565 188.472C144.951 188.812 143.108 189.833 140.863 191.353C138.039 193.24 144.68 216.314 151.34 222.277C148.202 221.083 141.096 216.637 137.998 208.43C136.491 210.255 133.667 214.351 134.307 216.186C135.023 218.325 146.579 233.815 156.562 236.525C149.416 235.115 137.405 231.906 134.404 227.915C133.953 231.609 134.134 240.17 138.336 244.841C139.229 244.903 176.383 245.785 194.847 246.21Z"
		fill="#F18150"
	/>
	<path
		fill-rule="evenodd"
		clip-rule="evenodd"
		d="M180.846 111.903C181.96 108.43 186.812 104.832 189.371 102.636C191.466 101.39 193.128 101.09 194.418 101.505L188.2 106.591L195.095 101.819C195.921 102.301 196.544 103.127 197.043 104.192L188.819 109.597L197.401 105.151C197.79 106.327 198.051 107.71 198.17 109.208L188.394 114.582L198.267 110.331C198.338 111.71 198.351 113.128 198.28 114.622L189.843 118.542L198.192 115.992C198.112 116.982 198.037 118.003 197.895 119.002L189.145 122.051L197.696 120.482C197.542 121.609 197.356 122.741 197.131 123.814L188.053 126.342L196.892 125.017C196.569 126.515 196.202 127.924 195.844 129.175L187.673 129.868L195.424 130.435C194.598 132.825 193.745 134.368 192.998 134.443C190.426 134.779 185.631 135.463 182.519 134.456C179.448 133.505 179.475 116.234 180.846 111.903ZM187.236 119.735C187.324 124.11 186.143 131.981 183.717 132.454C181.565 132.856 181.565 127.994 181.574 123.858C181.565 123.354 181.561 122.881 181.557 122.408L181.548 122.125C181.522 117.962 181.495 112.031 184.351 109.698C187.007 107.519 187.117 114.038 187.174 118.418C187.209 118.886 187.24 119.324 187.236 119.735Z"
		fill="#D9D9D9"
	/>
	<path
		fill-rule="evenodd"
		clip-rule="evenodd"
		d="M195.495 130.488C195.628 130.09 195.756 129.662 195.884 129.233L187.712 129.926L195.495 130.488ZM188.128 126.426L196.967 125.101C197.038 124.712 197.139 124.319 197.206 123.899L188.128 126.426ZM189.185 122.108L197.736 120.54C197.794 120.058 197.882 119.572 197.935 119.059L189.185 122.108ZM189.852 118.604L198.201 116.054C198.231 115.608 198.258 115.131 198.289 114.684L189.852 118.604ZM188.434 114.639L198.307 110.389C198.285 110.013 198.263 109.637 198.21 109.266L188.434 114.639ZM188.823 109.628L197.406 105.182C197.295 104.851 197.149 104.493 197.012 104.197L188.823 109.628ZM188.2 106.592L195.094 101.819C194.887 101.691 194.653 101.598 194.418 101.505L188.2 106.592Z"
		fill="#A0A0A0"
	/>
	<path
		d="M183.717 132.454C186.143 131.981 187.324 124.11 187.235 119.735C187.209 119.328 187.209 118.886 187.205 118.413C187.143 114.003 187.037 107.515 184.381 109.694C181.526 112.027 181.552 117.958 181.578 122.121L181.587 122.404C181.592 122.877 181.596 123.35 181.605 123.853C181.596 127.99 181.565 132.856 183.717 132.454Z"
		fill="#2E2E2E"
	/>
	<path
		fill-rule="evenodd"
		clip-rule="evenodd"
		d="M191.897 139.998C192.529 138.014 195.3 135.977 196.759 134.695C197.952 133.988 198.907 133.82 199.636 134.064L196.074 136.971L200.012 134.262C200.493 134.541 200.847 135.027 201.121 135.619L196.449 138.717L201.359 136.185C201.58 136.848 201.726 137.648 201.819 138.518L196.228 141.59L201.85 139.177C201.898 139.959 201.889 140.781 201.854 141.639L197.028 143.875L201.81 142.434C201.766 143.009 201.721 143.583 201.646 144.162L196.657 145.916L201.545 144.997C201.447 145.643 201.35 146.288 201.217 146.907L196.024 148.342L201.058 147.561C200.868 148.44 200.665 149.227 200.453 149.951L195.803 150.331L200.236 150.645C199.768 152.006 199.264 152.899 198.857 152.926C197.399 153.102 194.65 153.526 192.86 152.93C191.101 152.328 191.115 142.478 191.897 139.998ZM195.534 144.467C195.605 146.95 194.924 151.467 193.541 151.728C192.312 151.966 192.325 149.186 192.334 146.818C192.326 146.535 192.348 146.247 192.343 145.996L192.352 145.836C192.33 143.472 192.317 140.065 193.957 138.726C195.486 137.497 195.539 141.183 195.583 143.702C195.525 143.963 195.53 144.215 195.534 144.467Z"
		fill="#D9D9D9"
	/>
	<path
		fill-rule="evenodd"
		clip-rule="evenodd"
		d="M200.262 150.61C200.324 150.38 200.417 150.146 200.505 149.881L195.856 150.26L200.262 150.61ZM196.046 148.276L201.08 147.494C201.111 147.269 201.173 147.039 201.204 146.814L196.046 148.276ZM196.643 145.823L201.531 144.904C201.553 144.617 201.611 144.356 201.633 144.069L196.643 145.823ZM197.05 143.808L201.832 142.368C201.858 142.111 201.849 141.828 201.876 141.572L197.05 143.808ZM196.224 141.559L201.845 139.146C201.845 138.925 201.814 138.708 201.783 138.492L196.224 141.559ZM196.445 138.686L201.355 136.154C201.293 135.942 201.205 135.765 201.147 135.584L196.445 138.686ZM196.1 136.936L200.038 134.227C199.901 134.152 199.799 134.103 199.667 134.059L196.1 136.936Z"
		fill="#A0A0A0"
	/>
	<path
		d="M193.54 151.727C194.924 151.467 195.609 146.981 195.534 144.466C195.534 144.245 195.53 143.993 195.521 143.71C195.477 141.191 195.424 137.506 193.895 138.734C192.255 140.073 192.264 143.45 192.29 145.845L192.281 146.004C192.286 146.256 192.294 146.539 192.272 146.826C192.321 149.155 192.312 151.966 193.54 151.727Z"
		fill="#2E2E2E"
	/>
	<path
		d="M187.8 149.99C187.159 147.051 184.34 149.632 181.599 153.654C180.243 152.332 186.112 146.349 181.348 147.029C179.368 147.312 180.123 150.392 179.902 154.369C178.51 153.242 180.026 149.711 176.994 150.144C173.963 150.577 175.231 151.943 179.27 155.249C176.057 153.309 173.034 154.908 173.516 156.071C173.998 157.233 175.916 156.517 179.465 156.61C178.819 157.397 172.146 156.866 172.645 159.92C173.14 162.943 176.972 159.933 180.304 157.185C180.711 157.821 177.966 162.475 182.204 161.869C184.71 161.512 182.425 159.66 181.511 157.012C183.676 156.924 185.691 160.203 188.414 158.268C191.167 156.328 185.033 155.815 181.939 156.257C185.077 154.798 190.999 155.815 189.554 152.549C188.538 150.295 182.691 155.992 182.457 154.794C182.187 153.57 188.436 152.898 187.8 149.99Z"
		fill="#F8FF93"
	/>
	<path
		d="M168.973 141.283C166.499 141.194 167.966 143.952 170.582 147.019C169.243 147.81 165.743 141.87 165.261 145.79C165.053 147.43 167.678 147.465 170.794 148.504C169.592 149.37 167.104 147.421 166.799 149.927C166.493 152.433 167.841 151.704 171.337 149.216C169.119 151.363 169.733 154.117 170.754 153.971C171.779 153.856 171.602 152.177 172.46 149.34C172.937 150.029 171.12 155.213 173.617 155.456C176.145 155.695 174.546 152.009 173.074 148.778C173.68 148.597 176.786 151.784 177.197 148.253C177.436 146.167 175.496 147.612 173.185 147.784C173.6 146.052 176.628 145.146 175.655 142.538C174.683 139.931 172.964 144.69 172.668 147.258C172.173 144.456 174.241 139.931 171.342 140.408C169.336 140.726 172.637 146.6 171.62 146.555C170.639 146.538 171.453 141.402 168.973 141.283Z"
		fill="#F8FF93"
	/>
	<path
		d="M164.063 150.223C161.584 150.103 163.024 152.897 165.671 155.959C164.332 156.75 160.832 150.81 160.35 154.73C160.143 156.37 162.768 156.405 165.883 157.444C164.681 158.31 162.193 156.361 161.888 158.867C161.583 161.373 162.962 160.639 166.427 158.156C164.208 160.304 164.822 163.057 165.843 162.911C166.869 162.796 166.692 161.117 167.549 158.28C168.027 158.969 166.21 164.153 168.707 164.396C171.235 164.635 169.635 160.949 168.164 157.718C168.769 157.537 171.876 160.724 172.287 157.193C172.53 155.138 170.586 156.552 168.27 156.693C168.655 154.965 171.713 154.055 170.741 151.447C169.769 148.84 168.049 153.599 167.753 156.167C167.258 153.365 169.327 148.84 166.428 149.317C164.421 149.635 167.722 155.509 166.706 155.464C165.724 155.447 166.538 150.311 164.063 150.223Z"
		fill="#F8FF93"
	/>
	<path
		d="M175.955 152.818C174.532 154.126 176.879 154.864 180.003 155.081C179.698 156.261 174.488 154.921 176.41 157.33C177.215 158.32 178.66 156.946 180.954 155.766C180.768 156.897 178.319 157.215 179.548 158.744C180.776 160.274 181.121 159.151 181.661 155.854C181.625 158.258 183.468 159.447 183.976 158.807C184.484 158.166 183.45 157.335 182.372 155.311C183.022 155.439 184.864 159.28 186.394 158.051C187.918 156.792 185.006 155.629 182.408 154.674C182.629 154.232 186.107 154.272 184.41 152.116C183.407 150.838 183.102 152.681 181.939 154.047C181.206 152.889 182.377 150.701 180.419 149.813C178.461 148.924 180.136 152.473 181.374 154.064C179.553 152.809 178.209 149.15 176.87 151.046C175.951 152.345 180.98 153.742 180.392 154.268C179.769 154.767 177.378 151.51 175.955 152.818Z"
		fill="#FFB793"
	/>
	<path
		d="M168.735 151.324C169.473 152.734 170.555 151.032 171.408 148.606C172.266 149.083 170.104 152.959 172.456 151.96C173.437 151.536 172.628 150.073 172.177 148.023C173.052 148.403 172.774 150.431 174.259 149.777C175.748 149.154 174.913 148.611 172.385 147.488C174.294 148.036 175.634 146.803 175.209 146.264C174.785 145.725 173.932 146.383 172.098 146.803C172.341 146.295 175.788 145.676 175.134 144.191C174.48 142.706 172.916 144.792 171.599 146.622C171.307 146.348 172.081 143.586 169.968 144.487C168.748 145.008 170.162 145.627 170.971 146.869C169.884 147.214 168.39 145.817 167.259 147.178C166.127 148.539 169.327 147.956 170.847 147.329C169.437 148.509 166.26 148.804 167.48 150.272C168.319 151.288 170.503 147.567 170.807 148.155C171.108 148.712 167.997 149.914 168.735 151.324Z"
		fill="#FFB793"
	/>
	<path
		d="M163.819 160.233C164.557 161.643 165.64 159.942 166.493 157.515C167.351 157.993 165.189 161.868 167.541 160.87C168.522 160.446 167.713 158.983 167.262 156.932C168.137 157.312 167.859 159.341 169.344 158.687C170.833 158.064 169.998 157.52 167.47 156.397C169.379 156.945 170.718 155.712 170.294 155.173C169.87 154.634 169.017 155.293 167.183 155.712C167.426 155.204 170.873 154.586 170.219 153.101C169.534 151.62 168.001 153.701 166.684 155.531C166.392 155.257 167.165 152.495 165.053 153.396C163.833 153.918 165.252 154.568 166.087 155.774C165 156.119 163.506 154.722 162.375 156.083C161.243 157.444 164.443 156.861 165.963 156.234C164.584 157.409 161.376 157.709 162.595 159.177C163.435 160.193 165.618 156.472 165.923 157.06C166.193 157.621 163.081 158.823 163.819 160.233Z"
		fill="#FFB793"
	/>
	<path
		d="M229.148 83.1931C228.507 80.2541 225.687 82.8349 222.947 86.8564C221.59 85.5349 227.46 79.5514 222.696 80.2317C220.716 80.5144 221.467 83.5639 221.281 87.5678C219.889 86.4408 221.374 82.9142 218.342 83.3471C215.31 83.78 216.579 85.1457 220.618 88.4517C217.405 86.5114 214.382 88.111 214.864 89.2733C215.345 90.4357 217.264 89.7199 220.812 89.8129C220.167 90.5995 213.494 90.0687 214.019 93.0872C214.514 96.1101 218.346 93.1008 221.683 90.383C222.089 91.0194 219.345 95.6729 223.583 95.0677C226.089 94.7099 223.804 92.858 222.889 90.2107C225.055 90.1225 227.07 93.4018 229.792 91.4663C232.546 89.5263 226.412 89.0133 223.318 89.4551C226.425 88.0013 232.378 89.0137 230.933 85.7476C229.917 83.4937 224.069 89.1899 223.804 87.9967C223.535 86.7725 229.815 86.0967 229.148 83.1931Z"
		fill="#F8FF93"
	/>
	<path
		d="M210.352 74.4816C207.873 74.3621 209.345 77.1509 211.961 80.2181C210.621 81.0091 207.122 75.0692 206.64 78.9892C206.432 80.6287 209.026 80.6687 212.173 81.703C211.001 82.5647 208.482 80.62 208.177 83.1258C207.872 85.6316 209.22 84.9025 212.716 82.4146C210.497 84.5623 211.112 87.3156 212.133 87.1698C213.153 87.0241 212.981 85.3756 213.839 82.5384C214.316 83.2278 212.499 88.4117 214.996 88.6549C217.524 88.8937 215.924 85.2078 214.453 81.9772C215.058 81.796 218.165 84.9826 218.576 81.4515C218.82 79.3965 216.875 80.8106 214.564 80.9828C214.979 79.2504 218.006 78.3446 217.034 75.7371C216.062 73.1296 214.343 77.8892 214.047 80.4569C213.552 77.6549 215.62 73.1296 212.721 73.6067C210.715 73.9248 214.016 79.7984 212.999 79.7541C212.014 79.7054 212.801 74.6055 210.352 74.4816Z"
		fill="#F8FF93"
	/>
	<path
		d="M205.437 83.3907C202.958 83.2712 204.398 86.0644 207.045 89.1272C205.706 89.9182 202.206 83.9782 201.729 87.9292C201.521 89.5688 204.146 89.6043 207.262 90.6431C206.091 91.5048 203.572 89.5601 203.267 92.0658C202.961 94.5716 204.309 93.8425 207.805 91.3546C205.587 93.5023 206.201 96.2556 207.222 96.1099C208.247 95.995 208.07 94.3156 208.928 91.4784C209.405 92.1679 207.588 97.3517 210.085 97.5949C212.613 97.8337 211.014 94.1478 209.542 90.9172C210.148 90.736 213.254 93.9226 213.665 90.3915C213.909 88.3365 211.964 89.7506 209.653 89.9228C210.068 88.1904 213.096 87.2846 212.124 84.6771C211.151 82.0696 209.432 86.8292 209.136 89.3969C208.641 86.5949 210.709 82.0696 207.81 82.5467C205.804 82.8648 209.105 88.7384 208.088 88.6941C207.098 88.6145 207.885 83.5146 205.437 83.3907Z"
		fill="#F8FF93"
	/>
	<path
		d="M217.334 86.0164C215.911 87.3245 218.258 88.0627 221.382 88.2794C221.077 89.4594 215.867 88.12 217.794 90.5597C218.598 91.5497 220.043 90.1753 222.337 88.9955C222.151 90.1268 219.703 90.4448 220.931 91.974C222.164 93.5342 222.505 92.3807 223.044 89.0839C223.008 91.488 224.851 92.677 225.36 92.0362C225.868 91.3954 224.834 90.5645 223.756 88.5403C224.401 88.6376 226.248 92.5091 227.773 91.2497C229.297 89.9902 226.385 88.8278 223.787 87.873C224.012 87.462 227.486 87.4711 225.789 85.3143C224.786 84.037 224.48 85.8799 223.318 87.2454C222.58 86.0566 223.756 83.8999 221.794 82.9806C219.836 82.0922 221.511 85.6411 222.748 87.2321C220.927 85.9769 219.584 82.3176 218.245 84.2134C217.325 85.5127 222.355 86.9095 221.798 87.4309C221.117 87.9701 218.726 84.7128 217.334 86.0164Z"
		fill="#FFB793"
	/>
	<path
		d="M210.082 84.5267C210.82 85.9365 211.903 84.2351 212.756 81.8089C213.613 82.2863 211.452 86.162 213.803 85.1633C214.784 84.7391 213.976 83.2762 213.525 81.2256C214.4 81.6057 214.122 83.6342 215.607 82.9802C217.096 82.3572 216.261 81.8135 213.733 80.6908C215.642 81.239 216.981 80.006 216.561 79.4978C216.168 78.9542 215.284 79.617 213.45 80.0368C213.662 79.533 217.14 78.91 216.486 77.4251C215.801 75.9445 214.268 78.026 212.951 79.8555C212.659 79.5815 213.433 76.8194 211.32 77.7208C210.1 78.2423 211.519 78.892 212.323 80.103C211.236 80.4476 209.742 79.051 208.611 80.4121C207.479 81.7732 210.679 81.1901 212.199 80.5626C210.789 81.7425 207.612 82.0384 208.832 83.5057C209.671 84.5223 211.855 80.8012 212.16 81.389C212.456 81.9149 209.344 83.1168 210.082 84.5267Z"
		fill="#FFB793"
	/>
	<path
		d="M205.167 93.436C205.905 94.8459 206.988 93.1445 207.841 90.7183C208.699 91.1956 206.537 95.0713 208.888 94.0727C209.87 93.6485 209.061 92.1856 208.61 90.135C209.485 90.5151 209.207 92.5436 210.692 91.8896C212.181 91.2666 211.346 90.7229 208.818 89.6002C210.727 90.1483 212.066 88.9154 211.642 88.3762C211.249 87.8326 210.365 88.4955 208.531 88.9152C208.774 88.407 212.221 87.7885 211.567 86.3035C210.882 84.823 209.348 86.9044 208.031 88.734C207.74 88.4599 208.513 85.6978 206.401 86.5993C205.181 87.1207 206.6 87.7704 207.435 88.977C206.348 89.3216 204.854 87.925 203.722 89.2861C202.591 90.6473 205.795 90.095 207.311 89.4366C205.901 90.6165 202.723 90.9124 203.943 92.3798C204.783 93.3963 206.966 89.6752 207.271 90.263C207.541 90.8243 204.429 92.0262 205.167 93.436Z"
		fill="#FFB793"
	/>
	<path
		d="M252.277 175.98C251.837 149.906 244.714 131.857 236.689 128.93L217.318 127.687C228.733 140.42 240.426 157.312 239.254 168.78C228.481 147.717 215.868 134.113 210.915 129.928L205.523 131.96C217.07 143.854 222.735 151.252 224.154 153.449C216.318 148.98 208.744 140.371 205.933 136.605L199.887 139.583C204.687 144.454 216.742 155.044 226.703 158.482C230.87 164.232 232.099 169.739 232.174 171.812C211.408 161.456 198.539 146.5 194.686 140.295C190.549 138.96 181.649 137.863 178.988 144.209C190.535 154.998 216.595 176.562 228.625 176.58C229.133 177.707 229.548 180.173 227.25 181.101C220.696 179.196 201.393 169.799 176.601 147.391C174.4 148.558 171.315 152.818 176.362 160.747C178.231 162.121 209.378 183.053 221.323 185.357C211.512 184.516 192.65 180.423 178.204 168.786C178.195 169.387 178.235 171.212 178.482 173.607C178.787 176.626 202.178 187.68 210.602 187.424C208.056 188.608 200.79 190.119 192.12 186.654C192.995 188.802 195.239 193.248 197.126 194.083C199.345 195.029 218.428 198.018 225.588 193.555C220.947 197.09 212.408 202.508 207.472 201.761C210.481 204.488 218.056 210.003 224.181 210.455C224.588 209.986 243.093 187.267 252.277 175.98Z"
		fill="#7E2FB2"
	/>
	<path
		d="M176.43 266.012C211.271 291.152 238.974 338.587 246.269 358.506L240.051 359.394C230.586 326.937 210.798 299.553 172.315 269.473C103.123 229.698 21.6056 176.342 38.1928 158.979C54.7445 141.59 136.488 176.415 176.43 266.012Z"
		fill="#57B762"
	/>
	<path
		d="M161.393 295.781C195.17 307.057 228.314 337.553 238.756 351.435L233.957 353.635C218.879 330.503 196.699 313.783 158.865 299.519C94.1747 285.082 16.4562 262.971 25.7425 245.325C35.0906 227.67 108.709 235.214 161.393 295.781Z"
		fill="#389661"
	/>
	<path
		d="M218.009 256.319C239.326 289.545 246.699 338.747 245.991 357.883L240.29 356.424C243.474 326.107 235.94 296.342 213.227 257.759C167.317 200.202 115.517 127.04 135.949 118.472C156.345 109.878 214.832 167.753 218.009 256.319Z"
		fill="#389661"
	/>
	<path
		d="M213.902 275.972C233.792 300.532 244.392 339.613 245.77 355.232L241.209 354.683C240.645 329.731 231.821 306.401 210.322 277.651C168.95 236.177 121.444 182.699 136.436 173.393C151.431 164.117 202.584 204.447 213.902 275.972Z"
		fill="#57B762"
	/>
	<path
		d="M184.833 320.655C206.717 326.242 228.411 343.758 235.287 351.899L232.229 353.472C222.251 339.745 207.773 330.321 183.251 323.059C141.448 316.812 91.1553 306.379 96.9234 295.043C102.696 283.739 150.178 285.324 184.833 320.655Z"
		fill="#57B762"
	/>
</svg>
