<svg
	width="1570"
	height="395"
	viewBox="0 0 1570 395"
	fill="none"
	xmlns="http://www.w3.org/2000/svg"
>
	<path
		d="M553.191 106.498C555.771 103.798 558.351 101.098 560.931 98.338C561.411 97.858 561.891 97.318 562.611 97.138C563.331 96.898 564.171 97.138 564.831 97.438C567.471 98.578 569.451 100.978 570.531 103.678C571.611 106.378 571.791 109.318 571.731 112.258C566.871 112.678 561.951 112.678 557.091 112.498"
		fill="#E4BE81"
	/>
	<path
		d="M547.551 124.318C547.431 125.638 547.311 126.958 547.131 128.278C547.131 128.518 547.071 128.758 546.951 128.998C546.771 129.238 546.531 129.358 546.231 129.418C545.211 129.658 544.131 129.418 543.291 128.938C542.391 128.398 541.671 127.618 541.071 126.778C542.331 125.578 543.711 124.498 545.151 123.538"
		fill="#E4BE81"
	/>
	<path
		d="M549.051 104.278C550.611 100.858 552.171 97.4381 553.731 94.0781C554.031 93.4181 554.331 92.8181 554.871 92.3981C555.471 91.9181 556.311 91.8581 557.091 91.9181C559.971 92.0981 562.671 93.7781 564.531 95.9381C566.391 98.1581 567.591 100.858 568.431 103.618C563.991 105.598 559.371 107.218 554.691 108.598"
		fill="#E4BE81"
	/>
	<path
		d="M571.371 141.178C569.211 146.518 564.771 151.498 559.011 151.738C557.031 151.798 555.051 151.258 553.191 150.538C549.651 149.098 546.051 146.218 546.051 142.378C546.051 138.598 550.131 135.538 553.851 136.018C555.951 136.318 558.051 137.758 558.291 139.858C558.411 141.058 557.571 142.258 556.491 142.798C555.951 143.038 555.471 142.378 555.831 141.898C556.311 141.238 556.551 140.338 556.131 139.618C555.411 138.298 553.431 138.058 552.231 138.958C551.031 139.858 550.671 141.538 551.091 142.978C551.871 145.558 554.931 147.118 557.571 146.458C560.211 145.858 562.191 143.398 562.791 140.758C563.391 138.118 562.671 135.298 561.351 132.958C560.631 131.638 559.671 130.438 558.411 129.658C556.611 128.518 554.451 128.278 552.411 127.798C545.931 126.118 540.471 120.838 538.611 114.358C536.751 107.938 539.751 100.978 542.031 94.678C542.751 92.578 544.611 89.0981 541.191 89.3981C539.151 89.5781 528.051 98.5181 527.331 98.2181C527.151 98.1581 526.731 97.7981 526.311 97.4381C525.831 97.0781 525.351 96.658 525.171 96.478C524.391 95.818 526.491 93.6581 527.271 93.2381C527.871 92.9381 530.811 90.0581 531.891 88.3181C533.211 86.2181 533.451 85.1981 533.271 82.7381C533.031 78.4181 535.971 76.258 539.991 75.358C540.351 75.298 540.651 75.2381 541.011 75.1181C541.671 74.9981 539.931 72.838 540.531 72.658C542.991 71.878 544.971 74.5181 545.931 74.6381C547.491 74.8181 548.871 75.4181 550.131 76.7981C552.111 79.0181 553.251 82.0181 553.191 85.3181C553.131 88.4381 552.291 91.498 552.531 94.558C552.951 99.418 556.071 103.618 559.491 107.098C562.911 110.578 566.811 113.638 569.451 117.778C573.951 124.678 574.371 133.678 571.371 141.178Z"
		fill="#E4BE81"
	/>
	<path
		d="M566.331 141.598C564.591 146.758 557.751 151.018 551.751 147.598C550.011 145.858 548.331 143.338 549.171 140.758C550.011 139.918 551.031 139.318 552.171 138.958C550.971 139.858 550.611 141.538 551.031 142.978C551.811 145.558 554.871 147.118 557.511 146.458C560.151 145.858 562.131 143.398 562.731 140.758C563.331 138.118 562.611 135.298 561.291 132.958C560.571 131.638 559.611 130.438 558.351 129.658C556.551 128.518 554.391 128.278 552.351 127.798C545.871 126.118 540.411 120.838 538.551 114.358C536.691 107.938 539.691 100.978 541.971 94.6781C542.691 92.5781 544.551 89.0981 541.131 89.3981C539.091 89.5781 527.991 98.5181 527.271 98.2181C527.091 98.1581 526.671 97.7981 526.251 97.4381C533.271 93.8981 544.911 80.4581 544.911 91.0781C544.911 99.6581 541.491 114.178 550.071 119.338C558.651 124.498 570.591 129.658 566.331 141.598Z"
		fill="#BA9B69"
	/>
	<path
		d="M536.391 84.5977C535.431 84.5977 535.551 86.0977 536.511 86.0977C537.471 86.0977 537.351 84.5977 536.391 84.5977Z"
		fill="black"
	/>
	<path
		d="M615.831 25.4381C617.691 23.4581 619.551 21.538 621.411 19.558C621.771 19.198 622.131 18.838 622.611 18.658C623.151 18.478 623.691 18.6581 624.231 18.8381C626.151 19.6781 627.591 21.4181 628.371 23.3381C629.151 25.2581 629.271 27.4181 629.211 29.5181C625.731 29.8181 622.191 29.8181 618.651 29.6981"
		fill="#E4BE81"
	/>
	<path
		d="M611.751 38.2777C611.631 39.2377 611.571 40.1977 611.451 41.1577C611.451 41.3377 611.391 41.5178 611.331 41.6378C611.211 41.8178 611.031 41.8778 610.851 41.9378C610.131 42.1178 609.351 41.9377 608.691 41.5777C608.031 41.2177 607.551 40.6177 607.131 40.0177C608.031 39.1777 609.051 38.3977 610.071 37.6777"
		fill="#E4BE81"
	/>
	<path
		d="M612.831 23.8179C613.971 21.3579 615.051 18.898 616.191 16.438C616.371 15.958 616.611 15.538 617.031 15.238C617.451 14.938 618.051 14.8779 618.651 14.8779C620.751 14.9979 622.671 16.1979 623.991 17.8179C625.371 19.3779 626.211 21.358 626.811 23.338C623.571 24.778 620.271 25.918 616.911 26.938"
		fill="#E4BE81"
	/>
	<path
		d="M628.911 50.4579C627.351 54.2979 624.111 57.8979 620.031 58.0779C618.591 58.1379 617.151 57.778 615.831 57.238C613.251 56.218 610.671 54.1179 610.671 51.3579C610.671 48.5979 613.611 46.4379 616.311 46.7979C617.811 46.9779 619.371 48.0579 619.491 49.5579C619.611 50.4579 618.951 51.2979 618.171 51.6579C617.751 51.8379 617.451 51.3579 617.691 50.9979C618.051 50.5179 618.171 49.858 617.931 49.318C617.391 48.358 616.011 48.238 615.111 48.838C614.271 49.498 613.971 50.698 614.271 51.718C614.811 53.578 617.031 54.658 618.951 54.238C620.871 53.818 622.311 52.0179 622.671 50.1579C623.091 48.2379 622.611 46.198 621.651 44.518C621.111 43.558 620.451 42.718 619.551 42.118C618.291 41.278 616.671 41.158 615.231 40.738C610.551 39.538 606.651 35.6979 605.331 31.0779C604.011 26.4579 606.171 21.4779 607.791 16.9179C608.331 15.4179 609.651 12.898 607.191 13.138C605.691 13.258 597.711 19.7379 597.231 19.4979C597.111 19.4379 596.811 19.1979 596.511 18.9579C596.151 18.6579 595.851 18.3579 595.731 18.2979C595.191 17.8179 596.691 16.2579 597.291 15.9579C597.711 15.7179 599.811 13.6779 600.651 12.4179C601.611 10.9179 601.731 10.1379 601.671 8.39794C601.491 5.27794 603.651 3.71793 606.531 3.05793C606.771 2.99793 607.011 2.93793 607.251 2.87793C607.731 2.75793 606.471 1.19793 606.891 1.07793C608.691 0.477934 610.071 2.45795 610.791 2.51795C611.931 2.63795 612.891 3.05793 613.791 4.07793C615.231 5.69793 616.071 7.79794 616.011 10.1979C615.951 12.4179 615.351 14.6379 615.531 16.8579C615.831 20.3379 618.111 23.3979 620.571 25.8579C623.031 28.3779 625.851 30.598 627.771 33.538C630.771 38.578 631.071 45.0579 628.911 50.4579Z"
		fill="#E4BE81"
	/>
	<path
		d="M625.251 50.7577C623.991 54.4777 619.071 57.5377 614.751 55.0777C613.491 53.8177 612.291 52.0177 612.891 50.1577C613.491 49.5577 614.211 49.1377 615.051 48.8977C614.211 49.5577 613.911 50.7577 614.211 51.7777C614.751 53.6377 616.971 54.7177 618.891 54.2977C620.811 53.8777 622.251 52.0777 622.611 50.2177C623.031 48.2977 622.551 46.2577 621.591 44.5777C621.051 43.6177 620.391 42.7777 619.491 42.1777C618.231 41.3377 616.611 41.2177 615.171 40.7977C610.491 39.5977 606.591 35.7578 605.271 31.1378C603.951 26.5178 606.111 21.5377 607.731 16.9777C608.271 15.4777 609.591 12.9577 607.131 13.1977C605.631 13.3177 597.651 19.7977 597.171 19.5577C597.051 19.4977 596.751 19.2577 596.451 19.0177C601.491 16.4377 609.891 6.77774 609.891 14.3977C609.891 20.5777 607.431 31.0778 613.611 34.7378C619.731 38.4578 628.371 42.1177 625.251 50.7577Z"
		fill="#BA9B69"
	/>
	<path
		d="M603.651 9.65771C602.931 9.65771 603.051 10.7377 603.771 10.7377C604.491 10.7377 604.371 9.65771 603.651 9.65771Z"
		fill="black"
	/>
	<path
		d="M674.151 125.758C676.011 123.778 677.871 121.858 679.731 119.878C680.091 119.518 680.451 119.158 680.931 118.978C681.471 118.798 682.011 118.978 682.551 119.158C684.471 119.998 685.911 121.738 686.691 123.658C687.471 125.578 687.591 127.738 687.531 129.838C684.051 130.138 680.511 130.138 676.971 130.018"
		fill="#E4BE81"
	/>
	<path
		d="M670.071 138.598C669.951 139.558 669.891 140.518 669.771 141.478C669.771 141.658 669.711 141.838 669.651 141.958C669.531 142.138 669.351 142.198 669.171 142.258C668.451 142.438 667.671 142.258 667.011 141.898C666.351 141.538 665.871 140.938 665.451 140.338C666.351 139.498 667.371 138.718 668.391 137.998"
		fill="#E4BE81"
	/>
	<path
		d="M671.211 124.138C672.351 121.678 673.431 119.218 674.571 116.758C674.751 116.278 674.991 115.858 675.411 115.558C675.831 115.258 676.431 115.198 677.031 115.198C679.131 115.318 681.051 116.518 682.371 118.138C683.751 119.698 684.591 121.678 685.191 123.658C681.951 125.098 678.651 126.238 675.291 127.258"
		fill="#E4BE81"
	/>
	<path
		d="M687.291 150.778C685.731 154.618 682.491 158.218 678.411 158.398C676.971 158.458 675.531 158.098 674.211 157.558C671.631 156.538 669.051 154.438 669.051 151.678C669.051 148.918 671.991 146.758 674.691 147.118C676.191 147.298 677.751 148.378 677.871 149.878C677.991 150.778 677.331 151.618 676.551 151.978C676.131 152.158 675.831 151.678 676.071 151.318C676.431 150.838 676.551 150.178 676.311 149.638C675.771 148.678 674.391 148.558 673.491 149.158C672.651 149.818 672.351 151.018 672.651 152.038C673.191 153.898 675.411 154.978 677.331 154.558C679.251 154.138 680.691 152.338 681.051 150.478C681.471 148.558 680.991 146.518 680.031 144.838C679.491 143.878 678.831 143.038 677.931 142.438C676.671 141.598 675.051 141.478 673.611 141.058C668.931 139.858 665.031 136.018 663.711 131.398C662.391 126.778 664.551 121.798 666.171 117.238C666.711 115.738 668.031 113.218 665.571 113.458C664.071 113.578 656.091 120.058 655.611 119.818C655.491 119.758 655.191 119.518 654.891 119.278C654.531 118.978 654.231 118.678 654.111 118.618C653.571 118.138 655.071 116.578 655.671 116.278C656.091 116.038 658.191 113.998 659.031 112.738C659.991 111.238 660.111 110.458 660.051 108.718C659.871 105.598 662.031 104.038 664.911 103.378C665.151 103.318 665.391 103.258 665.631 103.198C666.111 103.078 664.851 101.518 665.271 101.398C667.071 100.798 668.451 102.778 669.171 102.838C670.311 102.958 671.271 103.378 672.171 104.398C673.611 106.018 674.451 108.118 674.391 110.518C674.331 112.738 673.731 114.958 673.911 117.178C674.211 120.658 676.491 123.718 678.951 126.178C681.411 128.698 684.231 130.918 686.151 133.858C689.151 138.838 689.451 145.378 687.291 150.778Z"
		fill="#E4BE81"
	/>
	<path
		d="M683.631 151.078C682.371 154.798 677.451 157.858 673.131 155.398C671.871 154.138 670.671 152.338 671.271 150.478C671.871 149.878 672.591 149.458 673.431 149.218C672.591 149.878 672.291 151.078 672.591 152.098C673.131 153.958 675.351 155.038 677.271 154.618C679.191 154.198 680.631 152.398 680.991 150.538C681.411 148.618 680.931 146.578 679.971 144.898C679.431 143.938 678.771 143.098 677.871 142.498C676.611 141.658 674.991 141.538 673.551 141.118C668.871 139.918 664.971 136.078 663.651 131.458C662.331 126.838 664.491 121.858 666.111 117.298C666.651 115.798 667.971 113.278 665.511 113.518C664.011 113.638 656.031 120.118 655.551 119.878C655.431 119.818 655.131 119.578 654.831 119.338C659.871 116.758 668.271 107.098 668.271 114.718C668.271 120.898 665.811 131.398 671.991 135.058C678.111 138.718 686.751 142.438 683.631 151.078Z"
		fill="#BA9B69"
	/>
	<path
		d="M662.031 109.978C661.311 109.978 661.431 111.058 662.151 111.058C662.871 111.058 662.751 109.978 662.031 109.978Z"
		fill="black"
	/>
	<path
		d="M605.389 208.966C605.389 208.966 610.039 205.966 614.989 204.616C619.939 203.341 621.889 201.841 622.264 202.666C622.639 203.491 617.539 208.666 616.114 210.241C614.764 211.816 611.914 213.391 612.364 213.916C612.814 214.441 621.064 221.566 620.239 221.866C619.414 222.091 616.939 223.216 614.089 222.016C611.164 220.816 603.064 215.716 601.714 215.716C600.364 215.716 584.689 218.191 585.139 219.391C585.589 220.516 591.514 223.666 587.539 224.191C583.489 224.716 576.439 221.266 576.439 221.266C576.439 221.266 570.064 219.541 570.664 222.241C571.264 224.941 573.514 230.566 572.239 230.641C570.964 230.716 558.289 223.141 555.514 221.641C552.664 220.141 534.739 216.391 533.164 211.666C531.589 206.941 541.714 199.591 548.539 197.866C555.364 196.141 563.014 195.091 569.239 193.216C575.464 191.341 582.439 186.991 582.814 189.991C583.189 192.991 578.764 197.791 581.239 198.991C583.714 200.191 602.464 209.266 605.464 209.041L605.389 208.966Z"
		fill="#D65F6B"
	/>
	<path
		d="M543.364 208.291C544.399 208.291 545.239 207.451 545.239 206.416C545.239 205.38 544.399 204.541 543.364 204.541C542.328 204.541 541.489 205.38 541.489 206.416C541.489 207.451 542.328 208.291 543.364 208.291Z"
		fill="#003044"
	/>
	<path
		d="M570.214 217.666C570.214 217.666 576.064 228.991 574.489 230.491C572.914 231.991 561.664 234.241 559.939 230.116C558.214 225.916 556.189 219.316 558.589 216.841C560.989 214.366 567.364 211.591 570.214 217.666Z"
		fill="#F58188"
	/>
	<path
		d="M1217.91 254.59C1196.54 95.0903 1086.04 10.321 1195.45 251.681L1217.91 254.59Z"
		fill="#B23F5B"
	/>
	<path
		d="M1197.08 256.833C1168.83 155.494 1057.23 79.9819 1174.62 253.924L1197.08 256.833Z"
		fill="#B23F5B"
	/>
	<path
		d="M1233.26 236.181C1249.41 135.399 1174.31 36.0212 1212.91 227.525L1233.26 236.181Z"
		fill="#B23F5B"
	/>
	<path
		d="M1043.22 246.541C1042.12 243.944 1041.16 241.306 1040.33 238.579C1039.46 235.708 1038.67 232.761 1038.04 229.821C1035.99 220.424 1035.06 210.602 1034.89 201.24C1034.86 198.754 1034.84 196.316 1034.87 193.864C1035.14 179.647 1033.87 175.017 1035.56 167.464C1037.29 150.906 1026.02 148.92 1022.46 167.09C1020.16 178.921 1021.44 186.876 1023.62 209.288C1023.73 210.606 1024.28 218.56 1024.44 219.865C1025.78 231.13 1028.07 242.278 1031.65 251.917L1043.22 246.541Z"
		fill="#B23F5B"
	/>
	<path
		d="M1064.89 147.412C1065.54 138.751 1074.69 139.995 1074.81 147.186C1074.85 151.698 1073.77 166.718 1063.66 180.514C1062.74 181.819 1061.7 183.102 1060.6 184.351C1054.7 191.022 1046.47 197.163 1034.84 201.254C1034.81 198.768 1034.79 196.329 1034.82 193.878C1047.45 188.565 1054.46 181.785 1058.7 172.935C1059.55 171.184 1060.27 169.317 1060.91 167.367C1062.86 161.613 1063.97 154.952 1064.89 147.412Z"
		fill="#B23F5B"
	/>
	<path
		d="M1054.62 147.843C1053.87 152.891 1054.88 159.155 1060.97 167.401C1060.33 169.351 1059.61 171.219 1058.76 172.97C1056.13 171.951 1053.42 168.096 1051.24 163.726C1050.5 162.222 1049.79 160.655 1049.2 159.109C1047.65 155.131 1046.77 151.326 1046.94 149.355C1047.35 144.403 1053.82 142.87 1054.62 147.843Z"
		fill="#B23F5B"
	/>
	<path
		d="M1063.66 180.515C1075.27 178.718 1078.59 172.676 1079.75 160.699C1080.24 155.466 1086.03 154.805 1086.21 160.21C1086.28 162.998 1085.96 168.08 1083.47 172.845C1082.97 173.82 1082.41 174.76 1081.73 175.68C1078.13 180.554 1071.77 184.498 1060.6 184.352C1061.7 183.102 1062.74 181.819 1063.66 180.515Z"
		fill="#B23F5B"
	/>
	<path
		d="M1011.15 153.673C1008.94 158.514 1007.33 163.238 1006.22 167.763C1006.02 168.703 1005.81 169.596 1005.6 170.489C1003 194.209 1010.52 205.114 1023.55 209.252C1023.67 210.571 1024.22 218.525 1024.38 219.83C1006.5 213.641 997.984 199.796 998.619 179.391C998.661 178.443 998.463 176.108 998.539 175.099C999.102 167.4 1001.34 160.836 1004.81 153.504C1007.64 147.551 1013.02 150.021 1011.15 153.673Z"
		fill="#B23F5B"
	/>
	<path
		d="M990.897 147.174C992.445 143.666 997.259 143.958 995.127 147.425C993.002 151.098 991.687 154.696 991.08 158.04C990.88 158.981 990.777 159.894 990.673 160.807C989.925 169.131 993.491 175.081 998.567 175.195C998.477 176.157 998.674 178.492 998.646 179.488C991.566 178.177 988.341 174.157 987.191 169.39C986.856 168.029 986.699 166.566 986.7 165.11C986.507 157.315 990.05 149.131 990.897 147.174Z"
		fill="#B23F5B"
	/>
	<path
		d="M991.033 158.053C995.793 157.789 996.235 154.596 998.504 151.246C1000.77 147.896 1002.89 150.206 1001.55 152.615C1000.19 154.977 996.505 160.654 990.625 160.821C990.729 159.907 990.881 158.98 991.033 158.053Z"
		fill="#B23F5B"
	/>
	<path
		d="M983.313 148.659C982.567 153.342 980.83 162.207 986.686 165.062C986.685 166.518 986.89 167.968 987.177 169.341C979.362 168.552 977.629 153.345 978.594 149.431C979.558 145.517 983.275 144.874 983.313 148.659Z"
		fill="#B23F5B"
	/>
	<path
		d="M1093.29 182.316C1095.35 172.943 1106.78 172.183 1103.91 184.385C1102.2 191.684 1101.68 193.497 1090.77 205.391C1088.79 207.409 1086.63 209.481 1084.21 211.574C1074.2 220.247 1060.2 229.488 1040.39 238.613C1039.52 235.742 1038.73 232.795 1038.1 229.855C1054.03 222.615 1065.77 215.474 1074.47 208.579C1076.68 206.856 1078.62 205.107 1080.49 203.432C1088.96 195.767 1091.18 191.703 1093.29 182.316Z"
		fill="#B23F5B"
	/>
	<path
		d="M1080.99 188.056C1079.34 190.451 1073.91 195.323 1080.38 203.412C1078.58 205.121 1076.57 206.836 1074.36 208.558C1070.95 202.979 1070.5 193.748 1075.2 187.625C1079.91 181.503 1082.65 185.66 1080.99 188.056Z"
		fill="#B23F5B"
	/>
	<path
		d="M1090.72 205.404C1101.86 201.814 1109.05 194.567 1115.54 180.293C1117.97 169.829 1123.84 172.209 1123.1 180.011C1122.36 187.812 1111.56 207.735 1084.22 211.622C1086.58 209.494 1088.75 207.422 1090.72 205.404Z"
		fill="#B23F5B"
	/>
	<path
		d="M1083.47 172.844C1094.63 172.214 1096.67 162.951 1097.88 157.354C1099.03 151.723 1103.71 152.469 1102.79 158.347C1101.93 164.26 1097.09 174.84 1081.68 175.693C1082.42 174.808 1082.97 173.819 1083.47 172.844Z"
		fill="#B23F5B"
	/>
	<path
		d="M1039.98 144.837C1039.57 149.582 1042.55 160.065 1049.18 159.061C1049.78 160.606 1050.44 162.187 1051.23 163.677C1041.73 166.486 1035.18 153.329 1035.01 147.085C1034.82 140.952 1040.37 140.153 1039.98 144.837Z"
		fill="#B23F5B"
	/>
	<path
		d="M1006.24 167.812C1012.83 167.233 1016.24 158.775 1017.88 154.305C1019.52 149.835 1022.71 152.255 1021.82 156.615C1020.98 160.962 1014.72 171.321 1005.61 170.538C1005.78 169.659 1005.98 168.718 1006.24 167.812Z"
		fill="#B23F5B"
	/>
	<path
		fill-rule="evenodd"
		clip-rule="evenodd"
		d="M1055.71 189.643L984.294 176.194L939.881 243.123L928.102 287.55L1113.15 251.109L1055.71 189.643Z"
		fill="#A0B9BB"
	/>
	<path
		d="M928.102 287.55L939.881 243.123L915.28 207.136L792.039 314.352L928.102 287.55Z"
		fill="#8BA5A7"
	/>
	<path
		d="M915.281 207.135L757.677 211.064L787.361 315.268L792.039 314.352L915.281 207.135Z"
		fill="#A0B9BB"
	/>
	<path
		d="M984.294 176.194L915.281 207.136L939.881 243.123L984.294 176.194Z"
		fill="#B4C4C6"
	/>
	<path
		fill-rule="evenodd"
		clip-rule="evenodd"
		d="M1049.38 193.683C1045.79 191.846 1038.7 191.992 1034.72 191.879C1031.89 192.165 1030.12 192.878 1029.25 193.852L1038.7 193.97L1028.85 194.436C1028.45 195.225 1028.45 196.16 1028.8 197.204L1040.34 196.464L1029.21 198.076C1029.72 199.127 1030.49 200.206 1031.45 201.388L1044.41 199.778L1032.21 202.213C1033.11 203.203 1034.19 204.248 1035.36 205.265L1046 203.378L1036.46 206.2C1037.27 206.853 1038.08 207.506 1038.94 208.146L1049.25 205.468L1040.24 209.074C1041.22 209.782 1042.21 210.49 1043.22 211.137L1053.43 207.917L1044.31 211.865C1045.71 212.766 1047.09 213.571 1048.31 214.21L1056.31 210.165L1049.58 214.836C1052.06 216.054 1053.99 216.646 1054.74 216.331C1057.31 215.131 1062.26 212.992 1064.41 210.508C1066.51 208.195 1053.83 196.001 1049.38 193.683ZM1049.26 202.762C1052.39 205.924 1059.24 210.785 1061.81 209.791C1064.1 208.88 1060.53 205.477 1057.47 202.556C1057.1 202.192 1056.75 201.875 1056.39 201.511L1056.18 201.312C1053.16 198.377 1048.83 194.149 1044.5 194.084C1040.48 194.033 1045.13 198.686 1048.3 201.786C1048.62 202.164 1048.96 202.432 1049.26 202.762Z"
		fill="#D9D9D9"
	/>
	<path
		fill-rule="evenodd"
		clip-rule="evenodd"
		d="M1049.56 214.947C1049.14 214.754 1048.71 214.513 1048.27 214.272L1056.27 210.227L1049.56 214.947ZM1053.33 207.944L1044.22 211.893C1043.85 211.687 1043.51 211.418 1043.13 211.164L1053.33 207.944ZM1049.22 205.53L1040.21 209.136C1039.81 208.833 1039.35 208.496 1038.95 208.194L1049.22 205.53ZM1046.02 203.426L1036.47 206.248C1036.12 205.932 1035.73 205.629 1035.38 205.313L1046.02 203.426ZM1044.42 199.826L1032.22 202.261C1031.98 201.966 1031.69 201.684 1031.46 201.437L1044.42 199.826ZM1040.36 196.512L1029.22 198.125C1029.08 197.802 1028.95 197.527 1028.85 197.19L1040.36 196.512ZM1038.71 194.018L1028.86 194.484C1028.96 194.299 1029.11 194.1 1029.27 193.901L1038.71 194.018Z"
		fill="#A0A0A0"
	/>
	<path
		d="M1061.82 209.791C1059.25 210.833 1052.4 205.924 1049.26 202.762C1048.97 202.481 1048.67 202.151 1048.32 201.834C1045.14 198.686 1040.48 194.033 1044.51 194.132C1048.85 194.198 1053.17 198.425 1056.19 201.36L1056.4 201.559C1056.75 201.875 1057.12 202.24 1057.48 202.604C1060.47 205.443 1064.1 208.88 1061.82 209.791Z"
		fill="#2E2E2E"
	/>
	<path
		fill-rule="evenodd"
		clip-rule="evenodd"
		d="M1060.37 230.27C1061.72 232.071 1062.28 236.068 1062.71 238.287C1062.81 239.922 1062.57 240.924 1062.07 241.535L1061.13 236.239L1061.78 241.775C1061.38 242.043 1060.84 242.146 1060.24 242.056L1059.58 235.537L1059.68 241.904C1059.06 241.718 1058.34 241.402 1057.64 240.927L1057.35 233.523L1057.07 240.57C1056.42 240.13 1055.76 239.642 1055.09 239.105L1055.17 233L1054.48 238.603C1054.05 238.205 1053.58 237.82 1053.14 237.373L1053.72 231.385L1052.5 236.775C1052 236.294 1051.55 235.799 1051.09 235.304L1051.98 229.282L1050.61 234.713C1050 234.005 1049.44 233.332 1048.95 232.693L1050.48 227.838L1048.45 232.054C1047.51 230.762 1047.02 229.758 1047.15 229.305C1047.58 227.726 1048.36 224.801 1049.52 223.38C1050.69 222.007 1058.68 227.996 1060.37 230.27ZM1055.28 231.2C1053.26 229.75 1049.84 226.354 1050.18 224.802C1050.48 223.47 1052.72 225.12 1054.63 226.55C1054.84 226.75 1055.09 226.887 1055.29 227.038L1055.43 227.155C1057.34 228.585 1060.1 230.607 1060.53 233.031C1060.92 235.312 1057.9 233.105 1055.86 231.606C1055.66 231.455 1055.47 231.304 1055.28 231.2Z"
		fill="#D9D9D9"
	/>
	<path
		fill-rule="evenodd"
		clip-rule="evenodd"
		d="M1048.47 232.102C1048.63 232.315 1048.8 232.528 1048.96 232.741L1050.49 227.887L1048.47 232.102ZM1052.01 229.378L1050.64 234.81C1050.79 234.975 1050.96 235.188 1051.16 235.339L1052.01 229.378ZM1053.74 231.433L1052.52 236.823C1052.73 237.023 1052.94 237.222 1053.15 237.421L1053.74 231.433ZM1055.23 233.034L1054.54 238.638C1054.74 238.789 1054.95 238.989 1055.15 239.14L1055.23 233.034ZM1057.37 233.62L1057.09 240.666C1057.28 240.769 1057.48 240.921 1057.66 241.024L1057.37 233.62ZM1059.6 235.586L1059.7 241.953C1059.87 242.008 1060.09 242.049 1060.24 242.056L1059.6 235.586ZM1061.15 236.288L1061.79 241.824C1061.87 241.748 1062 241.659 1062.07 241.536L1061.15 236.288Z"
		fill="#A0A0A0"
	/>
	<path
		d="M1050.23 224.789C1049.89 226.341 1053.26 229.75 1055.33 231.187C1055.53 231.338 1055.73 231.49 1055.93 231.641C1057.96 233.14 1060.97 235.299 1060.59 233.066C1060.16 230.641 1057.4 228.62 1055.49 227.19L1055.35 227.073C1055.15 226.922 1054.89 226.736 1054.69 226.585C1052.76 225.107 1050.51 223.409 1050.23 224.789Z"
		fill="#2E2E2E"
	/>
	<path
		d="M991.435 240.135C949.255 138.606 915.221 185.941 981.172 259.591C910.265 235.339 916.917 275.296 974.141 275.787L1037.3 263.357C1095.59 232.716 1074.15 215.687 1025.46 250.456C1088.4 160.212 1039.25 150.661 1004.43 242.308C1008.73 141.887 973.459 146.372 991.435 240.135Z"
		fill="#57B762"
	/>
	<path
		d="M979.219 255.467C946.678 177.188 920.468 213.664 971.289 270.516C916.613 251.778 921.719 282.661 965.846 282.984L1014.53 273.379C1059.48 249.761 1042.93 236.589 1005.41 263.448C1053.91 193.899 1016.03 186.493 989.211 257.144C992.575 179.71 965.327 183.157 979.219 255.467Z"
		fill="#389661"
	/>
	<path
		d="M1197.7 224.89C1168.62 154.93 1145.16 187.556 1190.6 238.298C1141.76 221.591 1146.33 249.142 1185.72 249.462L1229.25 240.911C1269.45 219.789 1254.62 208.053 1221.1 232.003C1264.47 169.84 1230.57 163.228 1206.59 226.36C1209.61 157.188 1185.31 160.211 1197.7 224.89Z"
		fill="#57B762"
	/>
	<path
		d="M1262.29 218.032C1295.51 129.7 1326.08 169.291 1271.7 234.433C1331.82 211.534 1327.3 246.042 1278.24 248.112L1223.75 239.306C1172.81 214.72 1190.77 199.466 1233.54 227.885C1176.93 152.355 1218.78 142.669 1251.34 220.269C1244.62 134.269 1274.99 137.054 1262.29 218.032Z"
		fill="#389661"
	/>
	<path
		fill-rule="evenodd"
		clip-rule="evenodd"
		d="M707.391 313.771L1530.41 184.492L1506.54 222.797L1178.99 330.197L894.138 420.543L815.745 388.078L730.767 395.649L707.439 313.757L707.391 313.771Z"
		fill="#18383D"
	/>
	<path
		d="M1106.9 396.169L1178.99 330.197L894.139 420.542L866.429 452.663L778.945 564.77L788.151 597.085L885.9 752.61L1100.89 473.059L1106.9 396.169Z"
		fill="#172C30"
	/>
	<path
		d="M926.38 442.677L946.5 404L826.5 380L826.5 556L926.38 442.677Z"
		fill="#22464C"
	/>
	<path
		d="M925.846 544.554C871.359 574.704 823.341 638.154 809.445 665.544L818.236 667.895C837.465 622.884 870.64 586.881 931.163 550.22C1037.56 504.966 1163.99 442.295 1143.18 414.425C1122.36 386.603 998.77 422.602 925.846 544.554Z"
		fill="#57B762"
	/>
	<path
		d="M942.316 590.001C891.814 600.409 838.823 638.515 821.438 656.692L827.922 660.703C853.625 630 888.423 609.802 945.266 595.81C1040.84 586.219 1156.4 567.846 1146.07 540.862C1135.8 513.842 1028.56 511.927 942.316 590.001Z"
		fill="#389661"
	/>
	<path
		d="M867.731 523.427C831.295 567.564 812.25 637.053 809.932 664.692L818.355 663.58C819.025 619.455 834.947 577.908 874.306 526.324C950.272 451.455 1037.41 355.143 1009.5 339.297C981.658 323.417 887.564 396.596 867.731 523.427Z"
		fill="#389661"
	/>
	<path
		d="M870.231 552.406C837.377 584.302 815.376 638.716 810.685 660.908L817.355 660.931C822.474 625.139 839.162 593.112 875.056 555.456C941.732 502.946 1019.27 434.191 999.362 418.257C979.403 402.311 898.871 451.479 870.231 552.406Z"
		fill="#57B762"
	/>
	<path
		d="M904.336 621.717C871.932 625.993 837.684 647.424 826.379 657.962L830.506 660.721C847.221 642.728 869.693 631.657 906.192 625.423C967.42 623.678 1041.53 617.304 1035.18 600.027C1028.81 582.798 960.275 576.843 904.336 621.717Z"
		fill="#57B762"
	/>
	<path
		d="M958.046 278.967C996.303 249.924 1013.43 223.159 1006.78 212.055L982.139 191.624C978.761 216.814 969.582 246.827 950.954 258.268C967.56 224.579 970.638 197.24 970.075 187.783L959.686 184.711C957.751 209.126 954.519 222.784 953.115 226.615C949.1 213.981 951.572 197.109 953.301 190.221L940.618 187.492C939.937 197.512 940.654 221.014 949.105 234.62C946.239 245.002 939.682 252.277 936.761 254.617C923.812 222.849 928.519 193.746 932.469 183.158C928.82 177.647 918.23 167.667 905.219 171.997C904.953 195.156 908.452 244.485 924.83 256.352C923.867 258.082 920.801 261.191 916.187 259.958C910.06 251.409 897.652 222.087 897.127 173.158C892.403 172.269 881.804 173.936 876.945 187.538C877.43 190.883 888.857 244.504 901.71 258.779C889.548 248.206 869.869 225.114 867.486 198.135C866.586 198.807 863.933 200.81 860.655 203.72C856.586 207.323 872.108 242.465 883.956 250.475C878.675 249.276 866.496 243.751 859.809 231.411C857.815 234.631 854.224 241.736 855.623 244.457C857.221 247.693 878.893 269.75 895.306 271.885C883.672 271.196 863.935 268.708 858.314 263.03C858.399 268.985 860.538 282.517 868.212 289.013C869.578 288.884 928.669 282.24 958.046 278.967Z"
		fill="#F18150"
	/>
	<path
		d="M1086.68 211.494C1080.4 212.086 1085.02 218.621 1092.73 225.42C1089.64 227.911 1078.69 214.084 1078.86 224.173C1078.91 228.369 1085.51 227.633 1093.77 229.074C1091.09 231.71 1084.05 227.631 1084.16 234.046C1084.29 240.509 1087.48 238.197 1095.41 230.635C1090.53 236.86 1093.02 243.586 1095.63 242.894C1098.19 242.217 1097.16 238.04 1098.36 230.575C1099.85 232.177 1097.01 245.931 1103.43 245.662C1109.86 245.392 1104.59 236.597 1099.76 228.928C1101.18 228.263 1110.18 235.214 1110.06 226.203C1109.99 220.866 1105.54 225.148 1099.76 226.38C1100.18 221.841 1107.55 218.495 1104.22 212.27C1100.88 206.045 1098.19 218.666 1098.31 225.287C1096.08 218.383 1099.74 206.216 1092.56 208.415C1087.59 209.935 1097.95 223.673 1095.39 223.829C1092.84 223.985 1092.96 210.901 1086.68 211.494Z"
		fill="#F8FF93"
	/>
	<path
		d="M1108.34 238.234C1105.21 242.036 1111.32 243.051 1119.35 242.583C1119.03 245.639 1105.37 244.069 1111.03 249.527C1113.4 251.816 1116.61 247.732 1121.95 244.027C1121.9 246.953 1115.81 248.583 1119.4 252.082C1123 255.58 1123.5 252.579 1123.72 244.043C1124.47 250.169 1129.55 252.467 1130.55 250.676C1131.54 248.884 1128.71 247.144 1125.28 242.402C1126.95 242.445 1132.99 251.591 1136.37 247.926C1139.79 244.247 1132.01 242.305 1125.16 240.72C1125.61 239.552 1134.39 238.454 1129.31 233.56C1126.35 230.659 1126.22 235.48 1123.73 239.359C1121.45 236.63 1123.67 230.746 1118.43 229.121C1113.13 227.51 1118.61 235.982 1122.33 239.55C1117.34 236.97 1112.61 228.231 1109.88 233.428C1108 237.032 1121.26 238.869 1119.92 240.393C1118.62 241.855 1111.47 234.432 1108.34 238.234Z"
		fill="#FFB793"
	/>
	<path
		d="M1089.5 236.894C1091.84 240.178 1093.99 235.51 1095.32 229.048C1097.67 229.991 1093.55 240.523 1099.09 237.176C1101.4 235.79 1098.86 232.354 1097.06 227.305C1099.39 227.994 1099.35 233.151 1102.91 231.046C1106.46 228.892 1104.14 227.887 1097.39 225.911C1102.43 226.609 1105.37 223.067 1104.14 221.857C1102.91 220.648 1100.96 222.555 1096.42 224.317C1096.82 223.005 1105.37 220.155 1103.18 216.671C1100.99 213.187 1097.8 218.933 1095.05 224.082C1094.21 223.491 1095.22 216.287 1090.25 219.264C1087.32 221.034 1091.12 222.136 1093.64 224.953C1090.97 226.181 1086.78 223.162 1084.35 227.027C1081.96 230.878 1089.82 228.33 1093.46 226.148C1090.33 229.587 1082.4 231.483 1085.92 234.741C1088.39 237.003 1092.67 226.841 1093.59 228.243C1094.5 229.645 1087.16 233.609 1089.5 236.894Z"
		fill="#FFB793"
	/>
	<path
		d="M1080.13 261.137C1082.49 264.47 1084.63 259.754 1085.96 253.292C1088.31 254.235 1084.18 264.767 1089.73 261.42C1092.04 260.034 1089.5 256.598 1087.7 251.549C1090.01 252.189 1089.99 257.395 1093.54 255.289C1097.09 253.136 1094.78 252.131 1088.03 250.155C1093.06 250.852 1096 247.311 1094.77 246.101C1093.55 244.891 1091.59 246.799 1087.05 248.561C1087.46 247.249 1096.01 244.399 1093.82 240.915C1091.63 237.431 1088.43 243.177 1085.69 248.326C1084.84 247.735 1085.86 240.531 1080.88 243.508C1077.96 245.277 1081.75 246.379 1084.27 249.197C1081.6 250.424 1077.42 247.406 1074.98 251.271C1072.6 255.122 1080.45 252.573 1084.09 250.392C1080.96 253.83 1073.03 255.727 1076.56 258.985C1079.02 261.246 1083.3 251.085 1084.27 252.473C1085.26 253.751 1077.79 257.853 1080.13 261.137Z"
		fill="#FFB793"
	/>
	<path
		d="M319.75 377.96C296.6 218.71 379.65 106.91 340.55 369.01L319.75 377.96Z"
		fill="#B23F5B"
	/>
	<path
		d="M340.4 374.41C339.8 269.21 426.45 166.01 361.2 365.46L340.4 374.41Z"
		fill="#B23F5B"
	/>
	<path
		d="M299.95 364.46C256.8 271.96 301.8 155.81 317.15 350.56L299.95 364.46Z"
		fill="#B23F5B"
	/>
	<path
		d="M266.15 388.56C202.15 286.36 220.75 192.56 276.7 377.91L266.15 388.56Z"
		fill="#F8FF93"
	/>
	<path
		d="M278.3 381.56C245.45 310.76 269 222.01 288.85 370.91L278.3 381.56Z"
		fill="#F8FF93"
	/>
	<path
		d="M249.3 383.81C193.1 331.01 186 242.76 256 370.61L249.3 383.81Z"
		fill="#F8FF93"
	/>
	<path
		d="M485.55 322.36C485.9 319.56 486.1 316.76 486.15 313.91C486.2 310.91 486.15 307.86 485.95 304.86C485.35 295.26 483.55 285.56 481.15 276.51C480.5 274.11 479.85 271.76 479.15 269.41C475 255.81 474.95 251.01 471.25 244.21C465.05 228.76 475.35 223.76 483.75 240.26C489.2 251.01 490.15 259.01 494.2 281.16C494.45 282.46 496.1 290.26 496.3 291.56C498.1 302.76 498.95 314.11 498.15 324.36L485.55 322.36Z"
		fill="#B23F5B"
	/>
	<path
		d="M437.55 232.96C434.55 224.81 426.1 228.51 427.95 235.46C429.15 239.81 434.3 253.96 447.8 264.46C449.05 265.46 450.4 266.41 451.8 267.31C459.3 272.11 468.9 275.76 481.2 276.51C480.55 274.11 479.9 271.76 479.2 269.41C465.6 267.76 457 263.16 450.5 255.81C449.2 254.36 448 252.76 446.85 251.06C443.4 246.06 440.5 239.96 437.55 232.96Z"
		fill="#B23F5B"
	/>
	<path
		d="M447.55 230.56C449.65 235.21 450.4 241.51 446.8 251.11C447.95 252.81 449.15 254.41 450.45 255.86C452.7 254.16 454.25 249.71 455.15 244.91C455.45 243.26 455.7 241.56 455.85 239.91C456.25 235.66 456.05 231.76 455.35 229.91C453.6 225.26 446.95 225.56 447.55 230.56Z"
		fill="#B23F5B"
	/>
	<path
		d="M447.8 264.46C436.15 265.91 431.3 261.01 426.9 249.81C425 244.91 419.25 245.86 420.55 251.11C421.25 253.81 422.95 258.61 426.65 262.51C427.4 263.31 428.2 264.06 429.1 264.76C433.9 268.46 441.1 270.51 451.8 267.31C450.4 266.41 449.05 265.46 447.8 264.46Z"
		fill="#B23F5B"
	/>
	<path
		d="M490.95 224.26C494.4 228.31 497.25 232.41 499.55 236.46C500 237.31 500.45 238.11 500.9 238.91C509.9 261.01 505.65 273.56 494.25 281.11C494.5 282.41 496.15 290.21 496.35 291.51C511.85 280.66 516.25 265.01 510.05 245.56C509.75 244.66 509.3 242.36 508.95 241.41C506.3 234.16 502.35 228.46 497 222.36C492.65 217.41 488.15 221.26 490.95 224.26Z"
		fill="#B23F5B"
	/>
	<path
		d="M508.65 212.46C506.2 209.51 501.65 211.11 504.65 213.86C507.7 216.81 509.95 219.91 511.45 222.96C511.9 223.81 512.25 224.66 512.6 225.51C515.6 233.31 513.8 240.01 508.95 241.51C509.3 242.41 509.75 244.71 510.05 245.66C516.5 242.46 518.5 237.71 518.3 232.81C518.25 231.41 518 229.96 517.6 228.56C515.65 221.01 510 214.11 508.65 212.46Z"
		fill="#B23F5B"
	/>
	<path
		d="M511.5 222.96C506.85 224.01 505.55 221.06 502.45 218.46C499.35 215.86 497.95 218.66 499.9 220.61C501.85 222.51 506.95 226.96 512.65 225.51C512.3 224.66 511.9 223.81 511.5 222.96Z"
		fill="#B23F5B"
	/>
	<path
		d="M516.35 211.81C518.35 216.11 522.45 224.16 517.6 228.51C518 229.91 518.2 231.36 518.3 232.76C525.6 229.86 523.1 214.76 521.1 211.26C519.1 207.76 515.35 208.16 516.35 211.81Z"
		fill="#B23F5B"
	/>
	<path
		d="M419.8 274.31C415.25 265.86 404.05 268.26 410.15 279.21C413.8 285.76 414.8 287.36 428.55 295.81C431 297.21 433.65 298.61 436.55 299.96C448.55 305.56 464.55 310.61 486.1 313.96C486.15 310.96 486.1 307.91 485.9 304.91C468.6 302.31 455.35 298.66 445.1 294.41C442.5 293.36 440.15 292.21 437.9 291.11C427.65 286.06 424.4 282.76 419.8 274.31Z"
		fill="#B23F5B"
	/>
	<path
		d="M433.2 276.46C435.45 278.31 442 281.51 438 291.06C440.2 292.21 442.6 293.31 445.2 294.36C446.95 288.06 444.85 279.06 438.65 274.46C432.45 269.86 430.95 274.61 433.2 276.46Z"
		fill="#B23F5B"
	/>
	<path
		d="M428.6 295.81C416.9 295.41 408 290.41 397.85 278.46C392.65 269.06 387.65 272.96 390.5 280.26C393.35 287.56 409.2 303.76 436.55 300.01C433.7 298.61 431.05 297.21 428.6 295.81Z"
		fill="#B23F5B"
	/>
	<path
		d="M426.65 262.51C415.75 264.96 411.25 256.61 408.55 251.56C405.9 246.46 401.6 248.46 404.1 253.86C406.55 259.31 414.1 268.16 429.15 264.76C428.2 264.11 427.4 263.31 426.65 262.51Z"
		fill="#B23F5B"
	/>
	<path
		d="M460.8 223.66C462.5 228.11 462.5 239.01 455.85 239.86C455.7 241.51 455.5 243.21 455.15 244.86C465.05 244.96 467.75 230.51 466.2 224.46C464.7 218.51 459.15 219.26 460.8 223.66Z"
		fill="#B23F5B"
	/>
	<path
		d="M499.55 236.51C493.05 237.76 487.45 230.56 484.65 226.71C481.85 222.86 479.45 226.06 481.5 230.01C483.5 233.96 492.35 242.21 500.9 238.96C500.5 238.16 500.05 237.31 499.55 236.51Z"
		fill="#B23F5B"
	/>
	<path
		fill-rule="evenodd"
		clip-rule="evenodd"
		d="M457.95 271.06L522.95 238.56L584 290.76L607.5 330.26L419.55 345.91L457.95 271.06Z"
		fill="#A0B9BB"
	/>
	<path
		d="M607.5 330.26L584 290.76L597.8 249.41L745.7 318.76L607.5 330.26Z"
		fill="#8BA5A7"
	/>
	<path
		d="M597.8 249.41L750.45 210.01V318.36L745.7 318.76L597.8 249.41Z"
		fill="#A0B9BB"
	/>
	<path
		d="M522.95 238.56L597.8 249.41L584 290.76L522.95 238.56Z"
		fill="#B4C4C6"
	/>
	<path
		fill-rule="evenodd"
		clip-rule="evenodd"
		d="M465.15 273.21C468.1 270.46 474.95 268.66 478.75 267.46C481.55 266.96 483.45 267.16 484.55 267.86L475.5 270.56L485.1 268.31C485.7 268.96 485.95 269.86 485.9 270.96L474.6 273.41L485.75 271.91C485.55 273.06 485.1 274.31 484.5 275.71L471.6 277.71L484 276.71C483.4 277.91 482.65 279.21 481.8 280.51L471.05 281.61L481 281.71C480.4 282.56 479.8 283.41 479.15 284.26L468.5 284.51L478.15 285.51C477.4 286.46 476.65 287.41 475.85 288.31L465.15 288.01L475 289.31C473.9 290.56 472.8 291.71 471.8 292.66L463 290.96L470.75 293.61C468.7 295.46 467 296.56 466.2 296.46C463.4 296.01 458.05 295.31 455.3 293.51C452.65 291.86 461.5 276.66 465.15 273.21ZM467.75 281.91C465.6 285.81 460.35 292.36 457.6 292.11C455.15 291.86 457.65 287.61 459.8 283.96C460.05 283.51 460.3 283.11 460.55 282.66L460.7 282.41C462.8 278.76 465.8 273.51 469.95 272.26C473.8 271.11 470.6 276.86 468.4 280.71C468.2 281.16 467.95 281.51 467.75 281.91Z"
		fill="#D9D9D9"
	/>
	<path
		fill-rule="evenodd"
		clip-rule="evenodd"
		d="M470.8 293.71C471.15 293.41 471.5 293.06 471.85 292.71L463.05 291.01L470.8 293.71ZM465.25 288.01L475.1 289.31C475.4 289.01 475.65 288.66 475.95 288.31L465.25 288.01ZM468.55 284.56L478.2 285.56C478.5 285.16 478.85 284.71 479.15 284.31L468.55 284.56ZM471.05 281.66L481 281.76C481.25 281.36 481.55 280.96 481.8 280.56L471.05 281.66ZM471.6 277.76L484 276.76C484.15 276.41 484.35 276.06 484.5 275.76L471.6 277.76ZM474.6 273.46L485.75 271.96C485.8 271.61 485.85 271.31 485.85 270.96L474.6 273.46ZM475.5 270.61L485.1 268.36C484.95 268.21 484.75 268.06 484.55 267.91L475.5 270.61Z"
		fill="#A0A0A0"
	/>
	<path
		d="M457.6 292.11C460.35 292.41 465.6 285.81 467.75 281.91C467.95 281.56 468.15 281.16 468.4 280.76C470.6 276.86 473.8 271.11 469.95 272.31C465.8 273.56 462.8 278.81 460.7 282.46L460.55 282.71C460.3 283.11 460.05 283.56 459.8 284.01C457.7 287.56 455.15 291.86 457.6 292.11Z"
		fill="#2E2E2E"
	/>
	<path
		fill-rule="evenodd"
		clip-rule="evenodd"
		d="M464.6 311.41C463.8 313.51 464.35 317.51 464.55 319.76C464.9 321.36 465.4 322.26 466.05 322.71L465.5 317.36L466.4 322.86C466.85 323.01 467.4 322.96 467.95 322.71L466.8 316.26L468.45 322.41C469 322.06 469.6 321.56 470.15 320.91L468.4 313.71L470.6 320.41C471.1 319.81 471.6 319.16 472.1 318.46L470.35 312.61L472.55 317.81C472.85 317.31 473.2 316.81 473.5 316.26L471.3 310.66L473.95 315.51C474.3 314.91 474.6 314.31 474.9 313.71L472.4 308.16L475.2 313.01C475.6 312.16 475.95 311.36 476.25 310.61L473.45 306.36L476.55 309.86C477.1 308.36 477.3 307.26 477.05 306.86C476.2 305.46 474.65 302.86 473.15 301.81C471.65 300.81 465.6 308.76 464.6 311.41ZM469.75 310.91C471.3 308.96 473.65 304.76 472.9 303.36C472.25 302.16 470.55 304.36 469.1 306.26C468.95 306.51 468.75 306.71 468.6 306.91L468.5 307.06C467.05 308.96 464.95 311.66 465.2 314.11C465.45 316.41 467.75 313.46 469.3 311.46C469.45 311.26 469.6 311.06 469.75 310.91Z"
		fill="#D9D9D9"
	/>
	<path
		fill-rule="evenodd"
		clip-rule="evenodd"
		d="M476.55 309.91C476.45 310.16 476.35 310.41 476.25 310.66L473.45 306.41L476.55 309.91ZM472.4 308.26L475.2 313.11C475.1 313.31 475 313.56 474.85 313.76L472.4 308.26ZM471.3 310.71L473.95 315.56C473.8 315.81 473.65 316.06 473.5 316.31L471.3 310.71ZM470.3 312.66L472.5 317.86C472.35 318.06 472.2 318.31 472.05 318.51L470.3 312.66ZM468.4 313.81L470.6 320.51C470.45 320.66 470.3 320.86 470.15 321.01L468.4 313.81ZM466.8 316.31L468.45 322.46C468.3 322.56 468.1 322.66 467.95 322.71L466.8 316.31ZM465.5 317.41L466.4 322.91C466.3 322.86 466.15 322.81 466.05 322.71L465.5 317.41Z"
		fill="#A0A0A0"
	/>
	<path
		d="M472.85 303.36C473.6 304.76 471.3 308.96 469.7 310.91C469.55 311.11 469.4 311.31 469.25 311.51C467.7 313.51 465.4 316.41 465.15 314.16C464.9 311.71 467 309.01 468.45 307.11L468.55 306.96C468.7 306.76 468.9 306.51 469.05 306.31C470.5 304.36 472.2 302.11 472.85 303.36Z"
		fill="#2E2E2E"
	/>
	<path
		d="M533.6 302.01C546.35 192.81 592.05 229.01 548.8 317.91C610.35 275.16 614.9 315.41 560 331.56L495.85 336.91C431.4 323.41 447.35 301.16 503.7 321.26C418.45 251.71 463.1 229.06 521.7 307.66C490.05 212.26 525.2 206.91 533.6 302.01Z"
		fill="#57B762"
	/>
	<path
		d="M549.55 313.41C559.4 229.21 594.6 257.11 561.3 325.71C608.75 292.71 612.3 323.81 569.95 336.21L520.5 340.31C470.8 329.91 483.1 312.71 526.55 328.26C460.85 274.66 495.25 257.16 540.4 317.76C515.95 244.21 543.1 240.06 549.55 313.41Z"
		fill="#389661"
	/>
	<path
		d="M331.05 343.86C339.85 268.61 371.35 293.56 341.55 354.81C383.95 325.36 387.1 353.11 349.3 364.21L305.1 367.91C260.65 358.61 271.7 343.26 310.5 357.11C251.75 309.21 282.55 293.56 322.9 347.71C301.05 282.01 325.25 278.26 331.05 343.86Z"
		fill="#57B762"
	/>
	<path
		d="M267.05 354.96C210.9 279.11 192.35 325.56 262.5 373.31C198.4 367.76 212.2 399.71 259.95 388.26L309.95 364.86C352.2 327.26 330.75 317.51 297.4 356.56C331.15 268.41 288.25 270.56 278.2 354.11C261.1 269.56 232.65 280.56 267.05 354.96Z"
		fill="#389661"
	/>
	<path
		d="M708.8 221.51C708.7 218.56 708.45 215.61 708.05 212.66C707.65 209.56 707.05 206.41 706.35 203.31C704.15 193.46 700.7 183.71 696.75 174.71C695.7 172.31 694.6 169.96 693.5 167.71C687 154.31 686.1 149.31 681.2 142.86C672.25 127.86 682.1 120.96 693.5 136.71C700.9 146.96 703.25 155.06 711.05 177.41C711.5 178.71 714.5 186.51 714.95 187.81C718.65 199.16 721.4 210.76 722.25 221.51H708.8Z"
		fill="#2E2791"
	/>
	<path
		d="M644.35 136.71C639.9 128.71 631.75 134.01 634.85 140.86C636.8 145.21 644.5 159.01 660.15 167.71C661.6 168.51 663.15 169.31 664.75 170.01C673.3 173.76 683.85 175.96 696.75 174.71C695.7 172.31 694.6 169.96 693.5 167.71C679.15 168.21 669.45 164.86 661.55 158.31C659.95 157.01 658.45 155.56 656.95 154.01C652.55 149.26 648.55 143.46 644.35 136.71Z"
		fill="#2E2791"
	/>
	<path
		d="M654.35 132.51C657.3 136.96 659.1 143.41 656.95 153.96C658.4 155.51 659.95 156.96 661.55 158.26C663.6 156.11 664.5 151.26 664.65 146.16C664.7 144.41 664.65 142.61 664.55 140.86C664.25 136.36 663.45 132.36 662.4 130.56C659.75 126.06 652.9 127.46 654.35 132.51Z"
		fill="#2E2791"
	/>
	<path
		d="M660.15 167.66C648.3 171.06 642.45 166.76 636.1 155.91C633.35 151.16 627.5 153.11 629.75 158.31C630.9 161.01 633.5 165.66 637.9 169.16C638.8 169.86 639.75 170.51 640.85 171.11C646.4 174.16 654.25 175.11 664.75 170.01C663.15 169.26 661.6 168.51 660.15 167.66Z"
		fill="#2E2791"
	/>
	<path
		d="M698.35 118.91C702.6 122.56 706.2 126.31 709.25 130.16C709.85 130.96 710.45 131.71 711.05 132.51C724 153.96 721.65 167.66 711.05 177.36C711.5 178.66 714.5 186.46 714.95 187.76C729.25 173.96 731.25 157.01 721.65 137.86C721.2 136.96 720.35 134.66 719.85 133.76C715.9 126.66 710.85 121.41 704.3 115.96C698.95 111.56 694.95 116.26 698.35 118.91Z"
		fill="#2E2791"
	/>
	<path
		d="M714.75 103.76C711.7 101.11 707.25 103.51 710.85 105.86C714.5 108.46 717.35 111.31 719.4 114.16C720 114.96 720.5 115.81 721 116.61C725.4 124.21 724.6 131.46 719.85 133.76C720.35 134.66 721.2 136.96 721.65 137.86C727.8 133.46 729.1 128.26 728.1 123.21C727.8 121.76 727.3 120.31 726.7 118.91C723.4 111.51 716.4 105.26 714.75 103.76Z"
		fill="#2E2791"
	/>
	<path
		d="M719.4 114.16C714.75 116.01 712.95 113.16 709.25 110.96C705.6 108.76 704.65 111.91 706.95 113.61C709.25 115.26 715.3 119.06 721 116.61C720.5 115.81 719.95 115.01 719.4 114.16Z"
		fill="#2E2791"
	/>
	<path
		d="M722.6 101.81C725.4 105.96 730.9 113.61 726.65 118.91C727.25 120.31 727.75 121.76 728.05 123.21C735.15 119.01 730.05 103.76 727.4 100.46C724.8 97.21 721 98.21 722.6 101.81Z"
		fill="#2E2791"
	/>
	<path
		d="M632.75 182.46C626.65 174.46 615.4 178.76 623.55 189.11C628.4 195.31 629.7 196.81 645.35 203.31C648.1 204.36 651.1 205.36 654.35 206.31C667.7 210.16 685.1 212.76 708 212.66C707.6 209.56 707 206.41 706.3 203.31C687.9 203.46 673.6 201.81 662.3 199.11C659.45 198.41 656.8 197.66 654.3 196.81C642.8 193.36 638.9 190.46 632.75 182.46Z"
		fill="#2E2791"
	/>
	<path
		d="M647 182.46C649.65 184.01 656.95 186.26 654.35 196.81C656.85 197.61 659.5 198.41 662.35 199.11C663.15 192.26 659.5 183.26 652.3 179.56C645.1 175.76 644.35 180.91 647 182.46Z"
		fill="#2E2791"
	/>
	<path
		d="M645.4 203.26C633.2 204.76 623.2 201.01 610.7 190.31C603.75 181.41 599.2 186.26 603.4 193.36C607.55 200.46 626.65 214.66 654.4 206.26C651.15 205.36 648.15 204.36 645.4 203.26Z"
		fill="#2E2791"
	/>
	<path
		d="M637.9 169.11C627 173.41 620.95 165.56 617.35 160.71C613.75 155.91 609.65 158.61 613.1 163.86C616.55 169.11 625.8 177.06 640.85 171.06C639.8 170.46 638.8 169.81 637.9 169.11Z"
		fill="#2E2791"
	/>
	<path
		d="M667 123.21C669.45 127.51 671.25 138.86 664.55 140.81C664.65 142.56 664.7 144.36 664.65 146.11C674.9 144.56 675.35 129.16 672.75 123.16C670.15 117.26 664.5 118.91 667 123.21Z"
		fill="#2E2791"
	/>
	<path
		d="M709.25 130.21C702.7 132.56 695.7 126.06 692.2 122.51C688.65 118.96 686.7 122.66 689.45 126.46C692.2 130.26 702.7 137.36 711.05 132.56C710.45 131.76 709.85 130.96 709.25 130.21Z"
		fill="#2E2791"
	/>
	<path
		fill-rule="evenodd"
		clip-rule="evenodd"
		d="M708.55 159.41C715.55 149.36 730.8 128.11 735.6 123.31L713.55 310.81L660.4 321.86L708.55 159.41Z"
		fill="#B4C4C6"
	/>
	<path
		d="M779.75 113.26L793.8 231.56L825.9 305.76L713.6 310.76L735.65 123.26L779.75 113.26Z"
		fill="#A0B9BB"
	/>
	<path
		fill-rule="evenodd"
		clip-rule="evenodd"
		d="M826.95 295.01L0.000183105 396.16L33.4502 426.46L377.9 440.01L676.6 448.86L743.1 396.16L826.9 380.16V295.01H826.95Z"
		fill="#18383D"
	/>
	<path
		d="M465.3 483.71L377.9 440.01L676.6 448.86L712.05 472.16L826.9 556.01V589.61L775.5 765.965L492.15 556.01L465.3 483.71Z"
		fill="#172C30"
	/>
	<path
		d="M712.1 472.16L676.65 448.86L743.15 396.16L826.95 380.16V556.01L712.1 472.16Z"
		fill="#22464C"
	/>
	<path
		d="M723.5 308.46C753.9 282.66 767.1 259.11 761.35 249.46L740.6 231.96C738.6 253.96 732 280.31 717.1 290.46C729.7 260.86 731.35 237.01 730.6 228.76L722 226.21C721.15 247.51 718.9 259.51 717.9 262.81C714.2 251.86 715.75 237.06 716.95 231.06L706.5 228.86C706.25 237.61 707.55 258.11 714.85 269.86C712.8 278.96 707.65 285.36 705.35 287.46C693.8 259.86 696.75 234.46 699.65 225.16C696.5 220.36 687.55 211.81 677 215.76C677.45 235.96 681.85 278.96 695.6 289.11C694.85 290.61 692.45 293.36 688.65 292.36C683.4 285.01 672.35 259.56 670.45 216.86C666.55 216.16 657.95 217.71 654.4 229.66C654.9 232.56 665.9 279.21 676.85 291.51C666.6 282.46 649.8 262.56 647 239.06C646.25 239.66 644.15 241.46 641.6 244.01C638.4 247.21 652.15 277.66 662.05 284.51C657.7 283.51 647.55 278.86 641.75 268.21C640.25 271.01 637.5 277.26 638.7 279.66C640.1 282.46 658.5 301.41 672 303.11C662.5 302.66 646.25 300.71 641.5 295.86C641.75 301.06 643.9 312.81 650.4 318.41C651.45 318.26 699.6 311.71 723.5 308.46Z"
		fill="#FFEE8B"
	/>
	<path
		d="M748.15 304.36C720.45 295.81 706.15 285.61 708.8 279.61L721.35 267.06C726.85 278.26 736.6 290.96 749.75 293.86C734.85 280.41 729.25 268.16 728.35 263.76L734.4 261.01C738.9 272.06 742.75 277.96 744.15 279.51C744.95 273.16 741.15 265.66 739.1 262.71L746.6 259.86C748.4 264.41 751.1 275.36 747.7 282.71C750.9 287.16 755.95 289.66 758.05 290.36C761.8 274.01 754.95 261.21 751.1 256.81C752.6 253.81 757.85 247.86 766.55 248.21C769.85 258.86 774.35 282.11 765.75 289.66C766.6 290.31 768.9 291.36 771.6 290.26C774.25 285.56 778 270.41 771.7 247.76C774.5 246.76 781.35 246.16 786.2 251.86C786.35 253.46 786.5 279.66 780.4 287.91C786.55 281.51 795.65 268.31 793.5 255.56C794.15 255.76 796.1 256.36 798.5 257.26C801.5 258.41 796.6 276.61 790.35 281.81C793.45 280.56 800.3 276.51 802.8 269.96C804.45 271.21 807.65 274.01 807.15 275.46C806.6 277.16 796.1 290.11 786.2 293.16C793.35 291.36 805.25 287.71 808 284.41C808.75 287.16 809.25 293.66 805.35 297.66C804.5 297.71 766.85 302.16 748.15 304.36Z"
		fill="#7E2FB2"
	/>
	<path
		d="M735.1 513.81C779.95 557.01 809.95 630.71 816.3 660.76H807.2C800.25 612.31 777.5 568.96 728.5 517.91C637.4 446.71 531.45 353.51 558.75 331.96C586.05 310.46 696.15 377.16 735.1 513.81Z"
		fill="#57B762"
	/>
	<path
		d="M707.45 553.46C753.55 576.56 794.9 627.06 807 649.11L799.7 651.31C782.8 615.01 754.4 586.51 703.1 558.31C613.25 524.36 506.35 476.76 523.3 453.36C540.2 429.91 644.3 455.76 707.45 553.46Z"
		fill="#389661"
	/>
	<path
		d="M796.7 508.41C820.5 560.46 820.95 632.51 816.05 659.81L808.2 656.56C818.95 613.76 814.3 569.51 789.6 509.51C735.55 417.56 676.25 302.01 707.3 293.91C738.3 285.76 810.3 380.76 796.7 508.41Z"
		fill="#389661"
	/>
	<path
		d="M786.8 535.76C810.3 575.06 817.5 633.31 816.3 655.96L809.85 654.26C814.15 618.36 806.3 583.11 781.35 537.46C730.5 469.51 673.35 383.06 696.7 372.81C720.1 362.56 785.2 430.86 786.8 535.76Z"
		fill="#57B762"
	/>
	<path
		d="M735.95 593.91C766.15 606.41 793.7 635.96 801.9 649.06L797.2 650.66C785.7 628.96 766.85 612.46 733.2 597.01C674.5 579.51 604.55 554.21 615.15 539.16C625.75 524.16 693.5 536.11 735.95 593.91Z"
		fill="#57B762"
	/>
	<path
		d="M576.35 330.21C531.6 312.76 507.8 291.71 511.15 279.21L529.25 252.81C539.4 276.11 556.45 302.46 577.5 308.36C552.3 280.51 541.85 255.06 539.8 245.81L548.95 240.01C557.5 262.96 564.35 275.21 566.75 278.51C567.15 265.26 560.15 249.71 556.6 243.56L568.05 237.46C571.45 246.91 577.2 269.71 572.8 285.11C578.4 294.31 586.7 299.51 590.15 300.96C593.9 266.86 581.4 240.16 574.7 231.06C576.7 224.76 584.15 212.26 597.85 212.86C604.45 235.06 614.6 283.46 602.1 299.36C603.5 300.76 607.3 302.91 611.4 300.46C614.95 290.56 618.85 258.96 605.95 211.76C610.25 209.61 620.9 208.31 629.3 220.06C629.75 223.41 633.45 278.11 625 295.36C633.8 281.86 646.4 254.26 641.3 227.66C642.35 228.06 645.45 229.26 649.4 231.16C654.3 233.51 649 271.56 639.8 282.51C644.55 279.91 654.75 271.26 657.8 257.56C660.6 260.11 666 265.96 665.4 268.96C664.75 272.51 649.95 299.66 634.75 306.21C645.75 302.36 664.05 294.56 667.9 287.56C669.45 293.31 671.1 306.91 665.5 315.26C664.15 315.51 605.5 325.31 576.35 330.21Z"
		fill="#F18150"
	/>
	<path
		fill-rule="evenodd"
		clip-rule="evenodd"
		d="M777.1 141.61C775.85 139.01 771.6 136.71 769.3 135.21C767.5 134.46 766.15 134.41 765.2 134.91L770.7 138.26L764.7 135.26C764.1 135.76 763.7 136.46 763.45 137.36L770.55 140.71L763.25 138.16C763.05 139.11 763.05 140.26 763.1 141.46L771.45 144.61L763.15 142.36C763.25 143.46 763.4 144.61 763.65 145.76L770.8 147.91L763.9 146.86C764.05 147.66 764.25 148.46 764.45 149.21L771.75 150.66L764.8 150.36C765.05 151.26 765.35 152.11 765.6 152.96L773.1 153.96L765.95 153.91C766.35 155.06 766.8 156.16 767.25 157.11L773.8 156.71L767.7 158.06C768.6 159.86 769.5 160.96 770.05 160.96C772.1 160.91 776 160.96 778.35 159.76C780.65 158.56 778.7 144.86 777.1 141.61ZM772.95 148.51C773.35 152.01 775.2 158.11 777.15 158.21C778.9 158.31 778.35 154.41 777.85 151.16C777.8 150.76 777.75 150.36 777.7 150.01L777.65 149.81C777.2 146.51 776.55 141.81 774 140.26C771.65 138.86 772.3 144.01 772.75 147.51C772.85 147.86 772.9 148.21 772.95 148.51Z"
		fill="#D9D9D9"
	/>
	<path
		fill-rule="evenodd"
		clip-rule="evenodd"
		d="M767.6 158.01C767.45 157.71 767.3 157.41 767.15 157.06L773.7 156.66L767.6 158.01ZM773 153.91L765.85 153.86C765.75 153.56 765.65 153.26 765.5 152.96L773 153.91ZM771.65 150.61L764.7 150.31C764.6 149.91 764.5 149.56 764.4 149.16L771.65 150.61ZM770.7 147.91L763.8 146.86C763.7 146.51 763.65 146.16 763.6 145.76L770.7 147.91ZM771.4 144.61L763.1 142.36C763.05 142.06 763.05 141.76 763.05 141.46L771.4 144.61ZM770.5 140.66L763.2 138.11C763.25 137.81 763.3 137.56 763.4 137.26L770.5 140.66ZM770.7 138.21L764.7 135.21C764.85 135.11 765 134.96 765.2 134.91L770.7 138.21Z"
		fill="#A0A0A0"
	/>
	<path
		d="M777.15 158.21C775.2 158.11 773.35 152.01 772.95 148.51C772.9 148.16 772.85 147.86 772.8 147.46C772.35 143.96 771.7 138.81 774.05 140.21C776.6 141.76 777.25 146.46 777.7 149.76L777.75 149.96C777.8 150.31 777.85 150.71 777.9 151.11C778.35 154.41 778.9 158.26 777.15 158.21Z"
		fill="#2E2E2E"
	/>
	<path
		fill-rule="evenodd"
		clip-rule="evenodd"
		d="M709.05 160.21C710.3 157.61 714.55 155.31 716.85 153.81C718.65 153.06 720 153.01 720.95 153.46L715.45 156.81L721.45 153.81C722.05 154.26 722.45 155.01 722.7 155.91L715.6 159.26L722.9 156.71C723.1 157.66 723.1 158.81 723.05 160.01L714.7 163.16L723 160.91C722.9 162.01 722.75 163.16 722.5 164.31L715.35 166.46L722.25 165.41C722.1 166.21 721.9 166.96 721.7 167.76L714.4 169.21L721.35 168.91C721.1 169.81 720.8 170.66 720.55 171.51L713.05 172.46L720.2 172.41C719.8 173.56 719.35 174.66 718.9 175.61L712.35 175.21L718.45 176.56C717.55 178.36 716.65 179.46 716.1 179.46C714.05 179.41 710.15 179.46 707.8 178.31C705.5 177.21 707.5 163.51 709.05 160.21ZM713.25 167.16C712.85 170.66 711 176.76 709.05 176.86C707.3 176.96 707.85 173.06 708.35 169.81C708.4 169.41 708.45 169.01 708.5 168.66L708.55 168.46C709 165.16 709.65 160.46 712.2 158.91C714.55 157.51 713.9 162.66 713.45 166.16C713.35 166.46 713.3 166.81 713.25 167.16Z"
		fill="#D9D9D9"
	/>
	<path
		fill-rule="evenodd"
		clip-rule="evenodd"
		d="M718.6 176.61C718.75 176.31 718.9 176.01 719.05 175.66L712.5 175.26L718.6 176.61ZM713.2 172.56L720.35 172.51C720.45 172.21 720.55 171.91 720.7 171.61L713.2 172.56ZM714.55 169.26L721.5 168.96C721.6 168.56 721.7 168.21 721.8 167.81L714.55 169.26ZM715.45 166.51L722.35 165.46C722.45 165.11 722.5 164.71 722.55 164.36L715.45 166.51ZM714.75 163.21L723.05 160.96C723.1 160.66 723.1 160.36 723.1 160.06L714.75 163.21ZM715.65 159.31L722.95 156.76C722.9 156.46 722.85 156.21 722.75 155.91L715.65 159.31ZM715.5 156.81L721.5 153.81C721.35 153.71 721.2 153.56 721 153.46L715.5 156.81Z"
		fill="#A0A0A0"
	/>
	<path
		d="M709 176.81C710.95 176.71 712.8 170.61 713.2 167.11C713.25 166.81 713.3 166.46 713.35 166.06C713.8 162.56 714.45 157.41 712.1 158.81C709.55 160.36 708.9 165.06 708.45 168.36L708.4 168.56C708.35 168.91 708.3 169.31 708.25 169.71C707.85 173.06 707.25 176.91 709 176.81Z"
		fill="#2E2E2E"
	/>
	<path
		fill-rule="evenodd"
		clip-rule="evenodd"
		d="M703.9 185.66C704.55 184.31 706.75 183.11 707.9 182.36C708.85 181.96 709.5 181.96 710 182.21L707.15 183.91L710.25 182.36C710.55 182.61 710.75 182.96 710.9 183.46L707.25 185.16L711 183.86C711.1 184.36 711.1 184.96 711.1 185.56L706.8 187.16L711.05 186.01C711 186.56 710.9 187.16 710.8 187.76L707.15 188.86L710.7 188.31C710.6 188.71 710.5 189.11 710.4 189.51L706.65 190.26L710.2 190.11C710.05 190.56 709.95 191.01 709.8 191.46L705.95 191.96L709.6 191.91C709.4 192.51 709.15 193.06 708.95 193.56L705.6 193.36L708.75 194.06C708.3 194.96 707.85 195.56 707.55 195.56C706.5 195.56 704.5 195.56 703.3 194.96C702.05 194.36 703.05 187.31 703.9 185.66ZM706.05 189.21C705.85 191.01 704.9 194.11 703.9 194.16C703 194.21 703.3 192.21 703.55 190.56C703.6 190.36 703.6 190.16 703.65 189.96V189.86C703.9 188.16 704.2 185.76 705.5 184.96C706.7 184.21 706.35 186.86 706.15 188.66C706.1 188.86 706.05 189.01 706.05 189.21Z"
		fill="#D9D9D9"
	/>
	<path
		fill-rule="evenodd"
		clip-rule="evenodd"
		d="M708.75 194.06C708.85 193.91 708.9 193.76 709 193.56L705.65 193.36L708.75 194.06ZM706 191.96L709.65 191.91C709.7 191.76 709.75 191.61 709.8 191.46L706 191.96ZM706.7 190.26L710.25 190.11C710.3 189.91 710.35 189.71 710.4 189.51L706.7 190.26ZM707.15 188.91L710.7 188.36C710.75 188.16 710.8 188.01 710.8 187.81L707.15 188.91ZM706.8 187.21L711.05 186.06C711.05 185.91 711.05 185.76 711.1 185.61L706.8 187.21ZM707.25 185.16L711 183.86C710.95 183.71 710.95 183.56 710.9 183.46L707.25 185.16ZM707.2 183.91L710.3 182.36C710.2 182.31 710.15 182.26 710.05 182.21L707.2 183.91Z"
		fill="#A0A0A0"
	/>
	<path
		d="M703.85 194.16C704.85 194.11 705.8 190.96 706 189.21C706 189.06 706.05 188.86 706.05 188.66C706.3 186.86 706.6 184.21 705.4 184.96C704.1 185.76 703.75 188.16 703.55 189.86V189.96C703.5 190.16 703.5 190.36 703.45 190.56C703.25 192.21 702.95 194.21 703.85 194.16Z"
		fill="#2E2E2E"
	/>
	<path
		d="M434.15 300.56C440.35 299.41 437.7 306.96 432.15 315.61C435.8 317.16 442.55 300.86 445.15 310.61C446.25 314.66 439.7 315.76 432.15 319.41C435.45 321.21 441.1 315.36 442.75 321.56C444.4 327.81 440.7 326.46 431 321.36C437.4 326.01 436.85 333.16 434.15 333.21C431.5 333.26 431.35 328.96 428.15 322.11C427.15 324.06 433.65 336.51 427.4 338.01C421.15 339.51 423.8 329.61 426.35 320.91C424.8 320.66 418.05 329.81 415.7 321.11C414.3 315.96 419.75 318.86 425.65 318.46C424 314.21 416 313.01 417.5 306.11C419 299.21 425.05 310.61 426.75 317.01C427 309.76 420.15 299.06 427.65 299.21C432.85 299.31 426.65 315.36 429.15 314.81C431.65 314.26 427.95 301.71 434.15 300.56Z"
		fill="#F8FF93"
	/>
	<path
		d="M449.75 321.31C455.95 320.16 453.3 327.71 447.75 336.36C451.4 337.91 458.15 321.61 460.75 331.36C461.85 335.41 455.3 336.51 447.75 340.21C451.05 342.01 456.7 336.16 458.35 342.36C460 348.61 456.3 347.26 446.6 342.16C453 346.81 452.45 353.96 449.75 354.01C447.1 354.06 446.95 349.76 443.75 342.91C442.75 344.86 449.25 357.31 443 358.81C436.75 360.31 439.4 350.41 441.95 341.71C440.4 341.46 433.65 350.61 431.3 341.91C429.9 336.76 435.35 339.66 441.25 339.26C439.6 335.01 431.6 333.81 433.1 326.91C434.6 320.01 440.65 331.41 442.35 337.81C442.6 330.56 435.75 319.86 443.25 320.01C448.45 320.11 442.25 336.16 444.75 335.61C447.25 335.06 443.55 322.46 449.75 321.31Z"
		fill="#F8FF93"
	/>
	<path
		d="M420.65 332.21C424.7 335.01 419.1 337.66 411.25 339.41C412.4 342.26 425.1 337.01 421.15 343.81C419.5 346.66 415.3 343.61 409.15 341.51C410 344.31 416.3 344.21 413.8 348.56C411.3 352.91 410 350.16 407.45 342.01C408.4 348.11 404.15 351.71 402.7 350.26C401.25 348.81 403.5 346.36 405.5 340.86C403.9 341.36 400.6 351.81 396.35 349.21C392.05 346.61 399 342.61 405.15 339.21C404.4 338.21 395.65 339.56 399.2 333.46C401.25 329.86 402.7 334.46 406.15 337.51C407.6 334.26 403.85 329.21 408.45 326.21C413.1 323.21 410.15 332.86 407.55 337.31C411.65 333.46 413.8 323.76 417.85 328.01C420.65 330.96 408.4 336.36 410.1 337.46C411.75 338.51 416.6 329.41 420.65 332.21Z"
		fill="#FFB793"
	/>
	<path
		d="M438.4 325.76C437.05 329.56 433.7 325.66 430.65 319.81C428.65 321.36 435.5 330.36 429.25 328.66C426.65 327.96 428.15 323.96 428.5 318.61C426.45 319.91 427.9 324.86 423.9 323.81C419.9 322.71 421.85 321.11 427.8 317.36C423.15 319.41 419.35 316.81 420.2 315.31C421.05 313.81 423.45 315.11 428.3 315.56C427.55 314.41 418.55 314.01 419.7 310.06C420.85 306.11 425.5 310.76 429.55 314.96C430.2 314.16 427.25 307.51 432.85 309.01C436.15 309.91 432.8 312.01 431.15 315.41C434.05 315.86 437.25 311.81 440.65 314.86C444 317.91 435.75 317.61 431.65 316.51C435.6 318.96 443.75 318.61 441.25 322.71C439.5 325.56 432.6 316.96 432.1 318.56C431.6 320.16 439.75 321.96 438.4 325.76Z"
		fill="#FFB793"
	/>
	<path
		d="M454.05 346.51C452.7 350.36 449.35 346.41 446.3 340.56C444.3 342.11 451.15 351.11 444.9 349.41C442.3 348.71 443.8 344.71 444.15 339.36C442.1 340.61 443.55 345.61 439.55 344.56C435.55 343.46 437.5 341.86 443.45 338.11C438.8 340.16 435 337.56 435.85 336.06C436.7 334.56 439.1 335.86 443.95 336.31C443.2 335.16 434.2 334.76 435.35 330.81C436.5 326.86 441.15 331.51 445.2 335.71C445.85 334.91 442.9 328.26 448.5 329.76C451.8 330.66 448.45 332.76 446.8 336.16C449.7 336.61 452.9 332.56 456.3 335.61C459.65 338.66 451.4 338.36 447.3 337.26C451.25 339.71 459.4 339.36 456.9 343.46C455.15 346.31 448.25 337.71 447.7 339.31C447.1 340.81 455.4 342.71 454.05 346.51Z"
		fill="#FFB793"
	/>
	<path
		d="M753.3 202.96C753.75 197.21 759.8 201.36 766.15 208.26C768.35 205.41 755.55 195.56 764.8 195.56C768.65 195.56 768.05 201.61 769.5 209.16C771.85 206.66 768 200.31 773.95 200.31C779.9 200.31 777.8 203.26 771 210.66C776.6 206.11 782.8 208.31 782.2 210.66C781.6 213.01 777.75 212.11 771 213.31C772.5 214.66 785 211.86 784.85 217.76C784.7 223.66 776.6 218.96 769.5 214.66C768.9 216.01 775.4 224.11 767.15 224.11C762.3 224.11 766.1 219.96 767.15 214.66C763 215.11 760.05 221.91 754.3 218.96C748.55 216.01 760.05 213.36 766.1 213.36C759.75 211.46 748.7 214.96 750.6 208.36C751.95 203.76 764.6 213.06 764.75 210.71C764.9 208.36 752.85 208.71 753.3 202.96Z"
		fill="#F8FF93"
	/>
	<path
		d="M786.8 181.26C791.5 180.36 789.5 186.06 785.3 192.61C788.05 193.76 793.15 181.46 795.1 188.86C795.9 191.91 791 192.76 785.3 195.51C787.8 196.86 792.05 192.46 793.3 197.16C794.55 201.86 791.75 200.86 784.45 197.01C789.3 200.51 788.85 205.91 786.85 205.96C784.85 206.01 784.75 202.76 782.35 197.61C781.6 199.06 786.5 208.46 781.8 209.61C777.1 210.76 779.1 203.26 781 196.71C779.8 196.51 774.75 203.41 773 196.86C771.95 192.96 776.05 195.16 780.5 194.86C779.25 191.66 773.25 190.76 774.35 185.56C775.45 180.36 780.05 188.96 781.35 193.76C781.5 188.31 776.35 180.26 782.05 180.36C785.95 180.46 781.3 192.51 783.2 192.16C785.05 191.71 782.1 182.16 786.8 181.26Z"
		fill="#F8FF93"
	/>
	<path
		d="M798.6 196.91C803.3 196.01 801.3 201.76 797.1 208.26C799.85 209.41 804.95 197.11 806.9 204.51C807.7 207.56 802.8 208.41 797.1 211.16C799.6 212.51 803.85 208.11 805.1 212.81C806.35 217.51 803.55 216.51 796.25 212.66C801.1 216.16 800.65 221.56 798.65 221.61C796.65 221.66 796.55 218.41 794.15 213.26C793.4 214.71 798.3 224.11 793.6 225.26C788.85 226.41 790.9 218.91 792.8 212.36C791.6 212.16 786.55 219.06 784.8 212.51C783.75 208.61 787.85 210.81 792.3 210.51C791.05 207.31 785.05 206.41 786.15 201.21C787.25 196.01 791.85 204.61 793.15 209.41C793.3 203.96 788.15 195.91 793.85 196.01C797.75 196.11 793.1 208.16 795 207.81C796.85 207.36 793.9 197.81 798.6 196.91Z"
		fill="#F8FF93"
	/>
	<path
		d="M776.65 205.16C779.7 207.26 775.45 209.31 769.55 210.61C770.45 212.76 780 208.81 777.05 213.96C775.8 216.11 772.65 213.81 768 212.21C768.65 214.31 773.4 214.21 771.5 217.51C769.6 220.81 768.65 218.71 766.7 212.56C767.45 217.16 764.2 219.86 763.1 218.81C762 217.71 763.7 215.86 765.2 211.71C764 212.11 761.5 219.96 758.3 218.01C755.05 216.01 760.3 213.01 764.95 210.46C764.4 209.71 757.8 210.71 760.45 206.11C762 203.41 763.1 206.86 765.7 209.16C766.8 206.71 763.95 202.91 767.45 200.66C770.95 198.41 768.7 205.66 766.8 209.01C769.9 206.11 771.5 198.81 774.55 202.01C776.65 204.21 767.4 208.31 768.7 209.11C769.95 209.91 773.55 203.06 776.65 205.16Z"
		fill="#FFB793"
	/>
	<path
		d="M790 200.31C789 203.21 786.45 200.26 784.15 195.86C782.6 197.01 787.85 203.81 783.1 202.51C781.15 201.96 782.25 198.96 782.55 194.91C781 195.86 782.1 199.66 779.05 198.81C776.05 198.01 777.5 196.76 781.95 193.91C778.45 195.46 775.6 193.51 776.2 192.36C776.85 191.26 778.65 192.21 782.3 192.56C781.75 191.66 774.95 191.41 775.8 188.41C776.7 185.41 780.2 188.96 783.2 192.11C783.7 191.51 781.5 186.46 785.7 187.61C788.2 188.26 785.65 189.86 784.4 192.46C786.55 192.81 789 189.76 791.55 192.06C794.1 194.36 787.85 194.16 784.75 193.31C787.75 195.16 793.85 194.86 792 198.01C790.7 200.16 785.5 193.66 785.1 194.86C784.8 196.01 791.05 197.41 790 200.31Z"
		fill="#FFB793"
	/>
	<path
		d="M801.8 215.96C800.8 218.86 798.25 215.91 795.95 211.46C794.4 212.61 799.65 219.41 794.9 218.11C792.95 217.56 794.05 214.56 794.35 210.51C792.8 211.46 793.9 215.26 790.85 214.41C787.85 213.61 789.3 212.36 793.75 209.51C790.25 211.06 787.4 209.11 788 207.96C788.65 206.81 790.45 207.81 794.1 208.11C793.55 207.21 786.75 206.96 787.6 203.96C788.5 200.96 792 204.46 795 207.66C795.5 207.06 793.3 202.01 797.5 203.16C800 203.81 797.45 205.41 796.2 208.01C798.35 208.36 800.8 205.26 803.35 207.56C805.9 209.86 799.65 209.66 796.55 208.81C799.55 210.66 805.65 210.36 803.8 213.51C802.5 215.66 797.3 209.16 796.9 210.36C796.6 211.66 802.85 213.06 801.8 215.96Z"
		fill="#FFB793"
	/>
</svg>
