<svg
	width="240"
	height="270"
	viewBox="0 0 240 270"
	fill="none"
	xmlns="http://www.w3.org/2000/svg"
>
	<path
		d="M20.7797 51.082C51.9797 14.557 107.63 -2.54294 153.38 9.90706C171.38 14.7821 186.98 24.157 200.03 37.432C209.705 47.257 213.155 56.332 217.505 68.857C223.805 73.882 237.53 82.8071 239.255 90.757C241.43 100.732 226.055 96.007 221.105 93.832C202.055 85.507 181.43 89.257 161.405 87.982C150.53 87.307 140.18 84.907 129.53 82.732C112.805 79.357 94.2796 79.132 78.9796 87.682C75.9046 89.407 73.0546 91.432 70.3546 93.682C54.7547 106.957 50.1046 130.807 55.4296 164.632C58.5796 184.357 99.9047 226.732 105.155 227.707C93.1547 225.457 82.5797 218.932 72.1547 212.707C24.1547 184.207 -23.3954 116.557 12.6796 61.732C15.1546 58.057 17.8547 54.457 20.7797 51.082Z"
		fill="#8C98AF"
	/>
	<path
		d="M198.68 78.0068C196.655 76.3568 194.105 79.5068 196.13 81.1568C198.155 82.7318 200.705 79.5818 198.68 78.0068Z"
		fill="#272E42"
	/>
	<path
		d="M101.93 11.9319C98.4796 9.75685 94.1297 8.70686 90.5296 6.83186C86.1046 4.50686 81.6796 2.25689 76.7296 1.28189C69.0046 -0.293112 62.1796 0.156888 54.5296 1.28189C48.3796 2.18189 42.2296 2.78185 37.5796 6.68185C36.0046 8.03185 36.6046 10.5819 38.6296 10.9569C41.1046 11.4819 44.0296 11.7069 45.7546 12.3069C52.8796 14.6319 58.2796 17.7819 64.0546 22.4319C65.8546 23.8569 68.0296 25.2069 69.6046 26.9319C70.5046 27.8319 70.8046 29.1819 71.9296 29.8569C73.3546 30.6819 74.6296 30.0069 76.0546 30.4569"
		fill="#8C98AF"
	/>
	<path
		d="M67.3546 201.982C74.4046 227.707 92.1046 254.407 113.93 270.007C117.755 260.032 107.105 246.907 107.78 236.032C108.08 230.932 111.83 227.257 116.63 225.382C124.13 222.457 130.205 226.732 136.805 226.732C131.33 216.832 117.605 209.632 106.88 206.932C99.3046 204.982 91.2796 203.782 83.7046 201.982C78.9046 200.857 70.2046 202.132 67.3546 201.982Z"
		fill="#8C98AF"
	/>
	<path
		d="M110.855 79.6568C107.255 84.7568 104.33 90.3818 100.655 95.4818C97.8796 99.3818 95.4796 103.582 92.7046 107.482C89.2546 112.282 85.8046 117.007 82.8046 121.957C80.7796 125.407 77.1796 135.382 72.0796 135.082C63.6046 134.557 67.2046 111.382 67.8046 106.132C68.4796 100.282 67.8796 95.3318 67.1296 89.4818C66.9046 87.3818 66.4546 87.1568 68.0296 85.2818C71.4046 81.3818 80.1046 79.9568 84.9046 78.8318C92.8546 77.0318 101.48 76.3568 110.855 79.6568Z"
		fill="#8C98AF"
	/>
	<path
		d="M203.93 50.6318C203.33 49.0568 202.205 47.7818 201.155 46.4318C199.88 44.8568 198.68 43.2818 197.48 41.7068C195.305 38.7818 193.055 35.9318 190.355 33.3068C185.18 28.2818 179.18 24.0818 172.655 20.7818C166.055 17.4818 159.005 15.1568 151.88 13.5068C144.455 11.7818 136.88 9.6818 129.305 8.9318C121.58 8.1818 113.855 9.6818 106.13 9.6818C104.93 9.6818 104.855 11.7818 106.13 11.8568C112.73 12.2318 119.255 11.4818 125.855 11.8568C133.205 12.3068 140.48 14.4818 147.605 16.2818C154.58 18.0818 161.48 19.9568 168.08 22.8818C174.53 25.7318 180.53 29.5568 185.93 34.2068C189.155 36.9818 191.78 40.1318 194.33 43.5068C196.505 46.3568 198.98 50.7068 202.505 52.0568C203.33 52.4318 204.305 51.6068 203.93 50.6318Z"
		fill="#9DAAC4"
	/>
	<path
		d="M84.1547 119.032C85.8797 116.182 87.4546 113.257 89.1796 110.407C92.5546 104.632 96.0797 98.9318 99.3797 93.0818C103.205 86.2568 111.53 79.1318 110.18 70.5818C110.03 69.8318 109.055 69.9818 109.055 70.7318C109.055 75.0068 106.205 79.1318 103.955 82.5068C101.48 86.1068 99.0047 89.4818 96.8297 93.2318C93.6797 98.7068 90.3797 104.107 87.1547 109.507C85.5047 112.282 83.9297 115.057 82.3547 117.832C80.9297 120.307 78.6047 123.307 78.1547 126.157C78.0797 126.682 78.7547 127.132 79.2047 126.757C81.3047 124.882 82.7297 121.507 84.1547 119.032Z"
		fill="#9DAAC4"
	/>
</svg>
