<svg
	fill="none"
	height="302"
	viewBox="0 0 386 302"
	width="386"
	xmlns="http://www.w3.org/2000/svg"
>
	<path
		d="M122.248 258.143C122.248 258.143 124.748 247.543 118.148 245.243C111.548 242.993 112.248 241.743 103.498 241.193C94.6979 240.693 96.6979 246.993 92.6479 247.893C88.5979 248.793 84.1979 242.943 80.1479 243.643C76.0979 244.343 64.7479 251.093 64.7479 254.893C64.7479 258.693 67.7479 275.343 65.7979 278.243C63.8479 281.143 59.1979 286.793 64.0479 291.893C68.8979 296.943 79.3479 298.593 86.6479 292.743C93.9979 286.843 106.048 283.643 103.698 288.493C101.298 293.343 95.8479 299.443 103.698 300.893C111.548 302.343 116.898 300.693 114.748 290.443C112.598 280.193 122.248 258.093 122.248 258.093V258.143Z"
		fill="#003044"
	/>
	<path
		d="M138.498 273.393C137.248 277.243 130.798 285.394 125.848 288.394C124.948 288.944 123.298 289.544 121.098 290.144C118.898 290.744 116.148 291.344 113.098 291.894C108.998 292.594 104.348 293.144 99.5979 293.394C95.4979 293.594 91.3979 293.593 87.5979 293.243C84.2979 292.943 81.2479 292.393 78.5979 291.493C69.2479 288.393 66.1979 285.193 62.9979 283.293C61.2479 282.243 59.3979 281.543 56.3979 281.493C55.5979 281.493 54.7979 281.493 53.9979 281.693C51.3479 282.143 48.6979 283.243 46.2479 284.093C41.5979 285.743 37.7479 286.544 35.9979 280.144C33.0979 269.394 33.5979 259.693 39.1979 259.293C40.6979 259.193 42.3979 259.643 44.1979 260.343C47.4479 261.643 50.9979 263.793 53.9979 264.793C55.5479 265.293 56.8979 265.543 58.0479 265.243C58.0479 265.243 59.8979 262.593 63.8979 259.243C67.9979 255.793 74.3479 251.593 83.3479 248.543C84.2979 248.243 85.2479 247.943 86.2479 247.643C89.2479 246.793 92.1979 246.293 95.0979 246.193C101.648 245.843 107.748 247.193 113.048 249.193C117.798 250.993 121.898 253.343 125.048 255.443C127.098 256.843 128.748 258.193 129.948 259.243C135.848 264.493 139.748 269.543 138.498 273.443V273.393Z"
		fill="#FF9A6E"
	/>
	<path
		d="M64.3979 268.043C64.2479 271.743 63.6479 277.543 62.9479 283.343C61.1979 282.293 59.348 281.593 56.348 281.543C55.548 281.543 54.7479 281.543 53.9479 281.743C54.0979 275.593 54.1979 269.293 53.9479 264.893C55.4979 265.393 56.848 265.643 57.998 265.343C57.998 265.343 59.848 262.693 63.848 259.343C64.198 261.893 64.4479 264.843 64.2979 268.093L64.3979 268.043Z"
		fill="#FFF3F4"
	/>
	<path
		d="M99.598 293.443C95.498 293.643 91.398 293.643 87.598 293.293C87.898 288.593 88.2479 283.493 88.6979 278.543C89.7979 265.243 87.2979 256.493 83.4479 248.593C84.3979 248.293 85.348 247.993 86.348 247.693C89.348 246.843 92.2979 246.343 95.1979 246.243C98.2479 251.643 101.848 259.293 103.298 267.393C104.548 274.393 102.398 284.543 99.648 293.493L99.598 293.443Z"
		fill="#FFF3F4"
	/>
	<path
		d="M121.698 262.243C118.348 270.243 119.348 281.293 121.048 290.193C118.848 290.793 116.098 291.393 113.048 291.943C110.748 285.343 108.698 277.743 108.848 271.793C109.098 264.243 111.198 255.443 113.048 249.193C117.798 250.993 121.898 253.343 125.048 255.443C123.948 257.343 122.798 259.593 121.698 262.243Z"
		fill="#FFF3F4"
	/>
	<path
		d="M127.548 270.843C126.167 270.843 125.048 269.724 125.048 268.343C125.048 266.963 126.167 265.843 127.548 265.843C128.929 265.843 130.048 266.963 130.048 268.343C130.048 269.724 128.929 270.843 127.548 270.843Z"
		fill="#003044"
	/>
	<path
		d="M138.198 273.943C135.698 275.293 132.798 275.993 129.948 275.793C128.998 275.743 128.998 274.243 129.948 274.293C132.548 274.443 135.148 273.893 137.448 272.643C138.298 272.193 139.048 273.493 138.198 273.943Z"
		fill="#003044"
	/>
	<path
		d="M103.448 274.293C103.448 274.493 103.398 274.693 103.348 274.843C102.498 278.343 97.7479 280.043 92.6479 279.993C90.9979 279.993 89.2979 279.793 87.6479 279.393C81.0479 277.793 82.6479 269.743 87.6479 264.943C90.0979 262.593 93.3979 262.943 96.1979 263.843C96.8979 264.093 97.5979 264.393 98.2479 264.693C101.898 266.393 104.148 270.293 103.448 274.293Z"
		fill="#FF9A6E"
	/>
	<path
		d="M90.7979 270.193C89.5979 274.293 90.998 277.693 92.598 280.043C90.948 280.043 89.248 279.843 87.598 279.443C80.998 277.843 82.598 269.793 87.598 264.993C90.048 262.643 93.3479 262.993 96.1479 263.893C94.0479 264.743 91.798 266.493 90.748 270.193H90.7979Z"
		fill="#003044"
	/>
	<path
		d="M46.248 284.093C41.598 285.743 37.748 286.543 35.998 280.143C33.098 269.393 33.598 259.693 39.198 259.293C40.698 259.193 42.398 259.643 44.198 260.343C42.998 266.093 41.948 275.993 46.248 284.093Z"
		fill="#003044"
	/>
	<path
		d="M297.756 17.943C297.756 17.943 295.256 7.34304 301.856 5.04304C308.456 2.74304 307.756 1.54306 316.506 0.993056C325.306 0.493056 323.306 6.79301 327.356 7.69301C331.406 8.59301 335.806 2.74301 339.856 3.44301C343.906 4.14301 355.256 10.893 355.256 14.693C355.256 18.493 352.256 35.143 354.206 38.043C356.156 40.943 360.806 46.593 355.956 51.693C351.106 56.743 340.656 58.393 333.356 52.543C326.006 46.643 313.956 43.443 316.306 48.293C318.706 53.143 324.156 59.243 316.306 60.693C308.456 62.143 303.106 60.4931 305.256 50.2431C307.406 39.9931 297.756 17.893 297.756 17.893V17.943Z"
		fill="#003044"
	/>
	<path
		d="M281.506 33.2431C282.756 37.0931 289.206 45.2431 294.156 48.2431C295.056 48.7931 296.706 49.3931 298.906 49.9931C301.106 50.5931 303.856 51.1931 306.906 51.7431C311.006 52.4431 315.656 52.9931 320.406 53.2431C324.506 53.4431 328.606 53.443 332.406 53.093C335.706 52.793 338.756 52.243 341.406 51.343C350.756 48.243 353.806 45.043 357.006 43.143C358.756 42.093 360.606 41.393 363.606 41.343C364.406 41.343 365.206 41.343 366.006 41.543C368.656 41.993 371.306 43.093 373.756 43.943C378.406 45.593 382.256 46.3931 384.006 39.9931C386.906 29.2431 386.406 19.543 380.806 19.143C379.306 19.043 377.606 19.493 375.806 20.193C372.556 21.493 369.006 23.643 366.006 24.643C364.456 25.143 363.106 25.393 361.956 25.093C361.956 25.093 360.106 22.443 356.106 19.093C352.006 15.643 345.656 11.443 336.656 8.39302C335.706 8.09302 334.756 7.79305 333.756 7.49305C330.756 6.64305 327.806 6.14304 324.906 6.04304C318.356 5.69304 312.256 7.04304 306.956 9.04304C302.206 10.843 298.106 13.193 294.956 15.293C292.906 16.693 291.256 18.043 290.056 19.093C284.156 24.343 280.256 29.393 281.506 33.293V33.2431Z"
		fill="#FF9A6E"
	/>
	<path
		d="M355.606 27.8929C355.756 31.5929 356.356 37.3929 357.056 43.1929C358.806 42.1429 360.656 41.4429 363.656 41.3929C364.456 41.3929 365.256 41.3929 366.056 41.5929C365.906 35.4429 365.806 29.1429 366.056 24.7429C364.506 25.2429 363.156 25.4929 362.006 25.1929C362.006 25.1929 360.156 22.5429 356.156 19.1929C355.806 21.7429 355.556 24.6929 355.706 27.9429L355.606 27.8929Z"
		fill="#FFF3F4"
	/>
	<path
		d="M320.406 53.243C324.506 53.443 328.606 53.443 332.406 53.093C332.106 48.393 331.756 43.293 331.306 38.343C330.206 25.043 332.706 16.2929 336.556 8.39294C335.606 8.09294 334.656 7.79298 333.656 7.49298C330.656 6.64298 327.706 6.14297 324.806 6.04297C321.756 11.443 318.156 19.0929 316.706 27.1929C315.456 34.1929 317.606 44.343 320.356 53.293L320.406 53.243Z"
		fill="#FFF3F4"
	/>
	<path
		d="M298.306 22.093C301.656 30.093 300.656 41.143 298.956 50.043C301.156 50.643 303.906 51.243 306.956 51.793C309.256 45.193 311.306 37.5929 311.156 31.6429C310.906 24.0929 308.806 15.293 306.956 9.04297C302.206 10.843 298.106 13.193 294.956 15.293C296.056 17.193 297.206 19.443 298.306 22.093Z"
		fill="#FFF3F4"
	/>
	<path
		d="M292.406 30.6929C293.787 30.6929 294.906 29.5736 294.906 28.1929C294.906 26.8122 293.787 25.6929 292.406 25.6929C291.026 25.6929 289.906 26.8122 289.906 28.1929C289.906 29.5736 291.026 30.6929 292.406 30.6929Z"
		fill="#003044"
	/>
	<path
		d="M281.806 33.793C284.306 35.143 287.206 35.843 290.056 35.643C291.006 35.593 291.006 34.093 290.056 34.143C287.456 34.293 284.856 33.743 282.556 32.493C280.256 31.243 280.956 33.343 281.806 33.793Z"
		fill="#003044"
	/>
	<path
		d="M316.556 34.1432C316.556 34.3432 316.606 34.5432 316.656 34.6932C317.506 38.1932 322.256 39.8932 327.356 39.8432C329.006 39.8432 330.706 39.6433 332.356 39.2433C338.956 37.6433 337.356 29.5932 332.356 24.7932C329.906 22.4432 326.606 22.7932 323.806 23.6932C323.106 23.9432 322.406 24.2432 321.756 24.5432C318.106 26.2432 315.856 30.1432 316.556 34.1432Z"
		fill="#FF9A6E"
	/>
	<path
		d="M329.206 29.9933C330.406 34.0933 329.006 37.4932 327.406 39.8432C329.056 39.8432 330.756 39.6433 332.406 39.2433C339.006 37.6433 337.406 29.5932 332.406 24.7932C329.956 22.4432 326.656 22.7932 323.856 23.6932C325.956 24.5432 328.206 26.2933 329.256 29.9933H329.206Z"
		fill="#003044"
	/>
	<path
		d="M373.706 43.9428C378.356 45.5928 382.206 46.3928 383.956 39.9928C386.856 29.2428 386.356 19.5428 380.756 19.1428C379.256 19.0428 377.556 19.4928 375.756 20.1928C376.956 25.9428 378.006 35.8428 373.706 43.9428Z"
		fill="#003044"
	/>
	<path
		d="M101.287 65.8391C101.737 69.5164 93.5372 68.2734 88.8372 70.4487C84.1372 72.6239 75.9372 81.843 67.7372 88.8867C59.5372 95.9305 55.2872 113.436 54.1372 106.6C53.1872 101.11 55.1872 94.3249 55.9372 91.9425C56.0872 91.5282 56.1872 91.2174 56.2372 91.1138C56.1372 91.2692 55.4372 92.0979 52.5372 93.548C49.9872 94.8428 45.6372 96.6038 38.4372 98.8308C36.4872 99.4005 34.6372 99.9703 32.8872 100.436C19.3872 104.062 9.98715 104.424 10.7872 102.456C11.7372 100.281 28.4872 86.5561 31.1872 78.7872C33.8872 71.0184 32.3372 68.7395 31.5372 69.3092H31.4372C30.1372 70.1379 19.0872 74.0223 18.1372 72.3132C17.1872 70.604 15.1872 54.4966 17.7872 54.2376C20.1872 54.0305 29.8872 59.4687 31.0372 60.0902C31.0872 60.0902 31.1372 60.142 31.1372 60.142C31.1372 60.142 31.3372 48.2298 17.7872 37.3016C4.18716 26.3734 -2.11281 22.0228 1.38719 21.5049C3.13719 21.2977 11.6872 21.8675 21.6372 23.8356C30.7872 25.6483 41.1372 28.6004 48.3872 33.0546C49.0872 33.4689 49.7372 33.935 50.3372 34.3494C56.4872 38.7517 61.5372 43.0505 65.9872 46.8314C72.0872 51.9588 77.0872 56.1539 82.2372 58.4328C91.1372 62.3172 100.737 62.0583 101.237 65.6837L101.287 65.8391Z"
		fill="#F9D332"
	/>
	<path
		d="M44.5372 69.2574C43.8372 83.3967 38.6372 93.548 32.8872 100.488C19.3872 104.114 9.98718 104.476 10.7872 102.508C11.7372 100.333 28.4872 86.6078 31.1872 78.839C33.8872 71.0701 32.3372 68.7913 31.5372 69.361L31.1872 60.2455C31.1872 60.2455 31.3872 48.3333 17.8372 37.4051C4.23723 26.4769 -2.0628 22.1263 1.4372 21.6084C3.1872 21.4013 11.7372 21.971 21.6872 23.9391C32.2872 32.2259 45.6372 47.5046 44.5872 69.2056L44.5372 69.2574Z"
		fill="#003044"
	/>
	<path
		d="M67.7371 88.9387L55.9871 91.9945C56.1371 91.5802 56.2371 91.2694 56.2871 91.1658C56.1871 91.3212 55.4872 92.1499 52.5872 93.6C52.8372 86.5045 53.9871 44.967 48.4871 33.262C49.1871 33.6763 49.8371 34.1424 50.4371 34.5568C56.5871 38.9591 61.6372 43.2579 66.0872 47.0387C68.6872 66.668 67.7871 88.9387 67.7871 88.9387H67.7371Z"
		fill="#003044"
	/>
	<path
		d="M76.7872 66.1501C75.3512 66.1501 74.1872 64.9443 74.1872 63.4569C74.1872 61.9695 75.3512 60.7637 76.7872 60.7637C78.2231 60.7637 79.3872 61.9695 79.3872 63.4569C79.3872 64.9443 78.2231 66.1501 76.7872 66.1501Z"
		fill="#003044"
	/>
</svg>
