<svg
	width="486"
	height="216"
	viewBox="0 0 486 216"
	fill="none"
	xmlns="http://www.w3.org/2000/svg"
>
	<path
		d="M166.346 134.914C166.866 134.914 167.451 134.914 167.971 134.914C168.361 136.019 168.881 137.189 169.401 137.579C170.506 138.359 178.696 135.174 178.371 133.874C178.371 133.614 178.111 133.354 177.786 133.094C187.601 129.714 195.856 122.694 198.261 120.549C198.261 120.549 198.261 120.614 198.326 120.679C198.456 120.809 198.651 120.874 198.781 120.939C198.976 120.939 199.171 120.939 199.301 120.744C199.366 120.679 199.431 120.549 199.496 120.484C200.731 121.849 204.046 125.099 207.946 126.919L212.236 128.934C212.496 129.064 212.756 128.804 212.691 128.544C212.041 126.724 210.156 121.719 208.271 120.224C206.906 119.119 206.061 118.534 205.671 118.209C205.476 118.079 205.541 117.754 205.671 117.689C206.516 117.234 208.531 116.129 210.351 114.114C211.521 112.814 212.171 112.034 212.561 111.579C212.756 111.384 212.561 111.059 212.301 111.059C210.286 111.319 204.176 112.619 198.976 117.689C198.781 117.624 198.586 117.624 198.391 117.689C198.261 117.754 198.131 117.884 198.066 118.079C195.271 117.494 180.126 114.699 167.516 116.714C153.541 118.924 143.596 124.059 143.596 126.074C143.596 128.089 150.096 133.939 166.346 134.914Z"
		fill="#206066"
	/>
	<path
		d="M318.056 24.7393C318.576 24.7393 319.161 24.7393 319.681 24.7393C320.071 25.8443 320.591 27.0143 321.111 27.4043C322.216 28.1843 330.406 24.9993 330.081 23.6993C330.081 23.4393 329.821 23.1793 329.496 22.9193C339.311 19.5393 347.566 12.5193 349.971 10.3743C349.971 10.3743 349.971 10.4393 350.036 10.5043C350.166 10.6343 350.361 10.6993 350.491 10.7643C350.686 10.7643 350.881 10.7643 351.011 10.5693C351.076 10.5043 351.141 10.3743 351.206 10.3093C352.441 11.6743 355.756 14.9243 359.656 16.7443L363.946 18.7593C364.206 18.8893 364.466 18.6293 364.401 18.3693C363.751 16.5493 361.866 11.5443 359.981 10.0493C358.616 8.94426 357.771 8.35928 357.381 8.03428C357.186 7.90428 357.251 7.57933 357.381 7.51433C358.226 7.05933 360.241 5.95433 362.061 3.93933C363.231 2.63933 363.881 1.85931 364.271 1.40431C364.466 1.20931 364.271 0.884277 364.011 0.884277C361.996 1.14428 355.886 2.44432 350.686 7.51433C350.491 7.44933 350.296 7.44933 350.101 7.51433C349.971 7.57933 349.841 7.70931 349.776 7.90431C346.981 7.31931 331.836 4.52433 319.226 6.53933C305.251 8.74933 295.306 13.8843 295.306 15.8993C295.306 17.9143 301.806 23.7643 318.056 24.7393Z"
		fill="#206066"
	/>
	<path
		d="M118.701 171.119C119.221 171.119 119.806 171.119 120.326 171.119C120.716 172.224 121.236 173.394 121.756 173.784C122.861 174.564 131.051 171.379 130.726 170.079C130.726 169.819 130.466 169.559 130.141 169.299C139.956 165.919 148.211 158.899 150.616 156.754C150.616 156.754 150.616 156.819 150.681 156.884C150.811 157.014 151.006 157.079 151.136 157.144C151.331 157.144 151.526 157.144 151.656 156.949C151.721 156.884 151.786 156.754 151.851 156.689C153.086 158.054 156.401 161.304 160.301 163.124L164.591 165.139C164.851 165.269 165.111 165.009 165.046 164.749C164.396 162.929 162.511 157.924 160.626 156.429C159.261 155.324 158.416 154.739 158.026 154.414C157.831 154.284 157.896 153.959 158.026 153.894C158.871 153.439 160.886 152.334 162.706 150.319C163.876 149.019 164.526 148.239 164.916 147.784C165.111 147.589 164.916 147.264 164.656 147.264C162.641 147.524 156.531 148.824 151.331 153.894C151.136 153.829 150.941 153.829 150.746 153.894C150.616 153.959 150.486 154.089 150.421 154.284C147.626 153.699 132.481 150.904 119.871 152.919C105.896 155.129 95.9513 160.264 95.9513 162.279C95.9513 164.294 102.451 170.144 118.701 171.119Z"
		fill="#206066"
	/>
	<path
		d="M174.341 197.769C172.976 196.664 172.131 196.079 171.741 195.754C171.546 195.624 171.611 195.299 171.741 195.234C172.586 194.779 174.601 193.674 176.421 191.659C177.591 190.359 178.241 189.579 178.631 189.124C178.826 188.929 178.631 188.604 178.371 188.604C176.356 188.864 170.246 190.164 165.046 195.234C164.851 195.169 164.656 195.169 164.461 195.234C164.331 195.299 164.201 195.429 164.136 195.624C161.341 195.039 146.196 192.244 133.586 194.259C119.611 196.469 109.666 201.604 109.666 203.619C109.666 205.634 116.166 211.484 132.416 212.459C132.936 212.459 133.521 212.459 134.041 212.459C134.431 213.564 134.951 214.734 135.471 215.124C136.576 215.904 144.766 212.719 144.441 211.419C144.441 211.159 144.181 210.899 143.856 210.639C153.671 207.259 161.926 200.239 164.331 198.094C164.331 198.094 164.331 198.159 164.396 198.224C164.526 198.354 164.721 198.419 164.851 198.484C165.046 198.484 165.241 198.484 165.371 198.289C165.436 198.224 165.501 198.094 165.566 198.029C166.801 199.394 170.116 202.644 174.016 204.464L178.306 206.479C178.566 206.609 178.826 206.349 178.761 206.089C178.111 204.269 176.226 199.264 174.341 197.769Z"
		fill="#206066"
	/>
	<path
		d="M100.111 179.244C98.0964 178.984 91.8564 178.529 85.4864 182.104C85.3564 181.974 85.1614 181.909 84.9014 181.909C84.7064 181.909 84.5764 182.039 84.4464 182.169C81.9114 180.869 68.0664 174.109 55.3914 172.744C41.3514 171.184 30.3664 173.459 29.8464 175.344C29.3264 177.294 34.0714 184.639 49.4114 189.904C49.9314 190.099 50.4514 190.229 50.9714 190.359C51.0364 191.529 51.2314 192.829 51.6214 193.349C52.4664 194.389 61.2414 193.479 61.2414 192.179C61.2414 191.919 61.1114 191.594 60.9164 191.269C71.2514 190.684 81.1314 186.069 84.0564 184.639C84.0564 184.639 84.0564 184.704 84.0564 184.769C84.1214 184.964 84.2514 185.094 84.4464 185.159C84.6414 185.224 84.8364 185.159 84.9664 185.159C85.0964 185.159 85.1614 185.029 85.2264 184.964C86.0714 186.589 88.4114 190.684 91.6614 193.414L95.2364 196.469C95.4314 196.664 95.7564 196.469 95.7564 196.209C95.6264 194.259 95.1714 188.994 93.7414 187.044C92.7014 185.614 92.0514 184.769 91.7264 184.379C91.5964 184.184 91.7264 183.924 91.9214 183.859C92.8964 183.664 95.1064 183.079 97.3814 181.649C98.8764 180.739 99.7214 180.154 100.176 179.829C100.436 179.634 100.306 179.309 100.046 179.244H100.111Z"
		fill="#206066"
	/>
	<path
		d="M328.391 155.064C326.376 154.804 320.136 154.349 313.766 157.924C313.636 157.794 313.441 157.729 313.181 157.729C312.986 157.729 312.856 157.859 312.726 157.989C310.191 156.689 296.346 149.929 283.671 148.564C269.631 147.004 258.646 149.279 258.126 151.164C257.606 153.114 262.351 160.459 277.691 165.724C278.211 165.919 278.731 166.049 279.251 166.179C279.316 167.349 279.511 168.649 279.901 169.169C280.746 170.209 289.521 169.299 289.521 167.999C289.521 167.739 289.391 167.414 289.196 167.089C299.531 166.504 309.411 161.889 312.336 160.459C312.336 160.459 312.336 160.524 312.336 160.589C312.401 160.784 312.531 160.914 312.726 160.979C312.921 161.044 313.116 160.979 313.246 160.979C313.376 160.979 313.441 160.849 313.506 160.784C314.351 162.409 316.691 166.504 319.941 169.234L323.516 172.289C323.711 172.484 324.036 172.289 324.036 172.029C323.906 170.079 323.451 164.814 322.021 162.864C320.981 161.434 320.331 160.589 320.006 160.199C319.876 160.004 320.006 159.744 320.201 159.679C321.176 159.484 323.386 158.899 325.661 157.469C327.156 156.559 328.001 155.974 328.456 155.649C328.716 155.454 328.586 155.129 328.326 155.064H328.391Z"
		fill="#206066"
	/>
	<path
		d="M224.391 81.5493C224.911 81.7443 225.431 81.8744 225.951 82.0044C226.016 83.1744 226.211 84.4744 226.601 84.9944C227.446 86.0344 236.221 85.1243 236.221 83.8243C236.221 83.5643 236.091 83.2394 235.896 82.9144C246.231 82.3294 256.111 77.7144 259.036 76.2844C259.036 76.2844 259.036 76.3494 259.036 76.4144C259.101 76.6094 259.231 76.7394 259.426 76.8044C259.621 76.8694 259.816 76.8044 259.946 76.8044C260.076 76.8044 260.141 76.6744 260.206 76.6094C261.051 78.2344 263.391 82.3294 266.641 85.0594L270.216 88.1144C270.411 88.3094 270.736 88.1144 270.736 87.8544C270.606 85.9044 270.151 80.6394 268.721 78.6894C267.681 77.2594 267.031 76.4143 266.706 76.0243C266.576 75.8293 266.706 75.5694 266.901 75.5044C267.876 75.3094 270.086 74.7244 272.361 73.2944C273.856 72.3844 274.701 71.7993 275.156 71.4743C275.416 71.2793 275.286 70.9544 275.026 70.8894C273.011 70.6294 266.771 70.1743 260.401 73.7493C260.271 73.6193 260.076 73.5544 259.816 73.5544C259.621 73.5544 259.491 73.6844 259.361 73.8144C256.826 72.5144 242.981 65.7544 230.306 64.3894C216.266 62.8294 205.281 65.1044 204.761 66.9894C204.241 68.9394 208.986 76.2843 224.326 81.5493H224.391Z"
		fill="#206066"
	/>
	<path
		d="M349.516 98.2542C347.501 97.9942 341.261 97.5392 334.891 101.114C334.761 100.984 334.566 100.919 334.306 100.919C334.111 100.919 333.981 101.049 333.851 101.179C331.316 99.8792 317.471 93.1192 304.796 91.7542C290.756 90.1942 279.771 92.4692 279.251 94.3542C278.731 96.3042 283.476 103.649 298.816 108.914C299.336 109.109 299.856 109.239 300.376 109.369C300.441 110.539 300.636 111.839 301.026 112.359C301.871 113.399 310.646 112.489 310.646 111.189C310.646 110.929 310.516 110.604 310.321 110.279C320.656 109.694 330.536 105.079 333.461 103.649C333.461 103.649 333.461 103.714 333.461 103.779C333.526 103.974 333.656 104.104 333.851 104.169C334.046 104.234 334.241 104.169 334.371 104.169C334.501 104.169 334.566 104.039 334.631 103.974C335.476 105.599 337.816 109.694 341.066 112.424L344.641 115.479C344.836 115.674 345.161 115.479 345.161 115.219C345.031 113.269 344.576 108.004 343.146 106.054C342.106 104.624 341.456 103.779 341.131 103.389C341.001 103.194 341.131 102.934 341.326 102.869C342.301 102.674 344.511 102.089 346.786 100.659C348.281 99.7491 349.126 99.1642 349.581 98.8392C349.841 98.6442 349.711 98.3192 349.451 98.2542H349.516Z"
		fill="#206066"
	/>
	<path
		d="M32.3813 152.269C32.3813 152.009 32.2513 151.684 32.0563 151.359C42.3913 150.774 52.2713 146.159 55.1963 144.729C55.1963 144.729 55.1963 144.794 55.1963 144.859C55.2613 145.054 55.3913 145.184 55.5863 145.249C55.7813 145.314 55.9763 145.249 56.1063 145.249C56.2363 145.249 56.3014 145.119 56.3664 145.054C57.2114 146.679 59.5513 150.774 62.8013 153.504L66.3763 156.559C66.5713 156.754 66.8963 156.559 66.8963 156.299C66.7663 154.349 66.3113 149.084 64.8813 147.134C63.8413 145.704 63.1914 144.859 62.8664 144.469C62.7364 144.274 62.8663 144.014 63.0613 143.949C64.0363 143.754 66.2463 143.169 68.5213 141.739C70.0163 140.829 70.8614 140.244 71.3164 139.919C71.5764 139.724 71.4464 139.399 71.1863 139.334C69.1713 139.074 62.9313 138.619 56.5613 142.194C56.4313 142.064 56.2363 141.999 55.9763 141.999C55.7813 141.999 55.6513 142.129 55.5213 142.259C52.9863 140.959 39.1414 134.199 26.4664 132.834C12.4264 131.274 1.44132 133.549 0.921322 135.434C0.401322 137.384 5.14635 144.729 20.4863 149.994C21.0063 150.189 21.5263 150.319 22.0463 150.449C22.1113 151.619 22.3063 152.919 22.6963 153.439C23.5413 154.479 32.3164 153.569 32.3164 152.269H32.3813Z"
		fill="#206066"
	/>
	<path
		d="M242.916 141.544C241.551 140.439 240.706 139.854 240.316 139.529C240.121 139.399 240.186 139.074 240.316 139.009C241.161 138.554 243.176 137.449 244.996 135.434C246.166 134.134 246.816 133.354 247.206 132.899C247.401 132.704 247.206 132.379 246.946 132.379C244.931 132.639 238.821 133.939 233.621 139.009C233.426 138.944 233.231 138.944 233.036 139.009C232.906 139.074 232.776 139.204 232.711 139.399C229.916 138.814 214.771 136.019 202.161 138.034C188.186 140.244 178.241 145.379 178.241 147.394C178.241 149.409 184.741 155.259 200.991 156.234C201.511 156.234 202.096 156.234 202.616 156.234C203.006 157.339 203.526 158.509 204.046 158.899C205.151 159.679 213.341 156.494 213.016 155.194C213.016 154.934 212.756 154.674 212.431 154.414C222.246 151.034 230.501 144.014 232.906 141.869C232.906 141.869 232.906 141.934 232.971 141.999C233.101 142.129 233.296 142.194 233.426 142.259C233.621 142.259 233.816 142.259 233.946 142.064C234.011 141.999 234.076 141.869 234.141 141.804C235.376 143.169 238.691 146.419 242.591 148.239L246.881 150.254C247.141 150.384 247.401 150.124 247.336 149.864C246.686 148.044 244.801 143.039 242.916 141.544Z"
		fill="#206066"
	/>
	<path
		d="M372.396 43.1342C371.031 42.0292 370.186 41.4442 369.796 41.1192C369.601 40.9892 369.666 40.6642 369.796 40.5992C370.641 40.1442 372.656 39.0392 374.476 37.0242C375.646 35.7242 376.296 34.9443 376.686 34.4893C376.881 34.2943 376.686 33.9692 376.426 33.9692C374.411 34.2292 368.301 35.5292 363.101 40.5992C362.906 40.5342 362.711 40.5342 362.516 40.5992C362.386 40.6642 362.256 40.7943 362.191 40.9893C359.396 40.4043 344.251 37.6092 331.641 39.6242C317.666 41.8342 307.721 46.9692 307.721 48.9842C307.721 50.9992 314.221 56.8492 330.471 57.8242C330.991 57.8242 331.576 57.8242 332.096 57.8242C332.486 58.9292 333.006 60.0993 333.526 60.4893C334.631 61.2693 342.821 58.0842 342.496 56.7842C342.496 56.5242 342.236 56.2643 341.911 56.0043C351.726 52.6243 359.981 45.6042 362.386 43.4592C362.386 43.4592 362.386 43.5243 362.451 43.5893C362.581 43.7193 362.776 43.7842 362.906 43.8492C363.101 43.8492 363.296 43.8493 363.426 43.6543C363.491 43.5893 363.556 43.4592 363.621 43.3942C364.856 44.7592 368.171 48.0093 372.071 49.8293L376.361 51.8442C376.621 51.9742 376.881 51.7143 376.816 51.4543C376.166 49.6343 374.281 44.6292 372.396 43.1342Z"
		fill="#206066"
	/>
	<path
		d="M485.106 109.889C484.456 108.069 482.571 103.064 480.686 101.569C479.321 100.464 478.476 99.8793 478.086 99.5543C477.891 99.4243 477.956 99.0993 478.086 99.0343C478.931 98.5793 480.946 97.4743 482.766 95.4593C483.936 94.1593 484.586 93.3792 484.976 92.9242C485.171 92.7292 484.976 92.4043 484.716 92.4043C482.701 92.6643 476.591 93.9643 471.391 99.0343C471.196 98.9693 471.001 98.9693 470.806 99.0343C470.676 99.0993 470.546 99.2292 470.481 99.4242C467.686 98.8392 452.541 96.0443 439.931 98.0593C425.956 100.269 416.011 105.404 416.011 107.419C416.011 109.434 422.511 115.284 438.761 116.259C439.281 116.259 439.866 116.259 440.386 116.259C440.776 117.364 441.296 118.534 441.816 118.924C442.921 119.704 451.111 116.519 450.786 115.219C450.786 114.959 450.526 114.699 450.201 114.439C460.016 111.059 468.271 104.039 470.676 101.894C470.676 101.894 470.676 101.959 470.741 102.024C470.871 102.154 471.066 102.219 471.196 102.284C471.391 102.284 471.586 102.284 471.716 102.089C471.781 102.024 471.846 101.894 471.911 101.829C473.146 103.194 476.461 106.444 480.361 108.264L484.651 110.279C484.911 110.409 485.171 110.149 485.106 109.889Z"
		fill="#206066"
	/>
</svg>
