<svg
	width="410"
	height="166"
	viewBox="0 0 410 166"
	fill="none"
	xmlns="http://www.w3.org/2000/svg"
>
	<path
		d="M313.636 87.803C313.636 87.803 313.411 92.213 312.421 93.293C311.386 94.328 302.116 92.573 302.251 91.178C302.386 89.783 306.616 86.093 306.616 86.093L313.636 87.848V87.803Z"
		fill="#6A8B91"
	/>
	<path
		d="M277.772 78.353C277.862 78.398 277.997 78.443 278.087 78.353C279.887 77.633 296.042 71.153 310.307 70.793C325.427 70.388 336.947 73.808 337.352 75.923C337.757 78.038 331.997 85.463 315.122 89.693C299.372 93.653 280.562 82.133 277.997 80.513C275.432 78.893 277.637 80.468 277.547 80.603C276.782 81.818 273.767 86.543 269.672 89.468L265.577 92.393C265.352 92.573 264.992 92.393 265.037 92.078C265.352 90.008 266.342 84.428 268.052 82.448C269.762 80.468 270.032 80.198 270.437 79.793C270.842 79.388 270.527 79.298 270.302 79.253C269.312 78.938 267.017 78.128 264.677 76.418C262.337 74.708 262.337 74.618 261.887 74.213C261.662 74.033 261.797 73.628 262.112 73.628C264.362 73.538 271.247 73.628 277.862 78.308L277.772 78.353Z"
		fill="#F5F4F2"
	/>
	<path
		d="M325.652 78.0829C326.646 78.0829 327.452 77.277 327.452 76.2829C327.452 75.2888 326.646 74.4829 325.652 74.4829C324.657 74.4829 323.852 75.2888 323.852 76.2829C323.852 77.277 324.657 78.0829 325.652 78.0829Z"
		fill="#274238"
	/>
	<path
		d="M312.737 77.5881C310.982 77.4531 309.227 77.4531 307.472 77.5881C305.717 77.7231 305.807 77.633 305.177 78.128C304.547 78.623 304.277 79.388 304.187 80.198C304.097 81.053 304.232 81.863 304.412 82.673C304.592 83.483 304.772 84.3831 304.952 85.2381C305.132 86.0931 305.537 86.678 306.392 86.678C307.202 86.678 308.057 86.2281 308.777 85.9581C310.577 85.3281 312.332 84.5631 314.087 83.7081C314.447 83.5281 314.537 82.988 314.357 82.673C314.177 82.358 313.682 82.223 313.322 82.403C311.702 83.168 310.082 83.888 308.372 84.473C306.662 85.058 307.517 84.788 307.112 84.923C306.707 85.058 306.572 85.013 306.527 85.103C306.437 85.103 306.437 85.103 306.572 85.193C306.572 85.193 306.572 85.148 306.572 85.103C306.572 84.968 306.437 84.653 306.437 84.518C306.392 84.293 306.347 84.068 306.302 83.843C306.212 83.438 306.122 82.9881 306.032 82.5831C305.897 81.7731 305.672 80.963 305.852 80.153C305.897 79.838 305.987 79.478 306.257 79.343C306.527 79.208 306.932 79.1631 307.247 79.1631C309.092 79.0281 310.982 79.0281 312.827 79.1631C313.232 79.1631 313.592 78.758 313.592 78.398C313.592 78.038 313.232 77.6781 312.827 77.6331L312.737 77.5881Z"
		fill="#8AC0CC"
	/>
	<path
		d="M292.576 77.9928C292.801 78.3078 292.666 78.8479 292.306 79.0279C292.171 79.1179 292.036 79.2079 291.901 79.2979C291.901 79.2979 291.901 79.2979 291.811 79.3428C291.811 79.3879 291.676 79.4779 291.631 79.4779C291.496 79.5679 291.406 79.7029 291.316 79.7929C291.316 79.7929 291.226 79.9279 291.181 79.9729C291.181 79.9729 291.181 79.9729 291.181 80.0178C291.091 80.1529 291.001 80.2879 290.956 80.4229C290.956 80.5129 290.866 80.5579 290.866 80.6479C290.821 80.8279 290.776 80.9629 290.731 81.0979C290.686 81.2329 290.731 81.2779 290.686 81.3229V81.4129C290.686 81.4579 290.686 81.4579 290.686 81.4129C290.641 81.8179 290.371 82.1329 289.966 82.1329C289.786 82.1329 289.561 82.0429 289.426 81.9079C289.291 81.7729 289.156 81.5479 289.201 81.3679C289.291 80.5579 289.516 79.7929 289.966 79.1178C290.416 78.4428 291.001 77.9028 291.676 77.5428C292.036 77.3178 292.486 77.4529 292.711 77.8129L292.576 77.9928Z"
		fill="#8AC0CC"
	/>
	<path
		d="M278.627 80.5129C278.717 80.6929 278.627 80.9179 278.537 81.0979C278.447 81.2779 278.267 81.4129 278.087 81.4579C277.907 81.5029 277.682 81.4578 277.502 81.3678C277.322 81.2778 277.232 81.0978 277.142 80.9178C276.827 80.1528 276.782 79.2979 277.007 78.5329C277.142 78.1279 277.502 77.9028 277.952 77.9928C278.357 78.0828 278.627 78.5329 278.492 78.9379C278.492 79.0729 278.402 79.2529 278.402 79.3879C278.402 79.5679 278.402 79.7479 278.402 79.9279C278.402 80.1529 278.492 80.3779 278.582 80.5579L278.627 80.5129Z"
		fill="#8AC0CC"
	/>
	<path
		d="M299.912 80.6929C299.597 81.0079 299.147 80.9629 298.832 80.6929C298.472 80.4229 298.112 80.153 297.797 79.838C297.797 79.838 297.752 79.838 297.707 79.883C297.662 79.883 297.572 79.973 297.527 79.973C297.437 80.063 297.347 80.1529 297.257 80.2429C297.257 80.2429 297.212 80.333 297.167 80.378C297.167 80.423 297.122 80.513 297.077 80.558C297.077 80.693 296.987 80.7829 296.987 80.9179C296.987 81.0079 296.987 81.053 296.987 81.053C296.987 81.143 296.987 81.188 296.987 81.233C296.987 81.683 296.627 81.998 296.222 81.998C295.817 81.998 295.457 81.638 295.457 81.233C295.457 80.378 295.727 79.568 296.267 78.938C296.492 78.668 296.807 78.398 297.122 78.263C297.032 78.128 296.987 77.993 296.942 77.858C296.537 76.823 296.672 75.473 297.527 74.708C297.842 74.438 298.292 74.393 298.607 74.708C298.877 74.978 298.922 75.518 298.607 75.788C298.607 75.788 298.517 75.878 298.472 75.923C298.472 75.923 298.472 75.9229 298.427 75.9679C298.427 76.0129 298.382 76.103 298.337 76.148C298.337 76.193 298.337 76.238 298.337 76.283C298.337 76.328 298.337 76.418 298.337 76.463C298.337 76.553 298.337 76.643 298.337 76.733C298.337 76.778 298.337 76.8229 298.337 76.8679C298.337 76.9579 298.382 77.093 298.427 77.183C298.427 77.183 298.427 77.2729 298.427 77.3179C298.517 77.4979 298.607 77.678 298.742 77.858C298.922 77.948 299.102 78.128 299.147 78.308C299.462 78.623 299.867 78.938 300.227 79.208C300.587 79.478 300.497 80.018 300.227 80.288L299.912 80.6929Z"
		fill="#8AC0CC"
	/>
	<path
		d="M319.082 73.7179C318.317 76.0579 318.407 78.6229 319.262 80.9179C320.117 83.2129 321.917 85.778 324.437 86.363C325.382 86.588 325.786 85.103 324.796 84.878C322.726 84.383 321.242 82.0879 320.612 80.1979C319.937 78.2179 319.891 76.103 320.521 74.078C320.836 73.133 319.352 72.7729 319.037 73.7179H319.082Z"
		fill="#6A8B91"
	/>
	<path
		d="M51.9617 105.758C51.9617 105.758 51.7366 110.168 50.7466 111.248C49.7566 112.328 40.4416 110.528 40.5766 109.133C40.7116 107.738 44.9416 104.048 44.9416 104.048L51.9617 105.803V105.758Z"
		fill="#6A8B91"
	/>
	<path
		d="M16.0967 96.3081C16.1867 96.3531 16.3217 96.3981 16.4117 96.3081C18.2117 95.5881 34.3667 89.1081 48.6317 88.7481C63.7517 88.3431 75.2717 91.7631 75.6767 93.8781C76.0817 95.9931 70.3217 103.418 53.4467 107.648C37.6967 111.608 18.8867 100.088 16.3217 98.468C16.1417 98.378 15.9617 98.4231 15.8717 98.5581C15.1067 99.7731 12.0917 104.498 7.99667 107.423L3.90168 110.348C3.67668 110.528 3.3167 110.348 3.3617 110.033C3.6767 107.963 4.66668 102.383 6.37668 100.403C7.63668 98.9631 8.3567 98.1531 8.7617 97.7481C9.1667 97.3431 8.85168 97.2531 8.62668 97.2081C7.63668 96.8931 5.34168 96.0831 3.00168 94.3731C1.47168 93.2481 0.661702 92.573 0.211702 92.168C-0.238298 91.763 0.121702 91.5831 0.436702 91.5831C2.6867 91.4931 9.5717 91.5831 16.1867 96.2631L16.0967 96.3081Z"
		fill="#F5F4F2"
	/>
	<path
		d="M63.9768 95.9931C64.9709 95.9931 65.7768 95.1872 65.7768 94.1931C65.7768 93.199 64.9709 92.3931 63.9768 92.3931C62.9826 92.3931 62.1768 93.199 62.1768 94.1931C62.1768 95.1872 62.9826 95.9931 63.9768 95.9931Z"
		fill="#274238"
	/>
	<path
		d="M51.0618 95.5431C49.3068 95.4081 47.5518 95.4081 45.7968 95.5431C44.0418 95.6781 44.1318 95.5882 43.5018 96.0832C42.8718 96.5782 42.6018 97.3432 42.5118 98.1532C42.4218 99.0082 42.5568 99.8182 42.7368 100.628C42.9168 101.483 43.0968 102.338 43.2768 103.193C43.4568 103.913 43.8618 104.633 44.7168 104.633C45.5268 104.633 46.3818 104.183 47.1018 103.913C48.9018 103.283 50.6568 102.518 52.4118 101.663C52.7718 101.483 52.8618 100.943 52.6818 100.628C52.5018 100.313 52.0068 100.178 51.6468 100.358C50.0268 101.123 48.4068 101.843 46.6968 102.428C44.9868 103.013 45.8418 102.743 45.4368 102.878C45.0318 103.013 44.8968 102.968 44.8518 103.058C44.7618 103.058 44.7618 103.058 44.8968 103.148C44.8968 103.148 44.8968 103.103 44.8968 103.058C44.8968 102.923 44.7618 102.608 44.7618 102.473C44.7168 102.248 44.6718 102.023 44.6268 101.798C44.5368 101.393 44.4468 100.943 44.3568 100.538C44.2218 99.7282 43.9968 98.9182 44.1768 98.1082C44.2218 97.7932 44.3118 97.4332 44.5818 97.2982C44.8518 97.1632 45.2568 97.1181 45.5718 97.1181C47.4168 96.9831 49.3068 96.9831 51.1518 97.1181C51.5568 97.1181 51.9168 96.7132 51.9168 96.3532C51.9168 95.9932 51.5568 95.6332 51.1518 95.5882L51.0618 95.5431Z"
		fill="#8AC0CC"
	/>
	<path
		d="M30.8567 95.9482C31.0817 96.2632 30.9467 96.8032 30.5867 96.9832C30.4517 97.0732 30.3167 97.1632 30.1817 97.2532C30.1817 97.2532 30.1817 97.2532 30.0917 97.2982C30.0917 97.3432 29.9567 97.4332 29.9117 97.4332C29.7767 97.5232 29.6867 97.6582 29.5967 97.7482C29.5967 97.7482 29.5067 97.8832 29.4617 97.9282C29.4617 97.9282 29.4617 97.9282 29.4617 97.9732C29.3717 98.1082 29.2817 98.2432 29.2367 98.3782C29.2367 98.4682 29.1467 98.5132 29.1467 98.6032C29.1017 98.7832 29.0567 98.9182 29.0117 99.0532C28.9667 99.1882 29.0117 99.2332 28.9667 99.2782V99.3682C28.9667 99.4132 28.9667 99.4132 28.9667 99.3682C28.9217 99.7732 28.6517 100.088 28.2467 100.088C28.0667 100.088 27.8417 99.9982 27.7067 99.8632C27.5717 99.7282 27.4367 99.5032 27.4817 99.3232C27.5717 98.5132 27.7967 97.7482 28.2467 97.0732C28.6967 96.3982 29.2817 95.8582 29.9567 95.4982C30.3167 95.2732 30.7667 95.4082 30.9917 95.7682L30.8567 95.9482Z"
		fill="#8AC0CC"
	/>
	<path
		d="M16.9518 98.4682C17.0418 98.6482 16.9518 98.8732 16.8618 99.0532C16.7718 99.2332 16.5918 99.3682 16.4118 99.4132C16.2318 99.4582 16.0068 99.4132 15.8268 99.3232C15.6468 99.2332 15.5568 99.0532 15.4668 98.8732C15.1518 98.1082 15.1068 97.2532 15.3318 96.4882C15.4668 96.0832 15.8268 95.8582 16.2768 95.9482C16.6818 96.0382 16.9518 96.4882 16.8168 96.8932C16.8168 97.0282 16.7268 97.2082 16.7268 97.3432C16.7268 97.5232 16.7268 97.7032 16.7268 97.8832C16.7268 98.1082 16.8168 98.3332 16.9068 98.5132L16.9518 98.4682Z"
		fill="#8AC0CC"
	/>
	<path
		d="M38.2367 98.6032C37.9217 98.9182 37.4717 98.8732 37.1567 98.6032C36.7967 98.3332 36.4367 98.0631 36.1217 97.7481C36.1217 97.7481 36.0767 97.7481 36.0317 97.7931C35.9867 97.7931 35.8967 97.8832 35.8517 97.8832C35.7617 97.9732 35.6717 98.0632 35.5817 98.1532C35.5817 98.1532 35.5367 98.2432 35.4917 98.2882C35.4917 98.3332 35.4467 98.4231 35.4017 98.4681C35.4017 98.6031 35.3117 98.6932 35.3117 98.8282C35.3117 98.9182 35.3117 98.9632 35.3117 98.9632C35.3117 99.0532 35.3117 99.0981 35.3117 99.1431C35.3117 99.5931 34.9517 99.9082 34.5467 99.9082C34.1417 99.9082 33.7817 99.5481 33.7817 99.1431C33.7817 98.2881 34.0517 97.4781 34.5917 96.8481C34.8167 96.5781 35.1317 96.3081 35.4467 96.1731C35.3567 96.0381 35.3117 95.9031 35.2667 95.7681C34.8617 94.7331 34.9967 93.3831 35.8517 92.6181C36.1667 92.3481 36.6167 92.3031 36.9317 92.6181C37.2017 92.8881 37.2467 93.4281 36.9317 93.6981C36.9317 93.6981 36.8417 93.7882 36.7967 93.8332C36.7967 93.8332 36.7967 93.8332 36.7517 93.8782C36.7517 93.9232 36.7067 94.0132 36.6617 94.0582C36.6617 94.1032 36.6617 94.1481 36.6617 94.1931C36.6617 94.2381 36.6617 94.3281 36.6617 94.3731C36.6617 94.4631 36.6617 94.5531 36.6617 94.6431C36.6617 94.6881 36.6617 94.7332 36.6617 94.7782C36.6617 94.8682 36.7067 95.0031 36.7517 95.0931C36.7517 95.0931 36.7517 95.1832 36.7517 95.2282C36.8417 95.4082 36.9317 95.5881 37.0667 95.7681C37.2467 95.8581 37.4267 96.0381 37.4717 96.2181C37.7867 96.5331 38.1917 96.8481 38.5517 97.1181C38.9117 97.3881 38.8217 97.9281 38.5517 98.1981L38.2367 98.6032Z"
		fill="#8AC0CC"
	/>
	<path
		d="M57.4067 91.673C56.6417 94.013 56.7317 96.578 57.5867 98.873C58.4417 101.168 60.2417 103.733 62.7617 104.318C63.7067 104.543 64.1117 103.058 63.1217 102.833C61.0517 102.338 59.5667 100.043 58.9367 98.153C58.2617 96.173 58.2167 94.058 58.8467 92.033C59.1617 91.088 57.6767 90.728 57.3617 91.673H57.4067Z"
		fill="#6A8B91"
	/>
	<path
		d="M307.337 133.973C307.337 133.973 307.112 138.383 306.122 139.463C305.087 140.498 295.817 138.743 295.952 137.348C296.087 135.953 300.317 132.263 300.317 132.263L307.337 134.018V133.973Z"
		fill="#6A8B91"
	/>
	<path
		d="M271.472 124.568C271.562 124.613 271.697 124.658 271.787 124.568C273.587 123.848 289.742 117.368 304.007 117.008C319.127 116.603 330.647 120.023 331.052 122.138C331.457 124.253 325.697 131.678 308.822 135.908C293.072 139.868 274.262 128.348 271.697 126.728C269.132 125.108 271.337 126.683 271.247 126.818C270.482 128.033 267.467 132.758 263.372 135.683L259.277 138.608C259.052 138.788 258.692 138.608 258.737 138.293C259.052 136.223 260.042 130.643 261.752 128.663C263.012 127.223 263.732 126.413 264.137 126.008C264.542 125.603 264.227 125.513 264.002 125.468C263.012 125.153 260.717 124.343 258.377 122.633C256.847 121.508 256.037 120.833 255.587 120.428C255.362 120.248 255.497 119.843 255.812 119.843C258.062 119.753 264.947 119.843 271.562 124.523L271.472 124.568Z"
		fill="#C5E2D6"
	/>
	<path
		d="M319.352 124.253C320.346 124.253 321.152 123.447 321.152 122.453C321.152 121.459 320.346 120.653 319.352 120.653C318.358 120.653 317.552 121.459 317.552 122.453C317.552 123.447 318.358 124.253 319.352 124.253Z"
		fill="#274238"
	/>
	<path
		d="M306.437 123.803C304.682 123.668 302.927 123.668 301.172 123.803C300.362 123.848 299.507 123.848 298.877 124.343C298.247 124.838 297.977 125.603 297.887 126.413C297.797 127.268 297.932 128.078 298.112 128.888C298.292 129.698 298.472 130.598 298.652 131.453C298.832 132.173 299.237 132.893 300.092 132.893C300.902 132.893 301.757 132.443 302.477 132.173C304.277 131.543 306.032 130.778 307.787 129.923C309.542 129.068 308.237 129.203 308.057 128.888C307.877 128.573 307.382 128.438 307.022 128.618C305.402 129.383 303.782 130.103 302.072 130.688C301.667 130.823 301.217 131.003 300.812 131.138C300.407 131.273 300.272 131.228 300.227 131.318C300.137 131.318 300.137 131.318 300.272 131.408C300.272 131.408 300.272 131.363 300.272 131.318C300.272 131.183 300.137 130.868 300.137 130.733C300.092 130.508 300.047 130.283 300.002 130.058C299.912 129.653 299.822 129.203 299.732 128.798C299.597 127.988 299.372 127.178 299.552 126.368C299.597 126.053 299.687 125.693 299.957 125.558C300.227 125.423 300.632 125.378 300.947 125.378C302.792 125.243 304.682 125.243 306.527 125.378C306.932 125.378 307.292 124.973 307.292 124.613C307.292 124.253 306.932 123.893 306.527 123.848L306.437 123.803Z"
		fill="#8AC0CC"
	/>
	<path
		d="M286.232 124.163C286.457 124.478 286.322 125.018 285.962 125.198C285.827 125.288 285.692 125.378 285.557 125.468C285.557 125.468 285.557 125.468 285.467 125.513C285.467 125.558 285.332 125.648 285.287 125.648C285.152 125.738 285.062 125.873 284.972 125.963C284.972 125.963 284.882 126.098 284.837 126.143C284.837 126.143 284.837 126.143 284.837 126.188C284.747 126.323 284.657 126.458 284.612 126.593C284.612 126.683 284.522 126.728 284.522 126.818C284.477 126.998 284.432 127.133 284.387 127.268C284.342 127.403 284.387 127.448 284.342 127.493V127.583C284.342 127.628 284.342 127.628 284.342 127.583C284.297 127.988 284.027 128.303 283.622 128.303C283.442 128.303 283.217 128.213 283.082 128.078C282.947 127.943 282.812 127.718 282.857 127.538C282.947 126.728 283.172 125.963 283.622 125.288C284.072 124.613 284.657 124.073 285.332 123.713C285.692 123.488 286.142 123.623 286.367 123.983L286.232 124.163Z"
		fill="#8AC0CC"
	/>
	<path
		d="M272.282 126.683C272.372 126.863 272.282 127.088 272.192 127.268C272.102 127.448 271.922 127.583 271.742 127.628C271.562 127.673 271.337 127.628 271.157 127.538C270.977 127.448 270.887 127.268 270.797 127.088C270.482 126.323 270.437 125.468 270.662 124.703C270.797 124.298 271.157 124.073 271.607 124.163C272.012 124.253 272.282 124.703 272.147 125.108C272.147 125.243 272.057 125.423 272.057 125.558C272.057 125.738 272.057 125.918 272.057 126.098C272.057 126.323 272.147 126.548 272.237 126.728L272.282 126.683Z"
		fill="#8AC0CC"
	/>
	<path
		d="M293.612 126.863C293.297 127.178 292.847 127.133 292.532 126.863C292.172 126.593 291.812 126.323 291.497 126.008C291.497 126.008 291.452 126.008 291.407 126.053C291.362 126.053 291.272 126.143 291.227 126.143C291.137 126.233 291.047 126.323 290.957 126.413C290.957 126.413 290.912 126.503 290.867 126.548C290.867 126.593 290.822 126.683 290.777 126.728C290.777 126.863 290.687 126.953 290.687 127.088C290.687 127.178 290.687 127.223 290.687 127.223C290.687 127.313 290.687 127.358 290.687 127.403C290.687 127.853 290.327 128.168 289.922 128.168C289.517 128.168 289.157 127.808 289.157 127.403C289.157 126.548 289.427 125.738 289.967 125.108C290.192 124.838 290.507 124.568 290.822 124.433C290.732 124.298 290.687 124.163 290.642 124.028C290.237 122.993 290.372 121.643 291.227 120.878C291.542 120.608 291.992 120.563 292.307 120.878C292.577 121.148 292.622 121.688 292.307 121.958C292.307 121.958 292.217 122.048 292.172 122.093C292.172 122.093 292.172 122.093 292.127 122.138C292.127 122.183 292.082 122.273 292.037 122.318C292.037 122.363 292.037 122.408 292.037 122.453C292.037 122.498 292.037 122.588 292.037 122.633C292.037 122.723 292.037 122.813 292.037 122.903C292.037 122.948 292.037 122.993 292.037 123.038C292.037 123.128 292.082 123.263 292.127 123.353C292.127 123.353 292.127 123.443 292.127 123.488C292.217 123.668 292.307 123.848 292.442 124.028C292.622 124.118 292.802 124.298 292.847 124.478C293.162 124.793 293.567 125.108 293.927 125.378C294.287 125.648 294.197 126.188 293.927 126.458L293.612 126.863Z"
		fill="#8AC0CC"
	/>
	<path
		d="M312.782 119.888C312.017 122.228 312.107 124.793 312.962 127.088C313.817 129.383 315.617 131.948 318.137 132.533C319.082 132.758 319.487 131.273 318.497 131.048C316.427 130.553 314.942 128.258 314.312 126.368C313.637 124.388 313.592 122.273 314.222 120.248C314.852 118.223 313.052 118.943 312.737 119.888H312.782Z"
		fill="#6A8B91"
	/>
	<path
		d="M361.292 59.948C361.292 59.948 361.067 64.358 360.077 65.438C359.087 66.518 349.772 64.718 349.907 63.323C350.042 61.928 354.272 58.238 354.272 58.238L361.292 59.993V59.948Z"
		fill="#6A8B91"
	/>
	<path
		d="M325.427 50.498C325.517 50.543 325.652 50.588 325.742 50.498C327.542 49.778 343.697 43.298 357.962 42.938C373.082 42.533 384.602 45.953 385.007 48.068C385.412 50.183 379.652 57.608 362.777 61.838C347.027 65.798 328.217 54.278 325.652 52.658C325.472 52.568 325.292 52.613 325.202 52.748C324.437 53.963 321.422 58.688 317.327 61.613L313.232 64.538C313.007 64.718 312.647 64.538 312.692 64.223C313.007 62.153 313.997 56.573 315.707 54.593C316.967 53.153 317.687 52.343 318.092 51.938C318.497 51.533 318.182 51.443 317.957 51.398C316.967 51.083 314.672 50.273 312.332 48.563C309.992 46.853 309.992 46.763 309.542 46.358C309.092 45.953 309.452 45.773 309.767 45.773C312.017 45.683 318.902 45.773 325.517 50.453L325.427 50.498Z"
		fill="#C5E2D6"
	/>
	<path
		d="M373.262 50.183C374.256 50.183 375.062 49.3771 375.062 48.383C375.062 47.3889 374.256 46.583 373.262 46.583C372.268 46.583 371.462 47.3889 371.462 48.383C371.462 49.3771 372.268 50.183 373.262 50.183Z"
		fill="#274238"
	/>
	<path
		d="M360.392 49.7331C358.637 49.5981 356.882 49.5981 355.127 49.7331C354.317 49.7781 353.462 49.7781 352.832 50.2731C352.202 50.7681 351.932 51.5331 351.842 52.3431C351.752 53.1531 351.887 54.0081 352.067 54.8181C352.247 55.6731 352.427 56.5281 352.607 57.3831C352.787 58.1031 353.192 58.8231 354.047 58.8231C354.857 58.8231 355.712 58.3731 356.432 58.1031C358.232 57.4731 359.987 56.7081 361.742 55.8531C362.102 55.6731 362.192 55.1331 362.012 54.8181C361.832 54.5031 361.337 54.3681 360.977 54.5481C359.357 55.3131 357.737 56.0331 356.027 56.6181C354.317 57.2031 355.172 56.9331 354.767 57.0681C354.362 57.2031 354.227 57.1581 354.182 57.2481C354.092 57.2481 354.092 57.2481 354.227 57.3381C354.227 57.3381 354.227 57.2931 354.227 57.2481C354.227 57.1131 354.092 56.7981 354.092 56.6631C354.047 56.4381 354.002 56.2131 353.957 55.9881C353.867 55.5831 353.777 55.1331 353.687 54.7281C353.552 53.9181 353.327 53.1081 353.507 52.2981C353.687 51.4881 353.642 51.6231 353.912 51.4881C354.182 51.3531 354.587 51.3081 354.902 51.3081C356.747 51.1731 358.637 51.1731 360.482 51.3081C360.887 51.3081 361.247 50.9031 361.247 50.5431C361.247 50.1831 360.887 49.8231 360.482 49.7781L360.392 49.7331Z"
		fill="#8AC0CC"
	/>
	<path
		d="M340.187 50.0929C340.412 50.4079 340.277 50.948 339.917 51.128C339.782 51.218 339.647 51.308 339.512 51.398C339.512 51.398 339.512 51.3979 339.422 51.4429C339.422 51.4879 339.287 51.578 339.242 51.578C339.107 51.668 339.017 51.8029 338.927 51.8929C338.927 51.8929 338.837 52.028 338.792 52.073C338.792 52.073 338.792 52.0729 338.792 52.1179C338.702 52.2529 338.612 52.388 338.567 52.523C338.567 52.613 338.477 52.658 338.477 52.748C338.432 52.928 338.387 53.063 338.342 53.198C338.297 53.333 338.342 53.378 338.297 53.423V53.513C338.297 53.558 338.297 53.558 338.297 53.513C338.252 53.918 337.982 54.233 337.577 54.233C337.397 54.233 337.172 54.143 337.037 54.008C336.902 53.873 336.767 53.6479 336.812 53.4679C336.902 52.6579 337.127 51.8929 337.577 51.2179C338.027 50.5429 338.612 50.0029 339.287 49.6429C339.647 49.4179 340.097 49.553 340.322 49.913L340.187 50.0929Z"
		fill="#8AC0CC"
	/>
	<path
		d="M326.237 52.613C326.327 52.793 326.237 53.0179 326.147 53.1979C326.057 53.3779 325.877 53.513 325.697 53.558C325.517 53.603 325.292 53.5579 325.112 53.4679C324.932 53.3779 324.842 53.1979 324.752 53.0179C324.437 52.2529 324.392 51.398 324.617 50.633C324.752 50.228 325.112 50.0029 325.562 50.0929C325.967 50.1829 326.237 50.633 326.102 51.038C326.102 51.173 326.012 51.353 326.012 51.488C326.012 51.668 326.012 51.848 326.012 52.028C326.012 52.253 326.102 52.478 326.192 52.658L326.237 52.613Z"
		fill="#8AC0CC"
	/>
	<path
		d="M347.567 52.793C347.252 53.108 346.802 53.063 346.487 52.793C346.127 52.523 345.767 52.2531 345.452 51.9381C345.452 51.9381 345.407 51.9381 345.362 51.9831C345.317 51.9831 345.227 52.0731 345.182 52.0731C345.092 52.1631 345.002 52.253 344.912 52.343C344.912 52.343 344.867 52.4331 344.822 52.4781C344.822 52.5231 344.777 52.6131 344.732 52.6581C344.732 52.7931 344.642 52.883 344.642 53.018C344.642 53.108 344.642 53.1531 344.642 53.1531C344.642 53.2431 344.642 53.2881 344.642 53.3331C344.642 53.7831 344.282 54.0981 343.877 54.0981C343.472 54.0981 343.112 53.7381 343.112 53.3331C343.112 52.4781 343.382 51.6681 343.922 51.0381C344.147 50.7681 344.462 50.4981 344.777 50.3631C344.687 50.2281 344.642 50.0931 344.597 49.9581C344.192 48.9231 344.327 47.5731 345.182 46.8081C345.497 46.5381 345.947 46.4931 346.262 46.8081C346.532 47.0781 346.577 47.6181 346.262 47.8881C346.262 47.8881 346.172 47.9781 346.127 48.0231C346.127 48.0231 346.127 48.023 346.082 48.068C346.082 48.113 346.037 48.2031 345.992 48.2481C345.992 48.2931 345.992 48.3381 345.992 48.3831C345.992 48.4281 345.992 48.5181 345.992 48.5631C345.992 48.6531 345.992 48.7431 345.992 48.8331C345.992 48.8781 345.992 48.923 345.992 48.968C345.992 49.058 346.037 49.1931 346.082 49.2831C346.082 49.2831 346.082 49.373 346.082 49.418C346.172 49.598 346.262 49.7781 346.397 49.9581C346.577 50.0481 346.757 50.2281 346.802 50.4081C347.117 50.7231 347.522 51.0381 347.882 51.3081C348.242 51.5781 348.152 52.1181 347.882 52.3881L347.567 52.793Z"
		fill="#8AC0CC"
	/>
	<path
		d="M366.737 45.8631C365.972 48.2031 366.062 50.7681 366.917 53.0631C367.772 55.3581 369.572 57.9231 372.092 58.5081C373.037 58.7331 373.442 57.2481 372.452 57.0231C370.382 56.5281 368.897 54.233 368.267 52.343C367.592 50.363 367.547 48.2481 368.177 46.2231C368.807 44.1981 367.007 44.9181 366.692 45.8631H366.737Z"
		fill="#6A8B91"
	/>
	<path
		d="M389.777 94.5081C389.777 94.5081 390.767 98.8281 390.047 100.088C389.327 101.348 379.922 102.113 379.697 100.718C379.427 99.3231 382.532 94.6431 382.532 94.6431L389.777 94.4631V94.5081Z"
		fill="#6A8B91"
	/>
	<path
		d="M352.697 95.0031C352.787 95.0031 352.922 95.0032 353.012 94.9582C354.542 93.7882 368.402 83.2581 382.037 79.0731C396.527 74.6631 408.542 74.8881 409.487 76.8231C410.432 78.7581 406.877 87.4432 391.712 96.0382C377.582 104.048 356.342 97.9281 353.462 97.0731C350.582 96.2181 353.102 97.1181 353.057 97.2981C352.652 98.6931 350.987 104.048 347.837 107.963L344.687 111.878C344.507 112.103 344.147 112.013 344.102 111.698C343.877 109.628 343.337 103.958 344.462 101.618C345.272 99.9081 345.767 98.9181 346.037 98.4231C346.127 98.1981 345.992 97.9281 345.722 97.9281C344.687 97.9281 342.257 97.7482 339.557 96.7132C337.802 96.0382 336.812 95.5881 336.272 95.3181C336.002 95.1831 336.002 94.7782 336.272 94.6882C338.387 94.0132 345.092 92.2581 352.697 95.0031Z"
		fill="#F5F4F2"
	/>
	<path
		d="M398.282 81.9982C399.276 81.9982 400.082 81.1923 400.082 80.1982C400.082 79.2041 399.276 78.3982 398.282 78.3982C397.288 78.3982 396.482 79.2041 396.482 80.1982C396.482 81.1923 397.288 81.9982 398.282 81.9982Z"
		fill="#274238"
	/>
	<path
		d="M386.222 84.9231C384.512 85.2831 382.802 85.7331 381.137 86.3181C379.472 86.9031 379.562 86.8131 379.067 87.4881C378.572 88.1631 378.527 88.9731 378.662 89.7381C378.797 90.5481 379.157 91.3131 379.517 92.0781C379.922 92.8431 380.282 93.6531 380.732 94.3731C381.182 95.0931 381.677 95.5881 382.487 95.3631C383.297 95.1381 383.972 94.5081 384.602 94.0581C386.177 92.9781 387.662 91.7631 389.102 90.5031C389.417 90.2331 389.372 89.6931 389.102 89.4231C388.832 89.1531 388.337 89.1981 388.022 89.4231C386.672 90.5931 385.277 91.7181 383.837 92.7531C383.477 93.0231 383.117 93.2481 382.712 93.5181C382.307 93.7881 382.217 93.7881 382.172 93.8781C382.082 93.8781 382.082 93.9231 382.262 93.9231C382.262 93.9231 382.262 93.9231 382.262 93.8781C382.262 93.7431 382.037 93.4731 381.992 93.3831C381.902 93.1581 381.767 92.9781 381.677 92.7531C381.452 92.3481 381.272 91.9881 381.092 91.5831C380.732 90.8631 380.327 90.0981 380.237 89.2881C380.147 88.4781 380.237 88.6131 380.417 88.3881C380.597 88.1631 381.047 88.0281 381.362 87.9381C383.117 87.3081 384.917 86.8131 386.762 86.4531C387.167 86.3631 387.392 85.8681 387.257 85.5081C387.122 85.1481 386.717 84.9231 386.312 85.0131L386.222 84.9231Z"
		fill="#8AC0CC"
	/>
	<path
		d="M366.827 90.6831C367.142 90.9531 367.142 91.4931 366.827 91.7631C366.692 91.8531 366.602 91.9881 366.467 92.1231C366.467 92.1231 366.467 92.1231 366.422 92.1681C366.422 92.2131 366.332 92.3031 366.287 92.3481C366.197 92.4831 366.152 92.6181 366.062 92.7531C366.062 92.7531 366.017 92.8881 365.972 92.9331C365.972 92.9331 365.972 92.9781 365.972 93.0231C365.927 93.1581 365.882 93.3381 365.837 93.4731C365.837 93.5631 365.837 93.6531 365.792 93.6981C365.792 93.6981 365.792 93.6981 365.792 93.7431C365.792 93.9231 365.792 94.0581 365.792 94.1931C365.792 94.3281 365.792 94.3731 365.792 94.4631V94.5531C365.792 94.5981 365.792 94.5981 365.792 94.5531C365.837 94.9581 365.702 95.3181 365.297 95.4531C365.117 95.4981 364.847 95.4531 364.712 95.4081C364.577 95.3181 364.397 95.1381 364.352 94.9581C364.217 94.1481 364.262 93.3831 364.487 92.6181C364.757 91.8531 365.162 91.1781 365.747 90.6381C366.062 90.3231 366.512 90.3231 366.827 90.6381V90.6831Z"
		fill="#8AC0CC"
	/>
	<path
		d="M354.092 96.803C354.227 96.938 354.227 97.2081 354.182 97.3881C354.182 97.5681 354.002 97.7481 353.822 97.8381C353.642 97.9281 353.417 97.973 353.237 97.928C353.012 97.883 352.922 97.748 352.787 97.568C352.292 96.938 352.022 96.083 352.022 95.273C352.022 94.823 352.337 94.5081 352.787 94.5081C353.192 94.5081 353.597 94.868 353.552 95.273C353.552 95.408 353.552 95.588 353.552 95.723C353.552 95.903 353.642 96.083 353.687 96.218C353.777 96.398 353.912 96.623 354.047 96.803H354.092Z"
		fill="#8AC0CC"
	/>
	<path
		d="M374.657 91.3131C374.477 91.7181 373.982 91.7631 373.622 91.6281C373.217 91.4481 372.767 91.2681 372.407 91.0881C372.407 91.0881 372.407 91.1331 372.317 91.1781C372.317 91.2231 372.227 91.2681 372.182 91.3131C372.092 91.4481 372.047 91.5381 372.002 91.6731C372.002 91.7181 372.002 91.8081 371.957 91.8531C371.957 91.8981 371.957 91.9881 371.957 92.0331C371.957 92.1681 371.957 92.3031 371.957 92.3931C371.957 92.4831 371.957 92.4831 371.957 92.4831C371.957 92.5281 371.957 92.6181 372.002 92.6631C372.137 93.0681 371.867 93.4731 371.507 93.6081C371.102 93.7431 370.697 93.4731 370.562 93.1131C370.292 92.3031 370.382 91.4481 370.742 90.6831C370.922 90.3681 371.102 90.0531 371.372 89.7831C371.282 89.6931 371.147 89.5581 371.057 89.4231C370.382 88.5681 370.157 87.2181 370.787 86.2281C371.012 85.8681 371.417 85.7331 371.822 85.9131C372.182 86.0931 372.362 86.6331 372.137 86.9481C372.137 86.9931 372.092 87.0381 372.047 87.0831C372.047 87.0831 372.047 87.1281 372.047 87.1731C372.047 87.2181 372.047 87.3081 372.047 87.3531C372.047 87.3981 372.047 87.4431 372.047 87.4881C372.047 87.5331 372.047 87.6231 372.047 87.6681C372.047 87.7581 372.092 87.8481 372.137 87.9381C372.137 87.9831 372.137 88.0281 372.182 88.0731C372.227 88.1631 372.272 88.2531 372.362 88.3431C372.362 88.3431 372.407 88.4331 372.452 88.4331C372.587 88.5681 372.722 88.7031 372.902 88.8381C373.127 88.8381 373.307 89.0181 373.442 89.1531C373.847 89.3781 374.252 89.5581 374.702 89.7381C375.107 89.8731 375.152 90.4581 375.017 90.7731L374.657 91.3131Z"
		fill="#8AC0CC"
	/>
	<path
		d="M391.262 79.4782C391.172 81.9082 391.937 84.3832 393.377 86.3632C394.817 88.3432 397.202 90.3232 399.812 90.2332C400.802 90.2332 400.757 88.6582 399.812 88.7032C397.652 88.7932 395.672 86.9482 394.502 85.3282C393.332 83.6182 392.702 81.5482 392.792 79.4782C392.792 78.4882 391.307 78.5332 391.262 79.4782Z"
		fill="#6A8B91"
	/>
	<path
		d="M144.527 113.813C144.527 113.813 145.517 118.133 144.797 119.393C144.077 120.653 134.672 121.418 134.447 120.023C134.177 118.628 137.282 113.948 137.282 113.948L144.527 113.768V113.813Z"
		fill="#6A8B91"
	/>
	<path
		d="M107.447 114.308C107.537 114.308 107.672 114.308 107.762 114.263C109.292 113.093 123.152 102.563 136.787 98.3781C151.277 93.9681 163.292 94.1931 164.237 96.1281C165.182 98.0631 161.627 106.748 146.462 115.343C132.332 123.353 111.092 117.233 108.212 116.378C105.332 115.523 107.852 116.423 107.807 116.603C107.402 117.998 105.737 123.353 102.587 127.268L99.4366 131.183C99.2566 131.408 98.8966 131.318 98.8516 131.003C98.6266 128.933 98.0866 123.263 99.2116 120.923C100.022 119.213 100.517 118.223 100.787 117.728C101.057 117.233 100.742 117.233 100.472 117.233C99.4366 117.233 97.0066 117.053 94.3066 116.018C92.5516 115.343 91.5616 114.893 91.0216 114.623C90.7516 114.488 90.7516 114.083 91.0216 113.993C93.1366 113.318 99.8416 111.563 107.447 114.308Z"
		fill="#F5F4F2"
	/>
	<path
		d="M153.032 101.303C154.026 101.303 154.832 100.497 154.832 99.5031C154.832 98.509 154.026 97.7031 153.032 97.7031C152.038 97.7031 151.232 98.509 151.232 99.5031C151.232 100.497 152.038 101.303 153.032 101.303Z"
		fill="#274238"
	/>
	<path
		d="M140.927 104.228C139.217 104.588 137.507 105.038 135.842 105.623C134.177 106.208 134.267 106.118 133.772 106.793C133.277 107.468 133.232 108.278 133.367 109.043C133.502 109.808 133.862 110.618 134.222 111.383C134.582 112.148 134.987 112.958 135.437 113.678C135.887 114.398 136.382 114.893 137.192 114.668C138.002 114.443 138.677 113.813 139.307 113.363C140.882 112.283 142.367 111.068 143.807 109.808C145.247 108.548 144.077 108.998 143.807 108.728C143.537 108.458 143.042 108.503 142.727 108.728C141.377 109.898 139.982 111.023 138.542 112.058C137.102 113.093 137.822 112.553 137.417 112.823C137.012 113.093 136.922 113.093 136.877 113.183C136.787 113.183 136.787 113.228 136.967 113.228C136.967 113.228 136.967 113.228 136.967 113.183C136.967 113.048 136.742 112.778 136.697 112.688C136.607 112.463 136.472 112.283 136.382 112.058C136.157 111.653 135.977 111.293 135.797 110.888C135.437 110.168 135.032 109.403 134.942 108.593C134.852 107.783 134.942 107.918 135.122 107.693C135.302 107.468 135.752 107.333 136.067 107.243C137.822 106.613 139.622 106.118 141.467 105.758C143.312 105.398 142.097 105.173 141.962 104.813C141.827 104.453 141.422 104.228 141.017 104.318L140.927 104.228Z"
		fill="#8AC0CC"
	/>
	<path
		d="M121.577 109.988C121.892 110.258 121.892 110.798 121.577 111.068C121.442 111.158 121.352 111.293 121.217 111.428C121.217 111.428 121.217 111.428 121.172 111.473C121.172 111.518 121.082 111.608 121.037 111.653C120.947 111.788 120.902 111.923 120.812 112.058C120.812 112.058 120.767 112.193 120.722 112.238C120.722 112.238 120.722 112.283 120.722 112.328C120.677 112.463 120.632 112.643 120.587 112.778C120.587 112.868 120.587 112.958 120.542 113.003C120.542 113.003 120.542 113.003 120.542 113.048C120.542 113.228 120.542 113.363 120.542 113.498C120.542 113.633 120.542 113.678 120.542 113.768V113.858C120.542 113.903 120.542 113.903 120.542 113.858C120.587 114.263 120.452 114.623 120.047 114.758C119.867 114.803 119.597 114.758 119.462 114.713C119.327 114.623 119.147 114.443 119.102 114.263C118.967 113.453 119.012 112.688 119.237 111.923C119.507 111.158 119.912 110.483 120.497 109.943C120.812 109.628 121.262 109.628 121.577 109.943V109.988Z"
		fill="#8AC0CC"
	/>
	<path
		d="M108.797 116.108C108.932 116.243 108.932 116.513 108.887 116.693C108.887 116.873 108.707 117.053 108.527 117.143C108.347 117.233 108.122 117.278 107.942 117.233C107.717 117.188 107.627 117.053 107.492 116.873C106.997 116.243 106.727 115.388 106.727 114.578C106.727 114.128 107.042 113.813 107.492 113.813C107.897 113.813 108.302 114.173 108.257 114.578C108.257 114.713 108.257 114.893 108.257 115.028C108.257 115.208 108.347 115.388 108.392 115.523C108.482 115.703 108.617 115.928 108.752 116.108H108.797Z"
		fill="#8AC0CC"
	/>
	<path
		d="M129.407 110.618C129.227 111.023 128.732 111.068 128.372 110.933C127.967 110.753 127.517 110.573 127.157 110.393C127.157 110.393 127.157 110.438 127.067 110.483C127.067 110.528 126.977 110.573 126.932 110.618C126.842 110.753 126.797 110.843 126.752 110.978C126.752 111.023 126.752 111.113 126.707 111.158C126.707 111.203 126.707 111.293 126.707 111.338C126.707 111.473 126.707 111.608 126.707 111.698C126.707 111.788 126.707 111.788 126.707 111.788C126.707 111.833 126.707 111.923 126.752 111.968C126.887 112.373 126.617 112.778 126.257 112.913C125.852 113.048 125.447 112.778 125.312 112.418C125.042 111.608 125.132 110.753 125.492 109.988C125.672 109.673 125.852 109.358 126.122 109.088C126.032 108.998 125.897 108.863 125.807 108.728C125.132 107.873 124.907 106.523 125.537 105.533C125.762 105.173 126.167 105.038 126.572 105.218C126.932 105.398 127.112 105.938 126.887 106.253C126.887 106.298 126.842 106.343 126.797 106.388C126.797 106.388 126.797 106.433 126.797 106.478C126.797 106.523 126.797 106.613 126.797 106.658C126.797 106.703 126.797 106.748 126.797 106.793C126.797 106.838 126.797 106.928 126.797 106.973C126.797 107.063 126.842 107.153 126.887 107.243C126.887 107.288 126.887 107.333 126.932 107.378C126.977 107.468 127.022 107.558 127.112 107.648C127.112 107.648 127.157 107.738 127.202 107.738C127.337 107.873 127.472 108.008 127.652 108.143C127.877 108.143 128.057 108.323 128.192 108.458C128.597 108.683 129.002 108.863 129.452 109.043C129.857 109.178 129.902 109.763 129.767 110.078L129.407 110.618Z"
		fill="#8AC0CC"
	/>
	<path
		d="M146.012 98.7831C145.922 101.213 146.687 103.688 148.127 105.668C149.567 107.648 151.952 109.628 154.562 109.538C155.552 109.538 155.507 107.963 154.562 108.008C152.402 108.098 150.422 106.253 149.252 104.633C148.082 102.923 147.451 100.853 147.541 98.7831C147.541 97.7931 146.057 97.8381 146.012 98.7831Z"
		fill="#6A8B91"
	/>
	<path
		d="M111.182 58.148C111.182 58.148 112.172 62.468 111.452 63.728C110.732 64.988 101.327 65.753 101.102 64.358C100.832 62.963 103.937 58.283 103.937 58.283L111.182 58.103V58.148Z"
		fill="#6A8B91"
	/>
	<path
		d="M74.1018 58.5981C74.1918 58.5981 74.3267 58.5981 74.4167 58.5531C75.9467 57.3831 89.8067 46.8531 103.442 42.6681C117.932 38.2581 129.947 38.4831 130.892 40.4181C131.837 42.3531 128.282 51.0381 113.117 59.6331C98.9867 67.6431 77.7467 61.5231 74.8667 60.6681C71.9867 59.8131 74.5068 60.7131 74.4618 60.8931C74.0568 62.2881 72.3917 67.6431 69.2417 71.5581L66.0917 75.4731C65.9117 75.6981 65.5518 75.6081 65.5068 75.2931C65.2818 73.2231 64.7417 67.5531 65.8667 65.2131C66.6767 63.5031 67.1717 62.5131 67.4417 62.0181C67.7117 61.5231 67.3968 61.5231 67.1268 61.5231C66.0918 61.5231 63.6618 61.3431 60.9618 60.3081C59.2068 59.6331 58.2168 59.1831 57.6768 58.9131C57.1368 58.6431 57.4068 58.3731 57.6768 58.2831C59.7918 57.6081 66.4968 55.8531 74.1018 58.5981Z"
		fill="#C5E2D6"
	/>
	<path
		d="M119.687 45.6381C120.681 45.6381 121.487 44.8322 121.487 43.8381C121.487 42.844 120.681 42.0381 119.687 42.0381C118.693 42.0381 117.887 42.844 117.887 43.8381C117.887 44.8322 118.693 45.6381 119.687 45.6381Z"
		fill="#274238"
	/>
	<path
		d="M107.582 48.5632C105.872 48.9232 104.162 49.3732 102.497 49.9582C101.732 50.2282 100.922 50.4532 100.427 51.1282C99.9317 51.7582 99.8867 52.6132 100.022 53.3782C100.157 54.1882 100.517 54.9532 100.877 55.7182C101.282 56.4832 101.642 57.2932 102.092 58.0132C102.542 58.7332 103.037 59.2282 103.847 59.0032C104.612 58.7782 105.332 58.1482 105.962 57.6982C107.537 56.6182 109.022 55.4032 110.462 54.1432C110.777 53.8732 110.732 53.3332 110.462 53.0632C110.147 52.7482 109.697 52.8382 109.382 53.0632C108.032 54.2332 106.637 55.3582 105.197 56.3932C104.837 56.6632 104.477 56.8882 104.072 57.1582C103.667 57.4282 103.577 57.4282 103.532 57.5182C103.442 57.5182 103.442 57.5632 103.622 57.5632C103.622 57.5632 103.622 57.5632 103.622 57.5182C103.622 57.3832 103.397 57.1132 103.352 57.0232C103.262 56.7982 103.127 56.6182 103.037 56.3932C102.812 55.9882 102.632 55.6282 102.452 55.2232C102.092 54.5032 101.687 53.7382 101.597 52.9282C101.507 52.1182 101.597 52.2532 101.777 52.0282C102.002 51.8032 102.407 51.6682 102.722 51.5782C104.477 50.9482 106.277 50.4532 108.122 50.0932C108.527 50.0032 108.752 49.5082 108.617 49.1482C108.482 48.7882 108.077 48.5632 107.672 48.6532L107.582 48.5632Z"
		fill="#8AC0CC"
	/>
	<path
		d="M88.2319 54.2783C88.5469 54.5483 88.5469 55.0883 88.2319 55.3583C88.0969 55.4483 88.0068 55.5833 87.8718 55.7183C87.8718 55.7183 87.8718 55.7183 87.8268 55.7633C87.8268 55.8083 87.7368 55.8983 87.6918 55.9433C87.6018 56.0783 87.5568 56.2133 87.4668 56.3483C87.4668 56.3483 87.4218 56.4833 87.3768 56.5283C87.3768 56.5283 87.3768 56.5733 87.3768 56.6183C87.3318 56.7533 87.2868 56.9333 87.2418 57.0683C87.2418 57.1583 87.2418 57.2483 87.1968 57.2933C87.1968 57.2933 87.1968 57.2933 87.1968 57.3383C87.1968 57.5183 87.1968 57.6533 87.1968 57.7883C87.1968 57.9233 87.1968 57.9683 87.1968 58.0583V58.1483C87.1968 58.1933 87.1968 58.1933 87.1968 58.1483C87.2418 58.5533 87.1068 58.9133 86.7018 59.0483C86.5218 59.0933 86.2518 59.0483 86.1168 59.0033C85.9818 58.9133 85.8019 58.7333 85.7569 58.5533C85.6219 57.7433 85.6668 56.9783 85.8918 56.2133C86.1618 55.4483 86.5668 54.7733 87.1518 54.2333C87.4668 53.9183 87.9169 53.9183 88.2319 54.2333V54.2783Z"
		fill="#8AC0CC"
	/>
	<path
		d="M75.4518 60.4432C75.5868 60.5782 75.5868 60.8482 75.5418 61.0282C75.5418 61.2082 75.3618 61.3882 75.1818 61.4782C75.0018 61.5682 74.7768 61.6132 74.5968 61.5682C74.3718 61.5232 74.2818 61.3882 74.1468 61.2082C73.6518 60.5782 73.3818 59.7232 73.3818 58.9132C73.3818 58.4632 73.6968 58.1482 74.1468 58.1482C74.5518 58.1482 74.9568 58.5082 74.9118 58.9132C74.9118 59.0482 74.9118 59.2282 74.9118 59.3632C74.9118 59.5432 75.0018 59.7232 75.0468 59.8582C75.1368 60.0382 75.2718 60.2632 75.4068 60.4432H75.4518Z"
		fill="#8AC0CC"
	/>
	<path
		d="M96.0618 54.9533C95.8818 55.3583 95.3868 55.4032 95.0268 55.2682C94.6218 55.0882 94.1718 54.9083 93.8118 54.7283C93.8118 54.7283 93.8118 54.7732 93.7218 54.8182C93.7218 54.8632 93.6318 54.9083 93.5868 54.9533C93.4968 55.0883 93.4518 55.1783 93.4068 55.3133C93.4068 55.3583 93.4068 55.4482 93.3618 55.4932C93.3618 55.5382 93.3618 55.6283 93.3618 55.6733C93.3618 55.8083 93.3618 55.9433 93.3618 56.0333C93.3618 56.1233 93.3618 56.1233 93.3618 56.1233C93.3618 56.1683 93.3618 56.2583 93.4068 56.3033C93.5418 56.7083 93.2718 57.1133 92.9118 57.2483C92.5068 57.3833 92.1018 57.1133 91.9668 56.7533C91.6968 55.9433 91.7868 55.0883 92.1468 54.3233C92.3268 54.0083 92.5068 53.6933 92.7768 53.4233C92.6868 53.3333 92.5518 53.1983 92.4618 53.0633C91.7868 52.2083 91.5618 50.8582 92.1918 49.8682C92.4168 49.5082 92.8218 49.3733 93.2268 49.5533C93.5868 49.7333 93.7668 50.2733 93.5418 50.5883C93.5418 50.6333 93.4968 50.6783 93.4518 50.7233C93.4518 50.7233 93.4518 50.7683 93.4518 50.8133C93.4518 50.8583 93.4518 50.9482 93.4518 50.9932C93.4518 51.0382 93.4518 51.0833 93.4518 51.1283C93.4518 51.1733 93.4518 51.2633 93.4518 51.3083C93.4518 51.3983 93.4968 51.4883 93.5418 51.5783C93.5418 51.6233 93.5418 51.6683 93.5868 51.7133C93.6318 51.8033 93.6768 51.8933 93.7668 51.9833C93.7668 51.9833 93.8118 52.0733 93.8568 52.0733C93.9918 52.2083 94.1268 52.3433 94.3068 52.4783C94.5318 52.4783 94.7118 52.6582 94.8468 52.7932C95.2518 53.0182 95.6568 53.1983 96.1068 53.3783C96.5118 53.5133 96.5568 54.0983 96.4218 54.4133L96.0618 54.9533Z"
		fill="#8AC0CC"
	/>
	<path
		d="M112.667 43.1181C112.577 45.5481 113.342 48.0231 114.782 50.0031C116.222 51.9831 118.607 53.9631 121.217 53.8731C123.827 53.7831 122.162 52.2981 121.217 52.3431C119.057 52.4331 117.077 50.5881 115.907 48.9681C114.737 47.3481 114.107 45.1881 114.197 43.1181C114.197 42.1281 112.712 42.1731 112.667 43.1181Z"
		fill="#6A8B91"
	/>
	<path
		d="M224.042 88.2081C224.042 88.2081 223.817 92.618 222.827 93.698C221.792 94.733 212.522 92.9781 212.657 91.5831C212.792 90.1881 217.022 86.498 217.022 86.498L224.042 88.2531V88.2081Z"
		fill="#6A8B91"
	/>
	<path
		d="M188.177 78.758C188.267 78.803 188.402 78.848 188.492 78.758C190.292 78.038 206.447 71.558 220.712 71.198C235.832 70.793 247.352 74.213 247.757 76.328C248.162 78.443 242.402 85.868 225.527 90.098C209.777 94.058 190.967 82.538 188.402 80.918C188.222 80.828 188.042 80.873 187.952 81.008C187.187 82.223 184.172 86.948 180.077 89.873L175.982 92.798C175.757 92.978 175.397 92.798 175.442 92.483C175.757 90.413 176.747 84.833 178.457 82.853C179.717 81.413 180.437 80.603 180.842 80.198C181.247 79.793 180.932 79.703 180.707 79.658C179.717 79.343 177.422 78.533 175.082 76.823C173.552 75.698 172.742 75.023 172.292 74.618C171.842 74.213 172.202 74.033 172.517 74.033C174.767 73.943 181.652 74.033 188.267 78.713L188.177 78.758Z"
		fill="#C5E2D6"
	/>
	<path
		d="M236.057 78.443C237.051 78.443 237.857 77.6371 237.857 76.643C237.857 75.6489 237.051 74.843 236.057 74.843C235.063 74.843 234.257 75.6489 234.257 76.643C234.257 77.6371 235.063 78.443 236.057 78.443Z"
		fill="#274238"
	/>
	<path
		d="M223.187 77.9931C221.432 77.8581 219.677 77.8581 217.922 77.9931C216.167 78.1281 216.257 78.0381 215.627 78.5331C214.997 79.0281 214.727 79.7931 214.637 80.6031C214.547 81.4131 214.682 82.2681 214.862 83.0781C215.042 83.8881 215.222 84.7881 215.402 85.6431C215.582 86.3631 215.987 87.0831 216.842 87.0831C217.652 87.0831 218.507 86.6331 219.227 86.3631C221.027 85.7331 222.782 84.9681 224.537 84.1131C226.292 83.2581 224.987 83.3931 224.807 83.0781C224.582 82.7181 224.132 82.6281 223.772 82.8081C222.152 83.5731 220.532 84.2931 218.822 84.8781C217.112 85.4631 217.967 85.1931 217.562 85.3281C217.157 85.4631 217.022 85.4181 216.977 85.5081C216.887 85.5081 216.887 85.5081 217.022 85.5981C217.022 85.5981 217.022 85.5531 217.022 85.5081C217.022 85.3731 216.887 85.0581 216.887 84.9231C216.842 84.6981 216.797 84.4731 216.752 84.2481C216.662 83.8431 216.572 83.3931 216.482 82.9881C216.347 82.1781 216.122 81.3681 216.302 80.5581C216.347 80.2431 216.437 79.8831 216.707 79.7481C216.977 79.6131 217.382 79.5681 217.697 79.5681C219.542 79.4331 221.432 79.4331 223.277 79.5681C223.682 79.5681 224.042 79.1631 224.042 78.8031C224.042 78.4431 223.682 78.0831 223.277 78.0381L223.187 77.9931Z"
		fill="#8AC0CC"
	/>
	<path
		d="M202.982 78.3979C203.207 78.7129 203.072 79.2529 202.712 79.4329C202.577 79.5229 202.442 79.6129 202.307 79.7029C202.307 79.7029 202.307 79.7029 202.217 79.7479C202.217 79.7929 202.082 79.8829 202.037 79.8829C201.902 79.9729 201.812 80.1079 201.722 80.1979C201.722 80.1979 201.632 80.3329 201.587 80.3779C201.587 80.3779 201.587 80.3779 201.587 80.4229C201.497 80.5579 201.407 80.6929 201.362 80.8279C201.362 80.9179 201.272 80.9629 201.272 81.0529C201.227 81.2329 201.182 81.3679 201.137 81.5029C201.092 81.6379 201.137 81.6829 201.092 81.7279V81.8179C201.092 81.8629 201.092 81.8629 201.092 81.8179C201.047 82.2229 200.777 82.5379 200.372 82.5379C200.192 82.5379 199.967 82.4479 199.832 82.3129C199.697 82.1779 199.562 81.9529 199.607 81.7729C199.697 80.9629 199.922 80.1979 200.372 79.5229C200.822 78.8479 201.407 78.3079 202.082 77.9479C202.442 77.7229 202.892 77.8579 203.117 78.2179L202.982 78.3979Z"
		fill="#8AC0CC"
	/>
	<path
		d="M189.032 80.9179C189.122 81.0979 189.032 81.3229 188.942 81.5029C188.852 81.6829 188.672 81.8179 188.492 81.8629C188.312 81.9079 188.087 81.8629 187.907 81.7729C187.727 81.6829 187.637 81.5029 187.547 81.3229C187.232 80.5579 187.187 79.7029 187.412 78.9379C187.547 78.5329 187.907 78.3079 188.357 78.3979C188.762 78.4879 189.032 78.9379 188.897 79.3429C188.897 79.4779 188.807 79.6579 188.807 79.7929C188.807 79.9729 188.807 80.1529 188.807 80.3329C188.807 80.5579 188.897 80.7829 188.987 80.9629L189.032 80.9179Z"
		fill="#8AC0CC"
	/>
	<path
		d="M210.317 81.098C210.002 81.413 209.552 81.368 209.237 81.098C208.877 80.828 208.517 80.558 208.202 80.243C208.202 80.243 208.157 80.243 208.112 80.288C208.067 80.288 207.977 80.378 207.932 80.378C207.842 80.468 207.752 80.558 207.662 80.648C207.662 80.648 207.617 80.738 207.572 80.783C207.572 80.828 207.527 80.918 207.482 80.963C207.482 81.098 207.392 81.188 207.392 81.323C207.392 81.413 207.392 81.458 207.392 81.458C207.392 81.548 207.392 81.593 207.392 81.638C207.392 82.088 207.032 82.403 206.627 82.403C206.222 82.403 205.862 82.043 205.862 81.638C205.862 80.783 206.132 79.973 206.672 79.343C206.897 79.073 207.212 78.803 207.527 78.668C207.437 78.533 207.392 78.398 207.347 78.263C206.942 77.228 207.077 75.878 207.932 75.113C208.247 74.843 208.697 74.798 209.012 75.113C209.282 75.383 209.327 75.923 209.012 76.193C209.012 76.193 208.922 76.283 208.877 76.328C208.877 76.328 208.877 76.328 208.832 76.373C208.832 76.418 208.787 76.508 208.742 76.553C208.742 76.598 208.742 76.643 208.742 76.688C208.742 76.733 208.742 76.823 208.742 76.868C208.742 76.958 208.742 77.048 208.742 77.138C208.742 77.183 208.742 77.228 208.742 77.273C208.742 77.363 208.787 77.498 208.832 77.588C208.832 77.588 208.832 77.678 208.832 77.723C208.922 77.903 209.012 78.083 209.147 78.263C209.327 78.353 209.507 78.533 209.552 78.713C209.867 79.028 210.272 79.343 210.632 79.613C210.992 79.883 210.902 80.423 210.632 80.693L210.317 81.098Z"
		fill="#8AC0CC"
	/>
	<path
		d="M229.487 74.123C228.722 76.463 228.812 79.028 229.667 81.323C230.522 83.618 232.322 86.1829 234.842 86.7679C235.787 86.9929 236.192 85.508 235.202 85.283C233.132 84.788 231.647 82.493 231.017 80.603C230.342 78.623 230.297 76.508 230.927 74.483C231.242 73.538 229.757 73.178 229.442 74.123H229.487Z"
		fill="#6A8B91"
	/>
	<path
		d="M236.732 52.2979C236.732 52.2979 236.507 56.7079 235.517 57.7879C234.482 58.8229 225.212 57.0679 225.347 55.6729C225.482 54.2779 229.712 50.5879 229.712 50.5879L236.732 52.3428V52.2979Z"
		fill="#6A8B91"
	/>
	<path
		d="M200.867 42.893C200.957 42.938 201.092 42.983 201.182 42.893C202.982 42.173 219.137 35.693 233.402 35.333C248.522 34.928 260.042 38.348 260.447 40.463C260.852 42.578 255.092 50.003 238.217 54.233C222.467 58.193 203.657 46.673 201.092 45.053C200.912 44.963 200.732 45.008 200.642 45.143C199.877 46.358 196.862 51.083 192.767 54.008L188.672 56.933C188.447 57.113 188.087 56.933 188.132 56.618C188.447 54.548 189.437 48.968 191.147 46.988C192.407 45.548 193.127 44.738 193.532 44.333C193.712 44.153 193.622 43.838 193.397 43.793C192.407 43.478 190.112 42.668 187.772 40.958C186.242 39.833 185.432 39.158 184.982 38.753C184.757 38.573 184.892 38.168 185.207 38.168C187.457 38.078 194.342 38.168 200.957 42.848L200.867 42.893Z"
		fill="#C5E2D6"
	/>
	<path
		d="M248.747 42.578C249.741 42.578 250.547 41.7721 250.547 40.778C250.547 39.7839 249.741 38.978 248.747 38.978C247.752 38.978 246.947 39.7839 246.947 40.778C246.947 41.7721 247.752 42.578 248.747 42.578Z"
		fill="#274238"
	/>
	<path
		d="M235.832 42.1281C234.077 41.9931 232.322 41.9931 230.567 42.1281C229.757 42.1731 228.902 42.1731 228.272 42.6681C227.642 43.1631 227.372 43.9281 227.282 44.7381C227.192 45.5931 227.327 46.4031 227.507 47.2131C227.687 48.0231 227.867 48.9231 228.047 49.7781C228.227 50.4981 228.632 51.2181 229.487 51.2181C230.297 51.2181 231.152 50.7681 231.872 50.4981C233.672 49.8681 235.427 49.1031 237.182 48.2481C238.937 47.3931 237.632 47.5281 237.452 47.2131C237.272 46.8981 236.777 46.7631 236.417 46.9431C234.797 47.7081 233.177 48.4281 231.467 49.0131C231.062 49.1481 230.612 49.3281 230.207 49.4631C229.802 49.5981 229.667 49.5531 229.622 49.6431C229.532 49.6431 229.532 49.6431 229.667 49.7331C229.667 49.7331 229.667 49.6881 229.667 49.6431C229.667 49.5081 229.532 49.1931 229.532 49.0581C229.487 48.8331 229.442 48.6081 229.397 48.3831C229.307 47.9781 229.217 47.5281 229.127 47.1231C228.992 46.3131 228.767 45.5031 228.947 44.6931C229.127 43.8831 229.082 44.0181 229.352 43.8831C229.622 43.7481 230.027 43.7031 230.342 43.7031C232.187 43.5681 234.077 43.5681 235.922 43.7031C236.327 43.7031 236.687 43.2981 236.687 42.9381C236.687 42.5781 236.327 42.2181 235.922 42.1731L235.832 42.1281Z"
		fill="#8AC0CC"
	/>
	<path
		d="M215.627 42.488C215.852 42.803 215.717 43.3429 215.357 43.5229C215.222 43.6129 215.087 43.7029 214.952 43.7929C214.952 43.7929 214.952 43.793 214.862 43.838C214.862 43.883 214.727 43.9729 214.682 43.9729C214.547 44.0629 214.456 44.198 214.366 44.288C214.366 44.288 214.277 44.4229 214.232 44.4679C214.232 44.4679 214.232 44.468 214.232 44.513C214.142 44.648 214.052 44.7829 214.007 44.9179C214.007 45.0079 213.916 45.0529 213.916 45.1429C213.871 45.3229 213.827 45.4579 213.782 45.5929C213.737 45.7279 213.782 45.7729 213.737 45.8179V45.908C213.737 45.953 213.737 45.953 213.737 45.908C213.692 46.313 213.421 46.628 213.016 46.628C212.836 46.628 212.612 46.538 212.477 46.403C212.342 46.268 212.207 46.043 212.252 45.863C212.342 45.053 212.566 44.288 213.016 43.613C213.466 42.938 214.052 42.398 214.727 42.038C215.087 41.813 215.537 41.948 215.762 42.308L215.627 42.488Z"
		fill="#8AC0CC"
	/>
	<path
		d="M201.677 45.008C201.767 45.188 201.677 45.4129 201.587 45.5929C201.497 45.7729 201.317 45.9079 201.137 45.9529C200.957 45.9979 200.732 45.953 200.552 45.863C200.372 45.773 200.282 45.593 200.192 45.413C199.877 44.648 199.832 43.7929 200.057 43.0279C200.192 42.6229 200.552 42.398 201.002 42.488C201.407 42.578 201.677 43.028 201.542 43.433C201.542 43.568 201.452 43.748 201.452 43.883C201.452 44.063 201.452 44.2429 201.452 44.4229C201.452 44.6479 201.542 44.8729 201.632 45.0529L201.677 45.008Z"
		fill="#8AC0CC"
	/>
	<path
		d="M223.007 45.1881C222.692 45.5031 222.242 45.4581 221.927 45.1881C221.567 44.9181 221.206 44.6481 220.891 44.3331C220.891 44.3331 220.847 44.3331 220.802 44.3781C220.757 44.3781 220.667 44.4681 220.622 44.4681C220.532 44.5581 220.442 44.6481 220.352 44.7381C220.352 44.7381 220.307 44.8281 220.262 44.8731C220.262 44.9181 220.217 45.0081 220.172 45.0531C220.172 45.1881 220.082 45.2781 220.082 45.4131C220.082 45.5031 220.082 45.5481 220.082 45.5481C220.082 45.6381 220.082 45.6831 220.082 45.7281C220.082 46.1781 219.721 46.4931 219.316 46.4931C218.911 46.4931 218.552 46.1331 218.552 45.7281C218.552 44.8731 218.822 44.0631 219.362 43.4331C219.587 43.1631 219.901 42.8931 220.216 42.7581C220.126 42.6231 220.082 42.4881 220.037 42.3531C219.632 41.3181 219.767 39.9681 220.622 39.2031C220.937 38.9331 221.387 38.8881 221.702 39.2031C221.972 39.4731 222.017 40.0131 221.702 40.2831C221.702 40.2831 221.611 40.3731 221.566 40.4181C221.566 40.4181 221.567 40.4181 221.522 40.4631C221.522 40.5081 221.477 40.5981 221.432 40.6431C221.432 40.6881 221.432 40.7331 221.432 40.7781C221.432 40.8231 221.432 40.9131 221.432 40.9581C221.432 41.0481 221.432 41.1381 221.432 41.2281C221.432 41.2731 221.432 41.3181 221.432 41.3631C221.432 41.4531 221.477 41.5881 221.522 41.6781C221.522 41.6781 221.522 41.7681 221.522 41.8131C221.612 41.9931 221.702 42.1731 221.837 42.3531C222.017 42.4431 222.196 42.6231 222.241 42.8031C222.556 43.1181 222.962 43.4331 223.322 43.7031C223.682 43.9731 223.592 44.5131 223.322 44.7831L223.007 45.1881Z"
		fill="#8AC0CC"
	/>
	<path
		d="M242.176 38.2131C241.411 40.5531 241.502 43.1181 242.357 45.4131C243.212 47.7081 245.012 50.2731 247.532 50.8581C248.477 51.0831 248.881 49.598 247.891 49.373C245.821 48.878 244.337 46.583 243.707 44.693C243.032 42.713 242.986 40.598 243.616 38.573C243.931 37.628 242.447 37.2681 242.132 38.2131H242.176Z"
		fill="#6A8B91"
	/>
	<path
		d="M168.917 17.6031C168.917 17.6031 168.692 22.0131 167.702 23.0931C166.667 24.1281 157.397 22.3731 157.532 20.9781C157.667 19.5831 161.897 15.8931 161.897 15.8931L168.917 17.6481V17.6031Z"
		fill="#6A8B91"
	/>
	<path
		d="M133.052 8.15305C133.142 8.19805 133.277 8.24305 133.367 8.15305C135.167 7.43305 151.322 0.953025 165.587 0.593025C180.707 0.188025 192.227 3.60804 192.632 5.72304C193.037 7.83804 187.277 15.263 170.402 19.493C154.652 23.453 135.842 11.9331 133.277 10.3131C133.097 10.2231 132.917 10.268 132.827 10.403C132.062 11.618 129.047 16.343 124.952 19.268L120.857 22.193C120.632 22.373 120.272 22.193 120.317 21.878C120.632 19.808 121.622 14.228 123.332 12.248C124.592 10.808 125.312 9.99803 125.717 9.59303C126.122 9.18803 125.807 9.09805 125.582 9.05305C124.592 8.73805 122.297 7.92803 119.957 6.21803C118.427 5.09303 117.617 4.41807 117.167 4.01307C116.717 3.60807 117.077 3.42805 117.392 3.42805C119.642 3.33805 126.527 3.42806 133.142 8.10806L133.052 8.15305Z"
		fill="#C5E2D6"
	/>
	<path
		d="M180.932 7.83804C181.926 7.83804 182.732 7.03215 182.732 6.03804C182.732 5.04392 181.926 4.23804 180.932 4.23804C179.938 4.23804 179.132 5.04392 179.132 6.03804C179.132 7.03215 179.938 7.83804 180.932 7.83804Z"
		fill="#274238"
	/>
	<path
		d="M168.017 7.38812C166.262 7.25312 164.507 7.25312 162.752 7.38812C161.942 7.43312 161.087 7.43309 160.457 7.92809C159.827 8.42309 159.557 9.18808 159.467 9.99808C159.377 10.8531 159.512 11.6631 159.692 12.4731C159.872 13.2831 160.052 14.1831 160.232 15.0381C160.412 15.7581 160.817 16.4781 161.672 16.4781C162.482 16.4781 163.337 16.0281 164.057 15.7581C165.857 15.1281 167.612 14.3631 169.367 13.5081C171.122 12.6531 169.817 12.7881 169.637 12.4731C169.457 12.1581 168.962 12.0231 168.602 12.2031C166.982 12.9681 165.362 13.6881 163.652 14.2731C161.942 14.8581 162.797 14.5881 162.392 14.7231C161.987 14.8581 161.852 14.8131 161.807 14.9031C161.717 14.9031 161.717 14.9031 161.852 14.9931C161.852 14.9931 161.852 14.9481 161.852 14.9031C161.852 14.7681 161.717 14.4531 161.717 14.3181C161.672 14.0931 161.627 13.8681 161.582 13.6431C161.492 13.2381 161.402 12.7881 161.312 12.3831C161.177 11.5731 160.952 10.7631 161.132 9.95309C161.177 9.63809 161.267 9.27807 161.537 9.14307C161.807 9.00807 162.212 8.96312 162.527 8.96312C164.372 8.82812 166.262 8.82812 168.107 8.96312C168.512 8.96312 168.872 8.55808 168.872 8.19808C168.872 7.83808 168.512 7.4781 168.107 7.4331L168.017 7.38812Z"
		fill="#8AC0CC"
	/>
	<path
		d="M147.812 7.74799C148.037 8.06299 147.902 8.60301 147.542 8.78301C147.407 8.87301 147.272 8.963 147.137 9.053C147.137 9.053 147.137 9.05299 147.047 9.09799C147.047 9.14299 146.912 9.23301 146.867 9.23301C146.732 9.32301 146.642 9.45799 146.552 9.54799C146.552 9.54799 146.462 9.683 146.417 9.728C146.417 9.728 146.417 9.72799 146.417 9.77299C146.327 9.90799 146.237 10.043 146.192 10.178C146.192 10.268 146.102 10.313 146.102 10.403C146.057 10.583 146.012 10.718 145.967 10.853C145.922 10.988 145.967 11.033 145.922 11.078V11.168C145.922 11.213 145.922 11.213 145.922 11.168C145.877 11.573 145.607 11.888 145.202 11.888C145.022 11.888 144.797 11.798 144.662 11.663C144.527 11.528 144.392 11.303 144.437 11.123C144.527 10.313 144.752 9.54799 145.202 8.87299C145.652 8.19799 146.237 7.65799 146.912 7.29799C147.272 7.07299 147.722 7.20798 147.947 7.56798L147.812 7.74799Z"
		fill="#8AC0CC"
	/>
	<path
		d="M133.862 10.3129C133.952 10.4929 133.862 10.7179 133.772 10.8979C133.682 11.0779 133.502 11.2129 133.322 11.2579C133.142 11.3029 132.917 11.2579 132.737 11.1679C132.557 11.0779 132.467 10.8979 132.377 10.7179C132.062 9.95289 132.017 9.09792 132.242 8.33292C132.377 7.92792 132.737 7.70289 133.187 7.79289C133.592 7.88289 133.862 8.33293 133.727 8.73793C133.727 8.87293 133.637 9.05293 133.637 9.18793C133.637 9.36793 133.637 9.54791 133.637 9.72791C133.637 9.95291 133.727 10.1779 133.817 10.3579L133.862 10.3129Z"
		fill="#8AC0CC"
	/>
	<path
		d="M155.192 10.4481C154.877 10.7631 154.427 10.7181 154.112 10.4481C153.752 10.1781 153.392 9.90806 153.077 9.59306C153.077 9.59306 153.032 9.59311 152.987 9.63811C152.942 9.63811 152.852 9.72809 152.807 9.72809C152.717 9.81809 152.627 9.90807 152.537 9.99807C152.537 9.99807 152.492 10.0881 152.447 10.1331C152.447 10.1781 152.402 10.2681 152.357 10.3131C152.357 10.4481 152.267 10.5381 152.267 10.6731C152.267 10.7631 152.267 10.8081 152.267 10.8081C152.267 10.8981 152.267 10.9431 152.267 10.9881C152.267 11.4381 151.907 11.7531 151.502 11.7531C151.097 11.7531 150.737 11.3931 150.737 10.9881C150.737 10.1331 151.007 9.32306 151.547 8.69306C151.772 8.42306 152.087 8.15306 152.402 8.01806C152.312 7.88306 152.267 7.74811 152.222 7.61311C151.817 6.57811 151.952 5.22811 152.807 4.46311C153.122 4.19311 153.572 4.14811 153.887 4.46311C154.157 4.73311 154.202 5.27306 153.887 5.54306C153.887 5.54306 153.797 5.63308 153.752 5.67808C153.752 5.67808 153.752 5.67807 153.707 5.72307C153.707 5.76807 153.662 5.85808 153.617 5.90308C153.617 5.94808 153.617 5.99311 153.617 6.03811C153.617 6.08311 153.617 6.17306 153.617 6.21806C153.617 6.30806 153.617 6.39811 153.617 6.48811C153.617 6.53311 153.617 6.57807 153.617 6.62307C153.617 6.71307 153.662 6.84811 153.707 6.93811C153.707 6.93811 153.707 7.02807 153.707 7.07307C153.797 7.25307 153.887 7.43311 154.022 7.61311C154.202 7.70311 154.382 7.88311 154.427 8.06311C154.742 8.37811 155.147 8.69311 155.507 8.96311C155.867 9.23311 155.777 9.77306 155.507 10.0431L155.192 10.4481Z"
		fill="#8AC0CC"
	/>
	<path
		d="M174.362 3.51798C173.597 5.85798 173.687 8.42298 174.542 10.718C175.397 13.013 177.197 15.578 179.717 16.163C180.662 16.388 181.067 14.903 180.077 14.678C178.007 14.183 176.522 11.888 175.892 9.99799C175.217 8.01799 175.172 5.903 175.802 3.878C176.117 2.933 174.632 2.57298 174.317 3.51798H174.362Z"
		fill="#6A8B91"
	/>
	<path
		d="M169.412 159.308C169.412 159.308 169.187 163.718 168.197 164.798C167.162 165.833 157.892 164.078 158.027 162.683C158.162 161.288 162.392 157.598 162.392 157.598L169.412 159.353V159.308Z"
		fill="#6A8B91"
	/>
	<path
		d="M133.547 149.858C133.637 149.903 133.772 149.948 133.862 149.858C135.662 149.138 151.817 142.658 166.082 142.298C181.202 141.893 192.722 145.313 193.127 147.428C193.532 149.543 187.772 156.968 170.897 161.198C155.147 165.158 136.337 153.638 133.772 152.018C131.207 150.398 133.412 151.973 133.322 152.108C132.557 153.323 129.542 158.048 125.447 160.973L121.352 163.898C121.127 164.078 120.767 163.898 120.812 163.583C121.127 161.513 122.117 155.933 123.827 153.953C125.087 152.513 125.807 151.703 126.212 151.298C126.617 150.893 126.302 150.803 126.077 150.758C125.087 150.443 122.792 149.633 120.452 147.923C118.922 146.798 118.112 146.123 117.662 145.718C117.212 145.313 117.572 145.133 117.887 145.133C120.137 145.043 127.022 145.133 133.637 149.813L133.547 149.858Z"
		fill="#C5E2D6"
	/>
	<path
		d="M181.427 149.588C182.421 149.588 183.227 148.782 183.227 147.788C183.227 146.794 182.421 145.988 181.427 145.988C180.433 145.988 179.627 146.794 179.627 147.788C179.627 148.782 180.433 149.588 181.427 149.588Z"
		fill="#274238"
	/>
	<path
		d="M168.512 149.093C166.757 148.958 165.002 148.958 163.247 149.093C161.492 149.228 161.582 149.138 160.952 149.633C160.322 150.128 160.052 150.893 159.962 151.703C159.872 152.513 160.007 153.368 160.187 154.178C160.367 154.988 160.547 155.888 160.727 156.743C160.907 157.463 161.312 158.183 162.167 158.183C163.022 158.183 163.832 157.733 164.552 157.463C166.352 156.833 168.107 156.068 169.862 155.213C171.617 154.358 170.312 154.493 170.132 154.178C169.952 153.863 169.457 153.728 169.097 153.908C167.477 154.673 165.857 155.393 164.147 155.978C163.742 156.113 163.292 156.293 162.887 156.428C162.797 156.428 162.347 156.518 162.302 156.608C162.212 156.608 162.212 156.608 162.347 156.698C162.347 156.698 162.347 156.653 162.347 156.608C162.347 156.473 162.212 156.158 162.212 156.023C162.167 155.798 162.122 155.573 162.077 155.348C161.987 154.943 161.897 154.493 161.807 154.088C161.672 153.278 161.447 152.468 161.627 151.658C161.672 151.343 161.762 150.983 162.032 150.848C162.302 150.713 162.707 150.668 163.022 150.668C164.867 150.533 166.757 150.533 168.602 150.668C169.007 150.668 169.367 150.263 169.367 149.903C169.367 149.543 169.007 149.183 168.602 149.138L168.512 149.093Z"
		fill="#8AC0CC"
	/>
	<path
		d="M148.307 149.498C148.532 149.813 148.397 150.353 148.037 150.533C147.902 150.623 147.767 150.713 147.632 150.803C147.632 150.803 147.632 150.803 147.542 150.848C147.542 150.893 147.407 150.983 147.362 150.983C147.227 151.073 147.137 151.208 147.047 151.298C147.047 151.298 146.957 151.433 146.912 151.478C146.912 151.478 146.912 151.478 146.912 151.523C146.822 151.658 146.732 151.793 146.687 151.928C146.687 152.018 146.597 152.063 146.597 152.153C146.552 152.333 146.507 152.468 146.462 152.603C146.417 152.738 146.462 152.783 146.417 152.828V152.918C146.417 152.963 146.417 152.963 146.417 152.918C146.372 153.323 146.102 153.638 145.697 153.638C145.517 153.638 145.292 153.548 145.157 153.413C145.022 153.278 144.887 153.053 144.932 152.873C145.022 152.063 145.247 151.298 145.697 150.623C146.147 149.948 146.732 149.408 147.407 149.048C147.767 148.823 148.217 148.958 148.442 149.318L148.307 149.498Z"
		fill="#8AC0CC"
	/>
	<path
		d="M134.402 152.018C134.492 152.198 134.402 152.423 134.312 152.603C134.222 152.783 134.042 152.918 133.862 152.963C133.682 153.008 133.457 152.963 133.277 152.873C133.097 152.783 133.007 152.603 132.917 152.423C132.602 151.658 132.557 150.803 132.782 150.038C132.917 149.633 133.277 149.408 133.727 149.498C134.132 149.588 134.402 150.038 134.267 150.443C134.267 150.578 134.177 150.758 134.177 150.893C134.177 151.073 134.177 151.253 134.177 151.433C134.177 151.658 134.267 151.883 134.357 152.063L134.402 152.018Z"
		fill="#8AC0CC"
	/>
	<path
		d="M155.687 152.198C155.372 152.513 154.922 152.468 154.607 152.198C154.247 151.928 153.887 151.658 153.572 151.343C153.572 151.343 153.527 151.343 153.482 151.388C153.437 151.388 153.347 151.478 153.302 151.478C153.212 151.568 153.122 151.658 153.032 151.748C153.032 151.748 152.987 151.838 152.942 151.883C152.942 151.928 152.897 152.018 152.852 152.063C152.852 152.198 152.762 152.288 152.762 152.423C152.762 152.513 152.762 152.558 152.762 152.558C152.762 152.648 152.762 152.693 152.762 152.738C152.762 153.188 152.402 153.503 151.997 153.503C151.592 153.503 151.232 153.143 151.232 152.738C151.232 151.883 151.502 151.073 152.042 150.443C152.267 150.173 152.582 149.903 152.897 149.768C152.807 149.633 152.762 149.498 152.717 149.363C152.312 148.328 152.447 146.978 153.302 146.213C153.617 145.943 154.067 145.898 154.382 146.213C154.652 146.483 154.697 147.023 154.382 147.293C154.382 147.293 154.292 147.383 154.247 147.428C154.247 147.428 154.247 147.428 154.202 147.473C154.202 147.518 154.157 147.608 154.112 147.653C154.112 147.698 154.112 147.743 154.112 147.788C154.112 147.833 154.112 147.923 154.112 147.968C154.112 148.058 154.112 148.148 154.112 148.238C154.112 148.283 154.112 148.328 154.112 148.373C154.112 148.463 154.157 148.598 154.202 148.688C154.202 148.688 154.202 148.778 154.202 148.823C154.292 149.003 154.382 149.183 154.517 149.363C154.697 149.453 154.877 149.633 154.922 149.813C155.237 150.128 155.642 150.443 156.002 150.713C156.362 150.983 156.272 151.523 156.002 151.793L155.687 152.198Z"
		fill="#8AC0CC"
	/>
	<path
		d="M174.857 145.223C174.092 147.563 174.182 150.128 175.037 152.423C175.892 154.718 177.692 157.283 180.212 157.868C181.157 158.093 181.562 156.608 180.572 156.383C178.502 155.888 177.017 153.593 176.387 151.703C175.712 149.723 175.667 147.608 176.297 145.583C176.927 143.558 175.127 144.278 174.812 145.223H174.857Z"
		fill="#6A8B91"
	/>
</svg>
