<svg
	width="400"
	height="116"
	viewBox="0 0 400 116"
	fill="none"
	xmlns="http://www.w3.org/2000/svg"
>
	<path
		d="M1.88683 94.0141C10.4973 101.82 73.4873 100.014 105.483 101.427C159.902 103.83 190.496 102.873 220.971 96.6591C219.049 95.7831 211.592 92.9826 197.134 88.7876C156.995 77.6916 102.995 42.0956 73.5863 22.7101C65.0223 17.0651 58.5433 12.7941 55.0998 10.9036C39.8318 2.52157 32.4418 3.58957 39.6838 21.0911C50.6563 56.4826 26.5463 71.2666 9.70282 81.5946C2.86782 85.7856 -1.88067 87.9036 1.88683 94.0141Z"
		fill="#1F5C82"
		stroke="#1F5C82"
		stroke-width="1"
	/>
	<path
		d="M190.464 81.1183C155.621 40.1948 121.736 13.3309 121.736 28.9054C121.736 34.7894 121.211 38.1189 120.891 40.1504C120.519 42.5044 120.423 43.1159 121.736 43.9394C144.943 58.4258 169.346 72.9398 190.464 81.1183Z"
		fill="#2D739E"
	/>
	<path
		d="M257.739 86.9519C295.422 75.2129 324.29 79.678 399.8 115.633C319.049 70.277 306.441 67.9454 227.832 86.9519C220.72 88.6719 212.078 87.8175 202.436 85.1404C198.593 84.0735 194.591 82.7169 190.463 81.1184C169.346 72.9399 144.943 58.426 121.736 43.9395C116.972 40.966 112.259 37.9935 107.635 35.0775C61.6084 6.05097 24.417 -17.4035 34.289 18.9974C44.0035 54.8199 6.21845 80.131 6.21845 80.131C6.21845 80.131 -4.14655 88.5449 1.88695 94.0144C-1.88055 87.9039 2.86794 85.7859 9.70294 81.5949C26.5464 71.267 50.6565 56.4829 39.684 21.0914C32.442 3.58995 39.832 2.52195 55.1 10.9039C58.5435 12.7944 65.0224 17.0655 73.5864 22.7105C102.995 42.096 156.995 77.6919 197.134 88.7879C211.592 92.9829 219.049 95.7835 220.971 96.6595C232.785 94.2505 244.581 91.0514 257.739 86.9519Z"
		fill="#1F5C82"
		stroke="#1F5C82"
		stroke-width="1"
	/>
</svg>
