<svg
  width="330"
  height="98"
  viewBox="0 0 330 98"
  fill="none"
  xmlns="http://www.w3.org/2000/svg"
>
  <path
    fill-rule="evenodd"
    clip-rule="evenodd"
    d="M31.8247 74.7744C35.4947 79.5794 39.1097 84.3094 42.4347 88.8544C55.9297 107.289 72.0197 91.6444 92.9847 70.5394C93.3548 70.1644 93.7297 69.7894 94.1047 69.4094C106.635 56.7894 120.895 42.4244 137.36 32.2894C176.17 18.0444 214.645 29.2594 244.82 38.0594C252.805 40.3895 260.21 42.5445 266.885 44.0195C292.4 49.6495 323.1 38.0395 329.51 28.8145C299.765 48.4645 266.58 36.2644 232.695 23.8044C208.34 14.8494 183.625 5.75947 159.555 8.26947C160.75 -1.56553 116.715 -0.920564 18.9848 3.48444C-18.9002 8.36944 7.63472 43.1044 31.8247 74.7744Z"
    fill="#1F5C82"
  />
  <path
    d="M92.9847 70.5396C138.67 76.7896 144.095 82.5396 137.36 32.2896C120.895 42.4246 106.635 56.7895 94.1047 69.4095C93.7297 69.7895 93.3547 70.1646 92.9847 70.5396Z"
    fill="#1B5172"
  />
</svg>
