<svg
	width="1025"
	height="604"
	viewBox="0 0 1025 604"
	fill="none"
	xmlns="http://www.w3.org/2000/svg"
>
	<path
		d="M520.348 564.409L619.019 419.808L735.812 448.388L703.651 553.288L520.348 564.409Z"
		fill="#326E8F"
	/>
	<path
		d="M735.813 448.388L1009.67 303.787L1187.45 523.945L703.652 553.287L735.813 448.388Z"
		fill="#305A71"
	/>
	<path
		d="M619.019 419.807L911.004 315.56L1009.67 303.787L735.813 448.388L619.019 419.807Z"
		fill="#4B819F"
	/>
	<path
		d="M911.004 315.56L1124.45 135.647L1352 71.7549L1217.08 241.575L1009.67 303.787L911.004 315.56Z"
		fill="#48809F"
	/>
	<path
		d="M1009.67 303.787L1217.08 241.575L1321.37 515.821L1187.45 523.945L1009.67 303.787Z"
		fill="#426881"
	/>
	<path
		d="M827.416 495.623C760.4 405.057 738.243 460.542 822.013 517.53C745.492 510.904 761.976 549.027 818.996 535.37L878.713 507.413C929.123 462.519 903.568 450.883 863.748 497.507C904.046 392.243 852.793 394.847 840.829 494.574C820.336 393.661 786.333 406.807 827.416 495.623Z"
		fill="#389661"
	/>
	<path
		d="M708.487 494.741C690.785 383.475 645.538 422.493 693.591 511.69C628.747 470.522 625.79 511.949 682.685 526.124L748.566 528.854C813.998 512.269 796.688 490.16 739.855 513.168C824.151 438.349 777.475 417.025 720.872 499.994C749.222 401.003 712.991 396.986 708.487 494.741Z"
		fill="#57B762"
	/>
	<path
		d="M652.747 512.852C641.565 442.577 612.989 467.221 643.339 523.557C602.382 497.556 600.515 523.723 636.45 532.677L678.06 534.398C719.386 523.921 708.455 509.961 672.56 524.492C725.801 477.233 696.321 463.766 660.568 516.169C678.477 453.645 655.591 451.11 652.747 512.852Z"
		fill="#389661"
	/>
	<path
		d="M1097.64 153.046L1003.5 528.388H879.673L940.459 287.502L989.988 249.23L1028.26 163.682L1097.64 153.046Z"
		fill="#B8CDCF"
	/>
	<path
		d="M1163.34 183.944L1201.61 528.388H1003.49L1097.64 153.046L1163.34 183.944Z"
		fill="#A4BCBF"
	/>
	<path
		d="M947.214 426.919C947.495 425.644 945.822 424.903 945.068 425.968L941.439 431.071C941.079 431.577 940.39 431.727 939.856 431.411L934.457 428.236C933.331 427.576 932.108 428.936 932.89 429.985L936.62 435.011C936.993 435.509 936.92 436.21 936.454 436.623L931.768 440.774C930.792 441.641 931.707 443.225 932.947 442.808L938.88 440.811C939.467 440.612 940.111 440.9 940.362 441.467L942.861 447.206C943.383 448.405 945.174 448.02 945.157 446.716L945.093 440.455C945.088 439.835 945.558 439.312 946.178 439.252L952.408 438.644C953.707 438.519 953.896 436.7 952.65 436.307L946.676 434.436C946.081 434.25 945.728 433.642 945.862 433.035L947.214 426.919Z"
		fill="#DF4D4D"
	/>
	<path
		d="M976.555 389.129C975.698 387.006 972.548 387.59 972.509 389.878L972.322 400.841C972.303 401.931 971.455 402.826 970.369 402.903L959.428 403.664C957.145 403.822 956.727 406.997 958.891 407.742L969.262 411.306C970.292 411.663 970.88 412.744 970.616 413.801L967.959 424.441C967.405 426.664 970.296 428.041 971.672 426.214L978.269 417.454C978.924 416.584 980.136 416.357 981.059 416.936L990.358 422.752C992.298 423.963 994.503 421.638 993.19 419.767L986.896 410.784C986.271 409.893 986.432 408.67 987.266 407.973L995.671 400.926C997.424 399.456 995.895 396.637 993.707 397.31L983.221 400.521C982.179 400.837 981.067 400.307 980.659 399.298L976.555 389.129Z"
		fill="#B23F5B"
	/>
	<path
		d="M1183.2 395.937C1193.47 391.749 1246.87 426.292 1246.87 507.324L1003.49 525.739C1002.35 513.529 1006.06 483.66 1030.02 461.883C1035.44 431.877 1058.26 376.675 1106.18 395.937C1115.88 384.767 1144.86 369.138 1183.2 395.937Z"
		fill="#E282C4"
	/>
	<path
		d="M1176.41 407.269C1185.48 403.571 1232.64 434.08 1232.64 505.639L1017.7 521.904C1016.7 511.119 1019.97 484.741 1041.13 465.512C1045.92 439.009 1066.07 390.259 1108.39 407.269C1116.96 397.407 1142.55 383.605 1176.41 407.269Z"
		fill="#C769A9"
	/>
	<path
		d="M981.294 452.625C974.609 449.899 939.84 472.389 939.84 525.14L1098.29 537.132C1099.03 529.182 1096.62 509.734 1081.02 495.559C1077.49 476.025 1062.63 440.086 1031.43 452.625C1025.12 445.355 1006.25 435.181 981.294 452.625Z"
		fill="#E282C4"
	/>
	<path
		d="M985.716 460.004C979.812 457.598 949.108 477.459 949.108 524.042L1089.04 534.633C1089.69 527.61 1087.56 510.438 1073.78 497.92C1070.67 480.667 1057.55 448.931 1030 460.004C1024.42 453.584 1007.76 444.597 985.716 460.004Z"
		fill="#C769A9"
	/>
	<path
		d="M990.511 470.947C985.455 468.885 959.158 485.895 959.158 525.792L1079 534.864C1079.56 528.85 1077.74 514.14 1065.94 503.42C1063.27 488.641 1052.03 461.462 1028.44 470.947C1023.66 465.447 1009.39 457.752 990.511 470.947Z"
		fill="#E282C4"
	/>
	<path
		d="M996.583 476.957C992.6 475.329 971.884 488.731 971.884 520.163L1066.29 527.307C1066.74 522.568 1065.3 510.985 1056 502.537C1053.9 490.897 1045.05 469.485 1026.46 476.957C1022.7 472.624 1011.45 466.561 996.583 476.957Z"
		fill="#C769A9"
	/>
	<path
		d="M1001.42 487.77C998.296 486.495 982.029 497.017 982.029 521.697L1056.16 527.307C1056.51 523.589 1055.38 514.488 1048.08 507.858C1046.43 498.718 1039.48 481.902 1024.88 487.77C1021.93 484.368 1013.1 479.606 1001.42 487.77Z"
		fill="#E282C4"
	/>
	<path
		d="M1007.06 493.348C1004.93 492.481 993.846 499.649 993.846 516.469L1044.36 520.292C1044.6 517.757 1043.83 511.556 1038.86 507.037C1037.73 500.808 1033 489.35 1023.05 493.348C1021.04 491.031 1015.02 487.787 1007.06 493.348Z"
		fill="#C769A9"
	/>
	<path
		d="M1011.58 497.815C1010.24 497.272 1003.31 501.759 1003.31 512.281L1034.92 514.675C1035.07 513.087 1034.58 509.207 1031.47 506.38C1030.77 502.484 1027.8 495.316 1021.58 497.815C1020.32 496.365 1016.56 494.336 1011.58 497.815Z"
		fill="#E282C4"
	/>
	<path
		d="M828.846 521.167C547.257 521.167 545.548 555.507 349.313 603.99V635.397H1389.37L1407.96 537.108C1414.16 522.054 1410.09 489.29 1344.21 478.662C1261.85 465.382 1036.66 521.167 828.846 521.167Z"
		fill="#0E2937"
	/>
	<path
		fill-rule="evenodd"
		clip-rule="evenodd"
		d="M845.741 516.919C838.572 499.783 835.851 493.283 820.248 483.117C797.283 468.161 850.276 431.727 870.173 471.741C886.073 503.72 882.125 538.315 879.335 550.837C878.633 553.984 863.469 555.333 860.683 549.776C853.498 535.455 849.124 525.002 845.741 516.919ZM847.181 458.748C842.662 454.395 834.445 456.679 828.539 460.324C823.249 463.592 818.635 469.278 820.836 472.77C823.038 476.261 833.314 475.637 839.267 472.207C844.948 468.934 851.699 463.106 847.181 458.748Z"
		fill="#B23F5B"
	/>
	<path
		d="M828.539 460.324C834.445 456.679 842.662 454.394 847.181 458.748C851.699 463.106 844.948 468.934 839.268 472.206C833.314 475.637 823.038 476.26 820.836 472.769C818.635 469.278 823.249 463.592 828.539 460.324Z"
		fill="#53212E"
	/>
	<path
		d="M856.725 510.41C853.36 500.625 848.196 494.895 838.255 496.308L840.594 498.653L856.152 514.221L856.725 510.41Z"
		fill="#7A2A3C"
	/>
	<path
		fill-rule="evenodd"
		clip-rule="evenodd"
		d="M855.006 552.238C835.638 523.953 834.027 522.439 818.309 514.91C802.591 507.381 828.88 476.439 847.567 499.937C862.517 518.737 866.276 541.567 866.286 550.635C866.289 552.911 857.414 555.754 855.006 552.238ZM831.128 494.562C827.847 492.1 823.245 494.72 820.207 498.001C817.485 500.937 815.491 505.477 817.274 507.632C819.056 509.782 825.109 508.061 828.205 504.922C831.159 501.933 834.41 497.029 831.128 494.562Z"
		fill="#B23F5B"
	/>
	<path
		d="M820.207 498.001C823.245 494.721 827.847 492.1 831.129 494.563C834.411 497.029 831.159 501.934 828.205 504.922C825.109 508.061 819.057 509.782 817.274 507.632C815.492 505.477 817.486 500.937 820.207 498.001Z"
		fill="#53212E"
	/>
	<path
		d="M851.932 543.58C850.419 532.944 851.474 488.062 872.517 476.872L873.943 480.294L857.583 544.491L851.932 543.58Z"
		fill="#7A2A3C"
	/>
	<path
		fill-rule="evenodd"
		clip-rule="evenodd"
		d="M869.208 550.035C880.849 514.577 882.071 512.504 896.211 499.851C910.352 487.199 873.458 462.851 861.073 493.1C851.164 517.299 854.181 542.308 856.928 551.789C857.618 554.17 867.76 554.441 869.208 550.035ZM876.622 482.481C879.302 478.905 884.91 480.249 889.084 482.752C892.822 484.996 896.287 489.131 895.079 491.926C893.871 494.72 887.02 494.757 882.829 492.424C878.831 490.192 873.941 486.057 876.622 482.481Z"
		fill="#B23F5B"
	/>
	<path
		d="M889.084 482.753C884.91 480.25 879.302 478.905 876.622 482.482C873.941 486.058 878.831 490.193 882.829 492.424C887.02 494.757 893.871 494.721 895.08 491.926C896.287 489.132 892.823 484.997 889.084 482.753Z"
		fill="#53212E"
	/>
	<path
		d="M871.856 511.779C876.24 503.658 882.261 504.76 888.272 507.425C883.822 509.883 872.434 536.342 867.6 549.484L865.549 548.472C862.027 530.623 868.554 517.89 871.856 511.779Z"
		fill="#7A2A3C"
	/>
	<path
		fill-rule="evenodd"
		clip-rule="evenodd"
		d="M874.118 553.458C883.275 531.045 884.161 529.761 893.89 522.22C903.62 514.683 880.863 497.24 871.463 516.242C863.942 531.446 864.748 547.768 866.091 554.029C866.429 555.604 872.979 556.244 874.118 553.458ZM882.01 510.086C883.909 507.895 887.476 509.021 890.062 510.832C892.378 512.456 894.431 515.291 893.521 517.044C892.611 518.794 888.176 518.506 885.571 516.801C883.087 515.177 880.112 512.277 882.01 510.086Z"
		fill="#B23F5B"
	/>
	<path
		d="M890.062 510.831C887.475 509.021 883.908 507.895 882.01 510.086C880.112 512.277 883.086 515.177 885.571 516.801C888.176 518.506 892.611 518.794 893.521 517.044C894.43 515.29 892.378 512.455 890.062 510.831Z"
		fill="#53212E"
	/>
	<path
		d="M870.043 550.886C871.443 546.783 876.802 538.384 881.312 537.744L881.139 538.979L872.564 550.525L870.043 550.886Z"
		fill="#7A2A3C"
	/>
	<path
		fill-rule="evenodd"
		clip-rule="evenodd"
		d="M873.44 555.503C884.255 547.569 885.046 547.217 891.825 546.471C898.605 545.726 892.904 530.895 882.96 537.152C875.005 542.162 870.66 550.104 869.483 553.45C869.187 554.292 872.096 556.491 873.44 555.503ZM889.726 537.298C891.257 536.812 892.617 538.38 893.314 539.983C893.939 541.421 894.088 543.353 893.151 543.92C892.213 544.483 890.201 543.061 889.464 541.502C888.761 540.016 888.195 537.784 889.726 537.298Z"
		fill="#B23F5B"
	/>
	<path
		d="M893.315 539.983C892.618 538.379 891.258 536.812 889.727 537.298C888.196 537.784 888.761 540.016 889.465 541.502C890.202 543.061 892.214 544.483 893.151 543.92C894.088 543.353 893.939 541.421 893.315 539.983Z"
		fill="#53212E"
	/>
	<path
		d="M841.165 551.104C833.821 551.242 826.397 558.99 823.803 564.218L870.299 558.743C871.157 558.066 871.951 555.843 868.268 552.336C863.663 547.954 857.877 543.746 841.165 551.104Z"
		fill="#123343"
	/>
	<path
		d="M882.322 549.869C886.928 548.735 892.023 552.348 893.948 555.191L864.521 559.508C863.945 559.229 863.32 557.965 865.424 555.159C868.054 551.647 871.435 548.047 882.322 549.869Z"
		fill="#123343"
	/>
	<path
		fill-rule="evenodd"
		clip-rule="evenodd"
		d="M1013.95 219.786C1017.12 216.979 1022.98 217.769 1026.3 217.83C1028.64 218.498 1030 219.818 1030.6 221.588L1022.75 221.11L1030.86 222.609C1031.1 223.97 1030.98 225.537 1030.58 227.238L1021.11 225.169L1030.17 228.741C1029.64 230.446 1028.86 232.26 1027.92 234.111L1017.37 230.43L1027.2 235.464C1026.32 237.08 1025.32 238.712 1024.25 240.32L1015.65 236.314L1023.25 241.79C1022.51 242.847 1021.75 243.892 1020.97 244.904L1012.75 239.619L1019.82 246.374C1018.92 247.5 1018.02 248.578 1017.12 249.594L1009.04 243.402L1016.14 250.692C1014.88 252.073 1013.66 253.308 1012.54 254.341L1006.35 246.978L1011.39 255.353C1009.19 257.22 1007.52 258.099 1006.94 257.467C1004.92 255.276 1001.08 251.283 999.587 247.026C998.099 242.774 1010 223.293 1013.95 219.786ZM1013.03 234.978C1010.09 240.02 1003.83 247.707 1001.82 245.82C1000.03 244.131 1003.39 238.651 1006.24 234.002C1006.58 233.443 1006.92 232.896 1007.24 232.369L1007.43 232.05C1010.27 227.335 1014.33 220.6 1017.95 220.819C1021.3 221.021 1016.9 228.449 1013.92 233.479C1013.6 234.01 1013.3 234.512 1013.03 234.978Z"
		fill="#D9D9D9"
	/>
	<path
		fill-rule="evenodd"
		clip-rule="evenodd"
		d="M1011.39 255.353C1011.76 255.041 1012.14 254.705 1012.54 254.341L1006.35 246.978L1011.39 255.353ZM1009.04 243.402L1016.14 250.692C1016.46 250.335 1016.79 249.971 1017.12 249.594L1009.04 243.402ZM1012.75 239.619L1019.82 246.374C1020.21 245.892 1020.59 245.402 1020.97 244.904L1012.75 239.619ZM1015.65 236.314L1023.25 241.79C1023.59 241.304 1023.92 240.81 1024.25 240.319L1015.65 236.314ZM1017.37 230.429L1027.2 235.464C1027.45 235.01 1027.69 234.56 1027.92 234.111L1017.37 230.429ZM1021.11 225.168L1030.17 228.741C1030.33 228.23 1030.47 227.728 1030.58 227.238L1021.11 225.168ZM1022.75 221.11L1030.86 222.609C1030.8 222.252 1030.71 221.912 1030.6 221.588L1022.75 221.11Z"
		fill="#A0A0A0"
	/>
	<path
		d="M1001.82 245.819C1003.83 247.707 1010.09 240.02 1013.03 234.978C1013.3 234.512 1013.6 234.01 1013.92 233.479C1016.9 228.449 1021.3 221.021 1017.95 220.819C1014.33 220.6 1010.27 227.335 1007.43 232.049L1007.24 232.369C1006.92 232.896 1006.58 233.443 1006.24 234.001C1003.39 238.651 1000.03 244.131 1001.82 245.819Z"
		fill="#2E2E2E"
	/>
	<path
		d="M525.933 376.045C565.764 414.438 592.434 479.889 598.073 506.622H589.978C583.81 463.561 563.604 425.049 520.046 379.725C439.108 316.446 344.962 233.649 369.243 214.517C393.524 195.385 491.35 254.64 525.933 376.045Z"
		fill="#57B762"
	/>
	<path
		d="M501.368 411.263C542.345 431.789 579.048 476.658 589.816 496.24L583.309 498.179C568.308 465.938 543.083 440.618 497.495 415.555C417.671 385.383 322.676 343.088 337.732 322.294C352.793 301.5 445.253 324.478 501.368 411.263Z"
		fill="#389661"
	/>
	<path
		d="M580.663 371.263C601.793 417.491 602.204 481.512 597.836 505.777L590.847 502.874C600.399 464.832 596.261 425.542 574.31 372.21C526.289 290.538 473.609 187.887 501.187 180.672C528.761 173.462 592.754 257.847 580.663 371.263Z"
		fill="#389661"
	/>
	<path
		d="M571.873 395.559C592.731 430.454 599.159 482.206 598.073 502.361L592.355 500.845C596.162 468.927 589.192 437.629 567.02 397.083C521.847 336.711 471.046 259.912 491.824 250.798C512.602 241.684 570.464 302.353 571.873 395.559Z"
		fill="#57B762"
	/>
	<path
		d="M526.68 447.233C553.527 458.321 578.002 484.58 585.287 496.24L581.105 497.682C570.878 478.38 554.147 463.734 524.243 450.024C472.096 434.466 409.939 412.018 419.353 398.627C428.763 385.233 488.973 395.875 526.68 447.233Z"
		fill="#57B762"
	/>
	<path
		d="M141.226 533.623C177.31 486.199 189.03 447.548 177.496 435.371L141.55 416.488C145.712 449.258 144.535 489.788 126.067 509.441C134.924 462.214 129.688 426.814 125.961 415.015L112.61 414.071C118.229 445.456 118.813 463.663 118.403 468.844C109.518 454.036 106.975 431.99 106.813 422.817L90.8285 422.944C93.2689 435.829 101.763 465.294 116.215 480.078C116.164 494.013 110.73 505.034 108.021 508.801C82.3111 472.264 78.4255 434.202 79.697 419.741C73.5527 413.779 57.7459 404.144 43.637 413.273C50.8198 442.628 71.0216 503.941 94.3666 514.361C93.7703 516.802 91.1128 521.611 85.2805 521.355C75.2191 512.292 50.9659 478.736 34.4207 417.029C28.537 417.234 16.4301 422.288 15.0915 440.887C16.7539 444.966 47.7635 509.508 67.7204 523.945C49.8247 514.014 18.8981 490.369 7.31642 456.966C6.4319 458.052 3.93231 461.357 1.01418 465.914C-2.63446 471.612 27.2023 511.641 43.9095 518.464C37.2558 518.413 20.9633 514.883 9.01436 501.184C7.70732 505.793 5.72904 515.779 8.26809 518.883C11.2454 522.527 44.1622 544.289 64.3877 542.378C50.3341 544.751 26.0414 547.175 17.5239 541.604C19.5615 549.091 26.46 565.588 37.7297 571.673C39.2026 571.073 107.342 546.058 141.226 533.623Z"
		fill="#2E2791"
	/>
	<path
		d="M342.561 494.681C339.09 245.416 184.722 94.6526 308.543 486.088L342.561 494.681Z"
		fill="#B23F5B"
	/>
	<path
		d="M310.063 494.329C285.257 333.264 127.493 196.55 276.041 485.737L310.063 494.329Z"
		fill="#B23F5B"
	/>
	<path
		d="M369.579 469.172C412.995 317.086 315.793 150.417 339.833 452.074L369.579 469.172Z"
		fill="#B23F5B"
	/>
	<path
		d="M187.123 515.392C131.469 507.029 98.0903 488.568 97.885 472.73L109.798 436.279C128.547 461.215 156.026 487.885 181.472 489.034C144.385 462.886 124.626 435.462 119.386 425.021L127.805 415.592C144.658 440.544 156.247 453.263 159.936 456.501C156.208 440.623 143.414 424.018 137.483 417.7L148.397 407.264C155.225 417.597 168.868 443.142 168.812 462.668C178.025 472.07 188.959 475.956 193.271 476.722C186.629 435.059 164.208 406.723 153.827 397.767C154.06 389.688 158.423 372.752 173.989 369.652C188.45 394.256 215.127 449.077 206.179 471.502C208.189 472.762 213.153 474.27 216.936 470.258C217.781 457.496 212.118 418.806 182.7 366.126C186.823 362.39 198.349 357.845 211.498 369.557C213.058 373.415 234.543 437.539 230.531 460.453C236.111 441.945 241.493 405.574 227.349 375.33C228.66 375.48 232.53 376.076 237.505 377.241C243.728 378.698 249.872 425.444 243.049 441.065C247.519 436.65 256.23 423.536 255.306 406.391C259.223 408.654 267.136 414.115 267.464 417.886C267.843 422.312 259.878 458.72 244.925 470.74C256.001 463.099 274.051 448.745 276.151 439.363C279.697 445.776 285.885 461.492 282.26 473.034C280.866 473.595 218.255 501.508 187.123 515.392Z"
		fill="#7E2FB2"
	/>
	<path
		fill-rule="evenodd"
		clip-rule="evenodd"
		d="M520.907 608.274H618.283V439.493L462.485 374.58L502.201 533.438L520.907 608.274Z"
		fill="#8BA5A7"
	/>
	<path
		fill-rule="evenodd"
		clip-rule="evenodd"
		d="M84.5934 548.238C103.551 520.225 123.248 491.111 124.827 476.607L462.485 374.58L502.201 533.438L171.956 591.788L114.778 608.274H49.2837C52.3953 595.828 68.2179 572.443 84.5934 548.238Z"
		fill="#A4BCBF"
	/>
	<path
		d="M520.907 608.275L502.202 533.438L171.956 591.789L114.778 608.275H520.907Z"
		fill="#6C898B"
	/>
	<path
		opacity="0.4"
		d="M243.008 518.587C316.062 493.579 370.348 458.888 364.26 441.103C358.172 423.319 294.015 429.174 220.961 454.182C147.907 479.19 93.621 513.881 99.7091 531.665C105.797 549.45 169.954 543.595 243.008 518.587Z"
		fill="#455D5F"
	/>
	<path
		d="M541.558 654.593C439.211 636.311 374.952 598.067 371.201 565.928L384.935 492.248C424.146 543.282 479.492 598.047 525.712 600.981C453.118 547.045 411.557 490.945 399.857 469.634L413.058 450.704C448.841 501.725 472.499 527.799 479.851 534.46C469.723 502.156 443.061 468.165 430.997 455.205L448.482 434.292C463.025 455.418 493.139 507.569 497.21 547.183C515.86 566.477 536.445 574.619 544.405 576.282C523.501 491.585 476.933 433.566 456.261 415.145C454.962 398.758 459.231 364.506 486.69 358.575C518.071 408.843 577.989 520.703 566.609 565.991C570.506 568.59 579.802 571.772 585.78 563.717C584.584 537.845 566.084 459.209 501.676 351.633C508.322 344.15 528.18 335.199 554.439 359.274C558.084 367.14 610.606 497.745 608.249 544.143C614.381 506.724 616.332 433.057 584.311 371.357C586.716 371.697 593.836 372.996 603.076 375.48C614.626 378.58 635.712 473.571 626.725 505.105C633.86 496.252 646.8 469.847 641.462 435.043C649.023 439.722 664.491 450.988 665.885 458.648C667.519 467.644 660.901 541.319 636.451 565.355C654.836 550.113 684.377 521.418 686.169 502.436C693.948 515.53 708.488 547.558 704.401 570.888C702.008 572.001 594.839 627.153 541.558 654.593Z"
		fill="#F18150"
	/>
	<path
		fill-rule="evenodd"
		clip-rule="evenodd"
		d="M416.048 389.597C425.189 387.129 436.159 394.56 442.757 398.004C446.769 401.668 448.179 405.676 447.626 409.826L432.36 401.032L447.128 412.132C446.244 415.102 444.439 418.126 441.944 421.135L425.019 407.524L439.618 423.734C436.846 426.624 433.485 429.483 429.746 432.255L412.265 414.343L426.958 434.253C423.578 436.607 419.945 438.881 416.198 441.037L402.946 424.425L412.715 442.988C410.18 444.374 407.609 445.701 405.046 446.956L393.836 428.16L401.268 448.757C398.345 450.119 395.451 451.379 392.647 452.52L382.626 432.034L389.571 453.74C385.666 455.249 381.986 456.504 378.712 457.456L373.658 436.524L375.403 458.344C369.117 459.884 364.896 459.975 364.363 458.135C362.511 451.726 358.787 439.88 360.05 429.866C361.314 419.852 404.616 392.685 416.048 389.597ZM399.036 419.133C388.106 426.3 367.869 435.461 365.737 429.673C363.833 424.508 376.039 416.875 386.393 410.399C387.636 409.617 388.857 408.855 390.022 408.116L390.724 407.666C401.129 401.06 415.996 391.611 423.029 395.658C429.533 399.405 413.299 409.901 402.302 417.009C401.145 417.759 400.043 418.47 399.036 419.133Z"
		fill="#D9D9D9"
	/>
	<path
		fill-rule="evenodd"
		clip-rule="evenodd"
		d="M375.403 458.345C376.45 458.088 377.555 457.792 378.712 457.456L373.658 436.524L375.403 458.345ZM382.625 432.034L389.571 453.741C390.582 453.35 391.609 452.943 392.647 452.52L382.625 432.034ZM393.836 428.161L401.267 448.757C402.523 448.177 403.783 447.577 405.046 446.957L393.836 428.161ZM402.946 424.425L412.715 442.988C413.884 442.352 415.045 441.701 416.198 441.038L402.946 424.425ZM412.265 414.344L426.958 434.254C427.91 433.594 428.838 432.927 429.746 432.256L412.265 414.344ZM425.019 407.524L439.618 423.734C440.447 422.869 441.225 422.005 441.944 421.136L425.019 407.524ZM432.36 401.033L447.128 412.133C447.357 411.363 447.527 410.593 447.626 409.827L432.36 401.033Z"
		fill="#A0A0A0"
	/>
	<path
		d="M365.737 429.673C367.869 435.462 388.106 426.301 399.037 419.134C400.044 418.47 401.145 417.759 402.302 417.009C413.299 409.901 429.533 399.406 423.029 395.658C415.996 391.611 401.129 401.06 390.725 407.666L390.022 408.117C388.857 408.855 387.637 409.617 386.393 410.399C376.039 416.875 363.834 424.508 365.737 429.673Z"
		fill="#2E2E2E"
	/>
	<path
		fill-rule="evenodd"
		clip-rule="evenodd"
		d="M366.795 471.095C371.253 469.891 376.6 473.516 379.818 475.194C381.776 476.979 382.464 478.933 382.191 480.959L374.748 476.671L381.95 482.08C381.52 483.53 380.639 485.002 379.423 486.471L371.17 479.834L378.29 487.739C376.935 489.145 375.297 490.543 373.472 491.893L364.951 483.158L372.118 492.868C370.467 494.014 368.694 495.123 366.87 496.174L360.41 488.075L365.172 497.125C363.936 497.8 362.68 498.448 361.432 499.06L355.967 489.895L359.592 499.941C358.163 500.6 356.753 501.216 355.387 501.773L350.498 491.783L353.886 502.369C351.983 503.104 350.19 503.716 348.591 504.178L346.127 493.974L346.98 504.612C343.916 505.362 341.855 505.41 341.598 504.509C340.694 501.386 338.877 495.609 339.493 490.728C340.109 485.844 361.223 472.599 366.795 471.095ZM358.503 485.496C353.172 488.991 343.304 493.457 342.265 490.633C341.337 488.114 347.288 484.394 352.338 481.235C352.943 480.856 353.539 480.485 354.108 480.122L354.451 479.905C359.521 476.682 366.771 472.074 370.199 474.049C373.37 475.877 365.456 480.995 360.094 484.462C359.529 484.825 358.992 485.172 358.503 485.496Z"
		fill="#D9D9D9"
	/>
	<path
		fill-rule="evenodd"
		clip-rule="evenodd"
		d="M346.98 504.612C347.489 504.486 348.026 504.344 348.591 504.178L346.127 493.974L346.98 504.612ZM350.498 491.783L353.886 502.369C354.38 502.18 354.881 501.978 355.387 501.773L350.498 491.783ZM355.967 489.895L359.592 499.941C360.2 499.657 360.816 499.36 361.432 499.06L355.967 489.895ZM360.41 488.075L365.172 497.125C365.74 496.813 366.305 496.498 366.87 496.174L360.41 488.075ZM364.951 483.159L372.118 492.869C372.58 492.545 373.03 492.221 373.472 491.893L364.951 483.159ZM371.17 479.834L378.29 487.739C378.692 487.317 379.071 486.894 379.423 486.472L371.17 479.834ZM374.747 476.671L381.95 482.081C382.061 481.706 382.144 481.33 382.191 480.959L374.747 476.671Z"
		fill="#A0A0A0"
	/>
	<path
		d="M342.265 490.634C343.304 493.457 353.172 488.991 358.502 485.496C358.992 485.172 359.529 484.825 360.094 484.462C365.456 480.995 373.369 475.877 370.199 474.049C366.771 472.074 359.521 476.683 354.451 479.905L354.107 480.122C353.539 480.485 352.943 480.856 352.338 481.235C347.288 484.394 341.337 488.114 342.265 490.634Z"
		fill="#2E2E2E"
	/>
	<path
		d="M198.159 533.193C197.524 530.31 201.307 528.632 203.016 531.041L211.218 542.583C212.031 543.728 213.587 544.06 214.799 543.349L227.005 536.174C229.552 534.678 232.316 537.754 230.555 540.127L222.116 551.491C221.275 552.621 221.441 554.204 222.492 555.136L233.09 564.526C235.297 566.489 233.224 570.066 230.425 569.127L217.007 564.609C215.676 564.163 214.219 564.807 213.658 566.094L208 579.073C206.819 581.782 202.775 580.917 202.807 577.964L202.953 563.804C202.969 562.398 201.907 561.217 200.505 561.079L186.412 559.709C183.474 559.424 183.048 555.31 185.867 554.425L199.376 550.192C200.718 549.77 201.516 548.392 201.212 547.021L198.159 533.193Z"
		fill="#DF4D4D"
	/>
	<path
		d="M240.944 496.166C241.884 494.369 244.613 495.163 244.447 497.181L243.653 506.867C243.574 507.83 244.245 508.691 245.197 508.853L254.777 510.48C256.775 510.82 256.87 513.659 254.895 514.125L245.438 516.364C244.498 516.585 243.886 517.489 244.024 518.445L245.438 528.06C245.734 530.066 243.065 531.029 242.01 529.296L236.956 520.996C236.455 520.17 235.408 519.866 234.543 520.293L225.836 524.609C224.02 525.509 222.279 523.266 223.597 521.73L229.935 514.362C230.563 513.627 230.527 512.537 229.852 511.846L223.056 504.9C221.639 503.451 223.234 501.102 225.106 501.884L234.073 505.631C234.962 506.002 235.989 505.631 236.439 504.778L240.944 496.166Z"
		fill="#B23F5B"
	/>
	<path
		d="M168.903 575.248C167.754 560.313 152.054 571.034 135.588 589.033C129.838 581.601 163.067 556.1 139.035 556.1C129.08 556.1 130.612 571.8 126.782 591.331C120.653 584.819 130.612 568.353 115.295 568.353C99.9739 568.353 105.336 576.014 122.952 595.161C108.357 583.339 92.3172 589.033 93.8493 595.161C95.3814 601.286 105.336 598.987 122.952 602.052C119.121 605.499 86.5717 598.221 86.9548 613.539C87.3378 628.86 108.4 616.603 126.782 605.499C128.314 608.946 111.465 630.005 132.906 630.005C145.546 630.005 135.588 619.284 132.906 605.499C143.631 606.648 151.288 624.263 166.222 616.603C181.16 608.946 151.288 602.052 135.588 602.052C152.054 597.072 180.789 606.225 175.798 589.033C172.35 577.163 139.418 601.286 139.035 595.161C138.652 589.033 170.052 590.182 168.903 575.248Z"
		fill="#F8FF93"
	/>
	<path
		d="M82.0147 518.977C69.8763 516.707 75.0649 531.495 85.8806 548.443C78.7373 551.436 65.5248 519.538 60.3953 538.674C58.2709 546.603 71.1004 548.731 85.8332 555.946C79.3414 559.436 68.356 547.997 65.0864 560.191C61.8208 572.388 69.0629 569.754 88.0642 559.811C75.5388 568.913 76.6524 582.896 81.8568 582.987C87.0613 583.073 87.3574 574.655 93.553 561.284C95.48 565.067 82.7413 589.431 95.0219 592.393C107.299 595.358 102.035 575.974 97.1148 558.97C100.183 558.485 113.36 576.396 117.933 559.322C120.63 549.26 109.968 554.899 98.4218 554.09C101.624 545.801 117.281 543.46 114.371 529.935C111.461 516.411 99.5985 538.721 96.25 551.223C95.7998 537.051 109.214 516.126 94.4612 516.431C84.2734 516.64 96.4553 548.009 91.4957 547.006C86.5361 546.007 94.1492 521.248 82.0147 518.977Z"
		fill="#F8FF93"
	/>
	<path
		d="M51.3882 559.603C39.2537 557.332 44.4424 572.12 55.258 589.068C48.1147 592.061 34.8982 560.163 29.7728 579.299C27.6483 587.224 40.4778 589.356 55.2106 596.571C48.7188 600.061 37.7335 588.622 34.4639 600.816C31.1983 613.013 38.4363 610.376 57.4416 600.437C44.9162 609.538 46.0258 623.521 51.2303 623.608C56.4387 623.695 56.7309 615.28 62.9304 601.909C64.8574 605.692 52.1187 630.056 64.3954 633.018C76.672 635.983 71.4123 616.599 66.4882 599.595C69.5604 599.11 82.7334 617.017 87.31 599.943C90.007 589.882 79.3454 595.524 67.7953 594.715C70.9977 586.423 86.6584 584.085 83.7482 570.56C80.834 557.036 68.976 579.346 65.6235 591.848C65.1733 577.672 78.5912 556.748 63.8347 557.056C53.6509 557.265 65.8328 588.634 60.8731 587.631C55.9135 586.628 63.5267 561.873 51.3882 559.603Z"
		fill="#F8FF93"
	/>
	<path
		d="M108.392 580.914C100.455 586.347 111.46 591.639 126.758 595.019C124.472 600.602 99.6182 590.308 107.334 603.675C110.533 609.215 118.774 603.319 130.865 599.177C129.21 604.677 116.854 604.425 121.775 612.946C126.691 621.464 129.23 616.022 134.225 600.077C132.338 611.991 140.654 619.083 143.568 616.263C146.486 613.444 142.008 608.646 138.055 597.866C141.202 598.889 147.607 619.327 156.006 614.198C164.401 609.065 150.822 601.286 138.742 594.628C140.168 592.669 157.294 595.28 150.407 583.35C146.352 576.322 143.584 585.301 136.776 591.22C133.972 584.886 141.309 574.971 132.255 569.123C123.2 563.279 128.957 582.103 134 590.837C125.944 583.275 121.806 564.357 113.846 572.653C108.349 578.383 132.345 588.954 129.06 591.133C125.775 593.313 116.329 575.48 108.392 580.914Z"
		fill="#FFB793"
	/>
	<path
		d="M73.6198 568.365C76.2536 575.844 82.8124 568.211 88.7632 556.751C92.7238 559.764 79.227 577.356 91.5155 574.063C96.6054 572.7 93.6715 564.882 92.9528 554.37C96.9766 556.858 94.1453 566.643 101.976 564.546C109.81 562.445 106.019 559.263 94.3862 551.886C103.468 555.93 110.892 550.824 109.269 547.898C107.646 544.976 102.868 547.515 93.4425 548.364C94.9272 546.074 112.57 545.335 110.276 537.556C107.982 529.777 98.8878 538.927 91.014 547.124C89.7583 545.572 95.4879 532.494 84.5223 535.432C78.0581 537.165 84.621 541.284 87.8787 547.965C82.2399 548.846 75.91 540.889 69.3235 546.852C62.7331 552.814 78.9506 552.246 86.9823 550.094C79.2428 554.895 63.2977 554.153 68.206 562.26C71.594 567.859 85.1264 551.01 86.1609 554.09C87.1995 557.17 70.9859 560.886 73.6198 568.365Z"
		fill="#FFB793"
	/>
	<path
		d="M42.9933 608.989C45.6271 616.468 52.186 608.835 58.1407 597.376C62.0974 600.389 48.6005 617.98 60.889 614.687C65.9829 613.325 63.0451 605.506 62.3303 594.995C66.3541 597.482 63.5189 607.267 71.3532 605.167C79.1836 603.07 75.3928 599.887 63.7637 592.511C72.8459 596.554 80.2656 591.445 78.6427 588.523C77.0197 585.601 72.2457 588.14 62.82 588.985C64.3047 586.698 81.9438 585.96 79.6496 578.181C77.3553 570.402 68.2653 579.551 60.3876 587.749C59.1319 586.197 64.8615 573.119 53.8958 576.057C47.4357 577.786 53.9945 581.905 57.2562 588.59C51.6134 589.47 45.2836 581.514 38.6971 587.476C32.1106 593.439 48.3281 592.87 56.3559 590.718C48.6203 595.52 32.6713 594.778 37.5796 602.884C40.9676 608.484 54.5039 591.634 55.5385 594.714C56.5731 597.794 40.3595 601.51 42.9933 608.989Z"
		fill="#FFB793"
	/>
	<path
		d="M212.147 477.614C253.803 470.61 284.987 449.556 281.797 430.587C278.608 411.619 242.254 401.919 200.599 408.922C158.943 415.925 127.76 436.98 130.949 455.948C134.138 474.917 170.492 484.617 212.147 477.614Z"
		fill="#FFD9A3"
	/>
	<path
		fill-rule="evenodd"
		clip-rule="evenodd"
		d="M90.6388 372.27C88.3288 362.319 94.5085 344.526 87.7996 346.492C66.5553 352.719 75.4124 403.382 98.1611 416.851C92.9922 399.358 120.262 398.797 123.5 407.71C131.591 386.789 121.238 360.475 111.974 356.81C107.997 355.235 108.882 360.155 110.027 366.536C111.717 375.926 113.972 388.475 102.153 388.163C96.8225 388.025 93.1147 382.939 90.6388 372.27Z"
		fill="#DF4D4D"
	/>
	<path
		d="M98.1615 416.851C105.04 420.922 110.276 420.231 118.707 415.524C121.842 413.775 122.624 413.408 123.501 407.71C120.263 398.797 92.9925 399.358 98.1615 416.851Z"
		fill="#E97D7D"
	/>
	<path
		fill-rule="evenodd"
		clip-rule="evenodd"
		d="M276.554 343.27C275.484 333.11 263.823 318.318 270.809 317.982C292.922 316.92 301.115 367.693 284.025 387.859C283.188 369.636 257.233 378.027 257.087 387.508C242.599 370.382 243.779 342.129 251.333 335.637C254.579 332.849 255.349 337.785 256.352 344.194C257.829 353.616 259.799 366.216 270.868 362.054C275.859 360.179 277.703 354.161 276.554 343.27Z"
		fill="#DF4D4D"
	/>
	<path
		d="M284.025 387.859C278.856 393.956 273.679 395.014 264.174 393.324C260.636 392.696 259.779 392.606 257.086 387.508C257.233 378.027 283.188 369.636 284.025 387.859Z"
		fill="#E97D7D"
	/>
	<path
		d="M100.918 408.713C96.0291 416.03 100.479 427.908 128.587 436.994C135.607 440.086 147.027 441.602 136.524 422.936C123.39 399.603 105.81 401.392 100.918 408.713Z"
		fill="#DF4D4D"
	/>
	<path
		d="M278.753 381.067C285.77 386.386 285.447 399.066 261.857 416.843C256.23 422.059 245.935 427.228 249.758 406.154C254.54 379.808 271.741 375.752 278.753 381.067Z"
		fill="#DF4D4D"
	/>
	<path
		d="M210.252 466.34C256.532 458.56 291.464 436.875 288.275 417.906C285.085 398.937 244.983 389.868 198.703 397.649C152.423 405.429 117.491 427.114 120.68 446.083C123.869 465.051 163.972 474.121 210.252 466.34Z"
		fill="#DF4D4D"
	/>
	<path
		fill-rule="evenodd"
		clip-rule="evenodd"
		d="M178.27 395.37C174.419 395.287 171.043 392.483 170.384 388.542C169.634 384.088 172.639 379.867 177.093 379.117C181.551 378.37 185.772 381.375 186.518 385.83C187.182 389.77 184.911 393.526 181.298 394.86L182.451 401.715L179.423 402.225L178.27 395.37ZM210.669 389.921C206.819 389.842 203.443 387.038 202.783 383.097C202.033 378.639 205.038 374.422 209.492 373.671C213.95 372.921 218.172 375.926 218.918 380.384C219.581 384.321 217.311 388.077 213.698 389.415L214.851 396.27L211.822 396.776L210.669 389.921Z"
		fill="#E97D7D"
	/>
	<path
		fill-rule="evenodd"
		clip-rule="evenodd"
		d="M321.767 415.184C307.864 406.371 289.885 407.966 268.396 421.739C264.175 424.444 262.943 430.063 265.652 434.285C268.357 438.51 273.976 439.738 278.197 437.033C296.594 425.242 306.513 427.023 312.042 430.525C318.715 434.758 323.449 444.054 326.324 455.039C327.596 459.892 332.559 462.795 337.412 461.523C342.265 460.252 345.168 455.288 343.896 450.435C340.753 438.435 334.526 423.275 321.767 415.184Z"
		fill="#DF4D4D"
	/>
	<path
		fill-rule="evenodd"
		clip-rule="evenodd"
		d="M284.116 420.804C275.401 420.121 266.639 423.627 257.995 430.466C254.058 433.578 253.395 439.292 256.506 443.225C259.618 447.158 265.332 447.825 269.265 444.713C275.748 439.58 280.088 438.707 282.69 438.913C285.241 439.114 287.982 440.496 290.991 443.92C297.384 451.205 301.885 464.22 304.634 475.648C305.81 480.525 310.715 483.526 315.591 482.353C320.468 481.18 323.469 476.276 322.296 471.399C319.497 459.762 314.213 442.842 304.641 431.935C299.666 426.269 292.878 421.495 284.116 420.804Z"
		fill="#DF4D4D"
	/>
	<path
		fill-rule="evenodd"
		clip-rule="evenodd"
		d="M106.904 481.82C109.613 465.583 122.798 453.255 147.394 446.439C152.228 445.101 157.231 447.932 158.569 452.765C159.912 457.598 157.077 462.606 152.243 463.944C131.189 469.78 125.897 478.357 124.819 484.813C123.52 492.604 127.283 502.338 133.546 511.807C136.31 515.993 135.161 521.627 130.979 524.392C126.794 527.16 121.159 526.011 118.395 521.825C111.552 511.475 104.416 496.723 106.904 481.82Z"
		fill="#DF4D4D"
	/>
	<path
		fill-rule="evenodd"
		clip-rule="evenodd"
		d="M136.212 457.523C141.515 450.577 149.973 446.387 160.836 444.512C165.78 443.659 170.479 446.976 171.332 451.916C172.185 456.859 168.868 461.558 163.928 462.411C155.778 463.821 152.232 466.471 150.648 468.544C149.096 470.577 148.295 473.543 148.84 478.068C150.001 487.691 156.694 499.727 163.371 509.401C166.218 513.528 165.184 519.186 161.053 522.034C156.927 524.885 151.272 523.85 148.421 519.72C141.621 509.871 132.543 494.645 130.806 480.24C129.905 472.753 130.877 464.512 136.212 457.523Z"
		fill="#DF4D4D"
	/>
	<path
		fill-rule="evenodd"
		clip-rule="evenodd"
		d="M85.2372 481.33C88.2186 465.045 101.64 452.488 126.707 445.239C131.525 443.845 136.559 446.621 137.953 451.438C139.347 456.259 136.571 461.294 131.754 462.688C110.083 468.959 104.341 477.855 103.105 484.6C101.652 492.537 105.34 502.294 111.548 511.739C114.3 515.929 113.135 521.56 108.946 524.316C104.752 527.068 99.1211 525.904 96.3648 521.714C89.5217 511.297 82.4771 496.43 85.2372 481.33Z"
		fill="#DF4D4D"
	/>
	<path
		fill-rule="evenodd"
		clip-rule="evenodd"
		d="M335.856 398.723C321.735 390.075 303.429 391.698 281.304 405.53C277.051 408.188 275.76 413.791 278.418 418.044C281.079 422.297 286.682 423.588 290.935 420.93C310.063 408.97 320.519 410.632 326.371 414.214C333.25 418.427 338.06 427.683 340.954 438.605C342.237 443.454 347.209 446.345 352.058 445.061C356.907 443.774 359.798 438.803 358.51 433.953C355.32 421.906 348.946 406.739 335.856 398.723Z"
		fill="#DF4D4D"
	/>
	<path
		d="M164.627 458.764C177.181 459.686 187.696 455.839 188.112 450.17C188.529 444.502 178.689 439.159 166.135 438.236C153.581 437.314 143.066 441.162 142.649 446.83C142.233 452.499 152.073 457.842 164.627 458.764Z"
		fill="#E97D7D"
	/>
	<path
		d="M207.978 454.966C214.534 454.15 219.506 450.738 219.084 447.343C218.661 443.949 213.005 441.858 206.449 442.674C199.893 443.49 194.921 446.903 195.344 450.297C195.766 453.691 201.423 455.782 207.978 454.966Z"
		fill="#E97D7D"
	/>
	<path
		d="M288.88 370.136C289.965 367.621 289.679 365.079 288.241 364.458C286.803 363.838 284.757 365.373 283.672 367.888C282.586 370.403 282.872 372.945 284.311 373.565C285.749 374.186 287.795 372.65 288.88 370.136Z"
		fill="#E97D7D"
	/>
	<path
		d="M86.5967 400.706C84.7487 398.684 84.1878 396.188 85.344 395.132C86.5002 394.075 88.9356 394.857 90.7836 396.879C92.6315 398.9 93.1924 401.396 92.0362 402.453C90.88 403.51 88.4447 402.727 86.5967 400.706Z"
		fill="#E97D7D"
	/>
	<path
		d="M288.762 351.208C287.802 346.601 285.924 343.095 284.566 343.378C283.208 343.66 282.886 347.625 283.845 352.232C284.805 356.84 286.683 360.345 288.041 360.063C289.399 359.78 289.722 355.816 288.762 351.208Z"
		fill="#E97D7D"
	/>
	<path
		d="M80.5162 382.78C79.9163 378.112 80.5452 374.184 81.9208 374.008C83.2964 373.831 84.8978 377.472 85.4976 382.14C86.0975 386.808 85.4686 390.735 84.093 390.912C82.7174 391.089 81.116 387.448 80.5162 382.78Z"
		fill="#E97D7D"
	/>
</svg>
