<svg
	width="1480"
	height="604"
	viewBox="0 0 1480 604"
	fill="none"
	xmlns="http://www.w3.org/2000/svg"
>
	<path
		d="M1308.65 564.409L1209.98 419.808L1093.19 448.388L1125.35 553.288L1308.65 564.409Z"
		fill="#326E8F"
	/>
	<path
		d="M1093.19 448.388L819.326 303.787L641.546 523.945L1125.35 553.287L1093.19 448.388Z"
		fill="#305A71"
	/>
	<path
		d="M1209.98 419.807L917.996 315.56L819.325 303.787L1093.19 448.388L1209.98 419.807Z"
		fill="#4B819F"
	/>
	<path
		d="M917.996 315.56L704.546 135.647L477 71.7549L611.916 241.575L819.325 303.787L917.996 315.56Z"
		fill="#48809F"
	/>
	<path
		d="M477 71.7549L428.5 513.966L507.629 515.821L611.916 241.575L477 71.7549Z"
		fill="#326E8F"
	/>
	<path
		d="M819.325 303.787L611.916 241.575L507.629 515.821L641.546 523.945L819.325 303.787Z"
		fill="#426881"
	/>
	<path
		d="M551.74 230.093C667.914 36.1623 617.271 -160.135 528.826 205.818L551.74 230.093Z"
		fill="#F5935F"
	/>
	<path
		d="M526.102 212.958C583.254 75.9398 523.209 -111.289 503.188 188.682L526.102 212.958Z"
		fill="#F5935F"
	/>
	<path
		d="M585.363 224.448C692.404 129.746 694.742 -49.1481 569.903 195.834L585.363 224.448Z"
		fill="#F5935F"
	/>
	<path
		d="M1001.58 495.623C1068.6 405.057 1090.76 460.542 1006.99 517.53C1083.51 510.904 1067.02 549.027 1010 535.37L950.287 507.413C899.877 462.519 925.432 450.883 965.252 497.507C924.954 392.243 976.207 394.847 988.171 494.574C1008.66 393.661 1042.67 406.807 1001.58 495.623Z"
		fill="#389661"
	/>
	<path
		d="M1120.51 494.741C1138.22 383.475 1183.46 422.493 1135.41 511.69C1200.25 470.522 1203.21 511.949 1146.32 526.124L1080.43 528.854C1015 512.269 1032.31 490.16 1089.15 513.168C1004.85 438.349 1051.52 417.025 1108.13 499.994C1079.78 401.003 1116.01 396.986 1120.51 494.741Z"
		fill="#57B762"
	/>
	<path
		d="M1176.25 512.852C1187.43 442.577 1216.01 467.221 1185.66 523.557C1226.62 497.556 1228.49 523.723 1192.55 532.677L1150.94 534.398C1109.61 523.921 1120.55 509.961 1156.44 524.492C1103.2 477.233 1132.68 463.766 1168.43 516.169C1150.52 453.645 1173.41 451.11 1176.25 512.852Z"
		fill="#389661"
	/>
	<path
		d="M535.581 298.656C500.28 343.076 482.025 413.23 479.908 441.171L488.137 440.078C488.582 395.463 503.913 353.574 542.064 301.6C615.786 226.315 700.297 129.39 673.022 113.227C645.747 97.0632 554.311 170.546 535.581 298.656Z"
		fill="#57B762"
	/>
	<path
		d="M565.321 331.137C526.44 357.551 495.197 408.131 486.898 429.499L493.776 430.589C504.665 395.779 526.885 366.623 569.841 334.972C646.912 293.496 737.768 237.639 719.644 218.539C701.521 199.435 610.626 235.31 565.321 331.137Z"
		fill="#389661"
	/>
	<path
		d="M479.289 301.199C464.064 351.055 472.311 416.199 480.035 440.28L486.747 436.384C471.888 399.003 470.779 358.495 485.878 301.305C523.646 211.771 563.313 100.275 534.302 96.6783C505.29 93.0778 451.649 187.528 479.289 301.199Z"
		fill="#389661"
	/>
	<path
		d="M491.515 324.713C475.032 363.01 475.502 416.494 479.331 436.838L484.938 434.525C476.749 402.591 479.6 369.826 496.657 325.604C534.412 258.111 575.666 173.158 553.309 166.703C530.952 160.251 480.333 229.761 491.515 324.713Z"
		fill="#57B762"
	/>
	<path
		d="M544.454 371.131C518.659 386.039 497.332 416.045 491.505 428.888L495.949 429.787C503.734 408.78 518.762 391.624 547.311 373.638C598.22 350.767 658.377 319.53 646.995 307.189C635.613 294.849 575.84 313.815 544.454 371.131Z"
		fill="#57B762"
	/>
	<path
		d="M731.361 153.046L825.505 528.388H949.327L888.541 287.502L839.012 249.23L800.741 163.682L731.361 153.046Z"
		fill="#B8CDCF"
	/>
	<path
		d="M665.664 183.944L627.392 528.388H825.505L731.362 153.046L665.664 183.944Z"
		fill="#A4BCBF"
	/>
	<path
		d="M881.786 426.919C881.505 425.644 883.178 424.903 883.932 425.968L887.561 431.071C887.921 431.577 888.61 431.727 889.144 431.411L894.543 428.236C895.669 427.576 896.892 428.936 896.11 429.985L892.38 435.011C892.007 435.509 892.08 436.21 892.546 436.623L897.232 440.774C898.208 441.641 897.293 443.225 896.053 442.808L890.12 440.811C889.533 440.612 888.889 440.9 888.638 441.467L886.139 447.206C885.617 448.405 883.826 448.02 883.843 446.716L883.907 440.455C883.912 439.835 883.442 439.312 882.822 439.252L876.592 438.644C875.293 438.519 875.104 436.7 876.35 436.307L882.324 434.436C882.919 434.25 883.272 433.642 883.138 433.035L881.786 426.919Z"
		fill="#DF4D4D"
	/>
	<path
		d="M852.445 389.129C853.302 387.006 856.452 387.59 856.491 389.878L856.678 400.841C856.697 401.931 857.545 402.826 858.631 402.903L869.572 403.664C871.855 403.822 872.273 406.997 870.109 407.742L859.738 411.306C858.708 411.663 858.12 412.744 858.384 413.801L861.041 424.441C861.595 426.664 858.704 428.041 857.328 426.214L850.731 417.454C850.076 416.584 848.864 416.357 847.941 416.936L838.642 422.752C836.702 423.963 834.497 421.638 835.81 419.767L842.104 410.784C842.729 409.893 842.568 408.67 841.734 407.973L833.329 400.926C831.576 399.456 833.105 396.637 835.293 397.31L845.779 400.521C846.821 400.837 847.933 400.307 848.341 399.298L852.445 389.129Z"
		fill="#B23F5B"
	/>
	<path
		d="M645.8 395.937C635.531 391.749 582.125 426.292 582.125 507.324L825.511 525.739C826.652 513.529 822.943 483.66 798.982 461.883C793.562 431.877 770.742 376.675 722.819 395.937C713.12 384.767 684.138 369.138 645.8 395.937Z"
		fill="#E282C4"
	/>
	<path
		d="M652.592 407.269C643.523 403.571 596.36 434.08 596.36 505.639L811.297 521.904C812.305 511.119 809.03 484.741 787.869 465.512C783.083 439.009 762.93 390.259 720.608 407.269C712.043 397.407 686.449 383.605 652.592 407.269Z"
		fill="#C769A9"
	/>
	<path
		d="M659.957 424.076C652.19 420.909 611.797 447.036 611.797 508.324L795.883 522.256C796.746 513.018 793.942 490.427 775.818 473.956C771.719 451.26 754.458 409.508 718.211 424.076C710.876 415.632 688.955 403.806 659.957 424.076Z"
		fill="#E282C4"
	/>
	<path
		d="M669.285 433.306C663.166 430.811 631.344 451.394 631.344 499.678L776.365 510.649C777.045 503.371 774.835 485.576 760.558 472.603C757.328 454.723 743.731 421.829 715.176 433.306C709.397 426.652 692.128 417.337 669.285 433.306Z"
		fill="#C769A9"
	/>
	<path
		d="M676.72 449.915C671.916 447.959 646.928 464.118 646.928 502.035L760.804 510.649C761.338 504.934 759.603 490.962 748.392 480.772C745.856 466.731 735.179 440.904 712.757 449.915C708.218 444.691 694.658 437.376 676.72 449.915Z"
		fill="#E282C4"
	/>
	<path
		d="M847.706 452.625C854.391 449.899 889.16 472.389 889.16 525.14L730.711 537.132C729.969 529.182 732.383 509.734 747.982 495.559C751.51 476.025 766.367 440.086 797.565 452.625C803.879 445.355 822.747 435.181 847.706 452.625Z"
		fill="#E282C4"
	/>
	<path
		d="M843.284 460.004C849.188 457.598 879.892 477.459 879.892 524.042L739.964 534.633C739.308 527.61 741.44 510.438 755.216 497.92C758.332 480.667 771.452 448.931 799.004 460.004C804.58 453.584 821.243 444.597 843.284 460.004Z"
		fill="#C769A9"
	/>
	<path
		d="M838.489 470.947C843.545 468.885 869.842 485.895 869.842 525.792L749.999 534.864C749.437 528.85 751.263 514.14 763.062 503.42C765.73 488.641 776.967 461.462 800.564 470.947C805.34 465.447 819.611 457.752 838.489 470.947Z"
		fill="#E282C4"
	/>
	<path
		d="M832.417 476.957C836.4 475.329 857.116 488.731 857.116 520.163L762.706 527.307C762.263 522.568 763.702 510.985 772.996 502.537C775.099 490.897 783.951 469.485 802.541 476.957C806.303 472.624 817.545 466.561 832.417 476.957Z"
		fill="#C769A9"
	/>
	<path
		d="M827.576 487.77C830.704 486.495 846.971 497.017 846.971 521.697L772.836 527.307C772.488 523.589 773.618 514.488 780.917 507.858C782.567 498.718 789.518 481.902 804.116 487.77C807.07 484.368 815.898 479.606 827.576 487.77Z"
		fill="#E282C4"
	/>
	<path
		d="M821.937 493.348C824.069 492.481 835.154 499.649 835.154 516.469L784.636 520.292C784.399 517.757 785.168 511.556 790.142 507.037C791.267 500.808 796.004 489.35 805.951 493.348C807.964 491.031 813.98 487.787 821.937 493.348Z"
		fill="#C769A9"
	/>
	<path
		d="M817.423 497.815C818.756 497.272 825.692 501.759 825.692 512.281L794.083 514.675C793.935 513.087 794.417 509.207 797.529 506.38C798.233 502.484 801.196 495.316 807.42 497.815C808.68 496.365 812.444 494.336 817.423 497.815Z"
		fill="#E282C4"
	/>
	<path
		d="M1000.15 521.167C1281.74 521.167 1283.45 555.507 1479.69 603.99V635.397H439.634L421.038 537.108C414.84 522.054 418.913 489.29 484.794 478.662C567.146 465.382 792.336 521.167 1000.15 521.167Z"
		fill="#0E2937"
	/>
	<path
		fill-rule="evenodd"
		clip-rule="evenodd"
		d="M813.259 516.919C820.428 499.783 823.149 493.283 838.752 483.117C861.717 468.161 808.724 431.727 788.827 471.741C772.927 503.72 776.875 538.315 779.665 550.837C780.367 553.984 795.531 555.333 798.317 549.776C805.502 535.455 809.876 525.002 813.259 516.919ZM811.819 458.748C816.338 454.395 824.555 456.679 830.461 460.324C835.751 463.592 840.365 469.278 838.164 472.77C835.962 476.261 825.686 475.637 819.733 472.207C814.052 468.934 807.301 463.106 811.819 458.748Z"
		fill="#B23F5B"
	/>
	<path
		d="M830.461 460.324C824.555 456.679 816.338 454.394 811.819 458.748C807.301 463.106 814.052 468.934 819.732 472.206C825.686 475.637 835.962 476.26 838.164 472.769C840.365 469.278 835.751 463.592 830.461 460.324Z"
		fill="#53212E"
	/>
	<path
		d="M802.275 510.41C805.64 500.625 810.804 494.895 820.745 496.308L818.406 498.653L802.848 514.221L802.275 510.41Z"
		fill="#7A2A3C"
	/>
	<path
		fill-rule="evenodd"
		clip-rule="evenodd"
		d="M803.994 552.238C823.362 523.953 824.973 522.439 840.691 514.91C856.409 507.381 830.12 476.439 811.433 499.937C796.483 518.737 792.724 541.567 792.714 550.635C792.711 552.911 801.586 555.754 803.994 552.238ZM827.872 494.562C831.153 492.1 835.755 494.72 838.793 498.001C841.515 500.937 843.509 505.477 841.726 507.632C839.944 509.782 833.891 508.061 830.795 504.922C827.841 501.933 824.59 497.029 827.872 494.562Z"
		fill="#B23F5B"
	/>
	<path
		d="M838.793 498.001C835.755 494.721 831.153 492.1 827.871 494.563C824.589 497.029 827.841 501.934 830.795 504.922C833.891 508.061 839.943 509.782 841.726 507.632C843.508 505.477 841.514 500.937 838.793 498.001Z"
		fill="#53212E"
	/>
	<path
		d="M807.068 543.58C808.581 532.944 807.526 488.062 786.483 476.872L785.056 480.294L801.417 544.491L807.068 543.58Z"
		fill="#7A2A3C"
	/>
	<path
		fill-rule="evenodd"
		clip-rule="evenodd"
		d="M789.792 550.035C778.151 514.577 776.929 512.504 762.789 499.851C748.648 487.199 785.542 462.851 797.927 493.1C807.836 517.299 804.819 542.308 802.072 551.789C801.382 554.17 791.24 554.441 789.792 550.035ZM782.378 482.481C779.698 478.905 774.09 480.249 769.916 482.752C766.178 484.996 762.713 489.131 763.921 491.926C765.129 494.72 771.98 494.757 776.171 492.424C780.169 490.192 785.059 486.057 782.378 482.481Z"
		fill="#B23F5B"
	/>
	<path
		d="M769.916 482.753C774.09 480.25 779.698 478.905 782.379 482.482C785.059 486.058 780.169 490.193 776.171 492.424C771.981 494.757 765.129 494.721 763.921 491.926C762.713 489.132 766.178 484.997 769.916 482.753Z"
		fill="#53212E"
	/>
	<path
		d="M787.144 511.779C782.76 503.658 776.739 504.76 770.728 507.425C775.178 509.883 786.566 536.342 791.4 549.484L793.451 548.472C796.973 530.623 790.446 517.89 787.144 511.779Z"
		fill="#7A2A3C"
	/>
	<path
		fill-rule="evenodd"
		clip-rule="evenodd"
		d="M784.882 553.458C775.725 531.045 774.839 529.761 765.11 522.22C755.38 514.683 778.137 497.24 787.537 516.242C795.058 531.446 794.252 547.768 792.909 554.029C792.571 555.604 786.021 556.244 784.882 553.458ZM776.99 510.086C775.091 507.895 771.524 509.021 768.938 510.832C766.622 512.456 764.569 515.291 765.479 517.044C766.389 518.794 770.824 518.506 773.429 516.801C775.913 515.177 778.888 512.277 776.99 510.086Z"
		fill="#B23F5B"
	/>
	<path
		d="M768.938 510.831C771.525 509.021 775.092 507.895 776.99 510.086C778.888 512.277 775.914 515.177 773.429 516.801C770.824 518.506 766.389 518.794 765.479 517.044C764.57 515.29 766.622 512.455 768.938 510.831Z"
		fill="#53212E"
	/>
	<path
		d="M788.957 550.886C787.556 546.783 782.198 538.384 777.688 537.744L777.861 538.979L786.436 550.525L788.957 550.886Z"
		fill="#7A2A3C"
	/>
	<path
		fill-rule="evenodd"
		clip-rule="evenodd"
		d="M785.56 555.503C774.745 547.569 773.954 547.217 767.175 546.471C760.395 545.726 766.096 530.895 776.04 537.152C783.995 542.162 788.34 550.104 789.517 553.45C789.813 554.292 786.904 556.491 785.56 555.503ZM769.274 537.298C767.743 536.812 766.383 538.38 765.686 539.983C765.061 541.421 764.912 543.353 765.849 543.92C766.787 544.483 768.799 543.061 769.536 541.502C770.239 540.016 770.805 537.784 769.274 537.298Z"
		fill="#B23F5B"
	/>
	<path
		d="M765.685 539.983C766.382 538.379 767.742 536.812 769.273 537.298C770.804 537.784 770.239 540.016 769.535 541.502C768.798 543.061 766.786 544.483 765.849 543.92C764.912 543.353 765.061 541.421 765.685 539.983Z"
		fill="#53212E"
	/>
	<path
		d="M817.835 551.104C825.179 551.242 832.603 558.99 835.197 564.218L788.701 558.743C787.843 558.066 787.049 555.843 790.732 552.336C795.337 547.954 801.123 543.746 817.835 551.104Z"
		fill="#123343"
	/>
	<path
		d="M776.678 549.869C772.072 548.735 766.977 552.348 765.052 555.191L794.479 559.508C795.055 559.229 795.68 557.965 793.576 555.159C790.946 551.647 787.565 548.047 776.678 549.869Z"
		fill="#123343"
	/>
	<path
		d="M641.595 464.151C641.205 459.846 645.669 415.227 645.703 410.82C645.738 406.179 645.993 401.497 646.437 396.811C647.84 381.976 651.128 367.097 655.275 353.225C656.381 349.528 657.547 345.903 658.754 342.371C665.866 321.575 666.222 314.098 672.262 303.755C682.657 280.18 666.86 271.909 653.021 297.084C644.034 313.434 642.105 325.738 634.757 359.823C634.323 361.84 631.366 373.759 630.971 375.784C627.602 393.037 621.089 450.766 621.843 466.65L641.595 464.151Z"
		fill="#2E2791"
	/>
	<path
		d="M725.355 287.928C730.395 275.441 743.422 281.601 740.133 292.229C738.065 298.915 729.324 320.538 707.841 336.159C705.834 337.617 703.716 339.022 701.482 340.359C689.608 347.467 674.454 352.61 655.275 353.226C656.381 349.528 657.547 345.903 658.754 342.372C679.999 340.407 693.612 333.725 704.052 322.697C706.148 320.481 708.116 318.092 709.992 315.528C715.614 307.849 720.412 298.624 725.355 287.928Z"
		fill="#2E2791"
	/>
	<path
		d="M709.864 283.691C706.372 290.77 704.918 300.466 709.992 315.528C708.116 318.092 706.148 320.481 704.052 322.697C700.646 319.963 698.424 313.021 697.277 305.545C696.88 302.961 696.612 300.316 696.467 297.757C696.094 291.147 696.545 285.129 697.745 282.318C700.753 275.263 711.086 276.016 709.864 283.691Z"
		fill="#2E2791"
	/>
	<path
		d="M707.841 336.159C725.88 338.958 733.719 331.55 741.064 314.471C744.269 307.019 753.169 308.753 750.862 316.768C749.67 320.911 746.736 328.221 740.844 334.118C739.651 335.313 738.336 336.451 736.89 337.491C729.251 342.991 717.945 345.814 701.482 340.359C703.716 339.022 705.835 337.617 707.841 336.159Z"
		fill="#2E2791"
	/>
	<path
		d="M642.637 271.991C637.087 278.09 632.447 284.303 628.654 290.495C627.887 291.751 627.154 293.002 626.456 294.254C611.399 328.01 617.396 347.608 634.757 359.823C634.323 361.84 631.366 373.759 630.971 375.784C607.384 358.272 601.308 333.883 611.886 304.091C612.389 302.673 613.197 299.154 613.77 297.745C618.288 286.656 624.701 278.029 633.34 268.84C640.392 261.331 647.146 267.479 642.637 271.991Z"
		fill="#2E2791"
	/>
	<path
		d="M615.684 252.923C619.671 248.46 626.656 251.19 621.843 255.248C616.951 259.695 613.309 264.393 610.78 268.981C610.06 270.289 609.431 271.585 608.889 272.865C603.841 284.776 606.308 295.25 613.77 297.744C613.197 299.154 612.389 302.673 611.886 304.091C602.012 298.826 599.124 291.41 599.686 283.841C599.849 281.646 600.301 279.438 600.956 277.268C604.407 265.834 613.499 255.369 615.684 252.923Z"
		fill="#2E2791"
	/>
	<path
		d="M610.78 268.981C617.945 270.788 620.123 266.337 625.102 262.441C630.081 258.545 632.084 262.992 628.992 265.867C625.9 268.743 617.74 275.389 608.889 272.865C609.431 271.586 610.06 270.29 610.78 268.981Z"
		fill="#2E2791"
	/>
	<path
		d="M603.738 251.526C600.389 258.091 593.673 270.338 600.956 277.268C600.301 279.438 599.849 281.646 599.686 283.841C588.484 279.017 593.14 255.774 596.399 250.473C599.658 245.171 605.482 245.953 603.738 251.526Z"
		fill="#2E2791"
	/>
	<path
		d="M750.877 352.667C758.379 339.828 775.704 344.012 765.642 360.665C759.617 370.641 757.987 373.05 736.169 385.455C732.289 387.521 728.082 389.55 723.514 391.51C704.568 399.643 679.414 406.649 645.703 410.821C645.737 406.179 645.993 401.498 646.437 396.812C673.509 393.608 694.309 388.55 710.421 382.446C714.49 380.907 718.26 379.295 721.757 377.635C738.158 370.483 743.375 365.501 750.877 352.667Z"
		fill="#2E2791"
	/>
	<path
		d="M729.938 355.315C726.335 358.053 715.968 362.727 721.757 377.635C718.26 379.295 714.49 380.907 710.421 382.446C707.977 372.58 711.687 358.778 721.578 351.99C731.47 345.202 733.541 352.581 729.938 355.315Z"
		fill="#2E2791"
	/>
	<path
		d="M736.169 385.456C754.408 385.383 768.455 378.06 784.838 360.034C793.428 345.737 800.977 351.974 796.151 363.144C791.325 374.31 765.915 398.622 723.514 391.51C728.082 389.55 732.289 387.521 736.169 385.456Z"
		fill="#2E2791"
	/>
	<path
		d="M740.844 334.117C757.659 338.41 765.112 325.75 769.519 318.031C773.926 310.311 780.45 313.515 776.363 321.826C772.275 330.14 760.103 343.465 736.89 337.491C738.336 336.45 739.651 335.312 740.844 334.117Z"
		fill="#2E2791"
	/>
	<path
		d="M689.575 272.46C686.742 279.228 686.191 296.137 696.467 297.757C696.612 300.316 696.88 302.961 697.277 305.545C681.881 305.213 678.396 282.776 681.11 273.534C683.824 264.287 692.408 265.693 689.575 272.46Z"
		fill="#2E2791"
	/>
	<path
		d="M628.654 290.495C638.74 292.698 647.79 281.881 652.333 276.037C656.876 270.188 660.453 275.263 657.107 281.289C653.761 287.32 639.619 299.668 626.456 294.254C627.154 293.002 627.887 291.751 628.654 290.495Z"
		fill="#2E2791"
	/>
	<path
		opacity="0.4"
		d="M819.873 307.834C849.929 318.027 876.76 319.019 879.802 310.049C882.845 301.079 860.945 285.544 830.889 275.351C800.833 265.158 774.002 264.166 770.96 273.136C767.918 282.106 789.817 297.641 819.873 307.834Z"
		fill="#455D5F"
	/>
	<path
		fill-rule="evenodd"
		clip-rule="evenodd"
		d="M616.533 603.341H784.237L752.89 481.088L528.085 509.337L616.533 603.341Z"
		fill="#8BA5A7"
	/>
	<path
		d="M752.89 481.088L574.7 394.204L528.085 509.337L752.89 481.088Z"
		fill="#B8CDCF"
	/>
	<path
		d="M574.7 394.204L448.828 443.476V509.337H528.085L574.7 394.204Z"
		fill="#A4BCBF"
	/>
	<path
		d="M448.828 603.341H616.533L528.085 509.337H448.828V603.341Z"
		fill="#3F5355"
	/>
	<path
		fill-rule="evenodd"
		clip-rule="evenodd"
		d="M615.992 416.308C608.629 415.49 601.034 422.537 596.343 425.984C593.676 429.297 593.063 432.561 593.983 435.704L604.742 427.089L594.644 437.429C595.681 439.616 597.435 441.738 599.723 443.771L611.188 431.237L601.829 445.501C604.318 447.404 607.255 449.218 610.475 450.915L621.857 434.991L612.866 452.13C615.762 453.548 618.84 454.872 621.994 456.095L630.262 441.673L624.918 457.189C627.043 457.958 629.186 458.675 631.318 459.344L637.748 443.48L634.452 460.287C636.875 460.992 639.262 461.62 641.565 462.17L646.876 445.14L644.086 462.75C647.287 463.45 650.28 463.985 652.926 464.329L654.342 447.546L655.589 464.621C660.631 465.066 663.905 464.633 664.099 463.146C664.77 457.975 666.239 448.372 664.07 440.782C661.902 433.189 625.195 417.337 615.992 416.308ZM632.656 437.121C641.958 441.362 658.693 446.035 659.651 441.309C660.507 437.089 650.167 432.638 641.391 428.863C640.335 428.406 639.302 427.964 638.313 427.531L637.716 427.267C628.889 423.396 616.269 417.859 611.316 421.824C606.733 425.494 620.529 431.678 629.877 435.866C630.861 436.307 631.797 436.728 632.656 437.121Z"
		fill="#D9D9D9"
	/>
	<path
		fill-rule="evenodd"
		clip-rule="evenodd"
		d="M655.589 464.621C654.748 464.548 653.859 464.451 652.926 464.329L654.342 447.546L655.589 464.621ZM646.876 445.14L644.086 462.75C643.259 462.567 642.418 462.373 641.565 462.17L646.876 445.14ZM637.749 443.48L634.452 460.287C633.413 459.987 632.367 459.672 631.318 459.344L637.749 443.48ZM630.262 441.673L624.919 457.189C623.939 456.833 622.963 456.468 621.994 456.095L630.262 441.673ZM621.858 434.991L612.867 452.13C612.054 451.73 611.257 451.329 610.475 450.915L621.858 434.991ZM611.188 431.237L601.829 445.501C601.085 444.934 600.382 444.354 599.723 443.771L611.188 431.237ZM604.742 427.089L594.644 437.429C594.374 436.858 594.153 436.283 593.983 435.704L604.742 427.089Z"
		fill="#A0A0A0"
	/>
	<path
		d="M659.651 441.309C658.693 446.035 641.958 441.362 632.656 437.121C631.797 436.729 630.862 436.307 629.877 435.866C620.53 431.678 606.733 425.494 611.316 421.825C616.269 417.86 628.889 423.396 637.716 427.268L638.313 427.531C639.302 427.964 640.335 428.406 641.391 428.863C650.167 432.638 660.507 437.089 659.651 441.309Z"
		fill="#2E2E2E"
	/>
	<path
		fill-rule="evenodd"
		clip-rule="evenodd"
		d="M689.407 459.773C684.873 459.266 680.196 463.608 677.306 465.73C675.664 467.771 675.286 469.78 675.853 471.716L682.479 466.411L676.26 472.777C676.898 474.126 677.978 475.434 679.388 476.685L686.448 468.966L680.684 477.751C682.217 478.925 684.026 480.039 686.01 481.084L693.019 471.275L687.482 481.833C689.265 482.704 691.161 483.522 693.104 484.275L698.196 475.394L694.905 484.947C696.213 485.421 697.533 485.867 698.846 486.276L702.806 476.503L700.776 486.859C702.268 487.288 703.738 487.677 705.157 488.017L708.428 477.528L706.71 488.374C708.681 488.803 710.524 489.135 712.154 489.346L713.026 479.01L713.794 489.528C716.899 489.799 718.916 489.532 719.035 488.617C719.448 485.429 720.352 479.52 719.017 474.843C717.682 470.169 695.075 460.404 689.407 459.773ZM699.67 472.587C705.399 475.199 715.705 478.079 716.296 475.167C716.823 472.567 710.454 469.829 705.05 467.504C704.4 467.225 703.763 466.949 703.154 466.682L702.786 466.52C697.35 464.135 689.578 460.724 686.527 463.171C683.705 465.431 692.202 469.237 697.958 471.817C698.565 472.089 699.141 472.348 699.67 472.587Z"
		fill="#D9D9D9"
	/>
	<path
		fill-rule="evenodd"
		clip-rule="evenodd"
		d="M713.793 489.528C713.276 489.479 712.728 489.419 712.154 489.346L713.026 479.01L713.793 489.528ZM708.428 477.528L706.71 488.374C706.2 488.26 705.682 488.143 705.157 488.017L708.428 477.528ZM702.806 476.503L700.776 486.859C700.136 486.673 699.492 486.478 698.846 486.276L702.806 476.503ZM698.196 475.394L694.905 484.948C694.301 484.729 693.7 484.506 693.104 484.275L698.196 475.394ZM693.019 471.275L687.482 481.833C686.982 481.586 686.491 481.339 686.01 481.084L693.019 471.275ZM686.448 468.966L680.684 477.751C680.227 477.398 679.793 477.046 679.387 476.685L686.448 468.966ZM682.479 466.411L676.26 472.777C676.094 472.429 675.957 472.073 675.853 471.716L682.479 466.411Z"
		fill="#A0A0A0"
	/>
	<path
		d="M716.295 475.167C715.705 478.079 705.398 475.199 699.67 472.587C699.141 472.348 698.565 472.089 697.958 471.818C692.202 469.238 683.705 465.431 686.527 463.171C689.578 460.725 697.35 464.135 702.786 466.52L703.154 466.682C703.763 466.949 704.399 467.225 705.05 467.504C710.454 469.829 716.822 472.567 716.295 475.167Z"
		fill="#2E2E2E"
	/>
	<path
		fill-rule="evenodd"
		clip-rule="evenodd"
		d="M675.553 205.611C678.036 202.481 684.539 199.791 688.101 198.066C690.801 197.179 692.671 197.147 693.878 197.746L685.352 201.65L694.479 198.139C695.164 198.722 695.534 199.597 695.648 200.695L684.889 204.623L695.685 201.691C695.657 202.861 695.408 204.21 694.989 205.672L682.57 209.333L694.655 206.753C694.225 208.057 693.678 209.434 693.047 210.836L682.603 213.302L692.444 212.132C691.993 213.071 691.51 214.015 691.005 214.95L680.562 216.55L690.245 216.323C689.644 217.38 689.02 218.421 688.39 219.422L677.804 220.475L687.687 220.511C686.78 221.896 685.87 223.184 685.002 224.31L676.072 223.755L684.102 225.444C682.342 227.578 680.841 228.919 680.023 228.895C677.177 228.822 671.81 228.781 668.873 227.356C665.936 225.934 672.449 209.524 675.553 205.611ZM679.39 213.991C677.851 218.162 673.609 225.472 670.872 225.549C668.43 225.618 670.273 220.993 671.837 217.073C672.025 216.603 672.209 216.137 672.381 215.696L672.485 215.428C674.021 211.48 676.217 205.83 680.142 204.036C683.775 202.371 681.439 208.556 679.857 212.743C679.69 213.185 679.532 213.606 679.39 213.991Z"
		fill="#D9D9D9"
	/>
	<path
		fill-rule="evenodd"
		clip-rule="evenodd"
		d="M684.102 225.444C684.396 225.088 684.696 224.711 685.002 224.31L676.072 223.755L684.102 225.444ZM677.804 220.475L687.687 220.511C687.922 220.155 688.156 219.79 688.39 219.422L677.804 220.475ZM680.562 216.55L690.245 216.323C690.503 215.866 690.757 215.408 691.005 214.95L680.562 216.55ZM682.603 213.302L692.444 212.132C692.652 211.698 692.854 211.265 693.047 210.836L682.603 213.302ZM682.57 209.333L694.655 206.753C694.776 206.385 694.887 206.024 694.989 205.672L682.57 209.333ZM684.889 204.623L695.685 201.691C695.693 201.342 695.681 201.006 695.648 200.695L684.889 204.623ZM685.352 201.65L694.479 198.139C694.3 197.989 694.101 197.855 693.878 197.746L685.352 201.65Z"
		fill="#A0A0A0"
	/>
	<path
		d="M670.872 225.549C673.608 225.472 677.851 218.162 679.389 213.991C679.531 213.606 679.69 213.185 679.856 212.743C681.439 208.555 683.775 202.371 680.142 204.036C676.217 205.83 674.021 211.48 672.485 215.428L672.381 215.696C672.209 216.137 672.025 216.603 671.836 217.073C670.273 220.993 668.43 225.618 670.872 225.549Z"
		fill="#2E2E2E"
	/>
	<path
		d="M592.96 649.43C681.975 615.787 730.576 573.383 725.272 547.135L692.601 491.124C670.486 539.015 634.564 592.892 592.917 603.851C644.904 547.419 667.797 495.056 672.744 475.932L655.468 463.345C636.495 510.592 621.867 535.739 616.924 542.405C617.436 514.832 632.667 482.829 640.218 470.274L618.467 456.913C610.86 476.422 597.404 523.508 604.448 555.758C592.573 574.582 575.886 584.898 569.027 587.704C565.166 516.469 592.14 461.648 606.11 443.143C602.843 429.876 589.599 403.437 562.767 403.854C547.631 449.676 523.055 549.792 545.835 583.67C542.96 586.465 535.289 590.73 527.607 585.44C521.666 564.652 517.248 498.681 547.113 401.133C538.971 396.423 518.299 393.017 500.738 417.061C499.533 423.991 486.851 537.63 501.647 574.076C485.829 545.475 463.983 487.272 476.594 432.241C474.478 432.962 468.293 435.323 460.482 439.021C450.719 443.646 457.212 523.099 474.05 546.491C465.087 540.785 446.017 522.208 441.445 493.546C435.774 498.673 424.635 510.519 425.442 516.87C426.39 524.326 452.523 581.666 481.519 596.209C460.487 587.522 425.546 570.224 418.73 555.466C415.151 567.333 410.518 595.509 420.622 613.296C423.124 613.729 536.557 637.568 592.96 649.43Z"
		fill="#F18150"
	/>
	<path
		d="M593.778 637.317C558.299 568.811 551.943 516.91 569.359 503.95L619.402 487.852C606.806 528.724 599.3 580.678 618.488 609.846C617.688 547.646 632.235 503.659 639.608 489.443L656.847 491.205C642.706 529.984 637.913 553.073 637.283 559.771C651.907 542.863 660.05 515.307 662.293 503.647L682.652 507.364C676.675 523.253 659.293 558.945 637.577 574.586C634.547 592.374 639.026 607.634 641.645 613.041C682.553 572.156 695.969 524.48 697.563 505.748C706.721 499.516 729.027 490.739 744.989 505.522C729.304 541.36 689.911 615.066 657.82 623.17C658.042 626.41 660.359 633.137 667.857 634.109C682.702 624.782 721.094 587.376 755.907 512.354C763.369 513.925 777.685 523.066 775.257 547.079C772.23 551.914 718.337 627.338 689.673 641.31C714.706 632.623 759.405 609.343 781.6 569.313C782.487 570.893 784.939 575.668 787.648 582.132C791.035 590.207 744.087 634.624 721.26 639.617C729.758 641.027 751.323 640.148 769.606 625.333C770.248 631.497 770.553 644.676 766.627 648.07C762.016 652.055 715.2 672.491 689.831 665.562C707.222 671.713 737.669 680.202 749.772 674.99C745.507 684.086 733.043 703.591 717.315 708.852C715.569 707.758 634.23 660.706 593.778 637.317Z"
		fill="#FFE572"
	/>
	<path
		fill-rule="evenodd"
		clip-rule="evenodd"
		d="M775.727 176.451C771.158 172.401 762.691 173.539 757.894 173.628C754.524 174.592 752.559 176.496 751.684 179.051L763.026 178.367L751.31 180.53C750.967 182.494 751.139 184.758 751.715 187.212L765.395 184.223L752.31 189.379C753.081 191.845 754.197 194.466 755.56 197.139L770.797 191.821L756.593 199.091C757.87 201.424 759.312 203.781 760.856 206.101L773.279 200.322L762.305 208.228C763.371 209.758 764.472 211.261 765.591 212.723L777.464 205.093L767.252 214.849C768.55 216.473 769.858 218.033 771.148 219.499L782.822 210.552L772.572 221.086C774.393 223.079 776.156 224.861 777.774 226.351L786.706 215.724L779.428 227.813C782.614 230.511 785.023 231.778 785.861 230.867C788.772 227.7 794.325 221.933 796.474 215.789C798.623 209.645 781.438 181.518 775.727 176.451ZM777.057 198.39C781.306 205.668 790.354 216.773 793.247 214.043C795.83 211.609 790.981 203.696 786.866 196.981C786.371 196.175 785.886 195.381 785.426 194.62L785.148 194.162C781.044 187.358 775.177 177.63 769.955 177.946C765.124 178.237 771.477 188.962 775.781 196.227C776.234 196.993 776.665 197.718 777.057 198.39Z"
		fill="#D9D9D9"
	/>
	<path
		fill-rule="evenodd"
		clip-rule="evenodd"
		d="M779.428 227.813C778.897 227.368 778.345 226.878 777.774 226.351L786.706 215.724L779.428 227.813ZM782.822 210.552L772.572 221.086C772.101 220.572 771.626 220.041 771.148 219.498L782.822 210.552ZM777.464 205.093L767.252 214.849C766.696 214.152 766.141 213.44 765.591 212.723L777.464 205.093ZM773.279 200.322L762.305 208.227C761.814 207.523 761.33 206.814 760.856 206.101L773.279 200.322ZM770.797 191.821L756.593 199.091C756.235 198.439 755.891 197.786 755.56 197.138L770.797 191.821ZM765.395 184.223L752.31 189.379C752.08 188.646 751.881 187.921 751.715 187.212L765.395 184.223ZM763.025 178.367L751.31 180.529C751.399 180.015 751.523 179.525 751.684 179.051L763.025 178.367Z"
		fill="#A0A0A0"
	/>
	<path
		d="M793.247 214.043C790.354 216.773 781.306 205.668 777.057 198.39C776.665 197.718 776.234 196.993 775.781 196.227C771.477 188.961 765.124 178.237 769.956 177.945C775.177 177.63 781.044 187.358 785.148 194.162L785.426 194.619C785.886 195.381 786.371 196.175 786.866 196.98C790.981 203.695 795.83 211.609 793.247 214.043Z"
		fill="#2E2E2E"
	/>
	<path
		fill-rule="evenodd"
		clip-rule="evenodd"
		d="M815.046 219.786C811.882 216.979 806.02 217.769 802.697 217.83C800.364 218.498 799.003 219.818 798.397 221.588L806.251 221.11L798.138 222.609C797.901 223.97 798.02 225.537 798.419 227.238L807.892 225.169L798.831 228.741C799.365 230.446 800.138 232.26 801.082 234.111L811.633 230.43L801.797 235.464C802.681 237.08 803.68 238.712 804.748 240.32L813.351 236.314L805.752 241.79C806.49 242.847 807.253 243.892 808.027 244.904L816.249 239.619L809.178 246.374C810.077 247.5 810.983 248.578 811.876 249.594L819.959 243.402L812.861 250.692C814.123 252.073 815.343 253.308 816.464 254.341L822.649 246.978L817.609 255.353C819.815 257.22 821.484 258.099 822.064 257.467C824.079 255.276 827.925 251.283 829.413 247.026C830.901 242.774 819.001 223.293 815.046 219.786ZM815.967 234.978C818.91 240.02 825.175 247.707 827.179 245.82C828.967 244.131 825.609 238.651 822.76 234.002C822.417 233.443 822.081 232.896 821.762 232.369L821.57 232.05C818.728 227.335 814.666 220.6 811.05 220.819C807.704 221.021 812.103 228.449 815.084 233.479C815.397 234.01 815.696 234.512 815.967 234.978Z"
		fill="#D9D9D9"
	/>
	<path
		fill-rule="evenodd"
		clip-rule="evenodd"
		d="M817.609 255.353C817.241 255.041 816.859 254.705 816.464 254.341L822.648 246.978L817.609 255.353ZM819.959 243.402L812.861 250.692C812.535 250.335 812.206 249.971 811.875 249.594L819.959 243.402ZM816.248 239.619L809.178 246.374C808.792 245.892 808.409 245.402 808.027 244.904L816.248 239.619ZM813.351 236.314L805.752 241.79C805.412 241.304 805.077 240.81 804.748 240.319L813.351 236.314ZM811.632 230.429L801.796 235.464C801.549 235.01 801.31 234.56 801.081 234.111L811.632 230.429ZM807.892 225.168L798.831 228.741C798.671 228.23 798.533 227.728 798.419 227.238L807.892 225.168ZM806.251 221.11L798.138 222.609C798.2 222.252 798.286 221.912 798.397 221.588L806.251 221.11Z"
		fill="#A0A0A0"
	/>
	<path
		d="M827.178 245.819C825.175 247.707 818.909 240.02 815.967 234.978C815.695 234.512 815.397 234.01 815.083 233.479C812.102 228.449 807.703 221.021 811.049 220.819C814.665 220.6 818.728 227.335 821.57 232.049L821.762 232.369C822.08 232.896 822.416 233.443 822.759 234.001C825.609 238.651 828.967 244.131 827.178 245.819Z"
		fill="#2E2E2E"
	/>
	<path
		fill-rule="evenodd"
		clip-rule="evenodd"
		d="M734.264 249.703L733.153 248.897L731.446 253.041L734.264 249.703ZM736.456 251.295L733.153 255.24L738.041 252.449L736.456 251.295ZM739.877 253.782L736.022 257.37L741.325 254.835L739.877 253.782ZM743.206 256.2L738.041 258.468L744.223 256.937L743.206 256.2ZM713.207 265.304C714.291 258.18 724.508 255.624 729.481 255.24C721.338 257.56 716.434 259.432 713.207 265.304ZM731.446 256.937C723.58 259.537 714.334 266.304 715.565 270.253C717.82 267.576 726.956 260.27 731.446 256.937ZM736.022 259.816C736.022 268.333 726.014 273.886 722.693 275.437C732.696 275.437 736.022 267.045 736.022 259.816ZM733.153 258.468C731.967 261.177 723.141 269.556 717.916 272.772C724.774 272.772 732.047 261.785 733.153 258.468Z"
		fill="#A4A4A4"
	/>
	<path
		fill-rule="evenodd"
		clip-rule="evenodd"
		d="M731.446 247.658L729.48 252.571C706.738 254.535 706.878 266.049 719.372 276.016C731.788 285.919 740.711 275.595 740.711 261.696L746.327 258.468L744.222 256.937L738.04 258.468L743.205 256.2L741.325 254.835L736.022 257.37L739.877 253.782L738.04 252.449L733.153 255.24L736.456 251.295L734.264 249.703L731.446 253.041L733.153 248.898L731.446 247.658ZM713.207 265.304C714.291 258.18 724.507 255.625 729.48 255.24C721.337 257.56 716.433 259.432 713.207 265.304ZM731.446 256.937C723.58 259.537 714.333 266.304 715.564 270.253C717.82 267.576 726.956 260.27 731.446 256.937ZM736.022 259.816C736.022 268.333 726.013 273.886 722.693 275.437C732.695 275.437 736.022 267.046 736.022 259.816ZM733.153 258.468C731.967 261.177 723.141 269.557 717.916 272.772C724.774 272.772 732.047 261.785 733.153 258.468Z"
		fill="#D9D9D9"
	/>
	<path
		fill-rule="evenodd"
		clip-rule="evenodd"
		d="M720.878 226.125L719.99 226.38L721.48 229L720.878 226.125ZM722.63 225.622L723.352 229.004L723.896 225.258L722.63 225.622ZM725.364 224.837L725.67 228.368L726.521 224.505L725.364 224.837ZM728.024 224.075L727.088 227.753L728.837 223.84L728.024 224.075ZM720.431 243.75C717.102 240.227 719.978 233.751 721.831 230.952C719.691 236.233 718.653 239.607 720.431 243.75ZM723.547 230.616C721.667 235.861 721.426 243.564 724.03 244.548C723.545 242.244 723.454 234.374 723.547 230.616ZM726.968 229.381C731.484 232.908 730.284 240.514 729.73 242.916C733.872 237.61 730.8 232.374 726.968 229.381ZM725.064 230.345C726.009 232.094 726.798 240.243 726.339 244.345C729.179 240.709 726.365 232.301 725.064 230.345Z"
		fill="#A4A4A4"
	/>
	<path
		fill-rule="evenodd"
		clip-rule="evenodd"
		d="M718.626 226.773L720.417 229.851C712.042 242.721 718.203 247.411 728.662 244.917C739.054 242.434 737.274 233.427 729.905 227.672L730.519 223.358L728.837 223.84L727.087 227.753L728.024 224.075L726.521 224.505L725.67 228.368L725.364 224.837L723.896 225.258L723.352 229.004L722.63 225.622L720.878 226.125L721.48 229L719.99 226.38L718.626 226.773ZM720.43 243.75C717.102 240.227 719.978 233.751 721.831 230.952C719.691 236.233 718.653 239.607 720.43 243.75ZM723.546 230.616C721.667 235.861 721.426 243.564 724.03 244.548C723.544 242.244 723.454 234.374 723.546 230.616ZM726.967 229.381C731.484 232.908 730.284 240.514 729.73 242.916C733.872 237.61 730.8 232.374 726.967 229.381ZM725.064 230.345C726.009 232.094 726.798 240.243 726.339 244.346C729.178 240.709 726.364 232.301 725.064 230.345Z"
		fill="#D9D9D9"
	/>
	<g style="mix-blend-mode: multiply" opacity="0.4">
		<path
			d="M1004.08 572.715C1051.33 572.715 1089.63 564.75 1089.63 554.924C1089.63 545.098 1051.33 537.133 1004.08 537.133C956.828 537.133 918.524 545.098 918.524 554.924C918.524 564.75 956.828 572.715 1004.08 572.715Z"
			fill="#1B3F44"
		/>
	</g>
	<path
		d="M1000.97 551.336C1031.27 551.112 1055.76 539.743 1055.66 525.943C1055.56 512.142 1030.9 501.136 1000.6 501.359C970.292 501.583 945.806 512.951 945.908 526.752C946.009 540.553 970.66 551.559 1000.97 551.336Z"
		fill="#FFD9A3"
	/>
	<path
		fill-rule="evenodd"
		clip-rule="evenodd"
		d="M926.866 462.888C926.364 455.573 932.767 443.674 927.785 444.302C912.031 446.299 912.541 483.194 927.125 495.324C925.452 482.344 944.836 485.049 946.12 491.732C954.228 477.832 949.886 458.011 943.742 454.362C941.102 452.795 941.17 456.379 941.256 461.033C941.385 467.873 941.555 477.022 933.22 475.459C929.458 474.75 927.409 470.724 926.866 462.888Z"
		fill="#DF4D4D"
	/>
	<path
		d="M927.125 495.324C931.536 498.993 935.326 499.098 941.831 496.721C944.253 495.838 944.848 495.668 946.12 491.732C944.836 485.049 925.453 482.344 927.125 495.324Z"
		fill="#E97D7D"
	/>
	<path
		fill-rule="evenodd"
		clip-rule="evenodd"
		d="M1061.87 463.487C1062.27 456.169 1055.69 444.363 1060.68 444.922C1076.46 446.684 1076.5 483.583 1062.1 495.928C1063.57 482.923 1044.23 485.912 1043.05 492.615C1034.73 478.833 1038.78 458.955 1044.87 455.213C1047.49 453.605 1047.47 457.193 1047.46 461.843C1047.43 468.687 1047.39 477.84 1055.71 476.152C1059.46 475.39 1061.45 471.336 1061.87 463.487Z"
		fill="#DF4D4D"
	/>
	<path
		d="M1062.1 495.928C1057.74 499.658 1053.95 499.82 1047.41 497.539C1044.98 496.693 1044.38 496.531 1043.05 492.615C1044.23 485.912 1063.57 482.923 1062.1 495.928Z"
		fill="#E97D7D"
	/>
	<path
		d="M930.005 489.873C925.708 494.502 927.514 503.42 946.387 513.055C951.012 516.044 958.93 518.417 953.612 503.999C946.962 485.977 934.302 485.244 930.005 489.873Z"
		fill="#DF4D4D"
	/>
	<path
		d="M1059.13 490.517C1063.5 495.081 1061.83 504.028 1043.09 513.938C1038.52 516.996 1030.64 519.487 1035.74 504.992C1042.12 486.872 1054.77 485.953 1059.13 490.517Z"
		fill="#DF4D4D"
	/>
	<path
		d="M1000.91 543.134C1034.58 542.886 1061.79 531.497 1061.69 517.697C1061.59 503.896 1034.21 492.91 1000.54 493.158C966.867 493.406 939.654 504.795 939.756 518.596C939.857 532.396 967.235 543.383 1000.91 543.134Z"
		fill="#DF4D4D"
	/>
	<path
		fill-rule="evenodd"
		clip-rule="evenodd"
		d="M986.32 489.221C983.602 488.722 981.529 486.353 981.508 483.486C981.484 480.246 984.092 477.597 987.336 477.573C990.58 477.548 993.225 480.157 993.249 483.401C993.27 486.264 991.237 488.666 988.523 489.204L988.56 494.19L986.36 494.206L986.32 489.221ZM1009.89 489.046C1007.17 488.548 1005.1 486.179 1005.08 483.312C1005.06 480.072 1007.67 477.423 1010.91 477.399C1014.15 477.374 1016.8 479.983 1016.82 483.227C1016.84 486.094 1014.81 488.492 1012.09 489.03L1012.13 494.016L1009.93 494.032L1009.89 489.046Z"
		fill="#E97D7D"
	/>
	<path
		fill-rule="evenodd"
		clip-rule="evenodd"
		d="M1085.72 519.58C1076.87 511.751 1063.96 510.836 1047.17 518.15C1043.87 519.588 1042.36 523.427 1043.8 526.728C1045.24 530.025 1049.07 531.535 1052.37 530.098C1066.74 523.84 1073.57 526.23 1077.09 529.34C1081.33 533.099 1083.63 540.223 1084.42 548.331C1084.77 551.911 1087.95 554.531 1091.54 554.183C1095.12 553.835 1097.74 550.651 1097.39 547.067C1096.53 538.21 1093.84 526.76 1085.72 519.58Z"
		fill="#DF4D4D"
	/>
	<path
		fill-rule="evenodd"
		clip-rule="evenodd"
		d="M1058.41 519.276C1052.31 517.802 1045.71 519.288 1038.81 523.152C1035.67 524.909 1034.54 528.878 1036.3 532.017C1038.06 535.16 1042.03 536.282 1045.17 534.524C1050.35 531.624 1053.52 531.503 1055.34 531.944C1057.13 532.373 1058.91 533.665 1060.65 536.436C1064.35 542.32 1066.06 552.057 1066.71 560.464C1066.99 564.053 1070.12 566.738 1073.71 566.458C1077.29 566.183 1079.98 563.048 1079.7 559.46C1079.04 550.898 1077.23 538.311 1071.69 529.498C1068.81 524.917 1064.54 520.762 1058.41 519.276Z"
		fill="#DF4D4D"
	/>
	<path
		fill-rule="evenodd"
		clip-rule="evenodd"
		d="M915.271 530.596C922.496 521.253 935.019 517.94 952.879 521.982C956.386 522.779 958.59 526.267 957.796 529.778C956.998 533.289 953.511 535.488 950 534.695C934.711 531.232 928.454 534.857 925.578 538.57C922.111 543.058 921.188 550.485 921.929 558.598C922.257 562.182 919.616 565.353 916.032 565.681C912.448 566.009 909.277 563.368 908.949 559.784C908.139 550.919 908.641 539.17 915.271 530.596Z"
		fill="#DF4D4D"
	/>
	<path
		fill-rule="evenodd"
		clip-rule="evenodd"
		d="M942.045 525.193C947.756 522.601 954.523 522.828 962.028 525.331C965.442 526.469 967.285 530.162 966.147 533.572C965.009 536.986 961.315 538.833 957.901 537.695C952.276 535.816 949.133 536.286 947.428 537.059C945.755 537.821 944.244 539.42 943.054 542.466C940.518 548.942 940.66 558.824 941.596 567.203C941.997 570.78 939.421 574.003 935.841 574.404C932.264 574.801 929.041 572.225 928.644 568.649C927.692 560.116 927.121 547.411 930.916 537.715C932.888 532.677 936.302 527.797 942.045 525.193Z"
		fill="#DF4D4D"
	/>
	<path
		fill-rule="evenodd"
		clip-rule="evenodd"
		d="M901.744 522.933C909.159 513.651 921.905 510.273 940.211 514.201C943.726 514.955 945.97 518.422 945.212 521.941C944.459 525.456 940.992 527.7 937.473 526.943C921.65 523.549 914.999 527.222 911.926 531.066C908.313 535.589 907.333 543.009 908.046 551.085C908.366 554.669 905.717 557.832 902.133 558.152C898.544 558.468 895.381 555.819 895.065 552.235C894.276 543.325 894.871 531.539 901.744 522.933Z"
		fill="#DF4D4D"
	/>
	<path
		fill-rule="evenodd"
		clip-rule="evenodd"
		d="M1097.58 509.52C1088.56 501.784 1075.41 500.853 1058.16 508.135C1054.84 509.536 1053.29 513.359 1054.69 516.672C1056.09 519.989 1059.91 521.54 1063.23 520.143C1078.14 513.845 1085.36 516.21 1089.1 519.414C1093.49 523.18 1095.84 530.284 1096.65 538.352C1097.01 541.932 1100.2 544.544 1103.79 544.188C1107.37 543.827 1109.98 540.636 1109.62 537.051C1108.73 528.154 1105.94 516.684 1097.58 509.52Z"
		fill="#DF4D4D"
	/>
	<path
		d="M969.443 532.577C978.232 534.658 986.118 533.128 987.058 529.16C987.998 525.192 981.635 520.287 972.846 518.206C964.057 516.125 956.171 517.654 955.231 521.623C954.291 525.591 960.654 530.495 969.443 532.577Z"
		fill="#E97D7D"
	/>
	<path
		d="M1000.59 534.818C1005.33 534.985 1009.24 533.133 1009.32 530.68C1009.41 528.228 1005.64 526.103 1000.9 525.936C996.166 525.768 992.256 527.62 992.169 530.073C992.082 532.526 995.852 534.65 1000.59 534.818Z"
		fill="#E97D7D"
	/>
	<path
		d="M1067.55 483.922C1068.61 482.264 1068.69 480.431 1067.74 479.827C1066.8 479.224 1065.17 480.079 1064.12 481.737C1063.06 483.396 1062.98 485.229 1063.92 485.832C1064.87 486.435 1066.5 485.58 1067.55 483.922Z"
		fill="#E97D7D"
	/>
	<path
		d="M920.769 482.573C919.69 480.93 919.577 479.099 920.516 478.481C921.455 477.864 923.091 478.695 924.171 480.338C925.25 481.98 925.363 483.812 924.424 484.429C923.485 485.046 921.848 484.215 920.769 482.573Z"
		fill="#E97D7D"
	/>
	<path
		d="M1069.62 470.503C1069.46 467.13 1068.53 464.433 1067.54 464.479C1066.54 464.525 1065.86 467.296 1066.02 470.67C1066.17 474.043 1067.11 476.74 1068.1 476.694C1069.09 476.648 1069.77 473.877 1069.62 470.503Z"
		fill="#E97D7D"
	/>
	<path
		d="M918.503 469.182C918.609 465.807 919.501 463.096 920.496 463.127C921.49 463.159 922.211 465.92 922.105 469.295C921.999 472.67 921.107 475.381 920.112 475.35C919.117 475.318 918.397 472.557 918.503 469.182Z"
		fill="#E97D7D"
	/>
	<path
		d="M824.742 288.157C838.966 293.482 852.462 292.547 854.887 286.07C857.311 279.593 847.746 270.026 833.522 264.702C819.298 259.377 805.802 260.312 803.377 266.789C800.953 273.266 810.518 282.833 824.742 288.157Z"
		fill="#FFD9A3"
	/>
	<path
		fill-rule="evenodd"
		clip-rule="evenodd"
		d="M805.908 233.487C806.982 229.976 812.11 225.553 809.667 224.954C801.936 223.067 795.565 240.425 800.218 248.715C801.761 242.34 810.347 247.079 809.75 250.436C816.037 245.382 817.554 235.33 815.332 232.519C814.378 231.312 813.767 233.005 812.975 235.196C811.809 238.42 810.25 242.733 806.629 240.51C804.995 239.505 804.757 237.254 805.908 233.487Z"
		fill="#DF4D4D"
	/>
	<path
		d="M800.218 248.715C801.625 251.222 803.38 251.951 806.85 252.004C808.142 252.024 808.45 252.052 809.75 250.436C810.347 247.079 801.761 242.34 800.218 248.715Z"
		fill="#E97D7D"
	/>
	<path
		fill-rule="evenodd"
		clip-rule="evenodd"
		d="M868.985 257.953C870.481 254.6 869.518 247.897 871.752 249.051C878.824 252.7 872.229 269.978 863.277 273.173C866.299 267.353 856.712 265.288 854.957 268.212C853.535 260.274 858.991 251.696 862.512 251.036C864.024 250.752 863.374 252.429 862.532 254.6C861.294 257.799 859.638 262.076 863.831 262.773C865.722 263.089 867.38 261.55 868.985 257.953Z"
		fill="#DF4D4D"
	/>
	<path
		d="M863.277 273.173C860.57 274.141 858.768 273.538 856.115 271.298C855.128 270.468 854.877 270.286 854.957 268.212C856.712 265.288 866.299 267.354 863.277 273.173Z"
		fill="#E97D7D"
	/>
	<path
		d="M802.543 246.678C799.702 248.076 798.948 252.575 806.057 260.464C807.686 262.692 810.966 265.219 811.059 257.52C811.176 247.893 805.383 245.281 802.543 246.678Z"
		fill="#DF4D4D"
	/>
	<path
		d="M862.86 270.111C864.085 273.031 861.701 276.919 851.158 278.199C848.468 278.811 844.333 278.564 849.319 272.695C855.552 265.357 861.635 267.195 862.86 270.111Z"
		fill="#DF4D4D"
	/>
	<path
		d="M826.183 284.306C841.985 290.221 856.762 289.766 859.186 283.289C861.611 276.812 850.766 266.766 834.963 260.85C819.16 254.935 804.384 255.39 801.959 261.867C799.535 268.344 810.38 278.39 826.183 284.306Z"
		fill="#DF4D4D"
	/>
	<path
		fill-rule="evenodd"
		clip-rule="evenodd"
		d="M829.016 256.463C827.832 255.742 827.287 254.264 827.791 252.915C828.361 251.396 830.056 250.623 831.577 251.194C833.099 251.761 833.871 253.458 833.302 254.981C832.798 256.325 831.415 257.083 830.049 256.848L829.173 259.189L828.14 258.804L829.016 256.463ZM840.079 260.602C838.895 259.885 838.351 258.403 838.854 257.058C839.424 255.536 841.119 254.766 842.64 255.333C844.162 255.904 844.934 257.601 844.365 259.12C843.861 260.464 842.478 261.226 841.113 260.991L840.236 263.332L839.203 262.943L840.079 260.602Z"
		fill="#E97D7D"
	/>
	<path
		fill-rule="evenodd"
		clip-rule="evenodd"
		d="M870.099 288.478C867.361 283.229 861.478 280.488 852.311 280.901C850.509 280.982 849.115 282.508 849.196 284.311C849.278 286.113 850.805 287.506 852.606 287.425C860.454 287.073 863.22 289.414 864.309 291.499C865.623 294.019 865.422 297.765 864.339 301.697C863.86 303.439 864.882 305.237 866.621 305.715C868.359 306.193 870.157 305.172 870.636 303.431C871.82 299.13 872.612 293.294 870.099 288.478Z"
		fill="#DF4D4D"
	/>
	<path
		fill-rule="evenodd"
		clip-rule="evenodd"
		d="M857.37 283.444C854.783 281.662 851.424 281.172 847.501 281.743C845.717 282.002 844.481 283.662 844.74 285.444C845.001 287.231 846.658 288.466 848.443 288.207C851.385 287.777 852.892 288.288 853.665 288.822C854.423 289.341 855.027 290.264 855.346 291.872C856.023 295.29 855.079 300.154 853.877 304.204C853.363 305.933 854.349 307.752 856.078 308.266C857.807 308.777 859.624 307.792 860.138 306.063C861.363 301.94 862.767 295.719 861.752 290.604C861.225 287.943 859.973 285.234 857.37 283.444Z"
		fill="#DF4D4D"
	/>
	<path
		fill-rule="evenodd"
		clip-rule="evenodd"
		d="M788.351 263.101C793.407 260.023 799.86 260.711 807.495 265.802C808.995 266.806 809.4 268.831 808.4 270.334C807.399 271.832 805.371 272.237 803.871 271.237C797.335 266.879 793.758 267.454 791.748 268.677C789.32 270.156 787.557 273.465 786.451 277.397C785.963 279.131 784.159 280.143 782.423 279.653C780.687 279.167 779.676 277.361 780.165 275.627C781.373 271.334 783.712 265.923 788.351 263.101Z"
		fill="#DF4D4D"
	/>
	<path
		fill-rule="evenodd"
		clip-rule="evenodd"
		d="M801.85 265.365C804.986 265.178 808.114 266.495 811.177 269.01C812.571 270.156 812.773 272.213 811.628 273.606C810.484 275 808.426 275.202 807.032 274.056C804.734 272.169 803.18 271.828 802.243 271.885C801.325 271.942 800.331 272.42 799.227 273.631C796.881 276.206 795.177 280.856 794.114 284.946C793.66 286.692 791.877 287.741 790.131 287.287C788.386 286.834 787.339 285.048 787.793 283.302C788.876 279.139 790.886 273.092 794.398 269.232C796.224 267.228 798.695 265.555 801.85 265.365Z"
		fill="#DF4D4D"
	/>
	<path
		fill-rule="evenodd"
		clip-rule="evenodd"
		d="M783.393 257.086C788.526 254.073 795.096 254.774 802.96 259.893C804.471 260.877 804.899 262.898 803.916 264.409C802.932 265.923 800.909 266.349 799.397 265.365C792.599 260.942 788.829 261.468 786.702 262.72C784.201 264.19 782.412 267.483 781.3 271.391C780.807 273.128 779 274.133 777.266 273.639C775.531 273.149 774.525 271.342 775.018 269.605C776.245 265.296 778.635 259.885 783.393 257.086Z"
		fill="#DF4D4D"
	/>
	<path
		fill-rule="evenodd"
		clip-rule="evenodd"
		d="M877.449 285.89C874.613 280.658 868.625 277.863 859.248 278.183C857.445 278.244 856.034 279.754 856.095 281.557C856.156 283.359 857.667 284.772 859.47 284.712C867.577 284.436 870.532 286.834 871.707 289.005C873.089 291.552 872.918 295.298 871.85 299.219C871.377 300.96 872.403 302.754 874.144 303.228C875.883 303.702 877.678 302.677 878.152 300.936C879.329 296.61 880.078 290.746 877.449 285.89Z"
		fill="#DF4D4D"
	/>
	<path
		d="M813.351 273.729C817.091 276.277 821.056 276.974 822.207 275.285C823.358 273.596 821.258 270.161 817.518 267.613C813.777 265.064 809.812 264.367 808.662 266.056C807.511 267.745 809.61 271.18 813.351 273.729Z"
		fill="#E97D7D"
	/>
	<path
		d="M827.525 280.359C829.711 281.286 831.873 281.119 832.353 279.987C832.833 278.855 831.45 277.185 829.263 276.258C827.076 275.331 824.914 275.498 824.434 276.63C823.954 277.762 825.338 279.432 827.525 280.359Z"
		fill="#E97D7D"
	/>
	<path
		d="M867.981 268.533C868.771 267.946 869.14 267.103 868.804 266.651C868.469 266.199 867.555 266.308 866.765 266.895C865.974 267.482 865.605 268.325 865.941 268.777C866.277 269.229 867.19 269.12 867.981 268.533Z"
		fill="#E97D7D"
	/>
	<path
		d="M799.528 241.607C799.317 240.645 799.592 239.767 800.143 239.646C800.693 239.526 801.31 240.208 801.521 241.17C801.731 242.132 801.456 243.009 800.906 243.13C800.356 243.251 799.739 242.568 799.528 241.607Z"
		fill="#E97D7D"
	/>
	<path
		d="M871.354 262.623C871.885 261.016 871.932 259.587 871.459 259.43C870.985 259.274 870.171 260.449 869.639 262.056C869.108 263.662 869.061 265.092 869.534 265.248C870.008 265.405 870.822 264.23 871.354 262.623Z"
		fill="#E97D7D"
	/>
	<path
		d="M800.865 234.937C801.52 233.376 802.423 232.267 802.883 232.46C803.342 232.653 803.185 234.074 802.531 235.635C801.877 237.195 800.973 238.304 800.513 238.111C800.054 237.919 800.211 236.497 800.865 234.937Z"
		fill="#E97D7D"
	/>
	<path
		d="M-55.114 376.045C-94.9451 414.438 -121.615 479.889 -127.254 506.622H-119.159C-112.991 463.561 -92.7851 425.049 -49.2265 379.725C31.7111 316.446 125.857 233.649 101.576 214.517C77.2955 195.385 -20.5309 254.64 -55.114 376.045Z"
		fill="#57B762"
	/>
	<path
		d="M-30.549 411.263C-71.5252 431.789 -108.229 476.658 -118.997 496.24L-112.49 498.179C-97.4883 465.938 -72.2636 440.618 -26.6753 415.555C53.1487 385.383 148.144 343.088 133.087 322.294C118.027 301.5 25.5667 324.478 -30.549 411.263Z"
		fill="#389661"
	/>
	<path
		d="M-55.8604 447.233C-82.708 458.321 -107.182 484.58 -114.468 496.24L-110.286 497.682C-100.059 478.38 -83.328 463.734 -53.4241 450.024C-1.27689 434.466 60.8803 412.018 51.4665 398.627C42.0567 385.233 -18.1538 395.875 -55.8604 447.233Z"
		fill="#57B762"
	/>
	<path
		d="M329.593 533.623C293.509 486.199 281.789 447.548 293.324 435.371L329.269 416.488C325.107 449.258 326.284 489.788 344.752 509.441C335.895 462.214 341.131 426.814 344.859 415.015L358.209 414.071C352.59 445.456 352.006 463.663 352.417 468.844C361.301 454.036 363.844 431.99 364.006 422.817L379.991 422.944C377.55 435.829 369.057 465.294 354.604 480.078C354.656 494.013 360.089 505.034 362.798 508.801C388.508 472.264 392.394 434.202 391.122 419.741C397.267 413.779 413.073 404.144 427.182 413.273C420 442.628 399.798 503.941 376.453 514.361C377.049 516.802 379.707 521.611 385.539 521.355C395.6 512.292 419.853 478.736 436.399 417.029C442.282 417.234 454.389 422.288 455.728 440.887C454.065 444.966 423.056 509.508 403.099 523.945C420.995 514.014 451.921 490.369 463.503 456.966C464.387 458.052 466.887 461.357 469.805 465.914C473.454 471.612 443.617 511.641 426.91 518.464C433.564 518.413 449.856 514.883 461.805 501.184C463.112 505.793 465.09 515.779 462.551 518.883C459.574 522.527 426.657 544.289 406.432 542.378C420.485 544.751 444.778 547.175 453.295 541.604C451.258 549.091 444.359 565.588 433.09 571.673C431.617 571.073 363.477 546.058 329.593 533.623Z"
		fill="#2E2791"
	/>
	<path
		d="M128.258 494.681C131.729 245.416 286.097 94.6526 162.276 486.088L128.258 494.681Z"
		fill="#B23F5B"
	/>
	<path
		d="M160.756 494.329C185.562 333.264 343.327 196.55 194.779 485.737L160.756 494.329Z"
		fill="#B23F5B"
	/>
	<path
		d="M101.241 469.172C57.8242 317.086 155.027 150.417 130.987 452.074L101.241 469.172Z"
		fill="#B23F5B"
	/>
	<path
		d="M283.697 515.392C339.35 507.029 372.729 488.568 372.934 472.73L361.021 436.279C342.272 461.215 314.793 487.885 289.347 489.034C326.434 462.886 346.193 435.462 351.433 425.021L343.015 415.592C326.161 440.544 314.572 453.263 310.884 456.501C314.611 440.623 327.405 424.018 333.336 417.7L322.422 407.264C315.595 417.597 301.952 443.142 302.007 462.668C292.794 472.07 281.86 475.956 277.548 476.722C284.19 435.059 306.611 406.723 316.992 397.767C316.759 389.688 312.396 372.752 296.83 369.652C282.37 394.256 255.692 449.077 264.64 471.502C262.63 472.762 257.666 474.27 253.883 470.258C253.038 457.496 258.701 418.806 288.119 366.126C283.997 362.39 272.47 357.845 259.321 369.557C257.761 373.415 236.276 437.539 240.288 460.453C234.708 441.945 229.326 405.574 243.471 375.33C242.16 375.48 238.29 376.076 233.314 377.241C227.091 378.698 220.947 425.444 227.77 441.065C223.3 436.65 214.589 423.536 215.513 406.391C211.596 408.654 203.683 414.115 203.355 417.886C202.976 422.312 210.941 458.72 225.895 470.74C214.819 463.099 196.769 448.745 194.668 439.363C191.122 445.776 184.934 461.492 188.559 473.034C189.953 473.595 252.565 501.508 283.697 515.392Z"
		fill="#7E2FB2"
	/>
	<path
		fill-rule="evenodd"
		clip-rule="evenodd"
		d="M-50.0871 608.274H-147.463V439.493L8.33459 374.58L-31.3819 533.438L-50.0871 608.274Z"
		fill="#8BA5A7"
	/>
	<path
		fill-rule="evenodd"
		clip-rule="evenodd"
		d="M386.226 548.238C367.268 520.225 352 479 345.992 476.607L8.33447 374.58L-31.382 533.438L298.864 591.788L356.042 608.274H421.536C418.424 595.828 402.601 572.443 386.226 548.238Z"
		fill="#A4BCBF"
	/>
	<path
		d="M-50.0875 608.275L-31.3822 533.438L298.864 591.789L356.042 608.275H-50.0875Z"
		fill="#6C898B"
	/>
	<path
		d="M-70.739 654.593C31.6087 636.311 95.8667 598.067 99.618 565.928L85.8843 492.248C46.6732 543.282 -8.6725 598.047 -54.8926 600.981C17.7012 547.045 59.2618 490.945 70.9619 469.634L57.7613 450.704C21.9777 501.725 -1.6793 527.799 -9.03188 534.46C1.09667 502.156 27.7586 468.165 39.822 455.205L22.3371 434.292C7.79382 455.418 -22.3194 507.569 -26.3906 547.183C-45.0405 566.477 -65.6254 574.619 -73.586 576.282C-52.6814 491.585 -6.11375 433.566 14.558 415.145C15.8571 398.758 11.5886 364.506 -15.871 358.575C-47.2518 408.843 -107.17 520.703 -95.7899 565.991C-99.6873 568.59 -108.983 571.772 -114.961 563.717C-113.765 537.845 -95.2647 459.209 -30.8566 351.633C-37.5024 344.15 -57.3606 335.199 -83.6198 359.274C-87.2645 367.14 -139.787 497.745 -137.429 544.143C-143.562 506.724 -145.513 433.057 -113.492 371.357C-115.897 371.697 -123.016 372.996 -132.257 375.48C-143.807 378.58 -164.893 473.571 -155.906 505.105C-163.041 496.252 -175.981 469.847 -170.642 435.043C-178.204 439.722 -193.671 450.988 -195.065 458.648C-196.7 467.644 -190.082 541.319 -165.631 565.355C-184.017 550.113 -213.557 521.418 -215.35 502.436C-223.129 515.53 -237.668 547.558 -233.581 570.888C-231.189 572.001 -124.019 627.153 -70.739 654.593Z"
		fill="#F18150"
	/>
	<path
		fill-rule="evenodd"
		clip-rule="evenodd"
		d="M54.7716 389.597C45.6303 387.129 34.6607 394.56 28.0623 398.004C24.0504 401.668 22.6407 405.676 23.1935 409.826L38.4593 401.032L23.691 412.132C24.5755 415.102 26.3801 418.126 28.8757 421.135L45.8001 407.524L31.2016 423.734C33.9736 426.624 37.334 429.483 41.0734 432.255L58.5546 414.343L43.8612 434.253C47.2413 436.607 50.8742 438.881 54.6215 441.037L67.8735 424.425L58.1043 442.988C60.6394 444.374 63.2101 445.701 65.7729 446.956L76.9833 428.16L69.5518 448.757C72.4738 450.119 75.3683 451.379 78.1719 452.52L88.1938 432.034L81.248 453.74C85.1533 455.249 88.8336 456.504 92.1071 457.456L97.1615 436.524L95.4161 458.344C101.702 459.884 105.924 459.975 106.457 458.135C108.309 451.726 112.032 439.88 110.769 429.866C109.505 419.852 66.2033 392.685 54.7716 389.597ZM71.7829 419.133C82.713 426.3 102.95 435.461 105.083 429.673C106.986 424.508 94.7804 416.875 84.4268 410.399C83.1829 409.617 81.9627 408.855 80.7978 408.116L80.0949 407.666C69.69 401.06 54.823 391.611 47.7903 395.658C41.2867 399.405 57.52 409.901 68.5172 417.009C69.6742 417.759 70.7759 418.47 71.7829 419.133Z"
		fill="#D9D9D9"
	/>
	<path
		fill-rule="evenodd"
		clip-rule="evenodd"
		d="M95.4163 458.345C94.3699 458.088 93.2643 457.792 92.1073 457.456L97.1617 436.524L95.4163 458.345ZM88.1941 432.034L81.2483 453.741C80.2374 453.35 79.2107 452.943 78.1722 452.52L88.1941 432.034ZM76.9836 428.161L69.552 448.757C68.2963 448.177 67.0367 447.577 65.7731 446.957L76.9836 428.161ZM67.8738 424.425L58.1046 442.988C56.9358 442.352 55.7748 441.701 54.6218 441.038L67.8738 424.425ZM58.5548 414.344L43.8614 434.254C42.9098 433.594 41.9819 432.927 41.0737 432.256L58.5548 414.344ZM45.8003 407.524L31.2018 423.734C30.3726 422.869 29.5946 422.005 28.8759 421.136L45.8003 407.524ZM38.4596 401.033L23.6913 412.133C23.4622 411.363 23.2924 410.593 23.1937 409.827L38.4596 401.033Z"
		fill="#A0A0A0"
	/>
	<path
		d="M105.083 429.673C102.95 435.462 82.713 426.301 71.7829 419.134C70.7759 418.47 69.6742 417.759 68.5173 417.009C57.52 409.901 41.2867 399.406 47.7903 395.658C54.823 391.611 69.69 401.06 80.0949 407.666L80.7978 408.117C81.9627 408.855 83.1829 409.617 84.4268 410.399C94.7804 416.875 106.986 424.508 105.083 429.673Z"
		fill="#2E2E2E"
	/>
	<path
		fill-rule="evenodd"
		clip-rule="evenodd"
		d="M104.024 471.095C99.5663 469.891 94.2197 473.516 91.0015 475.194C89.0429 476.979 88.3558 478.933 88.6283 480.959L96.0717 476.671L88.8692 482.08C89.2996 483.53 90.1801 485.002 91.3963 486.471L99.6492 479.834L92.5296 487.739C93.884 489.145 95.5228 490.543 97.3471 491.893L105.868 483.158L98.7015 492.868C100.352 494.014 102.125 495.123 103.949 496.174L110.41 488.075L105.647 497.125C106.883 497.8 108.139 498.448 109.387 499.06L114.852 489.895L111.227 499.941C112.656 500.6 114.066 501.216 115.432 501.773L120.321 491.783L116.933 502.369C118.836 503.104 120.629 503.716 122.228 504.178L124.692 493.974L123.839 504.612C126.903 505.362 128.965 505.41 129.221 504.509C130.126 501.386 131.942 495.609 131.326 490.728C130.71 485.844 109.596 472.599 104.024 471.095ZM112.317 485.496C117.648 488.991 127.516 493.457 128.554 490.633C129.482 488.114 123.531 484.394 118.481 481.235C117.877 480.856 117.28 480.485 116.712 480.122L116.368 479.905C111.298 476.682 104.048 472.074 100.621 474.049C97.4498 475.877 105.363 480.995 110.725 484.462C111.29 484.825 111.827 485.172 112.317 485.496Z"
		fill="#D9D9D9"
	/>
	<path
		fill-rule="evenodd"
		clip-rule="evenodd"
		d="M123.839 504.612C123.33 504.486 122.793 504.344 122.228 504.178L124.692 493.974L123.839 504.612ZM120.321 491.783L116.933 502.369C116.439 502.18 115.938 501.978 115.432 501.773L120.321 491.783ZM114.852 489.895L111.227 499.941C110.619 499.657 110.003 499.36 109.387 499.06L114.852 489.895ZM110.41 488.075L105.648 497.125C105.079 496.813 104.514 496.498 103.95 496.174L110.41 488.075ZM105.869 483.159L98.7017 492.869C98.2397 492.545 97.7895 492.221 97.3473 491.893L105.869 483.159ZM99.6493 479.834L92.5297 487.739C92.127 487.317 91.7479 486.894 91.3965 486.472L99.6493 479.834ZM96.0718 476.671L88.8693 482.081C88.7588 481.706 88.6758 481.33 88.6284 480.959L96.0718 476.671Z"
		fill="#A0A0A0"
	/>
	<path
		d="M128.554 490.634C127.516 493.457 117.648 488.991 112.317 485.496C111.827 485.172 111.29 484.825 110.726 484.462C105.363 480.995 97.4499 475.877 100.621 474.049C104.048 472.074 111.298 476.683 116.368 479.905L116.712 480.122C117.281 480.485 117.877 480.856 118.481 481.235C123.531 484.394 129.482 488.114 128.554 490.634Z"
		fill="#2E2E2E"
	/>
	<path
		d="M272.66 533.193C273.296 530.31 269.513 528.632 267.803 531.041L259.601 542.583C258.788 543.728 257.232 544.06 256.02 543.349L243.814 536.174C241.267 534.678 238.503 537.754 240.264 540.127L248.703 551.491C249.544 552.621 249.378 554.204 248.328 555.136L237.729 564.526C235.522 566.489 237.595 570.066 240.395 569.127L253.813 564.609C255.143 564.163 256.6 564.807 257.161 566.094L262.82 579.073C264 581.782 268.044 580.917 268.012 577.964L267.866 563.804C267.85 562.398 268.913 561.217 270.314 561.079L284.408 559.709C287.345 559.424 287.772 555.31 284.952 554.425L271.444 550.192C270.101 549.77 269.304 548.392 269.608 547.021L272.66 533.193Z"
		fill="#DF4D4D"
	/>
	<path
		d="M229.875 496.165C228.935 494.369 226.207 495.162 226.373 497.18L227.166 506.866C227.245 507.83 226.574 508.691 225.622 508.853L216.043 510.48C214.045 510.819 213.95 513.658 215.924 514.124L225.381 516.363C226.321 516.584 226.933 517.489 226.795 518.444L225.381 528.059C225.085 530.065 227.755 531.029 228.809 529.295L233.863 520.995C234.365 520.17 235.411 519.866 236.276 520.292L244.983 524.608C246.799 525.508 248.541 523.266 247.222 521.73L240.884 514.361C240.256 513.627 240.292 512.537 240.967 511.846L247.763 504.9C249.181 503.451 247.585 501.101 245.714 501.883L236.746 505.63C235.857 506.002 234.831 505.63 234.381 504.778L229.875 496.165Z"
		fill="#B23F5B"
	/>
	<path
		d="M301.916 575.248C303.065 560.313 318.765 571.034 335.232 589.033C340.981 581.601 307.752 556.1 331.784 556.1C341.739 556.1 340.207 571.8 344.037 591.331C350.166 584.819 340.207 568.353 355.524 568.353C370.845 568.353 365.483 576.014 347.868 595.161C362.462 583.339 378.502 589.033 376.97 595.161C375.438 601.286 365.483 598.987 347.868 602.052C351.698 605.499 384.248 598.221 383.865 613.539C383.482 628.86 362.419 616.603 344.037 605.499C342.505 608.946 359.355 630.005 337.913 630.005C325.273 630.005 335.232 619.284 337.913 605.499C327.188 606.648 319.531 624.263 304.597 616.603C289.659 608.946 319.532 602.052 335.232 602.052C318.765 597.072 290.03 606.225 295.022 589.033C298.469 577.163 331.401 601.286 331.784 595.161C332.168 589.033 300.767 590.182 301.916 575.248Z"
		fill="#F8FF93"
	/>
	<path
		d="M388.805 518.977C400.943 516.707 395.754 531.495 384.939 548.443C392.082 551.436 405.295 519.538 410.424 538.674C412.548 546.603 399.719 548.731 384.986 555.946C391.478 559.436 402.463 547.997 405.733 560.191C408.999 572.388 401.756 569.754 382.755 559.811C395.281 568.913 394.167 582.896 388.963 582.987C383.758 583.073 383.462 574.655 377.266 561.284C375.339 565.067 388.078 589.431 375.797 592.393C363.521 595.358 368.784 575.974 373.705 558.97C370.636 558.485 357.459 576.396 352.887 559.322C350.19 549.26 360.851 554.899 372.398 554.09C369.195 545.801 353.538 543.46 356.449 529.935C359.359 516.411 371.221 538.721 374.569 551.223C375.019 537.051 361.606 516.126 376.358 516.431C386.546 516.64 374.364 548.009 379.324 547.006C384.283 546.007 376.67 521.248 388.805 518.977Z"
		fill="#F8FF93"
	/>
	<path
		d="M419.431 559.603C431.566 557.332 426.377 572.12 415.561 589.068C422.705 592.061 435.921 560.163 441.047 579.299C443.171 587.224 430.342 589.356 415.609 596.571C422.1 600.061 433.086 588.622 436.355 600.816C439.621 613.013 432.383 610.376 413.378 600.437C425.903 609.538 424.794 623.521 419.589 623.608C414.381 623.695 414.088 615.28 407.889 601.909C405.962 605.692 418.701 630.056 406.424 633.018C394.147 635.983 399.407 616.599 404.331 599.595C401.259 599.11 388.086 617.017 383.509 599.943C380.812 589.882 391.474 595.524 403.024 594.715C399.822 586.423 384.161 584.085 387.071 570.56C389.985 557.036 401.843 579.346 405.196 591.848C405.646 577.672 392.228 556.748 406.985 557.056C417.168 557.265 404.987 588.634 409.946 587.631C414.906 586.628 407.293 561.873 419.431 559.603Z"
		fill="#F8FF93"
	/>
	<path
		d="M362.427 580.914C370.364 586.347 359.359 591.639 344.061 595.019C346.348 600.602 371.201 590.308 363.485 603.675C360.287 609.215 352.046 603.319 339.955 599.177C341.609 604.677 353.965 604.425 349.045 612.946C344.129 621.464 341.589 616.022 336.594 600.077C338.482 611.991 330.166 619.083 327.252 616.263C324.333 613.444 328.811 608.646 332.764 597.866C329.617 598.889 323.212 619.327 314.813 614.198C306.418 609.065 319.998 601.286 332.077 594.628C330.651 592.669 313.526 595.28 320.412 583.35C324.468 576.322 327.236 585.301 334.043 591.22C336.847 584.886 329.51 574.971 338.565 569.123C347.619 563.279 341.862 582.103 336.819 590.837C344.875 583.275 349.013 564.357 356.974 572.653C362.47 578.383 338.474 588.954 341.759 591.133C345.045 593.313 354.49 575.48 362.427 580.914Z"
		fill="#FFB793"
	/>
	<path
		d="M397.2 568.365C394.566 575.844 388.007 568.211 382.056 556.751C378.096 559.764 391.592 577.356 379.304 574.063C374.214 572.7 377.148 564.882 377.867 554.37C373.843 556.858 376.674 566.643 368.844 564.546C361.009 562.445 364.8 559.263 376.433 551.886C367.351 555.93 359.927 550.824 361.55 547.898C363.173 544.976 367.951 547.515 377.377 548.364C375.892 546.074 358.249 545.335 360.543 537.556C362.838 529.777 371.932 538.927 379.805 547.124C381.061 545.572 375.331 532.494 386.297 535.432C392.761 537.165 386.198 541.284 382.941 547.965C388.579 548.846 394.909 540.889 401.496 546.852C408.086 552.814 391.869 552.246 383.837 550.094C391.577 554.895 407.522 554.153 402.613 562.26C399.225 567.859 385.693 551.01 384.658 554.09C383.62 557.17 399.833 560.886 397.2 568.365Z"
		fill="#FFB793"
	/>
	<path
		d="M427.826 608.989C425.192 616.468 418.633 608.835 412.679 597.376C408.722 600.389 422.219 617.98 409.93 614.687C404.836 613.325 407.774 605.506 408.489 594.995C404.465 597.482 407.3 607.267 399.466 605.167C391.636 603.07 395.427 599.887 407.056 592.511C397.973 596.554 390.554 591.445 392.177 588.523C393.8 585.601 398.574 588.14 407.999 588.985C406.515 586.698 388.876 585.96 391.17 578.181C393.464 570.402 402.554 579.551 410.432 587.749C411.687 586.197 405.958 573.119 416.924 576.057C423.384 577.786 416.825 581.905 413.563 588.59C419.206 589.47 425.536 581.514 432.122 587.476C438.709 593.439 422.491 592.87 414.463 590.718C422.199 595.52 438.148 594.778 433.24 602.884C429.852 608.484 416.315 591.634 415.281 594.714C414.246 597.794 430.46 601.51 427.826 608.989Z"
		fill="#FFB793"
	/>
</svg>
