<svg
	fill="none"
	height="22"
	viewBox="0 0 436 22"
	width="436"
	xmlns="http://www.w3.org/2000/svg"
>
	<g clip-path="url(#clip0_150_39)">
		<g clip-path="url(#clip1_150_39)">
			<path
				d="M178.791 9.63166L176.454 12.192C173.863 15.0335 170.554 15.1062 167.92 12.3795L165.553 9.92937C162.943 7.22681 159.666 7.27236 157.083 10.0472L155.099 12.1773C152.451 15.0201 149.083 14.993 146.452 12.1076L144.193 9.63166C141.539 6.72101 138.138 6.72101 135.482 9.63166L133.269 12.0583C130.614 14.969 127.213 14.969 124.558 12.0583L122.344 9.63166C119.689 6.72101 116.289 6.72101 113.633 9.63166L111.42 12.0583C108.765 14.969 105.365 14.969 102.709 12.0583L100.576 9.7196C97.8792 6.76399 94.4188 6.81329 91.7522 9.84532L89.9933 11.8447C87.3267 14.8767 83.8656 14.9261 81.17 11.9705L79.0361 9.63166C76.3816 6.72101 72.9806 6.72101 70.3261 9.63166L68.112 12.0583C65.4572 14.969 62.0563 14.969 59.4008 12.0583L57.1877 9.63166C54.5322 6.72101 51.1314 6.72101 48.4765 9.63166L46.2627 12.0583C43.6079 14.969 40.2071 14.969 37.5523 12.0583L35.2933 9.58235C32.6382 6.6717 29.1241 6.72101 26.4696 9.63166L24.3358 11.9705C21.6401 14.9261 18.179 14.8767 15.5124 11.8447L13.7535 9.84532C11.0869 6.81329 7.6963 6.67604 5 9.63166L2.79635 12.0584C0.100722 15.014 -3.36036 14.9647 -6.02699 11.9326L-7.78585 9.93327M178.791 9.63166C181.446 6.72101 184.847 6.72101 187.501 9.63166M178.791 9.63166C181.487 6.67604 184.835 6.59963 187.501 9.63166M187.501 9.63166L189.715 12.0583M189.715 12.0583C192.37 14.969 195.771 14.969 198.425 12.0583M189.715 12.0583C192.382 15.0904 195.73 15.014 198.425 12.0583M198.425 12.0583L200.639 9.63166C203.294 6.72101 206.695 6.72101 209.351 9.63166L211.564 12.0583M211.564 12.0583C214.219 14.969 217.62 14.969 220.275 12.0583M211.564 12.0583C214.218 14.969 217.62 14.969 220.275 12.0583M220.275 12.0583L222.488 9.63166M222.488 9.63166C225.144 6.72101 230.533 6.72101 233.188 9.63166M222.488 9.63166C225.143 6.72101 230.532 6.72101 233.188 9.63166M233.188 9.63166L235.401 12.0583M235.401 12.0583C238.096 15.014 239.49 14.8767 242.156 11.8447M235.401 12.0583C238.056 14.969 239.501 14.7553 242.156 11.8447M242.156 11.8447L243.915 9.84532C246.582 6.81329 252.34 6.67604 255.036 9.63166M242.156 11.8447L244.112 9.84532C246.767 6.93467 252.382 6.72101 255.036 9.63166M255.036 9.63166L257.17 11.9705C259.866 14.9261 263.327 14.8767 265.993 11.8447L267.752 9.84532C270.419 6.81329 273.879 6.76399 276.576 9.7196L278.709 12.0583C281.365 14.969 284.765 14.969 287.42 12.0583L289.634 9.63166C292.289 6.72101 295.689 6.72101 298.344 9.63166L300.558 12.0583C303.213 14.969 306.614 14.969 309.269 12.0583L311.482 9.63166C314.138 6.72101 317.539 6.72101 320.193 9.63166L322.452 12.1076C325.083 14.993 328.451 15.0201 331.099 12.1773L333.083 10.0472C335.666 7.27236 338.943 7.22681 341.553 9.92937L343.92 12.3795C346.554 15.1062 349.863 15.0335 352.454 12.192L354.791 9.63166C357.446 6.72101 360.847 6.72101 363.501 9.63166L365.715 12.0583C368.37 14.969 371.771 14.969 374.425 12.0583L376.639 9.63166C379.294 6.72101 382.695 6.72101 385.351 9.63166L387.564 12.0583C390.219 14.969 393.62 14.969 396.275 12.0583L398.488 9.63166C401.144 6.72101 404.545 6.72101 407.199 9.63166L409.333 11.9705C412.029 14.9261 415.49 14.8767 418.156 11.8447L419.915 9.84532C422.582 6.81329 426.042 6.76399 428.739 9.7196L430.333 11.9705C433.029 14.9261 436.49 14.8767 439.156 11.8447L440.915 9.84532"
				stroke-linecap="round"
				stroke-width="8.4"
				stroke="#F14C4C"
			/>
		</g>
	</g>
	<defs>
		<clipPath>
			<rect width="436" height="22" fill="white" />
		</clipPath>
		<clipPath>
			<rect width="458" height="16" fill="white" transform="translate(-12 3)" />
		</clipPath>
	</defs>
</svg>
