<svg
	width="450"
	height="17"
	viewBox="0 0 450 17"
	fill="none"
	xmlns="http://www.w3.org/2000/svg"
>
	<path
		d="M182.791 7.13163L180.454 9.692C177.863 12.5335 174.554 12.6062 171.92 9.87943L169.553 7.42935C166.943 4.72678 163.666 4.77233 161.083 7.54714L159.099 9.67724C156.451 12.52 153.083 12.4929 150.452 9.60754L148.193 7.13163C145.539 4.22098 142.138 4.22098 139.482 7.13163L137.269 9.55831C134.614 12.469 131.213 12.469 128.558 9.55831L126.344 7.13163C123.689 4.22098 120.289 4.22098 117.634 7.13163L115.42 9.55831C112.765 12.469 109.365 12.469 106.709 9.55831L104.576 7.21958C101.879 4.26396 98.4188 4.31326 95.7522 7.34529L93.9934 9.34464C91.3267 12.3767 87.8656 12.426 85.17 9.47042L83.0362 7.13163C80.3817 4.22098 76.9806 4.22098 74.3261 7.13163L72.112 9.55831C69.4572 12.469 66.0564 12.469 63.4009 9.55831L61.1878 7.13163C58.5323 4.22098 55.1314 4.22098 52.4766 7.13163L50.2628 9.55831C47.6079 12.469 44.2071 12.469 41.5523 9.55831L39.2934 7.08232C36.6382 4.17167 33.1241 4.22098 30.4696 7.13163L28.3358 9.47043C25.6402 12.4261 22.1791 12.3767 19.5125 9.34464L17.7536 7.34529C15.087 4.31326 11.6963 4.17601 9.00004 7.13163L5 11.5M182.791 7.13163C185.446 4.22098 188.847 4.22098 191.501 7.13163M182.791 7.13163C185.487 4.17601 188.835 4.0996 191.501 7.13163M191.501 7.13163L193.715 9.55831M193.715 9.55831C196.37 12.469 199.771 12.469 202.425 9.55831M193.715 9.55831C196.382 12.5903 199.73 12.5139 202.425 9.55831M202.425 9.55831L204.639 7.13163C207.294 4.22098 210.695 4.22098 213.351 7.13163L215.564 9.55831M215.564 9.55831C218.219 12.469 221.62 12.469 224.275 9.55831M215.564 9.55831C218.218 12.469 221.62 12.469 224.275 9.55831M224.275 9.55831L226.488 7.13163M226.488 7.13163C229.144 4.22098 234.533 4.22098 237.188 7.13163M226.488 7.13163C229.143 4.22098 234.532 4.22098 237.188 7.13163M237.188 7.13163L239.401 9.5583M239.401 9.5583C242.097 12.5139 243.49 12.3767 246.156 9.34464M239.401 9.5583C242.056 12.469 243.501 12.2553 246.156 9.34464M246.156 9.34464L247.915 7.34529C250.582 4.31326 256.34 4.17601 259.036 7.13163M246.156 9.34464L248.112 7.34529C250.767 4.43464 256.382 4.22098 259.036 7.13163M259.036 7.13163L261.17 9.47042C263.866 12.426 267.327 12.3767 269.993 9.34464L271.752 7.34529C274.419 4.31326 277.879 4.26396 280.576 7.21958L282.709 9.5583C285.365 12.469 288.765 12.469 291.42 9.5583L293.634 7.13163C296.289 4.22098 299.689 4.22098 302.344 7.13163L304.558 9.5583C307.213 12.469 310.614 12.469 313.269 9.5583L315.482 7.13163C318.138 4.22098 321.539 4.22098 324.193 7.13163L326.452 9.60754C329.083 12.4929 332.451 12.52 335.099 9.67724L337.083 7.54714C339.666 4.77233 342.943 4.72678 345.553 7.42934L347.92 9.87943C350.554 12.6062 353.863 12.5335 356.454 9.692L358.791 7.13163C361.446 4.22098 364.847 4.22098 367.501 7.13163L369.715 9.5583C372.37 12.469 375.771 12.469 378.425 9.5583L380.64 7.13163C383.294 4.22098 386.695 4.22098 389.351 7.13163L391.564 9.5583C394.219 12.469 397.62 12.469 400.275 9.5583L402.488 7.13163C405.144 4.22098 408.545 4.22098 411.199 7.13163L413.333 9.47042C416.029 12.426 419.49 12.3767 422.156 9.34464L423.915 7.34529C426.582 4.31326 430.042 4.26396 432.739 7.21958L434.333 9.47042C437.029 12.426 440.49 12.3767 443.156 9.34464L444.915 7.34529"
		stroke="#F14C4C"
		stroke-width="8.4"
		stroke-linecap="round"
	/>
</svg>
