<svg
	width="1334"
	height="759"
	viewBox="0 0 1334 759"
	fill="none"
	xmlns="http://www.w3.org/2000/svg"
>
	<path
		d="M602.768 386.532C590.069 328.539 611.222 266.277 657.435 228.494C706.654 188.168 777.397 181.059 833.637 211.075C876.332 233.789 909.152 276.478 928.557 334.47C934.673 352.829 939.014 370.74 943.224 388.05C947.653 406.36 951.863 423.67 957.722 438.943C966.333 461.995 979.004 478.71 991.379 483.544C1003.55 488.422 1022.85 480.844 1031.17 468.124C1041.01 452.767 1040.36 427.763 1029.15 410.098C1024.69 403.112 1017.88 394.964 1010.82 386.66C1001.79 376.063 991.659 364.241 982.688 350.069C946.359 293.269 940.924 219.644 968.515 158.068C989.734 110.46 1029.45 70.7484 1082.91 43.1136C1126.63 20.7555 1171.77 9.61507 1214.32 0.0875823L1242.13 125.184C1207.78 132.916 1171.76 141.643 1141.8 157.004C1114.67 170.909 1094.74 189.944 1085.59 210.388C1075.71 232.251 1077.95 260.679 1090.77 280.925C1095.19 287.711 1101.72 295.503 1108.53 303.651C1117.89 314.804 1128.6 327.338 1138.03 342.666C1175.3 402.822 1175.53 481.36 1138.54 538.289C1096.82 602.331 1013.24 630.272 944.359 602.815C897.321 584.195 859.615 542.157 837.679 484.091C829.199 461.638 823.982 439.729 818.697 418.463C814.881 402.952 811.284 388.442 806.863 374.95C798.239 348.966 786.348 331.033 773.292 324.042C763.072 318.526 747.28 320.098 738.42 327.487C729.36 334.92 724.748 349.977 728 361L605.5 397.5C604.468 393.744 603.557 390.131 602.768 386.532Z"
		fill="#24B6BF"
	/>
	<path
		d="M731.081 372.053C743.78 430.046 722.627 492.308 676.414 530.091C627.195 570.417 556.452 577.526 500.212 547.51C457.517 524.796 424.697 482.107 405.292 424.115C399.176 405.756 394.835 387.845 390.625 370.535C386.196 352.225 381.986 334.915 376.127 319.642C367.517 296.59 354.845 279.875 342.47 275.041C330.295 270.162 310.998 277.741 302.676 290.461C292.837 305.818 293.492 330.822 304.695 348.487C309.159 355.473 315.973 363.621 323.03 371.925C332.057 382.522 342.19 394.344 351.161 408.516C387.49 465.316 392.925 538.941 365.334 600.517C344.115 648.125 304.402 687.837 250.937 715.471C207.214 737.829 162.083 748.97 119.532 758.497L91.7186 633.401C126.071 625.668 162.091 616.942 192.048 601.581C219.18 587.676 239.112 568.641 248.257 548.197C258.138 526.334 255.895 497.906 243.079 477.66C238.659 470.874 232.133 463.082 225.319 454.934C215.961 443.781 205.253 431.247 195.819 415.919C158.546 355.763 158.322 277.225 195.313 220.296C237.033 156.254 320.608 128.313 389.49 155.77C436.528 174.39 474.234 216.428 496.171 274.494C504.65 296.947 509.867 318.856 515.153 340.122C518.968 355.633 522.565 370.143 526.986 383.635C535.61 409.619 547.501 427.552 560.558 434.543C570.777 440.059 586.569 438.486 595.429 431.098C604.489 423.665 608.752 408.523 605.5 397.5L728 361C729.032 364.756 730.293 368.454 731.081 372.053Z"
		fill="#24B6BF"
	/>
</svg>
