<svg
	width="185"
	height="12"
	viewBox="0 0 185 12"
	fill="none"
	xmlns="http://www.w3.org/2000/svg"
>
	<path
		d="M-14.1263 7.03307L-12.545 5.29973C-10.6487 3.22069 -8.21955 3.2207 -6.32276 5.29973L-4.74199 7.03307C-2.8452 9.11212 -0.416018 9.11212 1.48029 7.03307L3.06178 5.29973C4.98771 3.18857 7.45944 3.22379 9.36418 5.38952L10.6205 6.81763C12.5252 8.98337 14.9974 9.01864 16.9229 6.90748L18.4471 5.23691C20.3431 3.15788 22.8532 3.12265 24.7497 5.20169L25.5565 6.08597L26.3633 6.97025C28.2596 9.0493 30.6887 9.0493 32.585 6.97025L34.1663 5.23691C36.0626 3.15787 38.4918 3.15788 40.3886 5.23691L41.9694 6.97025C43.8662 9.0493 46.2953 9.0493 48.1916 6.97025L49.7731 5.23691C51.6692 3.15787 54.0986 3.15788 55.9946 5.23691L57.5188 6.90748C59.4442 9.01864 61.9164 8.98337 63.8212 6.81763L65.0775 5.38952C66.9822 3.22379 69.454 3.18857 71.3799 5.29973L72.9036 6.97025C74.8006 9.0493 77.2294 9.0493 79.126 6.97025L80.707 5.23691C82.6035 3.15787 85.0324 3.15788 86.9289 5.23691L88.5104 6.97025C90.4065 9.0493 92.8358 9.0493 94.7324 6.97025L96.3134 5.23691C98.2099 3.15787 100.639 3.15788 102.535 5.23691L104.149 7.00542C106.028 9.06641 108.434 9.08577 110.325 7.0552L111.742 5.53371C113.588 3.55169 115.928 3.51916 117.792 5.44956L119.483 7.19963C121.364 9.14729 123.728 9.0954 125.579 7.06575L127.248 5.23691C129.144 3.15787 131.574 3.15788 133.47 5.23691L135.051 6.97025C136.947 9.0493 139.377 9.0493 141.273 6.97025L142.854 5.23691C144.75 3.15787 147.18 3.15788 149.077 5.23691L150.657 6.97025C152.554 9.0493 154.983 9.0493 156.879 6.97025L158.461 5.23691C160.357 3.15787 162.786 3.15788 164.682 5.23691L166.207 6.90748C168.132 9.01864 170.604 8.98337 172.509 6.81763L173.765 5.38952C175.67 3.22379 178.151 3.12575 180.077 5.23691L181.657 6.97025C183.554 9.04931 185.983 9.04931 187.879 6.97025L189.461 5.23691"
		stroke="#F14C4C"
		stroke-width="6"
	/>
</svg>
