<svg
	width="28"
	height="33"
	viewBox="0 0 28 33"
	fill="none"
	xmlns="http://www.w3.org/2000/svg"
>
	<path
		d="M15.6797 0.75V0.820312C16.1016 0.820312 16.5938 0.820312 17.0156 0.820312C17.5078 0.890625 17.9297 1.24219 18 1.73438C18.1406 2.22656 17.9297 2.71875 17.5078 2.92969C13.7109 5.03906 11.1797 9.11719 11.1797 13.6875C11.1797 20.5781 16.7344 26.0625 23.5547 26.0625C24.2578 26.0625 24.9609 26.0625 25.6641 25.9219C26.1562 25.8516 26.6484 26.0625 26.8594 26.4844C27.0703 26.9766 27 27.4688 26.6484 27.8203C23.8359 30.5625 19.9688 32.25 15.6797 32.25C7.03125 32.25 0 25.2188 0 16.5C0 7.85156 7.03125 0.75 15.6797 0.75Z"
		fill="#BCDFE9"
	/>
</svg>
