<svg
	width="37"
	height="37"
	viewBox="0 0 37 37"
	fill="none"
	xmlns="http://www.w3.org/2000/svg"
>
	<path
		d="M26.3828 0.640625C26.7344 0.78125 27.0156 1.0625 27.0859 1.48438L28.4922 9.00781L36.0156 10.4141C36.4375 10.4844 36.7188 10.7656 36.8594 11.1172C37 11.4688 37 11.8906 36.7891 12.1719L32.3594 18.5L36.7891 24.8984C37 25.1797 37 25.6016 36.8594 25.9531C36.7188 26.3047 36.4375 26.5859 36.0156 26.6562L28.4922 27.9922L27.0859 35.5859C27.0156 36.0078 26.7344 36.2891 26.3828 36.4297C26.0312 36.5703 25.6094 36.5703 25.3281 36.3594L19 31.9297L12.6016 36.3594C12.3203 36.5703 11.8984 36.5703 11.5469 36.4297C11.1953 36.2891 10.9141 36.0078 10.8438 35.5859L9.50781 27.9922L1.91406 26.6562C1.49219 26.5859 1.21094 26.3047 1.07031 25.9531C0.929688 25.6016 0.929688 25.1797 1.14062 24.8984L5.57031 18.5L1.14062 12.1719C0.929688 11.8906 0.929688 11.4688 1.07031 11.1172C1.21094 10.7656 1.49219 10.4844 1.91406 10.4141L9.50781 9.00781L10.8438 1.48438C10.9141 1.0625 11.1953 0.78125 11.5469 0.640625C11.8984 0.5 12.3203 0.5 12.6016 0.710938L19 5.14062L25.3281 0.710938C25.6094 0.5 26.0312 0.5 26.3828 0.640625ZM12.25 18.5C12.25 16.1094 13.5156 13.9297 15.625 12.6641C17.6641 11.4688 20.2656 11.4688 22.375 12.6641C24.4141 13.9297 25.75 16.1094 25.75 18.5C25.75 20.9609 24.4141 23.1406 22.375 24.4062C20.2656 25.6016 17.6641 25.6016 15.625 24.4062C13.5156 23.1406 12.25 20.9609 12.25 18.5ZM28 18.5C28 15.3359 26.2422 12.3828 23.5 10.7656C20.6875 9.14844 17.2422 9.14844 14.5 10.7656C11.6875 12.3828 10 15.3359 10 18.5C10 21.7344 11.6875 24.6875 14.5 26.3047C17.2422 27.9219 20.6875 27.9219 23.5 26.3047C26.2422 24.6875 28 21.7344 28 18.5Z"
		fill="#116D9A"
	/>
</svg>
