<svg
	width="1658.5"
	height="195"
	viewBox="0 0 1658.5 195"
	fill="none"
	xmlns="http://www.w3.org/2000/svg"
>
	<path
		d="M1761.33 78.4975L1735.26 47.3909C1716.54 26.8705 1692.51 27.2128 1674 48.2637L1661.79 62.1449C1643.28 83.1959 1619.25 83.5387 1600.53 63.0182L1585.72 46.7803C1567.29 26.5721 1543.67 26.5721 1525.24 46.7803L1509.87 63.6284C1491.44 83.8368 1467.83 83.8368 1449.39 63.6284L1434.03 46.7803C1415.59 26.5721 1391.97 26.5721 1373.54 46.7803L1358.17 63.6284C1339.74 83.8368 1316.13 83.8368 1297.7 63.6284L1282.33 46.7803C1263.9 26.5721 1240.28 26.5721 1221.85 46.7803L1205.63 64.5566C1187.64 84.2848 1164.66 84.7892 1146.38 65.8579L1129.94 48.8473C1111.82 30.0838 1089.07 30.4 1071.13 49.6652L1057.36 64.4541C1038.98 84.1912 1015.6 84.0031 997.327 63.9702L981.645 46.7803C963.216 26.5721 939.603 26.5721 921.168 46.7803L905.801 63.6284C887.366 83.8368 863.753 83.8368 845.323 63.6284L829.951 46.7803C811.517 26.5721 787.908 26.5721 769.474 46.7803L754.107 63.6284C735.672 83.8368 712.064 83.8368 693.625 63.6284L678.814 47.3909C660.094 26.8705 636.069 27.2128 617.555 48.2637L605.344 62.1449C586.83 83.1959 562.8 83.5387 544.084 63.0182L529.27 46.7803C510.84 26.5721 487.227 26.5721 468.797 46.7803L453.425 63.6284C434.993 83.8368 411.381 83.8368 392.944 63.6284L377.579 46.7803C359.142 26.5721 335.531 26.5721 317.099 46.7803L301.728 63.6284C283.296 83.8368 259.685 83.8368 241.253 63.6284L233.411 55.0332L225.57 46.438C207.135 26.2298 182.737 26.5721 164.308 46.7803L149.493 63.0182C130.777 83.5387 106.747 83.1959 88.2335 62.145L76.0219 48.2637C57.5079 27.2128 33.4827 26.8705 14.7626 47.3909L-11.3094 78.4975"
		stroke="#06213C"
		stroke-width="15.1875"
		stroke-linecap="round"
	/>
	<path
		d="M1761.33 119.403L1735.26 88.2959C1716.54 67.7755 1692.51 68.1178 1674 89.1687L1661.79 103.05C1643.28 124.101 1619.25 124.444 1600.53 103.923L1585.72 87.6853C1567.29 67.4771 1543.67 67.4771 1525.24 87.6853L1509.87 104.533C1491.44 124.742 1467.83 124.742 1449.39 104.533L1434.03 87.6853C1415.59 67.4771 1391.97 67.4771 1373.54 87.6853L1358.17 104.533C1339.74 124.742 1316.13 124.742 1297.7 104.533L1282.33 87.6853C1263.9 67.4771 1240.28 67.4771 1221.85 87.6853L1205.63 105.462C1187.64 125.19 1164.66 125.694 1146.38 106.763L1129.94 89.7523C1111.82 70.9888 1089.07 71.305 1071.13 90.5702L1057.36 105.359C1038.98 125.096 1015.6 124.908 997.327 104.875L981.645 87.6853C963.216 67.4771 939.603 67.4771 921.168 87.6853L905.801 104.533C887.366 124.742 863.753 124.742 845.323 104.533L829.951 87.6853C811.517 67.4771 787.908 67.4771 769.474 87.6853L754.107 104.533C735.672 124.742 712.064 124.742 693.625 104.533L678.814 88.2959C660.094 67.7755 636.069 68.1178 617.555 89.1687L605.344 103.05C586.83 124.101 562.8 124.444 544.084 103.923L529.27 87.6853C510.84 67.4771 487.227 67.4771 468.797 87.6853L453.425 104.533C434.993 124.742 411.381 124.742 392.944 104.533L377.579 87.6853C359.142 67.4771 335.531 67.4771 317.099 87.6853L301.728 104.533C283.296 124.742 259.685 124.742 241.253 104.533L233.411 95.9382L225.57 87.343C207.135 67.1347 182.737 67.4771 164.308 87.6853L149.493 103.923C130.777 124.444 106.747 124.101 88.2335 103.05L76.0219 89.1687C57.5079 68.1177 33.4827 67.7755 14.7626 88.2959L-11.3094 119.403"
		stroke="#06213C"
		stroke-width="15.1875"
		stroke-linecap="round"
	/>
	<path
		d="M1761.33 160.308L1735.26 129.201C1716.54 108.68 1692.51 109.023 1674 130.074L1661.79 143.955C1643.28 165.006 1619.25 165.349 1600.53 144.828L1585.72 128.59C1567.29 108.382 1543.67 108.382 1525.24 128.59L1509.87 145.438C1491.44 165.647 1467.83 165.647 1449.39 145.438L1434.03 128.59C1415.59 108.382 1391.97 108.382 1373.54 128.59L1358.17 145.438C1339.74 165.647 1316.13 165.647 1297.7 145.438L1282.33 128.59C1263.9 108.382 1240.28 108.382 1221.85 128.59L1205.63 146.367C1187.64 166.095 1164.66 166.599 1146.38 147.668L1129.94 130.657C1111.82 111.894 1089.07 112.21 1071.13 131.475L1057.36 146.264C1038.98 166.001 1015.6 165.813 997.327 145.78L981.645 128.59C963.216 108.382 939.603 108.382 921.168 128.59L905.801 145.438C887.366 165.647 863.753 165.647 845.323 145.438L829.951 128.59C811.517 108.382 787.908 108.382 769.474 128.59L754.107 145.438C735.672 165.647 712.064 165.647 693.625 145.438L678.814 129.201C660.094 108.68 636.069 109.023 617.555 130.074L605.344 143.955C586.83 165.006 562.8 165.349 544.084 144.828L529.27 128.59C510.84 108.382 487.227 108.382 468.797 128.59L453.425 145.438C434.993 165.647 411.381 165.647 392.944 145.438L377.579 128.59C359.142 108.382 335.531 108.382 317.099 128.59L301.728 145.438C283.296 165.647 259.685 165.647 241.253 145.438L233.411 136.843L225.57 128.248C207.135 108.04 182.737 108.382 164.308 128.59L149.493 144.828C130.777 165.349 106.747 165.006 88.2335 143.955L76.0219 130.074C57.5079 109.023 33.4827 108.68 14.7626 129.201L-11.3094 160.308"
		stroke="#06213C"
		stroke-width="15.1875"
		stroke-linecap="round"
	/>
</svg>
