<svg
  width="588"
  height="445"
  viewBox="0 0 588 445"
  fill="none"
  xmlns="http://www.w3.org/2000/svg"
>
  <path
    d="M400.628 120.223C400.628 120.223 409.291 78.4294 373.066 39.5044C336.841 0.579444 300.447 -2.12056 293.191 1.02944C285.934 4.23569 288.016 10.4232 294.091 18.1857C300.166 25.9482 322.047 49.4607 330.203 75.3919C338.303 101.379 345.897 112.011 363.503 118.311C381.109 124.611 395.678 136.873 400.628 120.223Z"
    fill="#D1E0AD"
  />
  <path
    d="M182.434 251.904C182.434 251.904 185.247 309.223 128.941 353.436C72.6345 397.648 23.8095 393.598 14.8095 387.861C5.80952 382.123 9.85952 374.304 19.5908 365.248C29.322 356.192 63.297 329.529 79.497 296.736C95.697 263.942 107.96 251.398 132.71 246.673C157.46 241.948 179.341 228.729 182.434 251.848V251.904Z"
    fill="#D1E0AD"
  />
  <path
    d="M26.1721 378.129C26.1721 378.129 24.5408 364.911 30.9533 362.098C37.3658 359.286 51.7658 355.798 54.4658 359.961C57.1658 364.123 62.8471 385.554 57.9533 385.554C53.0596 385.554 27.8033 383.136 26.1721 378.129Z"
    fill="#8C9962"
  />
  <path
    d="M56.9409 338.248C56.9409 338.248 58.5159 350.792 62.0034 351.467C65.4909 352.142 82.9284 353.492 85.9659 346.461C89.0034 339.429 82.5909 324.973 76.5159 323.904C70.3847 322.836 55.9284 334.761 56.9972 338.192L56.9409 338.248Z"
    fill="#8C9962"
  />
  <path
    d="M66.0534 358.836C66.0534 358.836 61.6097 367.667 69.0909 369.411C76.5722 371.154 89.0034 374.979 91.3097 369.523C93.6159 364.123 85.5722 359.004 83.3784 358.104C81.1847 357.204 68.4159 351.748 66.0534 358.836Z"
    fill="#8C9962"
  />
  <path
    d="M86.2471 314.679C86.2471 314.679 76.6846 309.954 83.4909 304.273C90.2971 298.592 98.6221 292.911 101.491 295.667C104.416 298.423 107.622 306.073 101.66 310.348C95.6971 314.623 86.9221 315.017 86.1909 314.623L86.2471 314.679Z"
    fill="#8C9962"
  />
  <path
    d="M99.1846 355.179C99.1846 355.179 89.6221 350.454 96.4284 344.773C103.235 339.092 111.56 333.411 114.428 336.167C117.353 338.923 120.56 346.573 114.597 350.848C108.635 355.123 99.8596 355.517 99.1284 355.123L99.1846 355.179Z"
    fill="#8C9962"
  />
  <path
    d="M102.672 326.942C102.672 326.942 93.1097 322.217 99.9159 316.536C106.722 310.854 115.047 305.173 117.916 307.929C120.785 310.686 124.047 318.336 118.085 322.611C112.122 326.886 103.347 327.279 102.616 326.886L102.672 326.942Z"
    fill="#8C9962"
  />
  <path
    d="M62.2844 210.729C109.197 193.404 142.272 216.017 142.272 216.017C154.928 226.311 139.066 234.467 127.197 247.517C115.328 260.511 103.403 263.211 77.9219 260.904C52.4969 258.542 24.2031 269.004 15.2594 271.479C6.31565 273.954 0.184398 273.504 0.0718975 266.079C-0.0406025 258.598 15.4282 228.111 62.2844 210.729Z"
    fill="#A6B772"
  />
  <path
    d="M387.578 105.542C387.578 105.542 440.622 47.9982 496.478 41.1357C552.278 34.2732 572.472 66.8982 581.81 81.9169C591.091 96.8794 588.278 103.123 583.441 104.473C578.603 105.823 573.484 107.173 573.484 107.173C573.484 107.173 561.053 130.461 548.622 136.311C536.191 142.161 469.028 156.223 463.291 160.611C457.553 164.998 459.634 224.623 374.472 282.842C289.253 341.061 175.853 330.936 137.716 303.261C99.5783 275.586 95.4158 250.217 95.4158 250.217L387.635 105.598L387.578 105.542Z"
    fill="#D1E0AD"
  />
  <path
    d="M278.678 300.448C278.678 300.448 346.797 282.448 386.959 233.454C427.122 184.517 420.034 154.311 409.684 120.111C399.278 85.8543 390.334 73.7043 345.278 62.4543C300.278 51.1481 218.209 67.6856 162.803 88.4418C107.397 109.198 81.7469 170.904 78.3157 198.973C74.8844 227.098 91.0844 267.992 117.128 281.942C143.172 295.892 220.853 317.154 278.622 300.392L278.678 300.448Z"
    fill="#895A42"
  />
  <path
    d="M79.2156 219.392L102.616 206.511C104.866 209.267 113.078 216.636 123.259 224.792L101.997 270.354L103.628 271.142L124.722 225.973C139.628 237.842 158.247 250.892 168.541 253.817C169.834 254.154 171.297 254.548 172.872 254.886L164.547 298.479L166.347 298.817L174.672 255.223C178.834 256.011 183.784 256.742 189.353 257.304C205.328 258.992 225.916 259.611 244.422 258.261L251.847 305.623L253.647 305.342L246.222 258.092C254.209 257.473 261.747 256.404 268.328 254.942C281.884 251.904 298.084 242.286 311.753 232.779L340.609 272.998L342.072 271.929L313.216 231.767C328.628 220.854 340.441 210.336 340.666 210.111C340.778 209.998 352.647 199.536 362.716 187.611C363.334 186.879 363.953 186.036 364.572 185.079L403.497 210.167L404.509 208.648L365.528 183.504C374.191 168.486 381.616 134.792 383.134 127.704L413.003 133.048L413.341 131.248L383.416 125.904C383.697 117.861 378.016 75.1106 377.734 73.1981L375.934 73.4231C377.622 86.1356 381.784 118.704 381.616 125.454C374.022 123.542 339.372 114.936 334.253 114.092C329.697 106.723 316.366 85.5731 311.697 81.5231L326.041 59.8106L324.522 58.7981L310.066 80.7356C303.991 79.5543 264.841 74.2106 257.978 75.1668L250.497 64.3106L248.978 65.3231L256.403 76.0669C253.816 79.3294 248.191 92.0981 244.872 99.9731C242.847 104.754 236.884 118.986 235.816 123.823C233.003 122.979 224.622 120.561 216.072 118.311C199.366 113.867 194.866 113.473 193.347 113.754L166.122 86.8106L164.828 88.1043L191.772 114.767C189.409 117.242 183.897 124.498 179.566 130.798C173.266 139.854 169.834 145.873 169.272 148.742C163.478 148.292 138.953 146.717 132.597 149.473L115.834 121.967L114.259 122.923L131.078 150.542C125.903 155.379 112.684 176.361 111.391 181.817L98.4531 185.586C96.2031 176.361 93.7281 165.898 92.0406 158.754L90.2968 159.148C90.6906 160.779 99.2968 198.017 101.772 204.992L78.3718 217.873L79.2718 219.448L79.2156 219.392ZM113.078 182.548C113.134 179.342 127.928 155.154 132.766 151.442C135.916 149.023 156.109 149.586 169.384 150.598C171.072 155.886 182.434 173.492 185.191 177.711C184.628 178.161 183.897 178.723 183.053 179.398C170.172 189.523 156.953 200.379 152.847 207.242V206.117C141.259 205.892 122.303 205.329 120.278 204.542C118.984 203.023 113.022 186.261 113.078 182.548ZM332.453 114.711C330.991 116.229 327.897 121.067 319.853 136.761C314.847 146.436 310.066 156.223 308.941 158.529C303.484 158.529 260.003 158.529 255.728 157.798C252.072 157.179 238.628 128.717 237.391 124.723C237.391 120.842 255.559 78.5981 257.978 76.9106C260.959 75.6731 306.072 81.3544 310.234 82.5919C312.259 83.3794 323.172 99.5231 332.509 114.654L332.453 114.711ZM361.309 186.429C353.716 195.429 345.053 203.586 341.341 207.017L310.516 159.429C318.391 143.342 331.328 117.917 333.859 115.892C336.784 116.229 363.278 122.754 381.334 127.254C379.703 135.017 370.816 175.123 361.309 186.373V186.429ZM273.391 251.623C265.459 249.429 245.266 243.129 242.791 239.304C239.753 234.579 233.284 198.748 233.903 192.898C234.353 188.398 249.653 167.811 255.953 159.767C262.647 160.442 303.709 160.442 308.997 160.442L339.991 208.254C339.653 208.536 339.484 208.704 339.428 208.761C339.034 209.098 301.966 242.229 273.391 251.679V251.623ZM267.934 253.198C257.191 255.617 243.859 256.798 230.303 257.136L242.172 241.273C246.728 245.436 263.153 250.611 270.241 252.636C269.453 252.861 268.722 253.029 267.991 253.198H267.934ZM152.003 243.411C152.059 239.754 152.622 217.479 153.353 210.673C154.084 203.867 176.697 186.654 184.178 180.861C185.416 179.904 186.372 179.173 186.991 178.667C187.609 178.161 191.266 177.036 210.503 184.911C220.966 189.186 230.978 194.079 231.034 194.079L231.822 192.448C231.709 192.448 221.697 187.498 211.178 183.223C194.472 176.361 188.903 175.967 186.709 176.754C182.153 169.723 171.578 152.961 170.959 149.642C170.284 145.873 190.759 117.636 193.572 115.611C195.709 114.767 216.803 120.167 235.759 125.792C237.334 129.729 248.472 154.817 254.153 159.092C250.047 164.436 232.666 187.161 232.103 192.729C231.484 198.748 237.559 233.004 240.934 239.754L227.941 257.192C204.259 257.529 180.353 255.279 169.047 252.073C164.434 250.779 158.303 247.461 152.003 243.467V243.411ZM130.178 227.942C123.597 222.879 117.747 218.042 113.247 214.161L120.053 206.342C120.728 206.511 121.684 206.623 122.866 206.736C129.503 207.411 143.284 207.804 152.453 207.973C151.947 208.929 151.666 209.773 151.553 210.504C150.878 216.973 150.372 236.492 150.203 242.286C142.778 237.448 135.353 231.936 130.178 227.942ZM103.684 204.936C102.953 203.473 101.041 196.161 98.8468 187.329L111.334 183.729C112.066 188.623 116.453 201.786 118.534 205.273L111.841 212.979C107.059 208.817 104.078 205.836 103.684 204.992V204.936Z"
    fill="#C9947D"
  />
  <path
    d="M571.066 106.273C570.841 106.498 570.672 106.611 570.447 106.723C570.616 106.667 570.166 106.78 570.109 106.836C570.053 106.892 569.941 106.836 569.828 106.892C570.053 106.892 569.884 106.892 569.772 106.892C568.759 106.892 568.534 106.892 567.578 106.611C565.778 106.161 563.978 105.542 562.066 105.542C560.153 105.542 558.128 106.554 556.722 108.129C555.316 109.704 555.372 109.761 554.866 110.154C553.966 110.829 552.897 110.661 551.828 110.548C550.759 110.436 549.241 110.323 547.891 110.548C546.541 110.773 545.528 111.223 544.403 111.729C542.209 112.742 540.128 114.036 537.878 114.936C533.266 116.736 528.372 117.354 523.478 117.298C518.584 117.242 512.228 116.398 506.659 115.498C501.091 114.598 504.859 115.723 504.578 116.68C504.297 117.636 504.859 118.592 505.759 118.761C515.941 120.392 526.797 122.079 536.866 118.873C539.397 118.086 541.703 116.904 544.009 115.667C546.091 114.598 548.228 113.529 550.591 113.698C552.953 113.867 553.347 114.092 554.809 113.811C556.272 113.529 557.003 112.854 557.847 112.011C558.691 111.167 559.197 110.436 559.928 109.704C560.209 109.423 560.434 109.255 560.884 109.086C560.659 109.142 561.334 108.917 560.884 109.086C561.109 109.03 561.109 109.029 561.166 108.973C561.222 108.917 561.334 108.973 561.391 108.973C561.841 108.861 561.109 108.973 561.559 108.973C562.684 108.973 563.078 108.973 564.203 109.254C565.328 109.536 566.172 109.761 567.184 109.986C569.434 110.436 571.741 110.379 573.484 108.692C575.059 107.173 572.697 104.811 571.122 106.329L571.066 106.273Z"
    fill="#8C9962"
  />
  <path
    d="M522.803 87.1483C527.432 87.1483 531.184 83.3958 531.184 78.767C531.184 74.1382 527.432 70.3857 522.803 70.3857C518.174 70.3857 514.422 74.1382 514.422 78.767C514.422 83.3958 518.174 87.1483 522.803 87.1483Z"
    fill="#274238"
  />
  <path
    d="M468.297 51.4856C468.297 51.4856 479.828 58.7981 477.466 64.7606C475.103 70.7231 467.678 82.4231 462.447 81.5231C457.272 80.6794 436.516 70.8356 439.947 67.6294C443.378 64.4231 463.178 49.4044 468.241 51.4856H468.297Z"
    fill="#8C9962"
  />
  <path
    d="M465.372 86.5295C465.372 86.5295 454.459 79.6107 451.422 81.467C448.441 83.3232 434.997 93.8982 438.372 100.311C441.747 106.723 457.553 111.673 462.728 108.354C467.903 105.036 468.747 87.992 465.372 86.5295Z"
    fill="#8C9962"
  />
  <path
    d="M442.759 79.4418C442.759 79.4418 438.991 70.9481 432.353 74.7731C425.716 78.5981 413.903 84.3356 416.491 89.2856C419.078 94.2356 428.809 92.1543 431.059 91.3106C433.309 90.4668 446.584 85.5168 442.759 79.4981V79.4418Z"
    fill="#8C9962"
  />
  <path
    d="M477.747 78.2045C477.747 78.2045 488.209 74.942 487.816 82.9857C487.422 91.0295 486.016 100.086 481.797 100.254C477.578 100.423 469.309 97.667 470.153 91.0857C470.997 84.5045 476.903 78.4295 477.747 78.2045Z"
    fill="#8C9962"
  />
  <path
    d="M422.228 103.517C422.228 103.517 432.691 100.254 432.297 108.298C431.903 116.342 430.497 125.398 426.278 125.567C422.059 125.736 413.791 122.979 414.634 116.398C415.478 109.817 421.384 103.742 422.228 103.517Z"
    fill="#8C9962"
  />
  <path
    d="M441.859 123.654C441.859 123.654 452.322 120.392 451.928 128.436C451.534 136.479 450.128 145.536 445.909 145.704C441.691 145.873 433.422 143.117 434.266 136.536C435.109 129.954 441.016 123.879 441.859 123.654Z"
    fill="#8C9962"
  />
  <path
    d="M436.009 200.379C436.009 200.379 487.084 240.373 483.203 321.148C479.322 401.979 439.778 440.736 428.191 444.167C416.603 447.598 412.947 438.373 412.441 423.354C411.934 408.336 414.241 359.623 398.209 321.486C382.178 283.404 380.547 263.604 394.778 238.967C409.066 214.329 413.959 185.811 436.009 200.323V200.379Z"
    fill="#D1E0AD"
  />
  <path
    d="M428.247 427.236C428.247 427.236 415.703 418.854 418.066 411.317C420.428 403.779 428.078 388.873 433.647 389.661C439.216 390.448 461.659 401.417 458.059 405.636C454.459 409.798 433.703 429.598 428.191 427.292L428.247 427.236Z"
    fill="#8C9962"
  />
  <path
    d="M416.884 371.492C416.884 371.492 428.753 379.479 431.903 376.948C435.053 374.417 449.116 360.579 445.347 352.817C441.578 345.054 424.534 339.823 419.078 344.267C413.622 348.711 413.172 369.917 416.828 371.492H416.884Z"
    fill="#8C9962"
  />
  <path
    d="M445.459 292.461C445.459 292.461 457.328 300.448 460.478 297.917C463.628 295.442 477.691 281.548 473.922 273.786C470.153 266.023 453.109 260.792 447.653 265.236C442.197 269.679 441.747 290.886 445.403 292.461H445.459Z"
    fill="#8C9962"
  />
  <path
    d="M441.241 378.917C441.241 378.917 445.516 389.267 452.491 384.148C459.466 379.029 471.953 371.211 469.084 365.248C466.159 359.286 455.866 362.379 453.447 363.561C451.028 364.742 436.966 371.661 441.297 378.917H441.241Z"
    fill="#8C9962"
  />
  <path
    d="M407.097 286.723C407.097 286.723 411.372 297.073 418.347 291.954C425.322 286.836 437.809 279.017 434.941 273.055C432.072 267.092 421.722 270.186 419.303 271.367C416.884 272.548 402.822 279.467 407.153 286.723H407.097Z"
    fill="#8C9962"
  />
  <path
    d="M418.515 328.967C418.515 328.967 407.434 333.636 407.603 323.623C407.828 313.611 409.065 302.304 413.565 301.854C418.065 301.404 427.009 304.329 426.278 312.598C425.547 320.867 419.359 328.686 418.515 328.967Z"
    fill="#8C9962"
  />
  <path
    d="M462.616 347.923C462.616 347.923 451.534 352.592 451.703 342.579C451.928 332.567 453.166 321.261 457.666 320.811C462.166 320.361 471.109 323.286 470.378 331.554C469.647 339.823 463.459 347.642 462.616 347.923Z"
    fill="#8C9962"
  />
  <path
    d="M441.072 324.017C441.072 324.017 429.991 328.686 430.159 318.673C430.384 308.661 431.622 297.354 436.122 296.904C440.622 296.454 449.566 299.379 448.834 307.648C448.103 315.917 441.916 323.736 441.072 324.017Z"
    fill="#8C9962"
  />
</svg>
