<svg
	width="46"
	height="39"
	viewBox="0 0 46 39"
	fill="none"
	xmlns="http://www.w3.org/2000/svg"
>
	<path
		d="M42.0043 10.4074C41.4043 2.75741 33.4044 8.2574 25.0044 17.4574C22.0544 13.6574 39.0544 0.607422 26.7544 0.607422C21.6544 0.607422 22.4544 8.60742 20.5044 18.6074C17.3544 15.2574 22.4544 6.85742 14.6544 6.85742C6.80438 6.85742 9.55437 10.7574 18.5544 20.5574C11.1044 14.5074 2.90436 17.4074 3.70436 20.5574C4.50436 23.7074 9.55437 22.5074 18.5544 24.0574C16.6044 25.8074 -0.045625 22.1074 0.154375 29.9074C0.354375 37.7574 11.1044 31.4574 20.5044 25.8074C21.3044 27.5574 12.6544 38.3074 23.6544 38.3074C30.1044 38.3074 25.0044 32.8074 23.6544 25.8074C29.1544 26.4074 33.0544 35.4074 40.6544 31.4574C48.3044 27.5574 33.0044 24.0074 25.0044 24.0074C33.4044 21.4574 48.1044 26.1574 45.5544 17.3574C43.8044 11.3074 26.9544 23.6074 26.7544 20.5074C26.5544 17.4574 42.6043 18.0074 42.0043 10.4074Z"
		fill="#F8FF93"
	/>
</svg>
